<!DOCTYPE svg PUBLIC "-//W3C//DTD SVG 1.1//EN" "http://www.w3.org/Graphics/SVG/1.1/DTD/svg11.dtd">
<!-- Uploaded to: SVG Repo, www.svgrepo.com, Transformed by: SVG Repo Mixer Tools -->
<svg width="64px" height="64px" viewBox="-1.7 -1.7 20.40 20.40" xmlns="http://www.w3.org/2000/svg" fill="#3276c3" stroke="#3276c3" transform="rotate(180)">
<g id="SVGRepo_bgCarrier" stroke-width="0"/>
<g id="SVGRepo_tracerCarrier" stroke-linecap="round" stroke-linejoin="round" stroke="#CCCCCC" stroke-width="0.10200000000000001"/>
<g id="SVGRepo_iconCarrier"> <g id="add-card-16px" transform="translate(0.5 0.5)"> <path id="Subtração_7" data-name="Subtração 7" d="M8,12H.5a.5.5,0,0,1-.5-.5V.5A.5.5,0,0,1,.5,0h15a.5.5,0,0,1,.5.5V4H15V1H1V11H8v1Z" transform="translate(0 0)" stroke="rgba(0,0,0,0)" stroke-miterlimit="10" stroke-width="1"/> <path id="Caminho_179" data-name="Caminho 179" d="M38,12.5a.5.5,0,0,1-.5.5H35v2.5a.5.5,0,0,1-1,0V13H31.5a.5.5,0,0,1,0-1H34V9.5a.5.5,0,0,1,1,0V12h2.5A.5.5,0,0,1,38,12.5Z" transform="translate(-22 -4)"/> <path id="Caminho_272" data-name="Caminho 272" d="M976.148,357.487h2.005" transform="translate(-970.156 -345.987)" fill="none" stroke="#3276c3" stroke-linecap="round" stroke-width="1"/> <path id="Caminho_273" data-name="Caminho 273" d="M976.148,357.487h2.005" transform="translate(372.987 -974.148) rotate(90)" fill="none" stroke="#3276c3" stroke-linecap="round" stroke-width="1"/> <path id="Caminho_269" data-name="Caminho 269" d="M43.606,3.483h-5.07" transform="translate(-36 -0.483)" fill="none" stroke="#3276c3" stroke-linecap="round" stroke-width="1"/> <path id="Caminho_270" data-name="Caminho 270" d="M42.673,3.483H38.536" transform="translate(-36 2.517)" fill="none" stroke="#3276c3" stroke-linecap="round" stroke-width="1"/> <path id="Caminho_271" data-name="Caminho 271" d="M41.673,3.483H38.536" transform="translate(-36 5.517)" fill="none" stroke="#3276c3" stroke-linecap="round" stroke-width="1"/> </g> </g>
</svg>