<?xml version="1.0" encoding="UTF-8" standalone="no"?>
<!-- Created with Inkscape (http://www.inkscape.org/) -->

<svg
   width="131.80875mm"
   height="140.24164mm"
   viewBox="0 0 131.80875 140.24164"
   version="1.1"
   id="svg8"
   sodipodi:docname="by-trans-classic.svg"
   inkscape:version="1.4.1 (93de688d07, 2025-03-30)"
   xml:space="preserve"
   xmlns:inkscape="http://www.inkscape.org/namespaces/inkscape"
   xmlns:sodipodi="http://sodipodi.sourceforge.net/DTD/sodipodi-0.dtd"
   xmlns:xlink="http://www.w3.org/1999/xlink"
   xmlns="http://www.w3.org/2000/svg"
   xmlns:svg="http://www.w3.org/2000/svg"
   xmlns:rdf="http://www.w3.org/1999/02/22-rdf-syntax-ns#"
   xmlns:cc="http://creativecommons.org/ns#"
   xmlns:dc="http://purl.org/dc/elements/1.1/"><defs
   id="defs2"><linearGradient
     id="linearGradient3"
     inkscape:collect="always"><stop
       style="stop-color:#ca1920;stop-opacity:1;"
       offset="0"
       id="stop3" /><stop
       style="stop-color:#037b30;stop-opacity:1;"
       offset="1"
       id="stop4" /></linearGradient><linearGradient
     id="linearGradient9-1"><stop
       style="stop-color:#ce1720;stop-opacity:1;"
       offset="0"
       id="stop14" /><stop
       style="stop-color:#ce1720;stop-opacity:0;"
       offset="1"
       id="stop15" /></linearGradient><linearGradient
     id="linearGradient9"><stop
       style="stop-color:#ce1720;stop-opacity:1;"
       offset="0"
       id="stop11" /><stop
       style="stop-color:#ce1720;stop-opacity:0;"
       offset="1"
       id="stop12" /></linearGradient><linearGradient
     id="linearGradient9-2"><stop
       style="stop-color:#ce1720;stop-opacity:1;"
       offset="0"
       id="stop9" /><stop
       style="stop-color:#ce1720;stop-opacity:0;"
       offset="1"
       id="stop10" /></linearGradient><clipPath
     id="p"><path
       d="m 0,0 h 200 v 608 h 8 v 284 l -8,8 H 0 Z"
       id="path1-4" /></clipPath><linearGradient
     inkscape:collect="always"
     xlink:href="#linearGradient3"
     id="linearGradient4"
     x1="58.079556"
     y1="195.34937"
     x2="188.09167"
     y2="195.5444"
     gradientUnits="userSpaceOnUse"
     gradientTransform="translate(-3.0829557,-27.783651)" /></defs>
    <sodipodi:namedview
   id="base"
   pagecolor="#ffffff"
   bordercolor="#666666"
   borderopacity="1.0"
   inkscape:pageopacity="0.0"
   inkscape:pageshadow="2"
   inkscape:zoom="1.4"
   inkscape:cx="254.64286"
   inkscape:cy="335.71429"
   inkscape:document-units="mm"
   inkscape:current-layer="layer1"
   showgrid="false"
   inkscape:window-width="1003"
   inkscape:window-height="948"
   inkscape:window-x="12"
   inkscape:window-y="10"
   inkscape:window-maximized="0"
   inkscape:snap-text-baseline="true"
   inkscape:showpageshadow="2"
   inkscape:pagecheckerboard="0"
   inkscape:deskcolor="#d1d1d1"
   showguides="true"><sodipodi:guide
     position="36.391284,86.564041"
     orientation="0,-1"
     id="guide11"
     inkscape:locked="false" /><sodipodi:guide
     position="36.685101,46.262698"
     orientation="0,-1"
     id="guide12"
     inkscape:locked="false" /></sodipodi:namedview>
    <metadata
   id="metadata5"><rdf:RDF><cc:Work
       rdf:about=""><dc:format>image/svg+xml</dc:format><dc:type
         rdf:resource="http://purl.org/dc/dcmitype/StillImage" /></cc:Work></rdf:RDF></metadata>
    <g
   inkscape:label="Layer 1"
   inkscape:groupmode="layer"
   id="layer1"
   transform="translate(-41.445089,-73.781815)"><path
   id="path4518"
   style="color:#000000;font-style:normal;font-variant:normal;font-weight:normal;font-stretch:normal;font-size:medium;line-height:normal;font-family:sans-serif;font-variant-ligatures:normal;font-variant-position:normal;font-variant-caps:normal;font-variant-numeric:normal;font-variant-alternates:normal;font-feature-settings:normal;text-indent:0;text-align:start;text-decoration:none;text-decoration-line:none;text-decoration-style:solid;text-decoration-color:#000000;letter-spacing:normal;word-spacing:normal;text-transform:none;writing-mode:lr-tb;direction:ltr;text-orientation:mixed;dominant-baseline:auto;baseline-shift:baseline;text-anchor:start;white-space:normal;shape-padding:0;clip-rule:nonzero;display:inline;overflow:visible;visibility:visible;opacity:1;isolation:auto;mix-blend-mode:normal;color-interpolation:sRGB;color-interpolation-filters:linearRGB;solid-color:#000000;solid-opacity:1;vector-effect:none;fill:#ff9e00;fill-opacity:1;fill-rule:evenodd;stroke:none;stroke-width:15.73429966;stroke-linecap:butt;stroke-linejoin:miter;stroke-miterlimit:4;stroke-dasharray:none;stroke-dashoffset:0;stroke-opacity:1;color-rendering:auto;image-rendering:auto;shape-rendering:auto;text-rendering:auto;enable-background:accumulate"
   d="m 160.59297,82.689347 c 0,0 -4.77722,5.828603 -10.47217,12.805388 C 117.9415,73.905106 72.62369,80.259374 48.8805,109.82214 l -4.4e-4,5.4e-4 13.15481,9.00394 4.4e-4,-5.3e-4 c 18.45088,-22.97329 53.18936,-27.900255 78.24575,-11.244 -5.24998,6.47369 -9.43677,11.69239 -9.35276,11.76966 l 37.11277,-2.99087 z"
   inkscape:transform-center-x="-1.7394904"
   inkscape:transform-center-y="-48.789401"
   inkscape:connector-curvature="0" />
        <path
   id="path388"
   style="color:#000000;font-style:normal;font-variant:normal;font-weight:normal;font-stretch:normal;font-size:medium;line-height:normal;font-family:sans-serif;font-variant-ligatures:normal;font-variant-position:normal;font-variant-caps:normal;font-variant-numeric:normal;font-variant-alternates:normal;font-feature-settings:normal;text-indent:0;text-align:start;text-decoration:none;text-decoration-line:none;text-decoration-style:solid;text-decoration-color:#000000;letter-spacing:normal;word-spacing:normal;text-transform:none;writing-mode:lr-tb;direction:ltr;text-orientation:mixed;dominant-baseline:auto;baseline-shift:baseline;text-anchor:start;white-space:normal;shape-padding:0;clip-rule:nonzero;display:inline;overflow:visible;visibility:visible;opacity:1;isolation:auto;mix-blend-mode:normal;color-interpolation:sRGB;color-interpolation-filters:linearRGB;solid-color:#000000;solid-opacity:1;vector-effect:none;fill:#ff9e00;fill-opacity:1;fill-rule:evenodd;stroke:none;stroke-width:15.73429966;stroke-linecap:butt;stroke-linejoin:miter;stroke-miterlimit:4;stroke-dasharray:none;stroke-dashoffset:0;stroke-opacity:1;color-rendering:auto;image-rendering:auto;shape-rendering:auto;text-rendering:auto;enable-background:accumulate"
   d="m 56.32816,212.22948 c 0,0 4.77722,-5.8286 10.47217,-12.80538 32.1793,21.58963 77.49711,15.23536 101.2403,-14.32741 l 4.4e-4,-5.4e-4 -13.15481,-9.00394 -4.4e-4,5.3e-4 c -18.45088,22.97329 -53.18936,27.90026 -78.24575,11.244 5.24998,-6.47369 9.43677,-11.69239 9.35276,-11.76966 l -37.11277,2.99087 z"
   inkscape:transform-center-x="1.7394902"
   inkscape:transform-center-y="48.789402"
   inkscape:connector-curvature="0" />
        
        
        <path
   style="font-size:56.4444px;line-height:1.05;font-family:Sans;-inkscape-font-specification:Sans;white-space:pre;inline-size:176.559;fill:url(#linearGradient4);stroke-width:0.264583"
   d="m 66.511249,127.30879 c 5.042367,0 8.842956,0.75259 11.401769,2.25778 2.596443,1.46755 3.894664,4.04518 3.894664,7.73288 0,2.37067 -0.658518,4.34622 -1.975554,5.92666 -1.317036,1.54281 -3.217331,2.54 -5.700885,2.99155 v 0.28223 c 1.693332,0.26341 3.217331,0.75259 4.571997,1.46755 1.392295,0.71496 2.483553,1.73096 3.273775,3.048 0.790221,1.31703 1.185332,3.02918 1.185332,5.13644 0,3.65007 -1.260592,6.47229 -3.781775,8.46666 -2.483553,1.99437 -5.889032,2.99155 -10.216436,2.99155 H 54.996591 v -40.3013 z m 1.015999,17.1591 c 3.461923,0 5.832588,-0.54563 7.111995,-1.63689 1.279406,-1.12889 1.919109,-2.78459 1.919109,-4.96711 0,-2.22015 -0.790221,-3.80059 -2.370664,-4.74133 -1.542814,-0.97837 -4.026368,-1.46755 -7.450661,-1.46755 h -6.66044 v 12.81288 z m -7.450661,4.23333 v 14.6191 h 8.127994 c 3.574812,0 6.058366,-0.69615 7.450661,-2.08845 1.392295,-1.39229 2.088443,-3.21733 2.088443,-5.4751 0,-2.10726 -0.733777,-3.80059 -2.201332,-5.08 -1.429925,-1.31703 -4.007552,-1.97555 -7.732883,-1.97555 z m 54.130163,18.90887 H 91.68543 v -40.3013 h 22.52132 v 4.45911 H 96.765426 v 12.5871 h 16.425324 v 4.40266 H 96.765426 v 14.39332 h 17.441324 z m 7.45065,-27.2062 c 0,-1.42993 0.33867,-2.42711 1.016,-2.99155 0.67733,-0.56445 1.48636,-0.84667 2.4271,-0.84667 0.97837,0 1.80623,0.28222 2.48356,0.84667 0.71496,0.56444 1.07244,1.56162 1.07244,2.99155 0,1.35467 -0.35748,2.33304 -1.07244,2.93511 -0.67733,0.60207 -1.50519,0.90311 -2.48356,0.90311 -0.94074,0 -1.74977,-0.30104 -2.4271,-0.90311 -0.67733,-0.60207 -1.016,-1.58044 -1.016,-2.93511 z m 0,24.1582 c 0,-1.39229 0.33867,-2.37066 1.016,-2.9351 0.67733,-0.56445 1.48636,-0.84667 2.4271,-0.84667 0.97837,0 1.80623,0.28222 2.48356,0.84667 0.71496,0.56444 1.07244,1.54281 1.07244,2.9351 0,1.35467 -0.35748,2.33304 -1.07244,2.93511 -0.67733,0.60207 -1.50519,0.90311 -2.48356,0.90311 -0.94074,0 -1.74977,-0.30104 -2.4271,-0.90311 -0.67733,-0.60207 -1.016,-1.58044 -1.016,-2.93511 z m 33.81017,-33.35864 c -4.32741,0 -7.73289,1.44874 -10.21644,4.34622 -2.48355,2.89748 -3.72533,6.8674 -3.72533,11.90977 0,5.00474 1.1477,8.97466 3.44311,11.90977 2.33303,2.89748 5.81377,4.34622 10.44221,4.34622 1.76859,0 3.44311,-0.15052 5.02356,-0.45156 1.58044,-0.30103 3.12325,-0.67733 4.62844,-1.12888 v 4.40266 c -1.50519,0.56444 -3.06682,0.97837 -4.68489,1.24178 -1.58044,0.26341 -3.48073,0.39511 -5.70088,0.39511 -4.10163,0 -7.52592,-0.84667 -10.27288,-2.54 -2.74697,-1.69333 -4.8166,-4.10163 -6.20889,-7.22489 -1.35467,-3.12325 -2.032,-6.79214 -2.032,-11.00665 0,-4.064 0.73378,-7.63881 2.20133,-10.72444 1.50519,-3.12325 3.70652,-5.55036 6.604,-7.28133 2.89748,-1.76859 6.41585,-2.65288 10.5551,-2.65288 4.25215,0 7.95866,0.79022 11.11955,2.37066 l -2.032,4.28978 c -1.24177,-0.56445 -2.63407,-1.07245 -4.17688,-1.524 -1.50519,-0.45156 -3.16089,-0.67734 -4.96711,-0.67734 z"
   id="text2"
   transform="translate(-1.2664315,-0.11288689)"
   aria-label="BE:C"
   sodipodi:nodetypes="scsccccsscsccsscscsccsccssscsccccccccccccccssscscsssssscscsssssscsscccsscsccscccs" /></g></svg>
