<?xml version="1.0" encoding="UTF-8" standalone="no"?>
<!-- Created with Inkscape (http://www.inkscape.org/) -->

<svg
   width="131.80875mm"
   height="140.24164mm"
   viewBox="0 0 131.80875 140.24164"
   version="1.1"
   id="svg8"
   sodipodi:docname="by-trans-classic.svg"
   inkscape:version="1.3.2 (091e20e, 2023-11-25, custom)"
   xml:space="preserve"
   xmlns:inkscape="http://www.inkscape.org/namespaces/inkscape"
   xmlns:sodipodi="http://sodipodi.sourceforge.net/DTD/sodipodi-0.dtd"
   xmlns:xlink="http://www.w3.org/1999/xlink"
   xmlns="http://www.w3.org/2000/svg"
   xmlns:svg="http://www.w3.org/2000/svg"
   xmlns:rdf="http://www.w3.org/1999/02/22-rdf-syntax-ns#"
   xmlns:cc="http://creativecommons.org/ns#"
   xmlns:dc="http://purl.org/dc/elements/1.1/"><defs
   id="defs2"><clipPath
     id="p"><path
       d="m 0,0 h 200 v 608 h 8 v 284 l -8,8 H 0 Z"
       id="path1-4" /></clipPath><linearGradient
     inkscape:collect="always"
     xlink:href="#linearGradient18"
     id="linearGradient19"
     x1="75.529091"
     y1="147.45941"
     x2="141.39204"
     y2="147.45941"
     gradientUnits="userSpaceOnUse"
     gradientTransform="translate(9.3665809e-7,1.0782581e-5)" /><linearGradient
     id="linearGradient18"
     inkscape:collect="always"><stop
       style="stop-color:#cd1820;stop-opacity:1;"
       offset="0"
       id="stop18" /><stop
       style="stop-color:#017c30;stop-opacity:1;"
       offset="1"
       id="stop19" /></linearGradient></defs>
    <sodipodi:namedview
   id="base"
   pagecolor="#ffffff"
   bordercolor="#666666"
   borderopacity="1.0"
   inkscape:pageopacity="0.0"
   inkscape:pageshadow="2"
   inkscape:zoom="0.7"
   inkscape:cx="-96.428571"
   inkscape:cy="215"
   inkscape:document-units="mm"
   inkscape:current-layer="layer1"
   showgrid="false"
   inkscape:window-width="1920"
   inkscape:window-height="1017"
   inkscape:window-x="-8"
   inkscape:window-y="-8"
   inkscape:window-maximized="1"
   inkscape:snap-text-baseline="true"
   inkscape:showpageshadow="2"
   inkscape:pagecheckerboard="0"
   inkscape:deskcolor="#d1d1d1" />
    <metadata
   id="metadata5"><rdf:RDF><cc:Work
       rdf:about=""><dc:format>image/svg+xml</dc:format><dc:type
         rdf:resource="http://purl.org/dc/dcmitype/StillImage" /></cc:Work></rdf:RDF></metadata>
    <g
   inkscape:label="Layer 1"
   inkscape:groupmode="layer"
   id="layer1"
   transform="translate(-41.445089,-73.781815)"><path
   id="path4518"
   style="color:#000000;font-style:normal;font-variant:normal;font-weight:normal;font-stretch:normal;font-size:medium;line-height:normal;font-family:sans-serif;font-variant-ligatures:normal;font-variant-position:normal;font-variant-caps:normal;font-variant-numeric:normal;font-variant-alternates:normal;font-feature-settings:normal;text-indent:0;text-align:start;text-decoration:none;text-decoration-line:none;text-decoration-style:solid;text-decoration-color:#000000;letter-spacing:normal;word-spacing:normal;text-transform:none;writing-mode:lr-tb;direction:ltr;text-orientation:mixed;dominant-baseline:auto;baseline-shift:baseline;text-anchor:start;white-space:normal;shape-padding:0;clip-rule:nonzero;display:inline;overflow:visible;visibility:visible;opacity:1;isolation:auto;mix-blend-mode:normal;color-interpolation:sRGB;color-interpolation-filters:linearRGB;solid-color:#000000;solid-opacity:1;vector-effect:none;fill:#ff9e00;fill-opacity:1;fill-rule:evenodd;stroke:none;stroke-width:15.73429966;stroke-linecap:butt;stroke-linejoin:miter;stroke-miterlimit:4;stroke-dasharray:none;stroke-dashoffset:0;stroke-opacity:1;color-rendering:auto;image-rendering:auto;shape-rendering:auto;text-rendering:auto;enable-background:accumulate"
   d="m 160.59297,82.689347 c 0,0 -4.77722,5.828603 -10.47217,12.805388 C 117.9415,73.905106 72.62369,80.259374 48.8805,109.82214 l -4.4e-4,5.4e-4 13.15481,9.00394 4.4e-4,-5.3e-4 c 18.45088,-22.97329 53.18936,-27.900255 78.24575,-11.244 -5.24998,6.47369 -9.43677,11.69239 -9.35276,11.76966 l 37.11277,-2.99087 z"
   inkscape:transform-center-x="-1.7394904"
   inkscape:transform-center-y="-48.789401"
   inkscape:connector-curvature="0" />
        <path
   id="path388"
   style="color:#000000;font-style:normal;font-variant:normal;font-weight:normal;font-stretch:normal;font-size:medium;line-height:normal;font-family:sans-serif;font-variant-ligatures:normal;font-variant-position:normal;font-variant-caps:normal;font-variant-numeric:normal;font-variant-alternates:normal;font-feature-settings:normal;text-indent:0;text-align:start;text-decoration:none;text-decoration-line:none;text-decoration-style:solid;text-decoration-color:#000000;letter-spacing:normal;word-spacing:normal;text-transform:none;writing-mode:lr-tb;direction:ltr;text-orientation:mixed;dominant-baseline:auto;baseline-shift:baseline;text-anchor:start;white-space:normal;shape-padding:0;clip-rule:nonzero;display:inline;overflow:visible;visibility:visible;opacity:1;isolation:auto;mix-blend-mode:normal;color-interpolation:sRGB;color-interpolation-filters:linearRGB;solid-color:#000000;solid-opacity:1;vector-effect:none;fill:#ff9e00;fill-opacity:1;fill-rule:evenodd;stroke:none;stroke-width:15.73429966;stroke-linecap:butt;stroke-linejoin:miter;stroke-miterlimit:4;stroke-dasharray:none;stroke-dashoffset:0;stroke-opacity:1;color-rendering:auto;image-rendering:auto;shape-rendering:auto;text-rendering:auto;enable-background:accumulate"
   d="m 56.32816,212.22948 c 0,0 4.77722,-5.8286 10.47217,-12.80538 32.1793,21.58963 77.49711,15.23536 101.2403,-14.32741 l 4.4e-4,-5.4e-4 -13.15481,-9.00394 -4.4e-4,5.3e-4 c -18.45088,22.97329 -53.18936,27.90026 -78.24575,11.244 5.24998,-6.47369 9.43677,-11.69239 9.35276,-11.76966 l -37.11277,2.99087 z"
   inkscape:transform-center-x="1.7394902"
   inkscape:transform-center-y="48.789402"
   inkscape:connector-curvature="0" />
        
        
        <path
   d="m 52.525105,137.06511 q 0,-1.19966 0.142618,-2.34898 0.151011,-1.14934 0.45302,-2.22317 0.310403,-1.07382 0.771811,-2.05536 0.469799,-0.98993 1.115773,-1.86242 h 1.392618 q -0.578859,0.91442 -1.031879,1.92114 -0.453021,1.00671 -0.763423,2.09732 -0.310404,1.09061 -0.461411,2.22316 -0.151011,1.12415 -0.151011,2.2651 0,2.34059 0.612417,4.55537 0.612415,2.20636 1.81208,4.0604 h -1.409391 q -0.645974,-0.88927 -1.115773,-1.90436 -0.461408,-1.00672 -0.771811,-2.10572 -0.302014,-1.10737 -0.45302,-2.2651 -0.142618,-1.16611 -0.142618,-2.35738 z m 2.625839,-4.89094 z m -0.04195,-4.71476 z m 0.260068,20 z m 8.976511,-15.67953 q -1.979866,0 -3.112416,1.3255 -1.132551,1.32551 -1.132551,3.62417 0,2.37415 1.098993,3.6661 1.098994,1.28357 3.129196,1.28357 1.308725,0 2.944631,-0.48659 v 1.34228 q -0.780201,0.28523 -1.501677,0.3859 -0.721477,0.1091 -1.661074,0.1091 -2.709733,0 -4.177853,-1.64429 -1.459732,-1.65268 -1.459732,-4.67282 0,-1.89597 0.696309,-3.32215 0.704697,-1.42618 2.03859,-2.19799 1.342282,-0.77181 3.154364,-0.77181 1.946308,0 3.389262,0.72148 l -0.620807,1.30873 q -1.46812,-0.67114 -2.785235,-0.67114 z m 8.833896,5.42785 q 0,1.19966 -0.151011,2.349 -0.142618,1.14932 -0.453019,2.22315 -0.302014,1.07382 -0.771813,2.05538 -0.461408,0.98993 -1.107383,1.86241 h -1.392618 q 0.578859,-0.91443 1.03188,-1.92115 0.45302,-1.0067 0.763423,-2.0973 0.310404,-1.09062 0.46141,-2.21478 0.151011,-1.13255 0.151011,-2.27348 0,-2.34061 -0.612417,-4.54699 -0.612415,-2.21476 -1.81208,-4.06879 h 1.409396 q 0.645974,0.88926 1.107383,1.90436 0.469799,1.00672 0.771813,2.1141 0.310402,1.09898 0.453019,2.26509 0.151011,1.15773 0.151011,2.349 z m -2.776847,-5.03356 z m -0.04195,-4.71476 z m 1.93792,20 z"
   id="text1"
   style="font-size:10.5833px;line-height:1.25;letter-spacing:0px;word-spacing:0px;stroke-width:0.264583"
   aria-label="(C)" /><text
   xml:space="preserve"
   style="font-size:51.9797px;line-height:1.25;font-family:sans-serif;letter-spacing:0px;word-spacing:0px;fill:url(#linearGradient19);fill-opacity:1;stroke-width:0.264583"
   x="71.112846"
   y="166.9518"
   id="text2"><tspan
     sodipodi:role="line"
     id="tspan1"
     style="fill:url(#linearGradient19);fill-opacity:1;stroke-width:0.264583"
     x="71.112846"
     y="166.9518">bel</tspan></text></g></svg>
