<?xml version="1.0" encoding="UTF-8" standalone="no"?>
<!-- Created with Inkscape (http://www.inkscape.org/) -->

<svg
   width="131.80875mm"
   height="140.24164mm"
   viewBox="0 0 131.80875 140.24164"
   version="1.1"
   id="svg8"
   sodipodi:docname="by-trans-school.svg"
   inkscape:version="1.3.2 (091e20e, 2023-11-25, custom)"
   xml:space="preserve"
   xmlns:inkscape="http://www.inkscape.org/namespaces/inkscape"
   xmlns:sodipodi="http://sodipodi.sourceforge.net/DTD/sodipodi-0.dtd"
   xmlns:xlink="http://www.w3.org/1999/xlink"
   xmlns="http://www.w3.org/2000/svg"
   xmlns:svg="http://www.w3.org/2000/svg"
   xmlns:rdf="http://www.w3.org/1999/02/22-rdf-syntax-ns#"
   xmlns:cc="http://creativecommons.org/ns#"
   xmlns:dc="http://purl.org/dc/elements/1.1/"><defs
   id="defs2"><clipPath
     id="p"><path
       d="m 0,0 h 200 v 608 h 8 v 284 l -8,8 H 0 Z"
       id="path1-4" /></clipPath></defs>
    <sodipodi:namedview
   id="base"
   pagecolor="#ffffff"
   bordercolor="#666666"
   borderopacity="1.0"
   inkscape:pageopacity="0.0"
   inkscape:pageshadow="2"
   inkscape:zoom="0.7"
   inkscape:cx="-96.428571"
   inkscape:cy="213.57143"
   inkscape:document-units="mm"
   inkscape:current-layer="layer1"
   showgrid="false"
   inkscape:window-width="1920"
   inkscape:window-height="1017"
   inkscape:window-x="-8"
   inkscape:window-y="-8"
   inkscape:window-maximized="1"
   inkscape:snap-text-baseline="true"
   inkscape:showpageshadow="2"
   inkscape:pagecheckerboard="0"
   inkscape:deskcolor="#d1d1d1" />
    <metadata
   id="metadata5"><rdf:RDF><cc:Work
       rdf:about=""><dc:format>image/svg+xml</dc:format><dc:type
         rdf:resource="http://purl.org/dc/dcmitype/StillImage" /></cc:Work></rdf:RDF></metadata>
    <g
   inkscape:label="Layer 1"
   inkscape:groupmode="layer"
   id="layer1"
   transform="translate(-41.445089,-73.781815)"><path
   d="m 172.9369,152.91541 q 0,1.69149 -0.79715,3.34413 -0.77771,1.65263 -2.19702,2.79975 -1.55542,1.2443 -3.63578,1.94425 -2.06092,0.69992 -4.97732,0.69992 -3.13027,0 -5.63837,-0.58324 -2.48867,-0.58329 -5.07454,-1.73041 v -4.82177 h 0.27221 q 2.19702,1.82758 5.07453,2.81916 2.87752,0.99158 5.40507,0.99158 3.57744,0 5.5606,-1.34155 2.00259,-1.34152 2.00259,-3.57744 0,-1.92481 -0.95269,-2.83862 -0.93325,-0.91381 -2.85807,-1.41932 -1.4582,-0.38884 -3.16916,-0.6416 -1.69151,-0.25283 -3.59689,-0.64161 -3.84965,-0.81658 -5.71614,-2.7803 -1.84705,-1.98316 -1.84705,-5.15234 0,-3.63575 3.07194,-5.94944 3.07194,-2.3331 7.7965,-2.3331 3.0525,0 5.59949,0.58325 2.54699,0.58328 4.5107,1.43878 v 4.54956 h -0.27221 q -1.65263,-1.39987 -4.35516,-2.31364 -2.68308,-0.93327 -5.50227,-0.93327 -3.09138,0 -4.97732,1.28321 -1.8665,1.28324 -1.8665,3.30526 0,1.80817 0.93325,2.83862 0.93325,1.03048 3.28581,1.57486 1.24433,0.2724 3.53857,0.66106 2.29423,0.38884 3.88853,0.79713 3.22748,0.8555 4.86066,2.5859 1.63319,1.7304 1.63319,4.84123 z"
   id="text1"
   style="font-size:10.5833px;line-height:1.25;letter-spacing:0px;word-spacing:0px;stroke-width:0.264583"
   aria-label="S" /><path
   id="path4518"
   style="color:#000000;font-style:normal;font-variant:normal;font-weight:normal;font-stretch:normal;font-size:medium;line-height:normal;font-family:sans-serif;font-variant-ligatures:normal;font-variant-position:normal;font-variant-caps:normal;font-variant-numeric:normal;font-variant-alternates:normal;font-feature-settings:normal;text-indent:0;text-align:start;text-decoration:none;text-decoration-line:none;text-decoration-style:solid;text-decoration-color:#000000;letter-spacing:normal;word-spacing:normal;text-transform:none;writing-mode:lr-tb;direction:ltr;text-orientation:mixed;dominant-baseline:auto;baseline-shift:baseline;text-anchor:start;white-space:normal;shape-padding:0;clip-rule:nonzero;display:inline;overflow:visible;visibility:visible;opacity:1;isolation:auto;mix-blend-mode:normal;color-interpolation:sRGB;color-interpolation-filters:linearRGB;solid-color:#000000;solid-opacity:1;vector-effect:none;fill:#ff9e00;fill-opacity:1;fill-rule:evenodd;stroke:none;stroke-width:15.73429966;stroke-linecap:butt;stroke-linejoin:miter;stroke-miterlimit:4;stroke-dasharray:none;stroke-dashoffset:0;stroke-opacity:1;color-rendering:auto;image-rendering:auto;shape-rendering:auto;text-rendering:auto;enable-background:accumulate"
   d="m 160.59297,82.689347 c 0,0 -4.77722,5.828603 -10.47217,12.805388 C 117.9415,73.905106 72.62369,80.259374 48.8805,109.82214 l -4.4e-4,5.4e-4 13.15481,9.00394 4.4e-4,-5.3e-4 c 18.45088,-22.97329 53.18936,-27.900255 78.24575,-11.244 -5.24998,6.47369 -9.43677,11.69239 -9.35276,11.76966 l 37.11277,-2.99087 z"
   inkscape:transform-center-x="-1.7394904"
   inkscape:transform-center-y="-48.789401"
   inkscape:connector-curvature="0" />
        <path
   id="path388"
   style="color:#000000;font-style:normal;font-variant:normal;font-weight:normal;font-stretch:normal;font-size:medium;line-height:normal;font-family:sans-serif;font-variant-ligatures:normal;font-variant-position:normal;font-variant-caps:normal;font-variant-numeric:normal;font-variant-alternates:normal;font-feature-settings:normal;text-indent:0;text-align:start;text-decoration:none;text-decoration-line:none;text-decoration-style:solid;text-decoration-color:#000000;letter-spacing:normal;word-spacing:normal;text-transform:none;writing-mode:lr-tb;direction:ltr;text-orientation:mixed;dominant-baseline:auto;baseline-shift:baseline;text-anchor:start;white-space:normal;shape-padding:0;clip-rule:nonzero;display:inline;overflow:visible;visibility:visible;opacity:1;isolation:auto;mix-blend-mode:normal;color-interpolation:sRGB;color-interpolation-filters:linearRGB;solid-color:#000000;solid-opacity:1;vector-effect:none;fill:#ff9e00;fill-opacity:1;fill-rule:evenodd;stroke:none;stroke-width:15.73429966;stroke-linecap:butt;stroke-linejoin:miter;stroke-miterlimit:4;stroke-dasharray:none;stroke-dashoffset:0;stroke-opacity:1;color-rendering:auto;image-rendering:auto;shape-rendering:auto;text-rendering:auto;enable-background:accumulate"
   d="m 56.32816,212.22948 c 0,0 4.77722,-5.8286 10.47217,-12.80538 32.1793,21.58963 77.49711,15.23536 101.2403,-14.32741 l 4.4e-4,-5.4e-4 -13.15481,-9.00394 -4.4e-4,5.3e-4 c -18.45088,22.97329 -53.18936,27.90026 -78.24575,11.244 5.24998,-6.47369 9.43677,-11.69239 9.35276,-11.76966 l -37.11277,2.99087 z"
   inkscape:transform-center-x="1.7394902"
   inkscape:transform-center-y="48.789402"
   inkscape:connector-curvature="0" />
        
        
        <g
   id="g1"
   transform="translate(94.116072,-7.176558)"><path
     fill="#ce1720"
     d="m -24.209375,134.63597 h 80.000001 v 39.99999 h -80.000001 z"
     id="path2"
     style="stroke-width:0.839947" /><g
     transform="matrix(0.04444444,0,0,0.04444444,-23.786094,134.63598)"
     clip-path="url(#p)"
     fill="#ffffff"
     id="g4"
     style="stroke-width:3.96875"><g
       id="b"
       style="stroke-width:3.96875"><path
         id="a"
         d="M 36,0 V 14 H 27 V 28 H 16 V 44 H 8 V 57 H -8 V 24 H 8 V 6 H -8 V 0 Z m 26,77 v 15 h -8 v 12 H 46 V 92 H 38 V 77 H 30 V 57 h 8 V 42 h 8 V 30 h 8 v 12 h 8 v 15 h 8 V 77 Z M 45,76 H 55 V 58 H 45 Z M 19,183 h 8 v -18 h -8 z m 54,0 h 8 V 165 H 73 Z M -8,305 H 6 v 13 h 6 v 16 h 9 v 15 h 12 v -15 h 9 v -16 h 8 V 305 H 38 v -15 h 21 v 10 h 13 v 17 h 11 v 19 h -8 v 14 h -7 v 13 h -6 v 14 h -9 v 12 h -7 v 11 h -9 v 14 H 24 V 399 H 15 V 385 H 8 v -9 H -8 V 353 H 8 V 333 H -8 Z"
         style="stroke-width:3.96875" /><use
         xlink:href="#a"
         transform="matrix(-1,0,0,1,200,0)"
         id="use2"
         style="stroke-width:3.96875" /><path
         d="m 96,0 v 32 h 8 V 0 h 32 v 14 h -8 v 14 h -12 v 16 h -8 V 57 H 92 V 44 H 84 V 28 H 72 V 14 H 64 V 0 Z M 94,274 V 263 H 88 V 250 H 81 V 236 H 73 V 222 H 65 V 212 H 56 V 198 H 44 v 14 h -9 v 10 h -7 v 14 h -8 v 14 h -6 v 13 H 8 v 17 H -8 V 236 H 8 V 216 H -8 V 183 H 8 v 14 h 10 v 14 h 10 v -14 h 10 v -14 h 8 V 165 H 38 V 151 H 28 V 137 H 18 v 14 H 8 v 14 H -8 V 124 H 8 V 105 H -8 V 77 H 8 v 13 h 8 v 16 h 11 v 13 h 9 v 15 h 7 v 12 h 14 v -12 h 7 v -15 h 9 V 106 H 84 V 90 h 8 V 77 h 16 v 13 h 8 v 16 h 11 v 13 h 9 v 15 h 7 v 12 h 14 v -12 h 7 v -15 h 9 v -13 h 11 V 90 h 8 V 77 h 16 v 28 h -16 v 19 h 16 v 41 h -16 v -14 h -10 v -14 h -10 v 14 h -10 v 14 h -8 v 18 h 8 v 14 h 10 v 14 h 10 v -14 h 10 v -14 h 16 v 33 h -16 v 20 h 16 v 44 h -16 v -17 h -6 v -13 h -6 v -14 h -8 v -14 h -7 v -10 h -9 v -14 h -12 v 14 h -9 v 10 h -8 v 14 h -8 v 14 h -7 v 13 h -6 v 11 z m 2,-167 v 27 h 8 v -27 z m -4,58 V 151 H 82 V 137 H 72 v 14 H 62 v 14 h -8 v 18 h 8 v 14 h 10 v 14 h 10 v -14 h 10 v -14 h 16 v 14 h 10 v 14 h 10 v -14 h 10 v -14 h 8 v -18 h -8 v -14 h -10 v -14 h -10 v 14 h -10 v 14 z m 4,46 v 27 h 8 v -27 z"
         id="path3"
         style="stroke-width:3.96875" /></g><use
       xlink:href="#b"
       transform="matrix(1,0,0,-1,0,900)"
       id="use3"
       style="stroke-width:3.96875" /><path
       d="M -8,408 H 8 v 14 h 7 v 8 h 8 v 14 h 7 v 12 h -7 v 14 h -8 v 8 H 8 v 14 H -8 Z m 216,0 v 84 h -16 v -14 h -7 v -8 h -8 v -14 h -7 v -12 h 7 v -14 h 8 v -8 h 7 V 408 Z M 62,459 h 8 v -18 h -8 z m 76,0 v -18 h -8 v 18 z M 96,400 h 8 v -18 h -8 z m 0,100 v 18 h 8 V 500 Z M 46,425 h 14 v -11 h 10 v -10 h 5 v -10 h 6 v -14 h 8 v -14 h 4 v -13 h 14 v 13 h 4 v 14 h 8 v 14 h 6 v 10 h 5 v 10 h 10 v 11 h 14 v 50 h -14 v 11 h -10 v 10 h -5 v 10 h -6 v 14 h -8 v 14 h -4 v 13 H 93 V 534 H 89 V 520 H 81 V 506 H 75 V 496 H 70 V 486 H 60 V 475 H 46 Z m 50,9 v -15 h -8 v -10 h -8 v 25 h 8 v 9 h 5 v 14 h -5 v 9 h -8 v 25 h 8 v -10 h 8 v -15 h 8 v 15 h 8 v 10 h 8 v -25 h -8 v -9 h -5 v -14 h 5 v -9 h 8 v -25 h -8 v 10 h -8 v 15 z"
       id="path4"
       style="stroke-width:3.96875" /></g><path
     fill="#007c30"
     d="m -14.897206,161.30265 h 70.687832 v 13.33331 h -70.687832 z"
     id="path5"
     style="stroke-width:0.839947" /></g></g></svg>
