<?xml version="1.0" encoding="UTF-8" standalone="no"?>
<!-- Created with Inkscape (http://www.inkscape.org/) -->

<svg
   width="131.80875mm"
   height="140.24164mm"
   viewBox="0 0 131.80875 140.24164"
   version="1.1"
   id="svg8"
   sodipodi:docname="by-trans-school.svg"
   inkscape:version="1.3.2 (091e20e, 2023-11-25, custom)"
   xml:space="preserve"
   xmlns:inkscape="http://www.inkscape.org/namespaces/inkscape"
   xmlns:sodipodi="http://sodipodi.sourceforge.net/DTD/sodipodi-0.dtd"
   xmlns:xlink="http://www.w3.org/1999/xlink"
   xmlns="http://www.w3.org/2000/svg"
   xmlns:svg="http://www.w3.org/2000/svg"
   xmlns:rdf="http://www.w3.org/1999/02/22-rdf-syntax-ns#"
   xmlns:cc="http://creativecommons.org/ns#"
   xmlns:dc="http://purl.org/dc/elements/1.1/"><defs
   id="defs2"><clipPath
     id="p"><path
       d="m 0,0 h 200 v 608 h 8 v 284 l -8,8 H 0 Z"
       id="path1-4" /></clipPath><linearGradient
     id="linearGradient15"
     inkscape:collect="always"><stop
       style="stop-color:#ce1720;stop-opacity:1"
       offset="0"
       id="stop16" /><stop
       style="stop-color:#007c30;stop-opacity:1;"
       offset="1"
       id="stop17" /></linearGradient><linearGradient
     inkscape:collect="always"
     xlink:href="#linearGradient15"
     id="linearGradient7"
     gradientUnits="userSpaceOnUse"
     x1="48.791264"
     y1="154.5009"
     x2="174.87427"
     y2="154.5009"
     gradientTransform="translate(-3.372201,-7.0414857)" /><linearGradient
     inkscape:collect="always"
     xlink:href="#linearGradient15"
     id="linearGradient9"
     gradientUnits="userSpaceOnUse"
     x1="48.791264"
     y1="154.5009"
     x2="174.87427"
     y2="154.5009"
     gradientTransform="translate(-3.372201,-7.0414857)" /></defs>
    <sodipodi:namedview
   id="base"
   pagecolor="#ffffff"
   bordercolor="#666666"
   borderopacity="1.0"
   inkscape:pageopacity="0.0"
   inkscape:pageshadow="2"
   inkscape:zoom="0.7"
   inkscape:cx="-96.428571"
   inkscape:cy="215"
   inkscape:document-units="mm"
   inkscape:current-layer="layer1"
   showgrid="false"
   inkscape:window-width="1920"
   inkscape:window-height="1017"
   inkscape:window-x="-8"
   inkscape:window-y="-8"
   inkscape:window-maximized="1"
   inkscape:snap-text-baseline="true"
   inkscape:showpageshadow="2"
   inkscape:pagecheckerboard="0"
   inkscape:deskcolor="#d1d1d1" />
    <metadata
   id="metadata5"><rdf:RDF><cc:Work
       rdf:about=""><dc:format>image/svg+xml</dc:format><dc:type
         rdf:resource="http://purl.org/dc/dcmitype/StillImage" /></cc:Work></rdf:RDF></metadata>
    <g
   inkscape:label="Layer 1"
   inkscape:groupmode="layer"
   id="layer1"
   transform="translate(-41.445089,-73.781815)"><path
   id="path4518"
   style="color:#000000;font-style:normal;font-variant:normal;font-weight:normal;font-stretch:normal;font-size:medium;line-height:normal;font-family:sans-serif;font-variant-ligatures:normal;font-variant-position:normal;font-variant-caps:normal;font-variant-numeric:normal;font-variant-alternates:normal;font-feature-settings:normal;text-indent:0;text-align:start;text-decoration:none;text-decoration-line:none;text-decoration-style:solid;text-decoration-color:#000000;letter-spacing:normal;word-spacing:normal;text-transform:none;writing-mode:lr-tb;direction:ltr;text-orientation:mixed;dominant-baseline:auto;baseline-shift:baseline;text-anchor:start;white-space:normal;shape-padding:0;clip-rule:nonzero;display:inline;overflow:visible;visibility:visible;opacity:1;isolation:auto;mix-blend-mode:normal;color-interpolation:sRGB;color-interpolation-filters:linearRGB;solid-color:#000000;solid-opacity:1;vector-effect:none;fill:#ff9e00;fill-opacity:1;fill-rule:evenodd;stroke:none;stroke-width:15.73429966;stroke-linecap:butt;stroke-linejoin:miter;stroke-miterlimit:4;stroke-dasharray:none;stroke-dashoffset:0;stroke-opacity:1;color-rendering:auto;image-rendering:auto;shape-rendering:auto;text-rendering:auto;enable-background:accumulate"
   d="m 160.59297,82.689347 c 0,0 -4.77722,5.828603 -10.47217,12.805388 C 117.9415,73.905106 72.62369,80.259374 48.8805,109.82214 l -4.4e-4,5.4e-4 13.15481,9.00394 4.4e-4,-5.3e-4 c 18.45088,-22.97329 53.18936,-27.900255 78.24575,-11.244 -5.24998,6.47369 -9.43677,11.69239 -9.35276,11.76966 l 37.11277,-2.99087 z"
   inkscape:transform-center-x="-1.7394904"
   inkscape:transform-center-y="-48.789401"
   inkscape:connector-curvature="0" />
        <path
   id="path388"
   style="color:#000000;font-style:normal;font-variant:normal;font-weight:normal;font-stretch:normal;font-size:medium;line-height:normal;font-family:sans-serif;font-variant-ligatures:normal;font-variant-position:normal;font-variant-caps:normal;font-variant-numeric:normal;font-variant-alternates:normal;font-feature-settings:normal;text-indent:0;text-align:start;text-decoration:none;text-decoration-line:none;text-decoration-style:solid;text-decoration-color:#000000;letter-spacing:normal;word-spacing:normal;text-transform:none;writing-mode:lr-tb;direction:ltr;text-orientation:mixed;dominant-baseline:auto;baseline-shift:baseline;text-anchor:start;white-space:normal;shape-padding:0;clip-rule:nonzero;display:inline;overflow:visible;visibility:visible;opacity:1;isolation:auto;mix-blend-mode:normal;color-interpolation:sRGB;color-interpolation-filters:linearRGB;solid-color:#000000;solid-opacity:1;vector-effect:none;fill:#ff9e00;fill-opacity:1;fill-rule:evenodd;stroke:none;stroke-width:15.73429966;stroke-linecap:butt;stroke-linejoin:miter;stroke-miterlimit:4;stroke-dasharray:none;stroke-dashoffset:0;stroke-opacity:1;color-rendering:auto;image-rendering:auto;shape-rendering:auto;text-rendering:auto;enable-background:accumulate"
   d="m 56.32816,212.22948 c 0,0 4.77722,-5.8286 10.47217,-12.80538 32.1793,21.58963 77.49711,15.23536 101.2403,-14.32741 l 4.4e-4,-5.4e-4 -13.15481,-9.00394 -4.4e-4,5.3e-4 c -18.45088,22.97329 -53.18936,27.90026 -78.24575,11.244 5.24998,-6.47369 9.43677,-11.69239 9.35276,-11.76966 l -37.11277,2.99087 z"
   inkscape:transform-center-x="1.7394902"
   inkscape:transform-center-y="48.789402"
   inkscape:connector-curvature="0" />
        
        
        <path
   d="m 111.98558,155.15587 q 0,2.98183 -1.12827,5.26525 -1.12827,2.28343 -3.03558,3.76093 -2.25656,1.77298 -4.96978,2.52515 -2.68637,0.75221 -6.850225,0.75221 H 81.81772 v -40 h 11.846875 q 4.378764,0 6.554715,0.3223 2.17595,0.32231 4.16387,1.34319 2.20282,1.15513 3.19677,2.98187 0.99395,1.79987 0.99395,4.32506 0,2.84756 -1.45064,4.86232 -1.45062,1.98788 -3.86835,3.1968 v 0.21468 q 4.0564,0.83274 6.39354,3.57285 2.33713,2.71323 2.33713,6.87714 z M 103.04,137.13035 q 0,-1.45064 -0.48357,-2.44462 -0.48355,-0.99395 -1.55808,-1.61178 -1.262601,-0.72534 -3.062461,-0.88654 -1.799867,-0.18819 -4.459353,-0.18819 h -6.339823 v 11.55137 h 6.877101 q 2.498308,0 3.975805,-0.24172 1.4775,-0.26877 2.740091,-1.07453 1.26259,-0.80591 1.77299,-2.06851 0.53728,-1.28948 0.53728,-3.03559 z m 3.41168,18.24044 q 0,-2.41776 -0.72533,-3.84151 -0.72531,-1.42381 -2.63262,-2.41774 -1.28946,-0.6716 -3.143061,-0.85962 -1.82672,-0.2147 -4.459351,-0.2147 h -8.354595 v 14.88249 h 7.038281 q 3.492255,0 5.721945,-0.34934 2.229671,-0.37637 3.653451,-1.34317 1.50437,-1.04769 2.20282,-2.39088 0.69846,-1.34317 0.69846,-3.46539 z m 41.3969,-27.91138 -14.07656,22.45803 v 17.54197 h -5.319 v -16.97782 l -14.13028,-23.02218 h 5.88313 l 10.93351,17.8912 11.04097,-17.8912 z"
   id="text2"
   style="font-size:10.5833px;line-height:1.25;letter-spacing:0px;word-spacing:0px;fill:url(#linearGradient7);fill-opacity:1;stroke-width:0.264582"
   aria-label="BY" /><path
   d="m 144.07231,165.63523 q 0,0.79065 -0.65629,1.29708 -0.65112,0.50642 -1.78283,0.50642 -0.64079,0 -1.17822,-0.14986 -0.53227,-0.15503 -0.894,-0.33589 v -1.09037 h 0.0517 q 0.45991,0.34623 1.02319,0.55293 0.56327,0.20154 1.08003,0.20154 0.64079,0 1.00252,-0.2067 0.36173,-0.20671 0.36173,-0.65112 0,-0.34107 -0.19637,-0.51677 -0.19637,-0.1757 -0.75447,-0.29972 -0.2067,-0.0465 -0.5426,-0.10852 -0.33073,-0.062 -0.60461,-0.13436 -0.75964,-0.20154 -1.08004,-0.58911 -0.31522,-0.39274 -0.31522,-0.96118 0,-0.35656 0.14469,-0.67179 0.14986,-0.31522 0.44958,-0.56327 0.28939,-0.24288 0.73381,-0.3824 0.44958,-0.1447 1.00252,-0.1447 0.51676,0 1.04386,0.12919 0.53226,0.12403 0.88366,0.30489 v 1.0387 h -0.0517 q -0.37207,-0.27389 -0.90434,-0.45992 -0.53226,-0.1912 -1.04386,-0.1912 -0.53226,0 -0.89917,0.2067 -0.3669,0.20154 -0.3669,0.60461 0,0.35657 0.22221,0.53744 0.21704,0.18086 0.7028,0.29455 0.26871,0.062 0.59944,0.12402 0.3359,0.062 0.55811,0.11369 0.67695,0.15503 1.04386,0.53227 0.3669,0.3824 0.3669,1.01285 z m 5.65855,1.30224 q -0.48576,0.23255 -0.92501,0.36174 -0.43408,0.12919 -0.925,0.12919 -0.62528,0 -1.14721,-0.18087 -0.52193,-0.18603 -0.894,-0.5581 -0.37724,-0.37207 -0.58395,-0.94051 -0.2067,-0.56844 -0.2067,-1.32808 0,-1.41593 0.77514,-2.22208 0.78032,-0.80615 2.05672,-0.80615 0.49609,0 0.97151,0.13953 0.48059,0.13952 0.8785,0.34106 v 1.08003 h -0.0517 q -0.44441,-0.34623 -0.91983,-0.53226 -0.47026,-0.18604 -0.91984,-0.18604 -0.82682,0 -1.30741,0.55811 -0.47542,0.55293 -0.47542,1.6278 0,1.04386 0.46508,1.60713 0.47026,0.55811 1.31775,0.55811 0.29455,0 0.59944,-0.0775 0.30489,-0.0775 0.54777,-0.20154 0.21187,-0.10852 0.39791,-0.22737 0.18603,-0.12402 0.29455,-0.21187 h 0.0517 z m 6.07196,0.36174 h -0.97151 v -3.28661 q 0,-0.39791 -0.0465,-0.74414 -0.0465,-0.3514 -0.17053,-0.54777 -0.12919,-0.21704 -0.37207,-0.32039 -0.24288,-0.10852 -0.63045,-0.10852 -0.39791,0 -0.83199,0.19637 -0.43408,0.19637 -0.83199,0.50126 v 4.3098 h -0.97151 v -8.04083 h 0.97151 v 2.90937 q 0.45475,-0.37723 0.94051,-0.5891 0.48576,-0.21188 0.99735,-0.21188 0.93534,0 1.42627,0.56327 0.49092,0.56328 0.49092,1.62264 z m 6.79026,-2.88354 q 0,1.41076 -0.72346,2.22725 -0.72347,0.81648 -1.93786,0.81648 -1.22473,0 -1.9482,-0.81648 -0.7183,-0.81649 -0.7183,-2.22725 0,-1.41076 0.7183,-2.22724 0.72347,-0.82166 1.9482,-0.82166 1.21439,0 1.93786,0.82166 0.72346,0.81648 0.72346,2.22724 z m -1.00252,0 q 0,-1.12137 -0.43925,-1.66397 -0.43924,-0.54777 -1.21955,-0.54777 -0.79065,0 -1.2299,0.54777 -0.43408,0.5426 -0.43408,1.66397 0,1.0852 0.43925,1.64848 0.43925,0.5581 1.22473,0.5581 0.77514,0 1.21439,-0.55294 0.44441,-0.5581 0.44441,-1.65364 z m 7.42588,0 q 0,1.41076 -0.72347,2.22725 -0.72346,0.81648 -1.93786,0.81648 -1.22472,0 -1.94819,-0.81648 -0.7183,-0.81649 -0.7183,-2.22725 0,-1.41076 0.7183,-2.22724 0.72347,-0.82166 1.94819,-0.82166 1.2144,0 1.93786,0.82166 0.72347,0.81648 0.72347,2.22724 z m -1.00252,0 q 0,-1.12137 -0.43925,-1.66397 -0.43924,-0.54777 -1.21956,-0.54777 -0.79064,0 -1.22989,0.54777 -0.43408,0.5426 -0.43408,1.66397 0,1.0852 0.43925,1.64848 0.43924,0.5581 1.22472,0.5581 0.77515,0 1.2144,-0.55294 0.44441,-0.5581 0.44441,-1.65364 z m 3.48815,2.88354 h -0.97151 v -8.04083 h 0.97151 z"
   id="text4"
   style="font-size:10.5833px;line-height:1.25;letter-spacing:0px;word-spacing:0px;fill:url(#linearGradient9);fill-opacity:1;stroke-width:0.264583"
   aria-label="school" /></g></svg>
