<?xml version="1.0" encoding="UTF-8" standalone="no"?>
<!-- Created with Inkscape (http://www.inkscape.org/) -->

<svg
   width="131.80875mm"
   height="140.24164mm"
   viewBox="0 0 131.80875 140.24164"
   version="1.1"
   id="svg8"
   sodipodi:docname="by-trans-classic.svg"
   inkscape:version="1.3.2 (091e20e, 2023-11-25, custom)"
   xml:space="preserve"
   xmlns:inkscape="http://www.inkscape.org/namespaces/inkscape"
   xmlns:sodipodi="http://sodipodi.sourceforge.net/DTD/sodipodi-0.dtd"
   xmlns:xlink="http://www.w3.org/1999/xlink"
   xmlns="http://www.w3.org/2000/svg"
   xmlns:svg="http://www.w3.org/2000/svg"
   xmlns:rdf="http://www.w3.org/1999/02/22-rdf-syntax-ns#"
   xmlns:cc="http://creativecommons.org/ns#"
   xmlns:dc="http://purl.org/dc/elements/1.1/"><defs
   id="defs2"><clipPath
     id="p"><path
       d="m 0,0 h 200 v 608 h 8 v 284 l -8,8 H 0 Z"
       id="path1-4" /></clipPath><linearGradient
     id="linearGradient15"
     inkscape:collect="always"><stop
       style="stop-color:#ce1720;stop-opacity:1"
       offset="0"
       id="stop16" /><stop
       style="stop-color:#007c30;stop-opacity:1;"
       offset="1"
       id="stop17" /></linearGradient><linearGradient
     inkscape:collect="always"
     xlink:href="#linearGradient15"
     id="linearGradient1"
     gradientUnits="userSpaceOnUse"
     x1="48.791264"
     y1="154.5009"
     x2="174.87427"
     y2="154.5009"
     gradientTransform="translate(-3.372201,-7.0414857)" /><linearGradient
     inkscape:collect="always"
     xlink:href="#linearGradient15"
     id="linearGradient2"
     gradientUnits="userSpaceOnUse"
     x1="48.791264"
     y1="154.5009"
     x2="174.87427"
     y2="154.5009"
     gradientTransform="translate(-3.372201,-7.0414857)" /></defs>
    <sodipodi:namedview
   id="base"
   pagecolor="#ffffff"
   bordercolor="#666666"
   borderopacity="1.0"
   inkscape:pageopacity="0.0"
   inkscape:pageshadow="2"
   inkscape:zoom="0.7"
   inkscape:cx="-96.428571"
   inkscape:cy="215"
   inkscape:document-units="mm"
   inkscape:current-layer="layer1"
   showgrid="false"
   inkscape:window-width="1920"
   inkscape:window-height="1017"
   inkscape:window-x="-8"
   inkscape:window-y="-8"
   inkscape:window-maximized="1"
   inkscape:snap-text-baseline="true"
   inkscape:showpageshadow="2"
   inkscape:pagecheckerboard="0"
   inkscape:deskcolor="#d1d1d1" />
    <metadata
   id="metadata5"><rdf:RDF><cc:Work
       rdf:about=""><dc:format>image/svg+xml</dc:format><dc:type
         rdf:resource="http://purl.org/dc/dcmitype/StillImage" /></cc:Work></rdf:RDF></metadata>
    <g
   inkscape:label="Layer 1"
   inkscape:groupmode="layer"
   id="layer1"
   transform="translate(-41.445089,-73.781815)"><path
   id="path4518"
   style="color:#000000;font-style:normal;font-variant:normal;font-weight:normal;font-stretch:normal;font-size:medium;line-height:normal;font-family:sans-serif;font-variant-ligatures:normal;font-variant-position:normal;font-variant-caps:normal;font-variant-numeric:normal;font-variant-alternates:normal;font-feature-settings:normal;text-indent:0;text-align:start;text-decoration:none;text-decoration-line:none;text-decoration-style:solid;text-decoration-color:#000000;letter-spacing:normal;word-spacing:normal;text-transform:none;writing-mode:lr-tb;direction:ltr;text-orientation:mixed;dominant-baseline:auto;baseline-shift:baseline;text-anchor:start;white-space:normal;shape-padding:0;clip-rule:nonzero;display:inline;overflow:visible;visibility:visible;opacity:1;isolation:auto;mix-blend-mode:normal;color-interpolation:sRGB;color-interpolation-filters:linearRGB;solid-color:#000000;solid-opacity:1;vector-effect:none;fill:#ff9e00;fill-opacity:1;fill-rule:evenodd;stroke:none;stroke-width:15.73429966;stroke-linecap:butt;stroke-linejoin:miter;stroke-miterlimit:4;stroke-dasharray:none;stroke-dashoffset:0;stroke-opacity:1;color-rendering:auto;image-rendering:auto;shape-rendering:auto;text-rendering:auto;enable-background:accumulate"
   d="m 160.59297,82.689347 c 0,0 -4.77722,5.828603 -10.47217,12.805388 C 117.9415,73.905106 72.62369,80.259374 48.8805,109.82214 l -4.4e-4,5.4e-4 13.15481,9.00394 4.4e-4,-5.3e-4 c 18.45088,-22.97329 53.18936,-27.900255 78.24575,-11.244 -5.24998,6.47369 -9.43677,11.69239 -9.35276,11.76966 l 37.11277,-2.99087 z"
   inkscape:transform-center-x="-1.7394904"
   inkscape:transform-center-y="-48.789401"
   inkscape:connector-curvature="0" />
        <path
   id="path388"
   style="color:#000000;font-style:normal;font-variant:normal;font-weight:normal;font-stretch:normal;font-size:medium;line-height:normal;font-family:sans-serif;font-variant-ligatures:normal;font-variant-position:normal;font-variant-caps:normal;font-variant-numeric:normal;font-variant-alternates:normal;font-feature-settings:normal;text-indent:0;text-align:start;text-decoration:none;text-decoration-line:none;text-decoration-style:solid;text-decoration-color:#000000;letter-spacing:normal;word-spacing:normal;text-transform:none;writing-mode:lr-tb;direction:ltr;text-orientation:mixed;dominant-baseline:auto;baseline-shift:baseline;text-anchor:start;white-space:normal;shape-padding:0;clip-rule:nonzero;display:inline;overflow:visible;visibility:visible;opacity:1;isolation:auto;mix-blend-mode:normal;color-interpolation:sRGB;color-interpolation-filters:linearRGB;solid-color:#000000;solid-opacity:1;vector-effect:none;fill:#ff9e00;fill-opacity:1;fill-rule:evenodd;stroke:none;stroke-width:15.73429966;stroke-linecap:butt;stroke-linejoin:miter;stroke-miterlimit:4;stroke-dasharray:none;stroke-dashoffset:0;stroke-opacity:1;color-rendering:auto;image-rendering:auto;shape-rendering:auto;text-rendering:auto;enable-background:accumulate"
   d="m 56.32816,212.22948 c 0,0 4.77722,-5.8286 10.47217,-12.80538 32.1793,21.58963 77.49711,15.23536 101.2403,-14.32741 l 4.4e-4,-5.4e-4 -13.15481,-9.00394 -4.4e-4,5.3e-4 c -18.45088,22.97329 -53.18936,27.90026 -78.24575,11.244 5.24998,-6.47369 9.43677,-11.69239 9.35276,-11.76966 l -37.11277,2.99087 z"
   inkscape:transform-center-x="1.7394902"
   inkscape:transform-center-y="48.789402"
   inkscape:connector-curvature="0" />
        
        
        <g
   id="g8"><path
     d="m 111.98558,155.15587 q 0,2.98183 -1.12827,5.26525 -1.12827,2.28343 -3.03558,3.76093 -2.25656,1.77298 -4.96978,2.52515 -2.68637,0.75221 -6.850225,0.75221 H 81.81772 v -40 h 11.846875 q 4.378764,0 6.554715,0.3223 2.17595,0.32231 4.16387,1.34319 2.20282,1.15513 3.19677,2.98187 0.99395,1.79987 0.99395,4.32506 0,2.84756 -1.45064,4.86232 -1.45062,1.98788 -3.86835,3.1968 v 0.21468 q 4.0564,0.83274 6.39354,3.57285 2.33713,2.71323 2.33713,6.87714 z M 103.04,137.13035 q 0,-1.45064 -0.48357,-2.44462 -0.48355,-0.99395 -1.55808,-1.61178 -1.262601,-0.72534 -3.062461,-0.88654 -1.799867,-0.18819 -4.459353,-0.18819 h -6.339823 v 11.55137 h 6.877101 q 2.498308,0 3.975805,-0.24172 1.4775,-0.26877 2.740091,-1.07453 1.26259,-0.80591 1.77299,-2.06851 0.53728,-1.28948 0.53728,-3.03559 z m 3.41168,18.24044 q 0,-2.41776 -0.72533,-3.84151 -0.72531,-1.42381 -2.63262,-2.41774 -1.28946,-0.6716 -3.143061,-0.85962 -1.82672,-0.2147 -4.459351,-0.2147 h -8.354595 v 14.88249 h 7.038281 q 3.492255,0 5.721945,-0.34934 2.229671,-0.37637 3.653451,-1.34317 1.50437,-1.04769 2.20282,-2.39088 0.69846,-1.34317 0.69846,-3.46539 z m 41.3969,-27.91138 -14.07656,22.45803 v 17.54197 h -5.319 v -16.97782 l -14.13028,-23.02218 h 5.88313 l 10.93351,17.8912 11.04097,-17.8912 z"
     id="text2"
     style="font-size:10.5833px;line-height:1.25;letter-spacing:0px;word-spacing:0px;fill:url(#linearGradient1);fill-opacity:1;stroke-width:0.264582"
     aria-label="BY" /><path
     d="m 50.100931,135.13851 q -0.485757,0.23254 -0.925005,0.36173 -0.434081,0.12919 -0.925006,0.12919 -0.625283,0 -1.147213,-0.18086 -0.52193,-0.18604 -0.893999,-0.55811 -0.377237,-0.37207 -0.583942,-0.94051 -0.206705,-0.56843 -0.206705,-1.32808 0,-1.41593 0.775144,-2.22207 0.780312,-0.80615 2.056715,-0.80615 0.496092,0 0.971514,0.13952 0.480589,0.13953 0.878497,0.34106 v 1.08004 h -0.05168 q -0.444415,-0.34623 -0.919837,-0.53227 -0.470254,-0.18603 -0.919838,-0.18603 -0.82682,0 -1.307409,0.5581 -0.475422,0.55294 -0.475422,1.6278 0,1.04387 0.465086,1.60714 0.470255,0.5581 1.317745,0.5581 0.294555,0 0.599445,-0.0775 0.30489,-0.0775 0.547768,-0.20154 0.211873,-0.10852 0.397908,-0.22738 0.186034,-0.12402 0.294554,-0.21187 h 0.05168 z m 2.227247,0.36173 h -0.971514 v -8.04082 h 0.971514 z m 6.407857,0 h -0.966346 v -0.61494 q -0.129191,0.0878 -0.351399,0.24804 -0.21704,0.15503 -0.423745,0.24805 -0.242879,0.11885 -0.558104,0.19637 -0.315225,0.0827 -0.73897,0.0827 -0.780312,0 -1.322913,-0.51676 -0.542601,-0.51677 -0.542601,-1.31775 0,-0.65629 0.279052,-1.05936 0.28422,-0.40824 0.80615,-0.64079 0.527098,-0.23254 1.266069,-0.31522 0.73897,-0.0827 1.586461,-0.12403 v -0.14986 q 0,-0.33073 -0.118855,-0.54777 -0.113688,-0.21704 -0.330729,-0.34106 -0.206705,-0.11885 -0.496092,-0.1602 -0.289387,-0.0413 -0.604612,-0.0413 -0.382404,0 -0.852659,0.10336 -0.470254,0.0982 -0.971513,0.28938 h -0.05168 v -0.98701 q 0.28422,-0.0775 0.821653,-0.17053 0.537433,-0.093 1.059364,-0.093 0.60978,0 1.059363,0.10335 0.454751,0.0982 0.785479,0.34106 0.325561,0.23771 0.496092,0.61495 0.170532,0.37724 0.170532,0.93534 z m -0.966346,-1.42109 v -1.60714 q -0.444416,0.0258 -1.049028,0.0775 -0.599445,0.0517 -0.950844,0.14986 -0.418577,0.11885 -0.676959,0.37207 -0.258381,0.24804 -0.258381,0.68729 0,0.49609 0.299722,0.74931 0.299723,0.24804 0.91467,0.24804 0.511595,0 0.935341,-0.19637 0.423745,-0.20153 0.785479,-0.48058 z m 6.960793,-0.24288 q 0,0.79064 -0.656288,1.29707 -0.651121,0.50643 -1.782831,0.50643 -0.640786,0 -1.178219,-0.14986 -0.532266,-0.15503 -0.894,-0.3359 v -1.09037 h 0.05168 q 0.459918,0.34623 1.02319,0.55294 0.563271,0.20154 1.080034,0.20154 0.640785,0 1.002519,-0.20671 0.361734,-0.2067 0.361734,-0.65112 0,-0.34106 -0.19637,-0.51676 -0.19637,-0.1757 -0.754473,-0.29973 -0.206705,-0.0465 -0.542601,-0.10852 -0.330728,-0.062 -0.604612,-0.13435 -0.759642,-0.20154 -1.080034,-0.58911 -0.315226,-0.39274 -0.315226,-0.96118 0,-0.35657 0.144694,-0.67179 0.149861,-0.31523 0.449583,-0.56327 0.289388,-0.24288 0.733803,-0.38241 0.449584,-0.14469 1.00252,-0.14469 0.516763,0 1.043861,0.12919 0.532265,0.12402 0.883664,0.30489 v 1.03869 h -0.05168 q -0.37207,-0.27388 -0.904335,-0.45992 -0.532266,-0.1912 -1.043861,-0.1912 -0.532265,0 -0.899167,0.20671 -0.366901,0.20153 -0.366901,0.60461 0,0.35656 0.222208,0.53743 0.21704,0.18087 0.702797,0.29456 0.268717,0.062 0.599445,0.12402 0.335895,0.062 0.558103,0.11369 0.676959,0.15503 1.043861,0.53226 0.366901,0.38241 0.366901,1.01286 z m 5.513858,0 q 0,0.79064 -0.656288,1.29707 -0.651121,0.50643 -1.782832,0.50643 -0.640785,0 -1.178218,-0.14986 -0.532266,-0.15503 -0.894,-0.3359 v -1.09037 h 0.05168 q 0.459919,0.34623 1.02319,0.55294 0.563272,0.20154 1.080034,0.20154 0.640786,0 1.00252,-0.20671 0.361734,-0.2067 0.361734,-0.65112 0,-0.34106 -0.19637,-0.51676 -0.19637,-0.1757 -0.754473,-0.29973 -0.206705,-0.0465 -0.542601,-0.10852 -0.330728,-0.062 -0.604613,-0.13435 -0.759641,-0.20154 -1.080034,-0.58911 -0.315225,-0.39274 -0.315225,-0.96118 0,-0.35657 0.144694,-0.67179 0.149861,-0.31523 0.449583,-0.56327 0.289387,-0.24288 0.733803,-0.38241 0.449584,-0.14469 1.00252,-0.14469 0.516763,0 1.043861,0.12919 0.532265,0.12402 0.883664,0.30489 v 1.03869 h -0.05168 q -0.372069,-0.27388 -0.904334,-0.45992 -0.532266,-0.1912 -1.043861,-0.1912 -0.532265,0 -0.899167,0.20671 -0.366901,0.20153 -0.366901,0.60461 0,0.35656 0.222208,0.53743 0.21704,0.18087 0.702797,0.29456 0.268716,0.062 0.599444,0.12402 0.335896,0.062 0.558104,0.11369 0.676959,0.15503 1.043861,0.53226 0.366901,0.38241 0.3669,1.01286 z m 2.433952,-5.07461 h -1.095537 v -1.00769 h 1.095537 z m -0.06201,6.73858 H 71.644768 V 129.728 h 0.971514 z m 6.190816,-0.36173 q -0.485757,0.23254 -0.925005,0.36173 -0.434081,0.12919 -0.925005,0.12919 -0.625283,0 -1.147214,-0.18086 -0.52193,-0.18604 -0.893999,-0.55811 -0.377237,-0.37207 -0.583942,-0.94051 -0.206705,-0.56843 -0.206705,-1.32808 0,-1.41593 0.775144,-2.22207 0.780312,-0.80615 2.056716,-0.80615 0.496092,0 0.971513,0.13952 0.48059,0.13953 0.878497,0.34106 v 1.08004 h -0.05168 q -0.444416,-0.34623 -0.919838,-0.53227 -0.470254,-0.18603 -0.919837,-0.18603 -0.826821,0 -1.30741,0.5581 -0.475422,0.55294 -0.475422,1.6278 0,1.04387 0.465087,1.60714 0.470254,0.5581 1.317745,0.5581 0.294554,0 0.599444,-0.0775 0.30489,-0.0775 0.547769,-0.20154 0.211872,-0.10852 0.397907,-0.22738 0.186035,-0.12402 0.294555,-0.21187 h 0.05168 z"
     id="text3"
     style="font-size:10.5833px;line-height:1.25;letter-spacing:0px;word-spacing:0px;fill:url(#linearGradient2);fill-opacity:1;stroke-width:0.264583"
     aria-label="classic" /></g></g></svg>
