<?xml version="1.0" encoding="UTF-8" standalone="no"?>
<!-- Created with Inkscape (http://www.inkscape.org/) -->

<svg
   width="131.80875mm"
   height="140.24164mm"
   viewBox="0 0 131.80875 140.24164"
   version="1.1"
   id="svg8"
   sodipodi:docname="by-trans-school.svg"
   inkscape:version="1.3.2 (091e20e, 2023-11-25, custom)"
   xml:space="preserve"
   xmlns:inkscape="http://www.inkscape.org/namespaces/inkscape"
   xmlns:sodipodi="http://sodipodi.sourceforge.net/DTD/sodipodi-0.dtd"
   xmlns:xlink="http://www.w3.org/1999/xlink"
   xmlns="http://www.w3.org/2000/svg"
   xmlns:svg="http://www.w3.org/2000/svg"
   xmlns:rdf="http://www.w3.org/1999/02/22-rdf-syntax-ns#"
   xmlns:cc="http://creativecommons.org/ns#"
   xmlns:dc="http://purl.org/dc/elements/1.1/"><defs
   id="defs2"><clipPath
     id="p"><path
       d="m 0,0 h 200 v 608 h 8 v 284 l -8,8 H 0 Z"
       id="path1-4" /></clipPath><linearGradient
     inkscape:collect="always"
     xlink:href="#linearGradient18"
     id="linearGradient19"
     x1="75.529091"
     y1="147.45941"
     x2="141.39204"
     y2="147.45941"
     gradientUnits="userSpaceOnUse"
     gradientTransform="translate(3.5254765e-6)" /><linearGradient
     id="linearGradient18"
     inkscape:collect="always"><stop
       style="stop-color:#cd1820;stop-opacity:1;"
       offset="0"
       id="stop18" /><stop
       style="stop-color:#017c30;stop-opacity:1;"
       offset="1"
       id="stop19" /></linearGradient></defs>
    <sodipodi:namedview
   id="base"
   pagecolor="#ffffff"
   bordercolor="#666666"
   borderopacity="1.0"
   inkscape:pageopacity="0.0"
   inkscape:pageshadow="2"
   inkscape:zoom="0.7"
   inkscape:cx="-96.428571"
   inkscape:cy="215"
   inkscape:document-units="mm"
   inkscape:current-layer="layer1"
   showgrid="false"
   inkscape:window-width="1920"
   inkscape:window-height="1017"
   inkscape:window-x="-8"
   inkscape:window-y="-8"
   inkscape:window-maximized="1"
   inkscape:snap-text-baseline="true"
   inkscape:showpageshadow="2"
   inkscape:pagecheckerboard="0"
   inkscape:deskcolor="#d1d1d1" />
    <metadata
   id="metadata5"><rdf:RDF><cc:Work
       rdf:about=""><dc:format>image/svg+xml</dc:format><dc:type
         rdf:resource="http://purl.org/dc/dcmitype/StillImage" /></cc:Work></rdf:RDF></metadata>
    <g
   inkscape:label="Layer 1"
   inkscape:groupmode="layer"
   id="layer1"
   transform="translate(-41.445089,-73.781815)"><path
   id="path4518"
   style="color:#000000;font-style:normal;font-variant:normal;font-weight:normal;font-stretch:normal;font-size:medium;line-height:normal;font-family:sans-serif;font-variant-ligatures:normal;font-variant-position:normal;font-variant-caps:normal;font-variant-numeric:normal;font-variant-alternates:normal;font-feature-settings:normal;text-indent:0;text-align:start;text-decoration:none;text-decoration-line:none;text-decoration-style:solid;text-decoration-color:#000000;letter-spacing:normal;word-spacing:normal;text-transform:none;writing-mode:lr-tb;direction:ltr;text-orientation:mixed;dominant-baseline:auto;baseline-shift:baseline;text-anchor:start;white-space:normal;shape-padding:0;clip-rule:nonzero;display:inline;overflow:visible;visibility:visible;opacity:1;isolation:auto;mix-blend-mode:normal;color-interpolation:sRGB;color-interpolation-filters:linearRGB;solid-color:#000000;solid-opacity:1;vector-effect:none;fill:#ff9e00;fill-opacity:1;fill-rule:evenodd;stroke:none;stroke-width:15.73429966;stroke-linecap:butt;stroke-linejoin:miter;stroke-miterlimit:4;stroke-dasharray:none;stroke-dashoffset:0;stroke-opacity:1;color-rendering:auto;image-rendering:auto;shape-rendering:auto;text-rendering:auto;enable-background:accumulate"
   d="m 160.59297,82.689347 c 0,0 -4.77722,5.828603 -10.47217,12.805388 C 117.9415,73.905106 72.62369,80.259374 48.8805,109.82214 l -4.4e-4,5.4e-4 13.15481,9.00394 4.4e-4,-5.3e-4 c 18.45088,-22.97329 53.18936,-27.900255 78.24575,-11.244 -5.24998,6.47369 -9.43677,11.69239 -9.35276,11.76966 l 37.11277,-2.99087 z"
   inkscape:transform-center-x="-1.7394904"
   inkscape:transform-center-y="-48.789401"
   inkscape:connector-curvature="0" />
        <path
   id="path388"
   style="color:#000000;font-style:normal;font-variant:normal;font-weight:normal;font-stretch:normal;font-size:medium;line-height:normal;font-family:sans-serif;font-variant-ligatures:normal;font-variant-position:normal;font-variant-caps:normal;font-variant-numeric:normal;font-variant-alternates:normal;font-feature-settings:normal;text-indent:0;text-align:start;text-decoration:none;text-decoration-line:none;text-decoration-style:solid;text-decoration-color:#000000;letter-spacing:normal;word-spacing:normal;text-transform:none;writing-mode:lr-tb;direction:ltr;text-orientation:mixed;dominant-baseline:auto;baseline-shift:baseline;text-anchor:start;white-space:normal;shape-padding:0;clip-rule:nonzero;display:inline;overflow:visible;visibility:visible;opacity:1;isolation:auto;mix-blend-mode:normal;color-interpolation:sRGB;color-interpolation-filters:linearRGB;solid-color:#000000;solid-opacity:1;vector-effect:none;fill:#ff9e00;fill-opacity:1;fill-rule:evenodd;stroke:none;stroke-width:15.73429966;stroke-linecap:butt;stroke-linejoin:miter;stroke-miterlimit:4;stroke-dasharray:none;stroke-dashoffset:0;stroke-opacity:1;color-rendering:auto;image-rendering:auto;shape-rendering:auto;text-rendering:auto;enable-background:accumulate"
   d="m 56.32816,212.22948 c 0,0 4.77722,-5.8286 10.47217,-12.80538 32.1793,21.58963 77.49711,15.23536 101.2403,-14.32741 l 4.4e-4,-5.4e-4 -13.15481,-9.00394 -4.4e-4,5.3e-4 c -18.45088,22.97329 -53.18936,27.90026 -78.24575,11.244 5.24998,-6.47369 9.43677,-11.69239 9.35276,-11.76966 l -37.11277,2.99087 z"
   inkscape:transform-center-x="1.7394902"
   inkscape:transform-center-y="48.789402"
   inkscape:connector-curvature="0" />
        
        
        <path
   d="m 144.91906,151.73212 q 1,-2.0909 3.36364,-4.27271 l 1,0.9091 q -2.27274,2.09089 -3.18183,3.99998 -0.99999,2.0909 -0.99999,5.00002 0,2.45452 0.99999,4.63636 0.90909,1.99999 3.18183,4.45454 l -1,1 q -2.27273,-2.54546 -3.36364,-4.8182 -1.18181,-2.45452 -1.18181,-5.2727 0,-3.18184 1.18181,-5.63639 z m 17.95454,9.37502 q 0,2.17045 -1.56817,3.42045 -1.56818,1.25 -4.36364,1.25 -2.95454,0 -4.56819,-0.7841 v -2 q 1.05681,0.45456 2.30682,0.71591 1.26137,0.26137 2.35228,0.26137 1.86363,0 2.8068,-0.7159 0.9432,-0.71591 0.9432,-1.96592 0,-0.82954 -0.34091,-1.36364 -0.34091,-0.5341 -1.14772,-1 -0.79548,-0.4659 -2.42047,-1.05682 -2.3068,-0.84089 -3.29545,-1.97728 -0.98864,-1.14772 -0.98864,-2.95454 0,-1.94317 1.45454,-3.0909 1.46592,-1.14772 3.85228,-1.14772 2.48864,0 4.57953,0.93181 l -0.64771,1.79546 q -2.13635,-0.88637 -3.97727,-0.88637 -1.47727,0 -2.31819,0.63637 -0.82953,0.63636 -0.82953,1.7841 0,0.81818 0.31817,1.36361 0.32955,0.5341 1.04545,0.97729 0.72727,0.44318 2.27274,1.01136 1.85227,0.68181 2.76136,1.32955 0.90909,0.63637 1.3409,1.47727 0.43182,0.82955 0.43182,1.98864 z m 7.27273,1.53407 q -1.09091,2.27274 -3.36364,4.8182 l -1,-1 q 2.27273,-2.45455 3.18183,-4.45454 0.99999,-2.18184 0.99999,-4.63636 0,-2.90912 -0.99999,-5.00002 -0.9091,-1.90909 -3.18183,-3.99998 l 1,-0.9091 q 2.36364,2.18181 3.36364,4.27271 1.18183,2.45455 1.18183,5.63639 0,2.81818 -1.18183,5.2727 z"
   id="text1"
   style="font-size:10.5833px;line-height:1.25;letter-spacing:0px;word-spacing:0px;stroke-width:0.264582"
   aria-label="（S）" /><text
   xml:space="preserve"
   style="font-size:51.9797px;line-height:1.25;font-family:sans-serif;letter-spacing:0px;word-spacing:0px;fill:url(#linearGradient19);fill-opacity:1;stroke-width:0.264583"
   x="71.112846"
   y="166.9518"
   id="text2"><tspan
     sodipodi:role="line"
     id="tspan1"
     style="fill:url(#linearGradient19);fill-opacity:1;stroke-width:0.264583"
     x="71.112846"
     y="166.9518">bel</tspan></text></g></svg>
