<?xml version="1.0" encoding="UTF-8" standalone="no"?>
<!-- Created with Inkscape (http://www.inkscape.org/) -->

<svg
   width="131.80875mm"
   height="140.24164mm"
   viewBox="0 0 131.80875 140.24164"
   version="1.1"
   id="svg8"
   sodipodi:docname="by-trans-cyrillic.svg"
   inkscape:version="1.3.2 (091e20e, 2023-11-25, custom)"
   xml:space="preserve"
   xmlns:inkscape="http://www.inkscape.org/namespaces/inkscape"
   xmlns:sodipodi="http://sodipodi.sourceforge.net/DTD/sodipodi-0.dtd"
   xmlns:xlink="http://www.w3.org/1999/xlink"
   xmlns="http://www.w3.org/2000/svg"
   xmlns:svg="http://www.w3.org/2000/svg"
   xmlns:rdf="http://www.w3.org/1999/02/22-rdf-syntax-ns#"
   xmlns:cc="http://creativecommons.org/ns#"
   xmlns:dc="http://purl.org/dc/elements/1.1/"><defs
   id="defs2"><linearGradient
     id="linearGradient9-1"><stop
       style="stop-color:#ce1720;stop-opacity:1;"
       offset="0"
       id="stop14" /><stop
       style="stop-color:#ce1720;stop-opacity:0;"
       offset="1"
       id="stop15" /></linearGradient><linearGradient
     id="linearGradient9"><stop
       style="stop-color:#ce1720;stop-opacity:1;"
       offset="0"
       id="stop11" /><stop
       style="stop-color:#ce1720;stop-opacity:0;"
       offset="1"
       id="stop12" /></linearGradient><linearGradient
     id="linearGradient9-2"><stop
       style="stop-color:#ce1720;stop-opacity:1;"
       offset="0"
       id="stop9" /><stop
       style="stop-color:#ce1720;stop-opacity:0;"
       offset="1"
       id="stop10" /></linearGradient><clipPath
     id="p"><path
       d="m 0,0 h 200 v 608 h 8 v 284 l -8,8 H 0 Z"
       id="path1-4" /></clipPath><linearGradient
     inkscape:collect="always"
     xlink:href="#linearGradient5"
     id="linearGradient6"
     x1="63.412807"
     y1="147.45941"
     x2="153.50832"
     y2="147.45941"
     gradientUnits="userSpaceOnUse"
     gradientTransform="translate(-14.532745)" /><linearGradient
     id="linearGradient5"
     inkscape:collect="always"><stop
       style="stop-color:#ca1920;stop-opacity:1;"
       offset="0"
       id="stop5" /><stop
       style="stop-color:#037b30;stop-opacity:1;"
       offset="1"
       id="stop6" /></linearGradient></defs>
    <sodipodi:namedview
   id="base"
   pagecolor="#ffffff"
   bordercolor="#666666"
   borderopacity="1.0"
   inkscape:pageopacity="0.0"
   inkscape:pageshadow="2"
   inkscape:zoom="0.7"
   inkscape:cx="-96.428571"
   inkscape:cy="215"
   inkscape:document-units="mm"
   inkscape:current-layer="layer1"
   showgrid="false"
   inkscape:window-width="1920"
   inkscape:window-height="1017"
   inkscape:window-x="-8"
   inkscape:window-y="-8"
   inkscape:window-maximized="1"
   inkscape:snap-text-baseline="true"
   inkscape:showpageshadow="2"
   inkscape:pagecheckerboard="0"
   inkscape:deskcolor="#d1d1d1" />
    <metadata
   id="metadata5"><rdf:RDF><cc:Work
       rdf:about=""><dc:format>image/svg+xml</dc:format><dc:type
         rdf:resource="http://purl.org/dc/dcmitype/StillImage" /></cc:Work></rdf:RDF></metadata>
    <g
   inkscape:label="Layer 1"
   inkscape:groupmode="layer"
   id="layer1"
   transform="translate(-41.445089,-73.781815)"><path
   id="path4518"
   style="color:#000000;font-style:normal;font-variant:normal;font-weight:normal;font-stretch:normal;font-size:medium;line-height:normal;font-family:sans-serif;font-variant-ligatures:normal;font-variant-position:normal;font-variant-caps:normal;font-variant-numeric:normal;font-variant-alternates:normal;font-feature-settings:normal;text-indent:0;text-align:start;text-decoration:none;text-decoration-line:none;text-decoration-style:solid;text-decoration-color:#000000;letter-spacing:normal;word-spacing:normal;text-transform:none;writing-mode:lr-tb;direction:ltr;text-orientation:mixed;dominant-baseline:auto;baseline-shift:baseline;text-anchor:start;white-space:normal;shape-padding:0;clip-rule:nonzero;display:inline;overflow:visible;visibility:visible;opacity:1;isolation:auto;mix-blend-mode:normal;color-interpolation:sRGB;color-interpolation-filters:linearRGB;solid-color:#000000;solid-opacity:1;vector-effect:none;fill:#ff9e00;fill-opacity:1;fill-rule:evenodd;stroke:none;stroke-width:15.73429966;stroke-linecap:butt;stroke-linejoin:miter;stroke-miterlimit:4;stroke-dasharray:none;stroke-dashoffset:0;stroke-opacity:1;color-rendering:auto;image-rendering:auto;shape-rendering:auto;text-rendering:auto;enable-background:accumulate"
   d="m 160.59297,82.689347 c 0,0 -4.77722,5.828603 -10.47217,12.805388 C 117.9415,73.905106 72.62369,80.259374 48.8805,109.82214 l -4.4e-4,5.4e-4 13.15481,9.00394 4.4e-4,-5.3e-4 c 18.45088,-22.97329 53.18936,-27.900255 78.24575,-11.244 -5.24998,6.47369 -9.43677,11.69239 -9.35276,11.76966 l 37.11277,-2.99087 z"
   inkscape:transform-center-x="-1.7394904"
   inkscape:transform-center-y="-48.789401"
   inkscape:connector-curvature="0" />
        <path
   id="path388"
   style="color:#000000;font-style:normal;font-variant:normal;font-weight:normal;font-stretch:normal;font-size:medium;line-height:normal;font-family:sans-serif;font-variant-ligatures:normal;font-variant-position:normal;font-variant-caps:normal;font-variant-numeric:normal;font-variant-alternates:normal;font-feature-settings:normal;text-indent:0;text-align:start;text-decoration:none;text-decoration-line:none;text-decoration-style:solid;text-decoration-color:#000000;letter-spacing:normal;word-spacing:normal;text-transform:none;writing-mode:lr-tb;direction:ltr;text-orientation:mixed;dominant-baseline:auto;baseline-shift:baseline;text-anchor:start;white-space:normal;shape-padding:0;clip-rule:nonzero;display:inline;overflow:visible;visibility:visible;opacity:1;isolation:auto;mix-blend-mode:normal;color-interpolation:sRGB;color-interpolation-filters:linearRGB;solid-color:#000000;solid-opacity:1;vector-effect:none;fill:#ff9e00;fill-opacity:1;fill-rule:evenodd;stroke:none;stroke-width:15.73429966;stroke-linecap:butt;stroke-linejoin:miter;stroke-miterlimit:4;stroke-dasharray:none;stroke-dashoffset:0;stroke-opacity:1;color-rendering:auto;image-rendering:auto;shape-rendering:auto;text-rendering:auto;enable-background:accumulate"
   d="m 56.32816,212.22948 c 0,0 4.77722,-5.8286 10.47217,-12.80538 32.1793,21.58963 77.49711,15.23536 101.2403,-14.32741 l 4.4e-4,-5.4e-4 -13.15481,-9.00394 -4.4e-4,5.3e-4 c -18.45088,22.97329 -53.18936,27.90026 -78.24575,11.244 5.24998,-6.47369 9.43677,-11.69239 9.35276,-11.76966 l -37.11277,2.99087 z"
   inkscape:transform-center-x="1.7394902"
   inkscape:transform-center-y="48.789402"
   inkscape:connector-curvature="0" />
        
        
        <path
   d="m 48.88006,127.45941 h 11.409002 q 8.043756,0 11.600516,2.40765 3.584129,2.38027 3.584129,7.49656 0,3.55675 -1.942549,5.88234 -1.94253,2.29821 -5.663461,2.9822 v 0.27372 q 4.623791,0.79343 6.78521,3.20108 2.188785,2.40764 2.188785,6.37482 0,5.36248 -3.666204,8.37205 -3.666201,3.00958 -10.232538,3.00958 H 48.880061 Z m 5.03419,17.01772 h 7.387121 q 4.705866,0 6.839926,-1.50479 2.13406,-1.50479 2.13406,-5.03417 0,-3.28319 -2.35293,-4.73323 -2.32558,-1.45004 -7.387131,-1.45004 H 53.91425 Z m 0,4.21342 v 14.50064 h 8.071115 q 4.815313,0 7.140883,-1.86047 2.32557,-1.86047 2.32557,-5.6361 0,-3.58412 -2.462371,-5.28041 -2.46237,-1.72366 -7.387118,-1.72366 z m 53.73446,18.76875 H 85.295845 v -39.99989 h 22.352865 v 4.43224 H 90.330023 v 12.47604 h 16.306387 v 4.37755 H 90.330023 v 14.28177 h 17.318687 z m 8.80983,0 v -39.99989 h 5.03419 v 35.5129 h 17.48284 v 4.48699 z"
   id="text3"
   style="font-size:10.5833px;line-height:1.25;letter-spacing:0px;word-spacing:0px;fill:url(#linearGradient6);fill-opacity:1;stroke-width:0.264583"
   aria-label="BEL" /><path
   d="m 168.04107,160.53725 q 0,2.28743 -1.65271,3.60479 -1.65268,1.31737 -4.59877,1.31737 -3.11379,0 -4.81438,-0.82635 v -2.10779 q 1.11377,0.47904 2.43113,0.75449 1.32933,0.27544 2.47905,0.27544 1.96406,0 2.95807,-0.75449 0.99401,-0.75449 0.99401,-2.07185 0,-0.87424 -0.35928,-1.43711 -0.35927,-0.56288 -1.20959,-1.0539 -0.83831,-0.49103 -2.55088,-1.11376 -2.43114,-0.88625 -3.47305,-2.08385 -1.04193,-1.20958 -1.04193,-3.11376 0,-2.04792 1.53294,-3.25749 1.54491,-1.20958 4.05989,-1.20958 2.62276,0 4.82633,0.98204 l -0.68264,1.89221 q -2.25149,-0.93412 -4.19159,-0.93412 -1.5569,0 -2.44313,0.67066 -0.87426,0.67065 -0.87426,1.88022 0,0.86228 0.33535,1.43714 0.3473,0.56287 1.10179,1.02992 0.76648,0.46707 2.3952,1.06587 1.95211,0.71857 2.91019,1.40122 0.95808,0.67064 1.41318,1.55688 0.45508,0.87424 0.45508,2.0958 z"
   id="text1"
   style="font-size:10.5833px;line-height:1.25;letter-spacing:0px;word-spacing:0px;stroke-width:0.264583"
   aria-label="S" /><path
   d="m 163.17879,129.39949 q -2.82635,0 -4.44311,1.89221 -1.61677,1.89223 -1.61677,5.17365 0,3.38922 1.56886,5.23354 1.56886,1.83232 4.46707,1.83232 1.86826,0 4.20359,-0.69461 v 1.91618 q -1.11377,0.40718 -2.14371,0.55089 -1.02994,0.15574 -2.37126,0.15574 -3.86826,0 -5.96407,-2.3473 -2.08383,-2.35927 -2.08383,-6.67066 0,-2.70658 0.99401,-4.74251 1.00598,-2.03594 2.91018,-3.13774 1.91617,-1.10179 4.50299,-1.10179 2.77845,0 4.83833,1.02995 l -0.88623,1.86827 q -2.09581,-0.95809 -3.97605,-0.95809 z"
   id="text4"
   style="font-size:10.5833px;line-height:1.25;letter-spacing:0px;word-spacing:0px;stroke-width:0.264583"
   aria-label="C" /></g></svg>
