<?xml version="1.0" encoding="UTF-8" standalone="no"?>
<!-- Created with Inkscape (http://www.inkscape.org/) -->

<svg
   width="131.80875mm"
   height="140.24164mm"
   viewBox="0 0 131.80875 140.24164"
   version="1.1"
   id="svg8"
   sodipodi:docname="by-trans-school.svg"
   inkscape:version="1.4.1 (93de688d07, 2025-03-30)"
   xml:space="preserve"
   xmlns:inkscape="http://www.inkscape.org/namespaces/inkscape"
   xmlns:sodipodi="http://sodipodi.sourceforge.net/DTD/sodipodi-0.dtd"
   xmlns:xlink="http://www.w3.org/1999/xlink"
   xmlns="http://www.w3.org/2000/svg"
   xmlns:svg="http://www.w3.org/2000/svg"
   xmlns:rdf="http://www.w3.org/1999/02/22-rdf-syntax-ns#"
   xmlns:cc="http://creativecommons.org/ns#"
   xmlns:dc="http://purl.org/dc/elements/1.1/"><defs
   id="defs2"><linearGradient
     id="linearGradient3"
     inkscape:collect="always"><stop
       style="stop-color:#ca1920;stop-opacity:1;"
       offset="0"
       id="stop3" /><stop
       style="stop-color:#037b30;stop-opacity:1;"
       offset="1"
       id="stop4" /></linearGradient><linearGradient
     id="linearGradient9-1"><stop
       style="stop-color:#ce1720;stop-opacity:1;"
       offset="0"
       id="stop14" /><stop
       style="stop-color:#ce1720;stop-opacity:0;"
       offset="1"
       id="stop15" /></linearGradient><linearGradient
     id="linearGradient9"><stop
       style="stop-color:#ce1720;stop-opacity:1;"
       offset="0"
       id="stop11" /><stop
       style="stop-color:#ce1720;stop-opacity:0;"
       offset="1"
       id="stop12" /></linearGradient><linearGradient
     id="linearGradient9-2"><stop
       style="stop-color:#ce1720;stop-opacity:1;"
       offset="0"
       id="stop9" /><stop
       style="stop-color:#ce1720;stop-opacity:0;"
       offset="1"
       id="stop10" /></linearGradient><clipPath
     id="p"><path
       d="m 0,0 h 200 v 608 h 8 v 284 l -8,8 H 0 Z"
       id="path1-4" /></clipPath><linearGradient
     inkscape:collect="always"
     xlink:href="#linearGradient3"
     id="linearGradient4"
     x1="58.079556"
     y1="195.34937"
     x2="188.09167"
     y2="195.5444"
     gradientUnits="userSpaceOnUse"
     gradientTransform="translate(-3.0829557,-27.783651)" /></defs>
    <sodipodi:namedview
   id="base"
   pagecolor="#ffffff"
   bordercolor="#666666"
   borderopacity="1.0"
   inkscape:pageopacity="0.0"
   inkscape:pageshadow="2"
   inkscape:zoom="1.4"
   inkscape:cx="255.35714"
   inkscape:cy="335.35714"
   inkscape:document-units="mm"
   inkscape:current-layer="layer1"
   showgrid="false"
   inkscape:window-width="1920"
   inkscape:window-height="1019"
   inkscape:window-x="0"
   inkscape:window-y="0"
   inkscape:window-maximized="1"
   inkscape:snap-text-baseline="true"
   inkscape:showpageshadow="2"
   inkscape:pagecheckerboard="0"
   inkscape:deskcolor="#d1d1d1"
   showguides="true"><sodipodi:guide
     position="36.391284,86.564041"
     orientation="0,-1"
     id="guide11"
     inkscape:locked="false" /><sodipodi:guide
     position="36.685101,46.262698"
     orientation="0,-1"
     id="guide12"
     inkscape:locked="false" /></sodipodi:namedview>
    <metadata
   id="metadata5"><rdf:RDF><cc:Work
       rdf:about=""><dc:format>image/svg+xml</dc:format><dc:type
         rdf:resource="http://purl.org/dc/dcmitype/StillImage" /></cc:Work></rdf:RDF></metadata>
    <g
   inkscape:label="Layer 1"
   inkscape:groupmode="layer"
   id="layer1"
   transform="translate(-41.445089,-73.781815)"><path
   id="path4518"
   style="color:#000000;font-style:normal;font-variant:normal;font-weight:normal;font-stretch:normal;font-size:medium;line-height:normal;font-family:sans-serif;font-variant-ligatures:normal;font-variant-position:normal;font-variant-caps:normal;font-variant-numeric:normal;font-variant-alternates:normal;font-feature-settings:normal;text-indent:0;text-align:start;text-decoration:none;text-decoration-line:none;text-decoration-style:solid;text-decoration-color:#000000;letter-spacing:normal;word-spacing:normal;text-transform:none;writing-mode:lr-tb;direction:ltr;text-orientation:mixed;dominant-baseline:auto;baseline-shift:baseline;text-anchor:start;white-space:normal;shape-padding:0;clip-rule:nonzero;display:inline;overflow:visible;visibility:visible;opacity:1;isolation:auto;mix-blend-mode:normal;color-interpolation:sRGB;color-interpolation-filters:linearRGB;solid-color:#000000;solid-opacity:1;vector-effect:none;fill:#ff9e00;fill-opacity:1;fill-rule:evenodd;stroke:none;stroke-width:15.73429966;stroke-linecap:butt;stroke-linejoin:miter;stroke-miterlimit:4;stroke-dasharray:none;stroke-dashoffset:0;stroke-opacity:1;color-rendering:auto;image-rendering:auto;shape-rendering:auto;text-rendering:auto;enable-background:accumulate"
   d="m 160.59297,82.689347 c 0,0 -4.77722,5.828603 -10.47217,12.805388 C 117.9415,73.905106 72.62369,80.259374 48.8805,109.82214 l -4.4e-4,5.4e-4 13.15481,9.00394 4.4e-4,-5.3e-4 c 18.45088,-22.97329 53.18936,-27.900255 78.24575,-11.244 -5.24998,6.47369 -9.43677,11.69239 -9.35276,11.76966 l 37.11277,-2.99087 z"
   inkscape:transform-center-x="-1.7394904"
   inkscape:transform-center-y="-48.789401"
   inkscape:connector-curvature="0" />
        <path
   id="path388"
   style="color:#000000;font-style:normal;font-variant:normal;font-weight:normal;font-stretch:normal;font-size:medium;line-height:normal;font-family:sans-serif;font-variant-ligatures:normal;font-variant-position:normal;font-variant-caps:normal;font-variant-numeric:normal;font-variant-alternates:normal;font-feature-settings:normal;text-indent:0;text-align:start;text-decoration:none;text-decoration-line:none;text-decoration-style:solid;text-decoration-color:#000000;letter-spacing:normal;word-spacing:normal;text-transform:none;writing-mode:lr-tb;direction:ltr;text-orientation:mixed;dominant-baseline:auto;baseline-shift:baseline;text-anchor:start;white-space:normal;shape-padding:0;clip-rule:nonzero;display:inline;overflow:visible;visibility:visible;opacity:1;isolation:auto;mix-blend-mode:normal;color-interpolation:sRGB;color-interpolation-filters:linearRGB;solid-color:#000000;solid-opacity:1;vector-effect:none;fill:#ff9e00;fill-opacity:1;fill-rule:evenodd;stroke:none;stroke-width:15.73429966;stroke-linecap:butt;stroke-linejoin:miter;stroke-miterlimit:4;stroke-dasharray:none;stroke-dashoffset:0;stroke-opacity:1;color-rendering:auto;image-rendering:auto;shape-rendering:auto;text-rendering:auto;enable-background:accumulate"
   d="m 56.32816,212.22948 c 0,0 4.77722,-5.8286 10.47217,-12.80538 32.1793,21.58963 77.49711,15.23536 101.2403,-14.32741 l 4.4e-4,-5.4e-4 -13.15481,-9.00394 -4.4e-4,5.3e-4 c -18.45088,22.97329 -53.18936,27.90026 -78.24575,11.244 5.24998,-6.47369 9.43677,-11.69239 9.35276,-11.76966 l -37.11277,2.99087 z"
   inkscape:transform-center-x="1.7394902"
   inkscape:transform-center-y="48.789402"
   inkscape:connector-curvature="0" />
        
        
        <path
   style="font-size:56.4444px;line-height:1.05;font-family:Sans;-inkscape-font-specification:Sans;white-space:pre;inline-size:176.559;fill:url(#linearGradient4);stroke-width:0.264583"
   d="m 66.511249,127.30879 q 7.56355,0 11.401769,2.25778 3.894664,2.20133 3.894664,7.73288 0,3.556 -1.975554,5.92666 -1.975554,2.31422 -5.700885,2.99155 v 0.28223 q 2.539998,0.39511 4.571997,1.46755 2.088442,1.07244 3.273775,3.048 1.185332,1.97555 1.185332,5.13644 0,5.47511 -3.781775,8.46666 -3.72533,2.99155 -10.216436,2.99155 H 54.996591 v -40.3013 z m 1.015999,17.1591 q 5.192885,0 7.111995,-1.63689 1.919109,-1.69333 1.919109,-4.96711 0,-3.33022 -2.370664,-4.74133 -2.314221,-1.46755 -7.450661,-1.46755 h -6.66044 v 12.81288 z m -7.450661,4.23333 v 14.6191 h 8.127994 q 5.362218,0 7.450661,-2.08845 2.088443,-2.08844 2.088443,-5.4751 0,-3.16089 -2.201332,-5.08 -2.144887,-1.97555 -7.732883,-1.97555 z m 54.130163,18.90887 H 91.68543 v -40.3013 h 22.52132 v 4.45911 H 96.765426 v 12.5871 h 16.425324 v 4.40266 H 96.765426 v 14.39332 h 17.441324 z m 7.45065,-27.2062 q 0,-2.14489 1.016,-2.99155 1.01599,-0.84667 2.4271,-0.84667 1.46756,0 2.48356,0.84667 1.07244,0.84666 1.07244,2.99155 0,2.032 -1.07244,2.93511 -1.016,0.90311 -2.48356,0.90311 -1.41111,0 -2.4271,-0.90311 -1.016,-0.90311 -1.016,-2.93511 z m 0,24.1582 q 0,-2.08844 1.016,-2.9351 1.01599,-0.84667 2.4271,-0.84667 1.46756,0 2.48356,0.84667 1.07244,0.84666 1.07244,2.9351 0,2.032 -1.07244,2.93511 -1.016,0.90311 -2.48356,0.90311 -1.41111,0 -2.4271,-0.90311 -1.016,-0.90311 -1.016,-2.93511 z m 39.39816,-7.73288 q 0,5.36222 -3.89466,8.35377 -3.89466,2.99156 -10.49866,2.99156 -3.38666,0 -6.26533,-0.508 -2.87866,-0.508 -4.79777,-1.41111 v -4.85422 q 2.032,0.90311 5.02355,1.63689 3.048,0.73377 6.26533,0.73377 4.51555,0 6.77333,-1.74977 2.31422,-1.74978 2.31422,-4.74133 0,-1.97556 -0.84667,-3.33022 -0.84666,-1.35467 -2.93511,-2.48356 -2.032,-1.18533 -5.70088,-2.48355 -5.13644,-1.86267 -7.78933,-4.572 -2.59644,-2.70933 -2.59644,-7.39421 0,-3.21733 1.63689,-5.47511 1.63688,-2.31422 4.51555,-3.556 2.93511,-1.24177 6.71688,-1.24177 3.33022,0 6.096,0.62088 2.76577,0.62089 5.02355,1.63689 l -1.58044,4.34622 q -2.08845,-0.90311 -4.572,-1.524 -2.42711,-0.62089 -5.08,-0.62089 -3.78177,0 -5.70088,1.63689 -1.91911,1.58044 -1.91911,4.23333 0,2.032 0.84666,3.38667 0.84667,1.35466 2.76578,2.4271 1.91911,1.07245 5.19289,2.31423 3.55599,1.29822 5.9831,2.82222 2.48356,1.46755 3.72533,3.55599 1.29822,2.08845 1.29822,5.24933 z"
   id="text2"
   transform="translate(0.43446139,-0.11288689)"
   aria-label="BE:S" /></g></svg>
