<?xml version="1.0" encoding="UTF-8" standalone="no"?>
<!-- Created with Inkscape (http://www.inkscape.org/) -->

<svg
   width="131.80875mm"
   height="140.24164mm"
   viewBox="0 0 131.80875 140.24164"
   version="1.1"
   id="svg8"
   sodipodi:docname="by-trans-cyrillic.svg"
   inkscape:version="1.3.2 (091e20e, 2023-11-25, custom)"
   xml:space="preserve"
   xmlns:inkscape="http://www.inkscape.org/namespaces/inkscape"
   xmlns:sodipodi="http://sodipodi.sourceforge.net/DTD/sodipodi-0.dtd"
   xmlns:xlink="http://www.w3.org/1999/xlink"
   xmlns="http://www.w3.org/2000/svg"
   xmlns:svg="http://www.w3.org/2000/svg"
   xmlns:rdf="http://www.w3.org/1999/02/22-rdf-syntax-ns#"
   xmlns:cc="http://creativecommons.org/ns#"
   xmlns:dc="http://purl.org/dc/elements/1.1/"><defs
   id="defs2"><linearGradient
     id="linearGradient9-1"><stop
       style="stop-color:#ce1720;stop-opacity:1;"
       offset="0"
       id="stop14" /><stop
       style="stop-color:#ce1720;stop-opacity:0;"
       offset="1"
       id="stop15" /></linearGradient><linearGradient
     id="linearGradient9"><stop
       style="stop-color:#ce1720;stop-opacity:1;"
       offset="0"
       id="stop11" /><stop
       style="stop-color:#ce1720;stop-opacity:0;"
       offset="1"
       id="stop12" /></linearGradient><linearGradient
     id="linearGradient9-2"><stop
       style="stop-color:#ce1720;stop-opacity:1;"
       offset="0"
       id="stop9" /><stop
       style="stop-color:#ce1720;stop-opacity:0;"
       offset="1"
       id="stop10" /></linearGradient><clipPath
     id="p"><path
       d="m 0,0 h 200 v 608 h 8 v 284 l -8,8 H 0 Z"
       id="path1-4" /></clipPath><linearGradient
     inkscape:collect="always"
     xlink:href="#linearGradient5"
     id="linearGradient6"
     x1="63.412807"
     y1="147.45941"
     x2="153.50832"
     y2="147.45941"
     gradientUnits="userSpaceOnUse"
     gradientTransform="translate(1.7e-6)" /><linearGradient
     id="linearGradient5"
     inkscape:collect="always"><stop
       style="stop-color:#ca1920;stop-opacity:1;"
       offset="0"
       id="stop5" /><stop
       style="stop-color:#037b30;stop-opacity:1;"
       offset="1"
       id="stop6" /></linearGradient></defs>
    <sodipodi:namedview
   id="base"
   pagecolor="#ffffff"
   bordercolor="#666666"
   borderopacity="1.0"
   inkscape:pageopacity="0.0"
   inkscape:pageshadow="2"
   inkscape:zoom="0.7"
   inkscape:cx="-96.428571"
   inkscape:cy="215"
   inkscape:document-units="mm"
   inkscape:current-layer="layer1"
   showgrid="false"
   inkscape:window-width="1920"
   inkscape:window-height="1017"
   inkscape:window-x="-8"
   inkscape:window-y="-8"
   inkscape:window-maximized="1"
   inkscape:snap-text-baseline="true"
   inkscape:showpageshadow="2"
   inkscape:pagecheckerboard="0"
   inkscape:deskcolor="#d1d1d1" />
    <metadata
   id="metadata5"><rdf:RDF><cc:Work
       rdf:about=""><dc:format>image/svg+xml</dc:format><dc:type
         rdf:resource="http://purl.org/dc/dcmitype/StillImage" /></cc:Work></rdf:RDF></metadata>
    <g
   inkscape:label="Layer 1"
   inkscape:groupmode="layer"
   id="layer1"
   transform="translate(-41.445089,-73.781815)"><path
   id="path4518"
   style="color:#000000;font-style:normal;font-variant:normal;font-weight:normal;font-stretch:normal;font-size:medium;line-height:normal;font-family:sans-serif;font-variant-ligatures:normal;font-variant-position:normal;font-variant-caps:normal;font-variant-numeric:normal;font-variant-alternates:normal;font-feature-settings:normal;text-indent:0;text-align:start;text-decoration:none;text-decoration-line:none;text-decoration-style:solid;text-decoration-color:#000000;letter-spacing:normal;word-spacing:normal;text-transform:none;writing-mode:lr-tb;direction:ltr;text-orientation:mixed;dominant-baseline:auto;baseline-shift:baseline;text-anchor:start;white-space:normal;shape-padding:0;clip-rule:nonzero;display:inline;overflow:visible;visibility:visible;opacity:1;isolation:auto;mix-blend-mode:normal;color-interpolation:sRGB;color-interpolation-filters:linearRGB;solid-color:#000000;solid-opacity:1;vector-effect:none;fill:#ff9e00;fill-opacity:1;fill-rule:evenodd;stroke:none;stroke-width:15.73429966;stroke-linecap:butt;stroke-linejoin:miter;stroke-miterlimit:4;stroke-dasharray:none;stroke-dashoffset:0;stroke-opacity:1;color-rendering:auto;image-rendering:auto;shape-rendering:auto;text-rendering:auto;enable-background:accumulate"
   d="m 160.59297,82.689347 c 0,0 -4.77722,5.828603 -10.47217,12.805388 C 117.9415,73.905106 72.62369,80.259374 48.8805,109.82214 l -4.4e-4,5.4e-4 13.15481,9.00394 4.4e-4,-5.3e-4 c 18.45088,-22.97329 53.18936,-27.900255 78.24575,-11.244 -5.24998,6.47369 -9.43677,11.69239 -9.35276,11.76966 l 37.11277,-2.99087 z"
   inkscape:transform-center-x="-1.7394904"
   inkscape:transform-center-y="-48.789401"
   inkscape:connector-curvature="0" />
        <path
   id="path388"
   style="color:#000000;font-style:normal;font-variant:normal;font-weight:normal;font-stretch:normal;font-size:medium;line-height:normal;font-family:sans-serif;font-variant-ligatures:normal;font-variant-position:normal;font-variant-caps:normal;font-variant-numeric:normal;font-variant-alternates:normal;font-feature-settings:normal;text-indent:0;text-align:start;text-decoration:none;text-decoration-line:none;text-decoration-style:solid;text-decoration-color:#000000;letter-spacing:normal;word-spacing:normal;text-transform:none;writing-mode:lr-tb;direction:ltr;text-orientation:mixed;dominant-baseline:auto;baseline-shift:baseline;text-anchor:start;white-space:normal;shape-padding:0;clip-rule:nonzero;display:inline;overflow:visible;visibility:visible;opacity:1;isolation:auto;mix-blend-mode:normal;color-interpolation:sRGB;color-interpolation-filters:linearRGB;solid-color:#000000;solid-opacity:1;vector-effect:none;fill:#ff9e00;fill-opacity:1;fill-rule:evenodd;stroke:none;stroke-width:15.73429966;stroke-linecap:butt;stroke-linejoin:miter;stroke-miterlimit:4;stroke-dasharray:none;stroke-dashoffset:0;stroke-opacity:1;color-rendering:auto;image-rendering:auto;shape-rendering:auto;text-rendering:auto;enable-background:accumulate"
   d="m 56.32816,212.22948 c 0,0 4.77722,-5.8286 10.47217,-12.80538 32.1793,21.58963 77.49711,15.23536 101.2403,-14.32741 l 4.4e-4,-5.4e-4 -13.15481,-9.00394 -4.4e-4,5.3e-4 c -18.45088,22.97329 -53.18936,27.90026 -78.24575,11.244 5.24998,-6.47369 9.43677,-11.69239 9.35276,-11.76966 l -37.11277,2.99087 z"
   inkscape:transform-center-x="1.7394902"
   inkscape:transform-center-y="48.789402"
   inkscape:connector-curvature="0" />
        
        
        <path
   d="m 63.412807,127.45941 h 11.409002 q 8.043756,0 11.600516,2.40765 3.584129,2.38027 3.584129,7.49656 0,3.55675 -1.942549,5.88234 -1.94253,2.29821 -5.663461,2.9822 v 0.27372 q 4.623791,0.79343 6.78521,3.20108 2.188785,2.40764 2.188785,6.37482 0,5.36248 -3.666204,8.37205 -3.666201,3.00958 -10.232538,3.00958 H 63.412808 Z m 5.03419,17.01772 h 7.387121 q 4.705866,0 6.839926,-1.50479 2.13406,-1.50479 2.13406,-5.03417 0,-3.28319 -2.35293,-4.73323 -2.32558,-1.45004 -7.387131,-1.45004 h -6.621046 z m 0,4.21342 v 14.50064 h 8.071115 q 4.815313,0 7.140883,-1.86047 2.32557,-1.86047 2.32557,-5.6361 0,-3.58412 -2.462371,-5.28041 -2.46237,-1.72366 -7.387118,-1.72366 z M 122.18146,167.4593 H 99.828592 v -39.99989 h 22.352868 v 4.43224 h -17.31869 v 12.47604 h 16.30639 v 4.37755 h -16.30639 v 14.28177 h 17.31869 z m 8.80983,0 v -39.99989 h 5.03419 v 35.5129 h 17.48284 v 4.48699 z"
   id="text3"
   style="font-size:10.5833px;line-height:1.25;letter-spacing:0px;word-spacing:0px;fill:url(#linearGradient6);fill-opacity:1;stroke-width:0.264583"
   aria-label="BEL" /><path
   d="m 170.2337,161.99034 q 0,2.54159 -1.83634,4.00533 -1.83632,1.46374 -5.10975,1.46374 -3.45977,0 -5.34931,-0.91817 v -2.34198 q 1.23752,0.53226 2.70126,0.83832 1.47703,0.30604 2.7545,0.30604 2.18229,0 3.28674,-0.83832 1.10445,-0.83832 1.10445,-2.30206 0,-0.97137 -0.3992,-1.59679 -0.39918,-0.62542 -1.34398,-1.17099 -0.93146,-0.54559 -2.83432,-1.23752 -2.70126,-0.98472 -3.85894,-2.31538 -1.1577,-1.34398 -1.1577,-3.45974 0,-2.27546 1.70327,-3.61943 1.71656,-1.34398 4.51099,-1.34398 2.91417,0 5.36259,1.09116 l -0.75849,2.10245 q -2.50166,-1.03791 -4.65733,-1.03791 -1.72989,0 -2.71458,0.74518 -0.9714,0.74516 -0.9714,2.08913 0,0.95809 0.37261,1.59682 0.38589,0.62542 1.22421,1.14436 0.85164,0.51897 2.66133,1.1843 2.16901,0.79841 3.23355,1.55691 1.06453,0.74516 1.57019,1.72987 0.50565,0.97137 0.50565,2.32866 z"
   id="text1"
   style="font-size:10.5833px;line-height:1.25;letter-spacing:0px;word-spacing:0px;stroke-width:0.264583"
   aria-label="S" /><path
   d="m 52.914259,129.61506 q -3.140388,0 -4.936794,2.10245 -1.796409,2.10247 -1.796409,5.74849 0,3.76581 1.743181,5.81506 1.74318,2.03591 4.963409,2.03591 2.07585,0 4.67066,-0.77179 v 2.12908 q -1.237524,0.45243 -2.381903,0.61211 -1.144379,0.17304 -2.634731,0.17304 -4.298074,0 -6.626749,-2.60811 -2.31537,-2.62142 -2.31537,-7.41185 0,-3.00731 1.104458,-5.26946 1.117763,-2.26215 3.233533,-3.48637 2.129076,-1.22421 5.00333,-1.22421 3.087159,0 5.375916,1.14439 l -0.984699,2.07585 q -2.328675,-1.06454 -4.417832,-1.06454 z"
   id="text4"
   style="font-size:10.5833px;line-height:1.25;letter-spacing:0px;word-spacing:0px;stroke-width:0.264583"
   aria-label="C" /></g></svg>
