<?xml version="1.0" encoding="UTF-8" standalone="no"?>
<!-- Created with Inkscape (http://www.inkscape.org/) -->

<svg
   width="131.80875mm"
   height="140.24164mm"
   viewBox="0 0 131.80875 140.24164"
   version="1.1"
   id="svg8"
   sodipodi:docname="by-trans-classic.svg"
   inkscape:version="1.3.2 (091e20e, 2023-11-25, custom)"
   xml:space="preserve"
   xmlns:inkscape="http://www.inkscape.org/namespaces/inkscape"
   xmlns:sodipodi="http://sodipodi.sourceforge.net/DTD/sodipodi-0.dtd"
   xmlns:xlink="http://www.w3.org/1999/xlink"
   xmlns="http://www.w3.org/2000/svg"
   xmlns:svg="http://www.w3.org/2000/svg"
   xmlns:rdf="http://www.w3.org/1999/02/22-rdf-syntax-ns#"
   xmlns:cc="http://creativecommons.org/ns#"
   xmlns:dc="http://purl.org/dc/elements/1.1/"><defs
   id="defs2"><linearGradient
     id="linearGradient5"
     inkscape:collect="always"><stop
       style="stop-color:#ca1920;stop-opacity:1;"
       offset="0"
       id="stop5" /><stop
       style="stop-color:#037b30;stop-opacity:1;"
       offset="1"
       id="stop6" /></linearGradient><clipPath
     id="p"><path
       d="m 0,0 h 200 v 608 h 8 v 284 l -8,8 H 0 Z"
       id="path1-4" /></clipPath><linearGradient
     inkscape:collect="always"
     xlink:href="#linearGradient5"
     id="linearGradient6"
     x1="63.412806"
     y1="147.45941"
     x2="153.50832"
     y2="147.45941"
     gradientUnits="userSpaceOnUse"
     gradientTransform="translate(-14.532741)" /></defs>
    <sodipodi:namedview
   id="base"
   pagecolor="#ffffff"
   bordercolor="#666666"
   borderopacity="1.0"
   inkscape:pageopacity="0.0"
   inkscape:pageshadow="2"
   inkscape:zoom="0.7"
   inkscape:cx="345"
   inkscape:cy="353.57143"
   inkscape:document-units="mm"
   inkscape:current-layer="layer1"
   showgrid="false"
   inkscape:window-width="1920"
   inkscape:window-height="1017"
   inkscape:window-x="-8"
   inkscape:window-y="-8"
   inkscape:window-maximized="1"
   inkscape:snap-text-baseline="true"
   inkscape:showpageshadow="2"
   inkscape:pagecheckerboard="0"
   inkscape:deskcolor="#d1d1d1" />
    <metadata
   id="metadata5"><rdf:RDF><cc:Work
       rdf:about=""><dc:format>image/svg+xml</dc:format><dc:type
         rdf:resource="http://purl.org/dc/dcmitype/StillImage" /></cc:Work></rdf:RDF></metadata>
    <g
   inkscape:label="Layer 1"
   inkscape:groupmode="layer"
   id="layer1"
   transform="translate(-41.445089,-73.781815)"><path
   id="path4518"
   style="color:#000000;font-style:normal;font-variant:normal;font-weight:normal;font-stretch:normal;font-size:medium;line-height:normal;font-family:sans-serif;font-variant-ligatures:normal;font-variant-position:normal;font-variant-caps:normal;font-variant-numeric:normal;font-variant-alternates:normal;font-feature-settings:normal;text-indent:0;text-align:start;text-decoration:none;text-decoration-line:none;text-decoration-style:solid;text-decoration-color:#000000;letter-spacing:normal;word-spacing:normal;text-transform:none;writing-mode:lr-tb;direction:ltr;text-orientation:mixed;dominant-baseline:auto;baseline-shift:baseline;text-anchor:start;white-space:normal;shape-padding:0;clip-rule:nonzero;display:inline;overflow:visible;visibility:visible;opacity:1;isolation:auto;mix-blend-mode:normal;color-interpolation:sRGB;color-interpolation-filters:linearRGB;solid-color:#000000;solid-opacity:1;vector-effect:none;fill:#ff9e00;fill-opacity:1;fill-rule:evenodd;stroke:none;stroke-width:15.73429966;stroke-linecap:butt;stroke-linejoin:miter;stroke-miterlimit:4;stroke-dasharray:none;stroke-dashoffset:0;stroke-opacity:1;color-rendering:auto;image-rendering:auto;shape-rendering:auto;text-rendering:auto;enable-background:accumulate"
   d="m 160.59297,82.689347 c 0,0 -4.77722,5.828603 -10.47217,12.805388 C 117.9415,73.905106 72.62369,80.259374 48.8805,109.82214 l -4.4e-4,5.4e-4 13.15481,9.00394 4.4e-4,-5.3e-4 c 18.45088,-22.97329 53.18936,-27.900255 78.24575,-11.244 -5.24998,6.47369 -9.43677,11.69239 -9.35276,11.76966 l 37.11277,-2.99087 z"
   inkscape:transform-center-x="-1.7394904"
   inkscape:transform-center-y="-48.789401"
   inkscape:connector-curvature="0" />
        <path
   id="path388"
   style="color:#000000;font-style:normal;font-variant:normal;font-weight:normal;font-stretch:normal;font-size:medium;line-height:normal;font-family:sans-serif;font-variant-ligatures:normal;font-variant-position:normal;font-variant-caps:normal;font-variant-numeric:normal;font-variant-alternates:normal;font-feature-settings:normal;text-indent:0;text-align:start;text-decoration:none;text-decoration-line:none;text-decoration-style:solid;text-decoration-color:#000000;letter-spacing:normal;word-spacing:normal;text-transform:none;writing-mode:lr-tb;direction:ltr;text-orientation:mixed;dominant-baseline:auto;baseline-shift:baseline;text-anchor:start;white-space:normal;shape-padding:0;clip-rule:nonzero;display:inline;overflow:visible;visibility:visible;opacity:1;isolation:auto;mix-blend-mode:normal;color-interpolation:sRGB;color-interpolation-filters:linearRGB;solid-color:#000000;solid-opacity:1;vector-effect:none;fill:#ff9e00;fill-opacity:1;fill-rule:evenodd;stroke:none;stroke-width:15.73429966;stroke-linecap:butt;stroke-linejoin:miter;stroke-miterlimit:4;stroke-dasharray:none;stroke-dashoffset:0;stroke-opacity:1;color-rendering:auto;image-rendering:auto;shape-rendering:auto;text-rendering:auto;enable-background:accumulate"
   d="m 56.32816,212.22948 c 0,0 4.77722,-5.8286 10.47217,-12.80538 32.1793,21.58963 77.49711,15.23536 101.2403,-14.32741 l 4.4e-4,-5.4e-4 -13.15481,-9.00394 -4.4e-4,5.3e-4 c -18.45088,22.97329 -53.18936,27.90026 -78.24575,11.244 5.24998,-6.47369 9.43677,-11.69239 9.35276,-11.76966 l -37.11277,2.99087 z"
   inkscape:transform-center-x="1.7394902"
   inkscape:transform-center-y="48.789402"
   inkscape:connector-curvature="0" />
        
        
        <path
   d="m 48.88006,127.45941 h 11.409002 q 8.043755,0 11.600515,2.40765 3.58413,2.38027 3.58413,7.49656 0,3.55675 -1.94255,5.88234 -1.94253,2.29821 -5.66346,2.9822 v 0.27372 q 4.62379,0.79343 6.78521,3.20108 2.18878,2.40764 2.18878,6.37482 0,5.36248 -3.6662,8.37205 -3.6662,3.00958 -10.232537,3.00958 H 48.88006 Z m 5.03419,17.01772 h 7.387121 q 4.705866,0 6.839926,-1.50479 2.13406,-1.50479 2.13406,-5.03417 0,-3.28319 -2.35293,-4.73323 -2.32558,-1.45004 -7.387131,-1.45004 H 53.91425 Z m 0,4.21342 v 14.50064 h 8.071115 q 4.815312,0 7.140882,-1.86047 2.32557,-1.86047 2.32557,-5.6361 0,-3.58412 -2.46237,-5.28041 -2.46237,-1.72366 -7.387118,-1.72366 z m 53.73442,18.76875 H 85.295837 v -39.99989 h 22.352833 v 4.43224 H 90.329997 v 12.47604 h 16.306373 v 4.37755 H 90.329997 v 14.28177 h 17.318673 z m 8.80983,0 v -39.99989 h 5.03419 v 35.5129 h 17.48284 v 4.48699 z"
   id="text3"
   style="font-size:10.5833px;line-height:1.25;letter-spacing:0px;word-spacing:0px;fill:url(#linearGradient6);fill-opacity:1;stroke-width:0.264583"
   aria-label="BEL" /><path
   d="m 163.17876,129.39949 q -2.82637,0 -4.44313,1.89221 -1.61679,1.89222 -1.61679,5.17364 0,3.38923 1.56888,5.23355 1.56887,1.83232 4.46709,1.83232 1.86828,0 4.20362,-0.69461 v 1.91617 q -1.11378,0.40719 -2.14373,0.5509 -1.02994,0.15574 -2.37127,0.15574 -3.86829,0 -5.96411,-2.3473 -2.08384,-2.35928 -2.08384,-6.67066 0,-2.70658 0.99401,-4.74252 1.006,-2.03593 2.9102,-3.13773 1.91618,-1.10179 4.50302,-1.10179 2.77846,0 4.83836,1.02995 l -0.88624,1.86827 q -2.09581,-0.95809 -3.97607,-0.95809 z"
   id="text4"
   style="font-size:10.5833px;line-height:1.25;letter-spacing:0px;word-spacing:0px;stroke-width:0.264583"
   aria-label="C" /></g></svg>
