<?xml version="1.0" encoding="UTF-8" standalone="no"?>
<!-- Created with Inkscape (http://www.inkscape.org/) -->

<svg
   xmlns:dc="http://purl.org/dc/elements/1.1/"
   xmlns:cc="http://creativecommons.org/ns#"
   xmlns:rdf="http://www.w3.org/1999/02/22-rdf-syntax-ns#"
   xmlns:svg="http://www.w3.org/2000/svg"
   xmlns="http://www.w3.org/2000/svg"
   xmlns:sodipodi="http://sodipodi.sourceforge.net/DTD/sodipodi-0.dtd"
   xmlns:inkscape="http://www.inkscape.org/namespaces/inkscape"
   width="80mm"
   height="80mm"
   viewBox="0 0 80 80"
   version="1.1"
   id="svg3719"
   inkscape:version="0.92.4 (5da689c313, 2019-01-14)"
   sodipodi:docname="custom_trans.svg">
  <defs
     id="defs3713" />
  <sodipodi:namedview
     id="base"
     pagecolor="#ffffff"
     bordercolor="#666666"
     borderopacity="1.0"
     inkscape:pageopacity="0.0"
     inkscape:pageshadow="2"
     inkscape:zoom="0.98994949"
     inkscape:cx="-49.755713"
     inkscape:cy="285.13241"
     inkscape:document-units="mm"
     inkscape:current-layer="layer1"
     showgrid="false"
     inkscape:window-width="1920"
     inkscape:window-height="1017"
     inkscape:window-x="-8"
     inkscape:window-y="-8"
     inkscape:window-maximized="1"
     inkscape:snap-path-clip="true" />
  <metadata
     id="metadata3716">
    <rdf:RDF>
      <cc:Work
         rdf:about="">
        <dc:format>image/svg+xml</dc:format>
        <dc:type
           rdf:resource="http://purl.org/dc/dcmitype/StillImage" />
        <dc:title />
      </cc:Work>
    </rdf:RDF>
  </metadata>
  <g
     inkscape:label="Layer 1"
     inkscape:groupmode="layer"
     id="layer1"
     transform="translate(0,-217)">
    <path
       style="font-style:normal;font-weight:normal;font-size:40px;line-height:1.25;font-family:sans-serif;letter-spacing:0px;word-spacing:0px;fill:#000000;fill-opacity:1;stroke:none;stroke-width:0.24321973"
       d="m 21.747147,249.59272 c -3.194428,-0.0352 -5.910434,2.83006 -6.122998,6.08987 -0.475187,3.04494 0.64602,6.68829 3.601295,7.8929 2.6974,1.18053 5.779399,0.63695 8.364376,-0.60367 -0.253782,-1.01451 0.701751,-3.75878 -0.900341,-3.09151 -2.091549,1.62684 -5.766022,2.32922 -7.478472,-0.26017 -0.919498,-1.34977 -0.658721,-2.55352 1.111804,-1.96121 2.504313,0 5.008626,0 7.512938,0 0.202671,-2.65095 -0.186789,-5.97849 -2.702888,-7.35451 -1.027833,-0.58641 -2.227699,-0.75779 -3.385714,-0.7117 z m -14.6304356,0.0427 c -1.4414444,0.033 -2.865591,0.32551 -4.2576421,0.69911 0.2387979,1.02621 -0.7042988,3.69996 0.9781233,2.98629 1.8906339,-0.62617 4.3307371,-1.39412 6.0727655,-0.0585 0.8044339,0.95731 0.00913,1.38518 -0.9706717,1.20832 -2.5158992,0.15563 -5.8953826,0.55908 -6.9242002,3.40401 -0.9366369,2.54476 0.485761,5.76236 3.1491004,6.28815 1.7557396,0.36165 3.65091,-0.078 5.1062814,-1.15889 -0.5225831,1.50248 2.971717,1.16695 3.044303,0.42635 -0.132052,-3.44181 0.250053,-6.92746 -0.158831,-10.34719 -0.582834,-2.86852 -3.6214164,-3.56917 -6.0392286,-3.44762 z m 15.0459076,2.74752 c 1.429692,-0.11419 2.649504,1.13939 2.649323,2.60945 -1.974612,-0.0785 -4.326333,0.15507 -6.071368,-0.11337 0.350558,-1.61399 1.858047,-2.65239 3.422045,-2.49608 z m -11.892151,7.6016 c -1.3638794,1.1127 -3.6895504,1.97132 -5.1221178,0.60174 -0.87219,-1.366 0.309632,-3.04833 1.7913674,-3.07844 1.0981251,-0.22838 2.2309332,-0.26881 3.3307504,-0.36385 0,0.94685 0,1.8937 0,2.84055 z"
       id="flowRoot3737"
       inkscape:connector-curvature="0" />
    <path
       style="font-style:normal;font-weight:normal;font-size:40px;line-height:1.25;font-family:sans-serif;letter-spacing:0px;word-spacing:0px;fill:#ff0000;fill-opacity:1;stroke:none;stroke-width:0.25475153"
       d="m 69.345177,249.21352 c -1.574178,-0.064 -3.1052,0.99472 -4.200041,2.0266 -2.230478,-2.74619 -5.895227,-2.14127 -8.733793,-1.33508 -0.761126,0.28653 -0.845754,3.75284 0.151241,3.57821 1.941896,-0.77131 4.366484,-1.72033 6.258821,-0.29442 0.576559,0.71323 0.662997,2.13813 -0.446499,1.77085 -2.506003,0.16628 -5.850255,0.21673 -7.137073,3.24783 -1.100914,2.73798 0.184764,6.4063 2.799258,7.08828 2.376575,0.7251 4.970265,-0.48417 6.683663,-2.21573 2.52222,3.15534 6.816231,2.78265 9.92297,1.11162 0.409887,-0.6941 0.726665,-3.76862 -0.320704,-3.69806 -2.016597,1.57299 -5.147392,2.74035 -7.210338,0.54479 -0.670105,-0.84271 -0.939043,-2.00768 -0.984695,-3.13231 3.014291,0 6.028581,0 9.042872,0 0.208984,-2.94339 -0.276462,-6.61431 -2.845336,-7.99896 -0.919044,-0.535 -1.961035,-0.71997 -2.980346,-0.69362 z m 0.271402,3.10062 c 1.324161,-0.11009 2.426216,1.14332 2.538916,2.6348 -1.961096,0 -3.922187,0 -5.883282,0 0.370095,-1.72775 1.85475,-2.79126 3.344366,-2.6348 z m -6.454194,5.78753 c 0.03451,0.83206 0.142703,1.66308 0.361716,2.4575 -1.371683,1.35783 -3.749239,2.36642 -5.300852,0.8951 -0.800213,-1.34935 0.146203,-3.16147 1.529799,-3.18604 1.074923,-0.211 2.545941,-0.47417 3.409337,-0.16656 z"
       id="flowRoot5099"
       inkscape:connector-curvature="0" />
    <path
       inkscape:connector-curvature="0"
       style="fill:#ff9e00;fill-opacity:0.48627499;stroke-width:0.14665796"
       d="m 50.964354,240.74371 c 0.06895,-0.11452 1.198256,-1.57515 2.509556,-3.24585 l 2.384191,-3.03764 -0.472061,-0.37719 c -0.98632,-0.7881 -4.972849,-2.74337 -7.022251,-3.44419 -3.195478,-1.09275 -5.886649,-1.59945 -9.26971,-1.74536 -9.410797,-0.40584 -17.891284,2.95268 -24.351501,9.64391 l -1.914133,1.98257 -3.4108612,-2.37743 c -1.8759769,-1.3076 -3.4108658,-2.45397 -3.4108658,-2.54751 0,-0.30439 3.5378897,-3.99524 5.149818,-5.37247 5.381839,-4.59824 12.093291,-7.70647 19.574596,-9.06544 3.847494,-0.69891 10.190055,-0.69891 14.037551,0 5.496798,0.99848 10.381152,2.8437 14.747225,5.57119 0.767332,0.47935 1.45496,0.90725 1.528055,0.95089 0.0731,0.0436 1.375915,-1.48544 2.895146,-3.39795 2.119525,-2.66818 2.797683,-3.39632 2.914585,-3.12932 0.2779,0.63471 3.909101,17.90071 3.790328,18.02262 -0.06412,0.0658 -3.908783,0.4317 -8.543702,0.8131 -4.634918,0.38139 -9.064818,0.75438 -9.844231,0.82887 -0.906852,0.0867 -1.371964,0.0605 -1.291735,-0.0728 z"
       id="path4130-7" />
    <path
       inkscape:connector-curvature="0"
       style="fill:#ff9e00;fill-opacity:0.48627499;stroke-width:0.14665796"
       d="m 33.303793,292.90404 c -5.954043,-0.53393 -12.573651,-2.75378 -17.752986,-5.95336 -1.478838,-0.91356 -1.790593,-1.03544 -1.979091,-0.77376 -0.123056,0.17084 -1.383859,1.76889 -2.801786,3.55121 l -2.5780456,3.24057 -1.9815041,-9.20155 c -1.7073454,-7.92841 -1.9371982,-9.2213 -1.6612724,-9.34428 0.3902613,-0.17394 19.2648481,-1.70888 19.3932161,-1.57712 0.05012,0.0514 -0.997634,1.48725 -2.328347,3.19067 -1.896674,2.4279 -2.369353,3.15912 -2.187509,3.38402 0.387254,0.47895 4.974015,2.8118 6.846261,3.48205 4.010464,1.43572 8.31115,2.0908 12.407758,1.88997 8.294202,-0.40661 15.543253,-3.59381 21.182849,-9.31346 1.243561,-1.26121 2.2968,-2.29311 2.340531,-2.29311 0.04371,0 1.603869,1.06612 3.466967,2.36918 2.819797,1.97217 3.356182,2.42917 3.200812,2.72716 -0.102663,0.19688 -1.102122,1.30822 -2.221024,2.46962 -6.737231,6.99314 -15.674013,11.2232 -25.695378,12.16242 -2.675413,0.25074 -4.772611,0.24793 -7.651451,-0.0103 z"
       id="path4132-5" />
  </g>
</svg>
