<svg width="48" height="48" xmlns="http://www.w3.org/2000/svg" xmlns:xlink="http://www.w3.org/1999/xlink">
<defs>
<filter id="d" y="-.904" width="1.201" height="2.807">
<feGaussianBlur stdDeviation="1.788"/>
</filter>
<linearGradient id="e" x1="29.456" x2="28.444" y1="43.948" y2="15.222" gradientUnits="userSpaceOnUse">
<stop stop-color="#f56e6e" offset="0"/>
<stop stop-color="#ff2929" offset="1"/>
</linearGradient>
<linearGradient id="f" x1="24" x2="26.878" y1="10.619" y2="70.744" gradientUnits="userSpaceOnUse">
<stop stop-color="#fff" offset="0"/>
<stop stop-color="#fff" stop-opacity="0" offset="1"/>
</linearGradient>
<radialGradient id="h" cx="17.125" cy="23.839" r="2" gradientTransform="matrix(0 -15.822 7.3407 0 -150.99 303.01)" gradientUnits="userSpaceOnUse">
<stop stop-color="#fff" offset="0"/>
<stop stop-color="#fff" stop-opacity="0" offset="1"/>
</radialGradient>
</defs>
<g>
<rect x="2.375" y="37.75" width="42.75" height="4.75" rx="2.5" ry="2.5" filter="url(#d)" opacity=".506"/>
<path d="m41.5 38.5h-35l17.5-31 17.5 31z" fill="url(#e)" stroke="#a40000" stroke-linecap="round" stroke-linejoin="round" stroke-width="5"/>
<path d="m23.844 6.5c-0.30324 0.048465-0.56785 0.23254-0.71875 0.5l-17.5 31c-0.17424 0.31141-0.17082 0.69174 0.0089793 0.99997 0.1798 0.30823 0.50918 0.49841 0.86602 0.50003h35c0.35684-0.001617 0.68622-0.1918 0.86602-0.50003 0.1798-0.30823 0.18322-0.68856 0.008979-0.99997l-17.5-31c-0.20632-0.36491-0.61697-0.56401-1.0312-0.5z" fill="none" opacity=".596" stroke="url(#f)" stroke-linecap="round" stroke-linejoin="round"/>
<g fill="url(#h)">
<path transform="translate(9.15 10.638) scale(.65196)" d="m25.721 31.295a3.0052 3.0052 0 1 1-6.0104 0 3.0052 3.0052 0 1 1 6.0104 0z"/>
<path d="m23 28h2l1-9h-4l1 9z"/>
</g>
</g>
</svg>
