<?xml version="1.0" encoding="UTF-8" standalone="no"?>
<!-- Created with Inkscape (http://www.inkscape.org/) -->

<svg
   width="131.80875mm"
   height="140.24164mm"
   viewBox="0 0 131.80875 140.24164"
   version="1.1"
   id="svg8"
   sodipodi:docname="gr-trans.svg"
   inkscape:version="1.3.2 (091e20e, 2023-11-25, custom)"
   xml:space="preserve"
   xmlns:inkscape="http://www.inkscape.org/namespaces/inkscape"
   xmlns:sodipodi="http://sodipodi.sourceforge.net/DTD/sodipodi-0.dtd"
   xmlns="http://www.w3.org/2000/svg"
   xmlns:svg="http://www.w3.org/2000/svg"
   xmlns:rdf="http://www.w3.org/1999/02/22-rdf-syntax-ns#"
   xmlns:cc="http://creativecommons.org/ns#"
   xmlns:dc="http://purl.org/dc/elements/1.1/"><defs
   id="defs2" />
    <sodipodi:namedview
   id="base"
   pagecolor="#ffffff"
   bordercolor="#666666"
   borderopacity="1.0"
   inkscape:pageopacity="0.0"
   inkscape:pageshadow="2"
   inkscape:zoom="0.7"
   inkscape:cx="-96.428571"
   inkscape:cy="215"
   inkscape:document-units="mm"
   inkscape:current-layer="layer1"
   showgrid="false"
   inkscape:window-width="1920"
   inkscape:window-height="1017"
   inkscape:window-x="-8"
   inkscape:window-y="-8"
   inkscape:window-maximized="1"
   inkscape:snap-text-baseline="true"
   inkscape:showpageshadow="2"
   inkscape:pagecheckerboard="0"
   inkscape:deskcolor="#d1d1d1" />
    <metadata
   id="metadata5"><rdf:RDF><cc:Work
       rdf:about=""><dc:format>image/svg+xml</dc:format><dc:type
         rdf:resource="http://purl.org/dc/dcmitype/StillImage" /></cc:Work></rdf:RDF></metadata>
    <g
   inkscape:label="Layer 1"
   inkscape:groupmode="layer"
   id="layer1"
   transform="translate(-41.445089,-73.781815)"><path
   id="path4518"
   style="color:#000000;font-style:normal;font-variant:normal;font-weight:normal;font-stretch:normal;font-size:medium;line-height:normal;font-family:sans-serif;font-variant-ligatures:normal;font-variant-position:normal;font-variant-caps:normal;font-variant-numeric:normal;font-variant-alternates:normal;font-feature-settings:normal;text-indent:0;text-align:start;text-decoration:none;text-decoration-line:none;text-decoration-style:solid;text-decoration-color:#000000;letter-spacing:normal;word-spacing:normal;text-transform:none;writing-mode:lr-tb;direction:ltr;text-orientation:mixed;dominant-baseline:auto;baseline-shift:baseline;text-anchor:start;white-space:normal;shape-padding:0;clip-rule:nonzero;display:inline;overflow:visible;visibility:visible;opacity:1;isolation:auto;mix-blend-mode:normal;color-interpolation:sRGB;color-interpolation-filters:linearRGB;solid-color:#000000;solid-opacity:1;vector-effect:none;fill:#ff9e00;fill-opacity:1;fill-rule:evenodd;stroke:none;stroke-width:15.73429966;stroke-linecap:butt;stroke-linejoin:miter;stroke-miterlimit:4;stroke-dasharray:none;stroke-dashoffset:0;stroke-opacity:1;color-rendering:auto;image-rendering:auto;shape-rendering:auto;text-rendering:auto;enable-background:accumulate"
   d="m 160.59297,82.689347 c 0,0 -4.77722,5.828603 -10.47217,12.805388 C 117.9415,73.905106 72.62369,80.259374 48.8805,109.82214 l -4.4e-4,5.4e-4 13.15481,9.00394 4.4e-4,-5.3e-4 c 18.45088,-22.97329 53.18936,-27.900255 78.24575,-11.244 -5.24998,6.47369 -9.43677,11.69239 -9.35276,11.76966 l 37.11277,-2.99087 z"
   inkscape:transform-center-x="-1.7394904"
   inkscape:transform-center-y="-48.789401"
   inkscape:connector-curvature="0" />
        <path
   id="path388"
   style="color:#000000;font-style:normal;font-variant:normal;font-weight:normal;font-stretch:normal;font-size:medium;line-height:normal;font-family:sans-serif;font-variant-ligatures:normal;font-variant-position:normal;font-variant-caps:normal;font-variant-numeric:normal;font-variant-alternates:normal;font-feature-settings:normal;text-indent:0;text-align:start;text-decoration:none;text-decoration-line:none;text-decoration-style:solid;text-decoration-color:#000000;letter-spacing:normal;word-spacing:normal;text-transform:none;writing-mode:lr-tb;direction:ltr;text-orientation:mixed;dominant-baseline:auto;baseline-shift:baseline;text-anchor:start;white-space:normal;shape-padding:0;clip-rule:nonzero;display:inline;overflow:visible;visibility:visible;opacity:1;isolation:auto;mix-blend-mode:normal;color-interpolation:sRGB;color-interpolation-filters:linearRGB;solid-color:#000000;solid-opacity:1;vector-effect:none;fill:#ff9e00;fill-opacity:1;fill-rule:evenodd;stroke:none;stroke-width:15.73429966;stroke-linecap:butt;stroke-linejoin:miter;stroke-miterlimit:4;stroke-dasharray:none;stroke-dashoffset:0;stroke-opacity:1;color-rendering:auto;image-rendering:auto;shape-rendering:auto;text-rendering:auto;enable-background:accumulate"
   d="m 56.32816,212.22948 c 0,0 4.77722,-5.8286 10.47217,-12.80538 32.1793,21.58963 77.49711,15.23536 101.2403,-14.32741 l 4.4e-4,-5.4e-4 -13.15481,-9.00394 -4.4e-4,5.3e-4 c -18.45088,22.97329 -53.18936,27.90026 -78.24575,11.244 5.24998,-6.47369 9.43677,-11.69239 9.35276,-11.76966 l -37.11277,2.99087 z"
   inkscape:transform-center-x="1.7394902"
   inkscape:transform-center-y="48.789402"
   inkscape:connector-curvature="0" />
        
        
        <path
   d="m 78.680118,146.38146 h 13.439793 v 19.08185 q -3.08716,0.98469 -6.280778,1.49037 -3.193613,0.50573 -7.398538,0.50573 -8.888891,0 -13.759154,-5.26946 -4.870263,-5.26946 -4.870263,-14.71725 0,-6.09445 2.421824,-10.64538 2.421824,-4.55087 6.972729,-6.9461 4.577509,-2.42181 10.778442,-2.42181 6.227549,0 11.603468,2.28873 l -1.862942,4.25815 q -5.136396,-2.23553 -10.033269,-2.23553 -6.946113,0 -10.858289,4.20495 -3.912177,4.2049 -3.912177,11.49699 0,7.71794 3.752495,11.73657 3.752494,4.01862 10.911514,4.01862 3.912177,0 7.638061,-0.93149 v -11.55024 h -8.542916 z m 27.677992,0.3193 h 5.82834 q 4.7372,0 6.9195,-1.86292 2.1823,-1.86292 2.1823,-5.53562 0,-3.67264 -2.20892,-5.34928 -2.20891,-1.70327 -7.15901,-1.70327 h -5.56221 z m 0,4.1517 V 166.927 h -4.89688 v -38.90886 h 10.72522 q 7.23886,0 10.69861,2.76778 3.48636,2.74121 3.48636,8.27678 0,7.74451 -7.79774,10.43247 l 10.67199,17.43183 h -5.72189 l -9.42116,-16.07454 z m 50.75184,16.07454 h -21.74319 v -38.90886 h 21.74319 v 4.31135 h -16.84631 v 12.13575 h 15.86162 v 4.25815 h -15.86162 v 13.89221 h 16.84631 z"
   id="text2"
   style="font-size:10.5833px;line-height:1.25;letter-spacing:0px;word-spacing:0px;stroke-width:0.264583;fill:#0d5eaf;fill-opacity:1"
   aria-label="GRE" /></g></svg>
