<?xml version="1.0" encoding="UTF-8" standalone="no"?>
<!-- Created with Inkscape (http://www.inkscape.org/) -->

<svg
   width="131.80875mm"
   height="140.24164mm"
   viewBox="0 0 131.80875 140.24164"
   version="1.1"
   id="svg8"
   sodipodi:docname="gr-trans.svg"
   inkscape:version="1.3.2 (091e20e, 2023-11-25, custom)"
   xml:space="preserve"
   xmlns:inkscape="http://www.inkscape.org/namespaces/inkscape"
   xmlns:sodipodi="http://sodipodi.sourceforge.net/DTD/sodipodi-0.dtd"
   xmlns="http://www.w3.org/2000/svg"
   xmlns:svg="http://www.w3.org/2000/svg"
   xmlns:rdf="http://www.w3.org/1999/02/22-rdf-syntax-ns#"
   xmlns:cc="http://creativecommons.org/ns#"
   xmlns:dc="http://purl.org/dc/elements/1.1/"><defs
   id="defs2" />
    <sodipodi:namedview
   id="base"
   pagecolor="#ffffff"
   bordercolor="#666666"
   borderopacity="1.0"
   inkscape:pageopacity="0.0"
   inkscape:pageshadow="2"
   inkscape:zoom="0.7"
   inkscape:cx="-96.428571"
   inkscape:cy="215"
   inkscape:document-units="mm"
   inkscape:current-layer="layer1"
   showgrid="false"
   inkscape:window-width="1920"
   inkscape:window-height="1017"
   inkscape:window-x="-8"
   inkscape:window-y="-8"
   inkscape:window-maximized="1"
   inkscape:snap-text-baseline="true"
   inkscape:showpageshadow="2"
   inkscape:pagecheckerboard="0"
   inkscape:deskcolor="#d1d1d1" />
    <metadata
   id="metadata5"><rdf:RDF><cc:Work
       rdf:about=""><dc:format>image/svg+xml</dc:format><dc:type
         rdf:resource="http://purl.org/dc/dcmitype/StillImage" /></cc:Work></rdf:RDF></metadata>
    <g
   inkscape:label="Layer 1"
   inkscape:groupmode="layer"
   id="layer1"
   transform="translate(-41.445089,-73.781815)"><path
   id="path4518"
   style="color:#000000;font-style:normal;font-variant:normal;font-weight:normal;font-stretch:normal;font-size:medium;line-height:normal;font-family:sans-serif;font-variant-ligatures:normal;font-variant-position:normal;font-variant-caps:normal;font-variant-numeric:normal;font-variant-alternates:normal;font-feature-settings:normal;text-indent:0;text-align:start;text-decoration:none;text-decoration-line:none;text-decoration-style:solid;text-decoration-color:#000000;letter-spacing:normal;word-spacing:normal;text-transform:none;writing-mode:lr-tb;direction:ltr;text-orientation:mixed;dominant-baseline:auto;baseline-shift:baseline;text-anchor:start;white-space:normal;shape-padding:0;clip-rule:nonzero;display:inline;overflow:visible;visibility:visible;opacity:1;isolation:auto;mix-blend-mode:normal;color-interpolation:sRGB;color-interpolation-filters:linearRGB;solid-color:#000000;solid-opacity:1;vector-effect:none;fill:#ff9e00;fill-opacity:1;fill-rule:evenodd;stroke:none;stroke-width:15.73429966;stroke-linecap:butt;stroke-linejoin:miter;stroke-miterlimit:4;stroke-dasharray:none;stroke-dashoffset:0;stroke-opacity:1;color-rendering:auto;image-rendering:auto;shape-rendering:auto;text-rendering:auto;enable-background:accumulate"
   d="m 160.59297,82.689347 c 0,0 -4.77722,5.828603 -10.47217,12.805388 C 117.9415,73.905106 72.62369,80.259374 48.8805,109.82214 l -4.4e-4,5.4e-4 13.15481,9.00394 4.4e-4,-5.3e-4 c 18.45088,-22.97329 53.18936,-27.900255 78.24575,-11.244 -5.24998,6.47369 -9.43677,11.69239 -9.35276,11.76966 l 37.11277,-2.99087 z"
   inkscape:transform-center-x="-1.7394904"
   inkscape:transform-center-y="-48.789401"
   inkscape:connector-curvature="0" />
        <path
   id="path388"
   style="color:#000000;font-style:normal;font-variant:normal;font-weight:normal;font-stretch:normal;font-size:medium;line-height:normal;font-family:sans-serif;font-variant-ligatures:normal;font-variant-position:normal;font-variant-caps:normal;font-variant-numeric:normal;font-variant-alternates:normal;font-feature-settings:normal;text-indent:0;text-align:start;text-decoration:none;text-decoration-line:none;text-decoration-style:solid;text-decoration-color:#000000;letter-spacing:normal;word-spacing:normal;text-transform:none;writing-mode:lr-tb;direction:ltr;text-orientation:mixed;dominant-baseline:auto;baseline-shift:baseline;text-anchor:start;white-space:normal;shape-padding:0;clip-rule:nonzero;display:inline;overflow:visible;visibility:visible;opacity:1;isolation:auto;mix-blend-mode:normal;color-interpolation:sRGB;color-interpolation-filters:linearRGB;solid-color:#000000;solid-opacity:1;vector-effect:none;fill:#ff9e00;fill-opacity:1;fill-rule:evenodd;stroke:none;stroke-width:15.73429966;stroke-linecap:butt;stroke-linejoin:miter;stroke-miterlimit:4;stroke-dasharray:none;stroke-dashoffset:0;stroke-opacity:1;color-rendering:auto;image-rendering:auto;shape-rendering:auto;text-rendering:auto;enable-background:accumulate"
   d="m 56.32816,212.22948 c 0,0 4.77722,-5.8286 10.47217,-12.80538 32.1793,21.58963 77.49711,15.23536 101.2403,-14.32741 l 4.4e-4,-5.4e-4 -13.15481,-9.00394 -4.4e-4,5.3e-4 c -18.45088,22.97329 -53.18936,27.90026 -78.24575,11.244 5.24998,-6.47369 9.43677,-11.69239 9.35276,-11.76966 l -37.11277,2.99087 z"
   inkscape:transform-center-x="1.7394902"
   inkscape:transform-center-y="48.789402"
   inkscape:connector-curvature="0" />
        
        
        <path
   d="m 82.796146,152.08064 q 4.124194,0 5.987534,-2.21116 1.888182,-2.23603 1.888182,-7.15525 v -1.06832 q 0,-5.46576 -1.888182,-7.95025 -1.888187,-2.48444 -6.086914,-2.48444 -3.428544,0 -5.316731,2.7329 -1.86334,2.70805 -1.86334,7.7515 0,5.0683 1.813652,7.72664 1.838494,2.65838 5.465799,2.65838 z m 7.826028,2.9068 0.149088,-3.35401 H 90.57251 q -2.757746,4.09936 -8.447143,4.09936 -5.291889,0 -8.273231,-3.677 -2.956502,-3.70185 -2.956502,-10.40988 0,-6.5838 2.981347,-10.38498 3.006191,-3.80123 8.1987,-3.80123 5.540327,0 8.546517,4.12421 h 0.273271 l 0.596269,-3.62733 h 3.552772 v 27.72649 q 0,5.86332 -2.981349,8.81983 -2.956498,2.95651 -9.217321,2.95651 -5.962688,0 -9.813595,-1.73915 v -4.12416 q 3.97513,2.1366 10.062039,2.1366 3.478237,0 5.490646,-2.03723 2.03725,-2.03727 2.03725,-5.6397 z M 116.43566,127.4597 q 1.81365,0 3.20494,0.29808 l -0.54658,4.12421 q -1.51552,-0.34808 -2.9565,-0.34808 -2.16147,0 -4.02481,1.19256 -1.8385,1.19251 -2.88197,3.3043 -1.04347,2.08694 -1.04347,4.64595 v 14.5589 h -4.47202 v -27.27933 h 3.67699 l 0.49689,4.99378 h 0.19876 q 1.5652,-2.70809 3.70183,-4.09935 2.13663,-1.39131 4.64593,-1.39131 z m 19.40358,28.27309 q -6.1366,0 -9.63968,-3.70186 -3.47824,-3.72666 -3.47824,-10.23594 0,-6.55894 3.25464,-10.43469 3.25463,-3.9006 8.79496,-3.9006 5.14283,0 8.1987,3.32916 3.05588,3.30435 3.05588,8.96886 v 2.7081 h -18.68309 q 0.12423,4.64589 2.36023,7.05582 2.23601,2.40992 6.33536,2.40992 2.18631,0 4.14904,-0.3726 1.96271,-0.3976 4.59624,-1.51554 v 3.92546 q -2.26086,0.9689 -4.24842,1.36645 -1.98757,0.3976 -4.69562,0.3976 z m -1.118,-24.62095 q -3.20495,0 -5.06829,2.06208 -1.86334,2.06213 -2.21116,5.73913 h 13.8881 q -0.0497,-3.82609 -1.76397,-5.81365 -1.71427,-1.98756 -4.84468,-1.98756 z"
   id="text1"
   style="font-size:10.5833px;line-height:1.25;letter-spacing:0px;word-spacing:0px;fill:#0d5eaf;fill-opacity:1;stroke-width:0.264583"
   aria-label="gre" /></g></svg>
