<?xml version="1.0" encoding="UTF-8" standalone="no"?>
<!-- Created with Inkscape (http://www.inkscape.org/) -->

<svg
   width="131.80875mm"
   height="140.24164mm"
   viewBox="0 0 131.80875 140.24164"
   version="1.1"
   id="svg8"
   sodipodi:docname="hira.svg"
   inkscape:version="1.2.2 (b0a8486541, 2022-12-01)"
   xmlns:inkscape="http://www.inkscape.org/namespaces/inkscape"
   xmlns:sodipodi="http://sodipodi.sourceforge.net/DTD/sodipodi-0.dtd"
   xmlns="http://www.w3.org/2000/svg"
   xmlns:svg="http://www.w3.org/2000/svg"
   xmlns:rdf="http://www.w3.org/1999/02/22-rdf-syntax-ns#"
   xmlns:cc="http://creativecommons.org/ns#"
   xmlns:dc="http://purl.org/dc/elements/1.1/">
  <defs
     id="defs2" />
  <sodipodi:namedview
     id="base"
     pagecolor="#ffffff"
     bordercolor="#666666"
     borderopacity="1.0"
     inkscape:pageopacity="0.0"
     inkscape:pageshadow="2"
     inkscape:zoom="1.4"
     inkscape:cx="120.71429"
     inkscape:cy="205.71429"
     inkscape:document-units="mm"
     inkscape:current-layer="layer1"
     showgrid="false"
     inkscape:window-width="1854"
     inkscape:window-height="1011"
     inkscape:window-x="0"
     inkscape:window-y="0"
     inkscape:window-maximized="1"
     inkscape:snap-text-baseline="true"
     inkscape:showpageshadow="2"
     inkscape:pagecheckerboard="0"
     inkscape:deskcolor="#d1d1d1" />
  <metadata
     id="metadata5">
    <rdf:RDF>
      <cc:Work
         rdf:about="">
        <dc:format>image/svg+xml</dc:format>
        <dc:type
           rdf:resource="http://purl.org/dc/dcmitype/StillImage" />
        <dc:title />
      </cc:Work>
    </rdf:RDF>
  </metadata>
  <g
     inkscape:label="Layer 1"
     inkscape:groupmode="layer"
     id="layer1"
     transform="translate(-41.445089,-73.781815)">
    <g
       aria-label="Roman"
       transform="scale(0.88140087,1.1345575)"
       id="text4542"
       style="font-size:19.9307px;letter-spacing:0px;word-spacing:0px;stroke-width:0.498267">
      <path
         d="m 50.28472,114.91728 v -5.44108 h 2.451476 c 2.292031,0 3.547665,0.67764 3.547665,2.59099 0,1.91335 -1.255634,2.85009 -3.547665,2.85009 z m 6.178517,7.67332 h 2.072793 l -3.70711,-6.39776 c 1.973139,-0.47833 3.288565,-1.83362 3.288565,-4.12565 0,-3.02947 -2.132584,-4.08579 -5.102259,-4.08579 h -4.56413 v 14.6092 h 1.833624 v -6.19845 h 2.630853 z"
         style="fill:#ff0000"
         id="path7401" />
      <path
         d="m 64.913865,122.8497 c 2.650783,0 5.002606,-2.07279 5.002606,-5.66032 0,-3.60746 -2.351823,-5.70018 -5.002606,-5.70018 -2.650783,0 -5.002606,2.09272 -5.002606,5.70018 0,3.58753 2.351823,5.66032 5.002606,5.66032 z m 0,-1.51474 c -1.873486,0 -3.12912,-1.65424 -3.12912,-4.14558 0,-2.49134 1.255634,-4.16552 3.12912,-4.16552 1.873486,0 3.149051,1.67418 3.149051,4.16552 0,2.49134 -1.275565,4.14558 -3.149051,4.14558 z"
         style="fill:#ff0000"
         id="path7403" />
      <path
         d="m 72.786509,122.5906 h 1.833625 v -7.8527 c 0.976604,-1.11612 1.893416,-1.65424 2.710575,-1.65424 1.375218,0 2.013001,0.85702 2.013001,2.88995 v 6.61699 h 1.813693 v -7.8527 c 1.016466,-1.11612 1.893417,-1.65424 2.730506,-1.65424 1.375218,0 2.013001,0.85702 2.013001,2.88995 v 6.61699 h 1.813694 v -6.85616 c 0,-2.75044 -1.056327,-4.24524 -3.268635,-4.24524 -1.335357,0 -2.451476,0.85702 -3.587526,2.07279 -0.438476,-1.27556 -1.315426,-2.07279 -2.989605,-2.07279 -1.295496,0 -2.411615,0.81716 -3.368289,1.85355 h -0.03986 l -0.179376,-1.57452 h -1.494803 z"
         style="fill:#ff0000"
         id="path7405" />
      <path
         d="m 93.733688,122.8497 c 1.335357,0 2.551129,-0.69758 3.587526,-1.5546 h 0.05979 l 0.159445,1.2955 h 1.494803 v -6.65685 c 0,-2.69065 -1.096189,-4.44455 -3.746972,-4.44455 -1.753901,0 -3.268635,0.7773 -4.245239,1.41508 l 0.697575,1.25563 c 0.85702,-0.57799 1.99307,-1.15598 3.248704,-1.15598 1.773832,0 2.232238,1.33536 2.232238,2.73051 -4.603992,0.5182 -6.636923,1.69411 -6.636923,4.04593 0,1.95321 1.335357,3.06933 3.149051,3.06933 z m 0.518198,-1.47487 c -1.076258,0 -1.913347,-0.47834 -1.913347,-1.71404 0,-1.39515 1.235703,-2.29203 4.883021,-2.71058 v 3.00954 c -1.056327,0.93674 -1.933278,1.41508 -2.969674,1.41508 z"
         style="fill:#ff0000"
         id="path7407" />
      <path
         d="m 102.46333,122.5906 h 1.83362 v -7.8527 c 1.07626,-1.09619 1.83363,-1.65424 2.94975,-1.65424 1.43501,0 2.05286,0.85702 2.05286,2.88995 v 6.61699 h 1.81369 v -6.85616 c 0,-2.75044 -1.03639,-4.24524 -3.30849,-4.24524 -1.47488,0 -2.61093,0.81716 -3.62739,1.85355 h -0.0399 l -0.17938,-1.57452 h -1.4948 z"
         style="fill:#ff0000"
         id="path7409" />
    </g>
    <g
       aria-label="hiragana"
       transform="scale(0.88656876,1.1279441)"
       id="text4546"
       style="font-weight:bold;font-size:22.4248px;-inkscape-font-specification:'sans-serif, Bold';letter-spacing:0px;word-spacing:0px;fill:#0000ff;stroke-width:0.560625">
      <path
         d="m 86.583731,151.8071 h 3.296446 v -8.63355 c 0.919417,-0.91942 1.592161,-1.41276 2.601277,-1.41276 1.233364,0 1.771559,0.67274 1.771559,2.6237 v 7.42261 h 3.296446 v -7.82626 c 0,-3.16189 -1.16609,-5.04558 -3.879491,-5.04558 -1.704285,0 -2.960073,0.89699 -3.946765,1.83884 l 0.156974,-2.35461 v -4.50738 h -3.296446 z"
         id="path7422" />
      <path
         d="m 100.93559,151.8071 h 3.29645 v -12.55789 h -3.29645 z m 1.65944,-14.59855 c 1.12124,0 1.9061,-0.69517 1.9061,-1.79398 0,-1.07639 -0.78486,-1.79399 -1.9061,-1.79399 -1.16609,0 -1.90611,0.7176 -1.90611,1.79399 0,1.09881 0.74002,1.79398 1.90611,1.79398 z"
         id="path7424" />
      <path
         d="m 107.75275,151.8071 h 3.29644 v -7.48989 c 0.7176,-1.8164 1.88369,-2.46672 2.84795,-2.46672 0.5382,0 0.897,0.0673 1.34549,0.20182 l 0.5382,-2.84795 c -0.3588,-0.15697 -0.76245,-0.2691 -1.45761,-0.2691 -1.30064,0 -2.64613,0.89699 -3.56555,2.53401 h -0.0673 l -0.24667,-2.22006 h -2.69098 z"
         id="path7426" />
      <path
         d="m 119.90701,152.12105 c 1.45761,0 2.7134,-0.69517 3.78979,-1.65944 h 0.11212 l 0.22425,1.34549 h 2.69098 v -7.33291 c 0,-3.63282 -1.63701,-5.53893 -4.82134,-5.53893 -1.97338,0 -3.76736,0.76245 -5.22497,1.65944 l 1.16608,2.19763 c 1.16609,-0.69517 2.28733,-1.21094 3.45342,-1.21094 1.54732,0 2.08551,0.94184 2.13036,2.1752 -5.04558,0.5382 -7.22079,1.95096 -7.22079,4.61951 0,2.15278 1.45762,3.74495 3.7001,3.74495 z m 1.09881,-2.57886 c -0.96426,0 -1.65943,-0.42607 -1.65943,-1.41276 0,-1.14366 1.00911,-1.97338 4.08131,-2.33218 v 2.51158 c -0.78487,0.78487 -1.48004,1.23336 -2.42188,1.23336 z"
         id="path7428" />
      <path
         d="m 134.50554,157.25633 c 4.19344,0 6.83957,-1.92854 6.83957,-4.46254 0,-2.19763 -1.65944,-3.13947 -4.68678,-3.13947 h -2.15279 c -1.45761,0 -1.97338,-0.3588 -1.97338,-1.00912 0,-0.53819 0.22425,-0.80729 0.5382,-1.09881 0.56062,0.20182 1.14366,0.29152 1.61458,0.29152 2.7134,0 4.86618,-1.41276 4.86618,-4.26071 0,-0.78487 -0.24667,-1.48004 -0.56062,-1.90611 h 2.13036 v -2.42188 h -4.50738 c -0.5382,-0.1794 -1.18852,-0.31395 -1.92854,-0.31395 -2.64612,0 -5.04558,1.59216 -5.04558,4.52981 0,1.48004 0.8073,2.66855 1.68186,3.29645 v 0.0897 c -0.76244,0.53819 -1.39033,1.41276 -1.39033,2.33218 0,1.05396 0.47092,1.70428 1.14366,2.13035 v 0.11213 c -1.18851,0.65032 -1.79398,1.54731 -1.79398,2.60127 0,2.22006 2.2649,3.22918 5.22497,3.22918 z m 0.1794,-11.45908 c -1.07639,0 -1.95095,-0.82972 -1.95095,-2.33218 0,-1.45761 0.85214,-2.2649 1.95095,-2.2649 1.12124,0 1.99581,0.80729 1.99581,2.2649 0,1.50246 -0.87457,2.33218 -1.99581,2.33218 z m 0.31395,9.35114 c -1.81641,0 -2.9825,-0.58304 -2.9825,-1.61458 0,-0.5382 0.24667,-1.03154 0.80729,-1.48004 0.47093,0.11213 0.9867,0.15697 1.72671,0.15697 h 1.54732 c 1.34548,0 2.0855,0.24668 2.0855,1.14367 0,0.96427 -1.27821,1.79398 -3.18432,1.79398 z"
         id="path7430" />
      <path
         d="m 146.07674,152.12105 c 1.45762,0 2.7134,-0.69517 3.78979,-1.65944 h 0.11213 l 0.22425,1.34549 h 2.69097 v -7.33291 c 0,-3.63282 -1.63701,-5.53893 -4.82133,-5.53893 -1.97338,0 -3.76737,0.76245 -5.22498,1.65944 l 1.16609,2.19763 c 1.16609,-0.69517 2.28733,-1.21094 3.45342,-1.21094 1.54731,0 2.08551,0.94184 2.13036,2.1752 -5.04558,0.5382 -7.22079,1.95096 -7.22079,4.61951 0,2.15278 1.45761,3.74495 3.70009,3.74495 z m 1.09882,-2.57886 c -0.96427,0 -1.65944,-0.42607 -1.65944,-1.41276 0,-1.14366 1.00912,-1.97338 4.08132,-2.33218 v 2.51158 c -0.78487,0.78487 -1.48004,1.23336 -2.42188,1.23336 z"
         id="path7432" />
      <path
         d="m 156.2576,151.8071 h 3.29644 v -8.63355 c 0.91942,-0.91942 1.59216,-1.41276 2.60128,-1.41276 1.23336,0 1.77156,0.67274 1.77156,2.6237 v 7.42261 h 3.29645 v -7.82626 c 0,-3.16189 -1.16609,-5.04558 -3.8795,-5.04558 -1.70428,0 -2.98249,0.89699 -4.08131,1.97339 h -0.0673 l -0.24668,-1.65944 h -2.69097 z"
         id="path7434" />
      <path
         d="m 173.70411,152.12105 c 1.45761,0 2.7134,-0.69517 3.78979,-1.65944 h 0.11212 l 0.22425,1.34549 h 2.69098 v -7.33291 c 0,-3.63282 -1.63701,-5.53893 -4.82133,-5.53893 -1.97339,0 -3.76737,0.76245 -5.22498,1.65944 l 1.16609,2.19763 c 1.16609,-0.69517 2.28733,-1.21094 3.45342,-1.21094 1.54731,0 2.0855,0.94184 2.13035,2.1752 -5.04558,0.5382 -7.22078,1.95096 -7.22078,4.61951 0,2.15278 1.45761,3.74495 3.70009,3.74495 z m 1.09881,-2.57886 c -0.96426,0 -1.65943,-0.42607 -1.65943,-1.41276 0,-1.14366 1.00911,-1.97338 4.08131,-2.33218 v 2.51158 c -0.78487,0.78487 -1.48003,1.23336 -2.42188,1.23336 z"
         id="path7436" />
    </g>
    <path
       style="fill:#ff9f00;fill-opacity:0.48627451;stroke-width:0.264583"
       d="m 130.44804,116.77308 c 0.12604,-0.20392 2.19015,-2.80487 4.58691,-5.77988 l 4.35776,-5.40912 -0.86283,-0.67166 c -1.80276,-1.40337 -9.08924,-4.88511 -12.83507,-6.133073 -5.84061,-1.94585 -10.75946,-2.84814 -16.94293,-3.10794 -17.200802,-0.72269 -32.701215,5.257823 -44.509018,17.172873 l -3.498604,3.53038 -6.234283,-4.23349 c -3.428855,-2.32843 -6.234282,-4.36978 -6.234282,-4.53635 0,-0.54203 6.466451,-7.11431 9.412699,-9.566753 9.836779,-8.18808 22.103785,-13.72289 35.777915,-16.14282 7.032353,-1.24453 18.625103,-1.24453 25.657463,0 10.04689,1.77801 18.97439,5.06377 26.95457,9.92061 1.40252,0.85359 2.65934,1.61555 2.79295,1.69325 0.13361,0.0777 2.51486,-2.64512 5.29167,-6.05071 3.874,-4.75125 5.11353,-6.04783 5.3272,-5.57239 0.50793,1.13024 7.14495,31.875763 6.92786,32.092853 -0.1172,0.1172 -7.14438,0.76874 -15.61595,1.44789 -8.47158,0.67915 -16.56844,1.34333 -17.99302,1.47596 -1.65752,0.15432 -2.50765,0.10764 -2.36101,-0.12963 z"
       id="path4130" />
    <path
       style="fill:#ff9f00;fill-opacity:0.48627451;stroke-width:0.264583"
       d="m 98.168551,209.6549 c -10.882646,-0.95077 -22.981782,-4.90365 -32.448431,-10.60114 -2.702986,-1.62678 -3.2728,-1.84382 -3.617327,-1.37783 -0.22492,0.30422 -2.529384,3.14985 -5.121031,6.32362 l -4.712086,5.77049 -3.621742,-16.38519 c -3.120633,-14.11811 -3.540758,-16.42036 -3.036427,-16.63934 0.713316,-0.30974 35.21177,-3.04301 35.446397,-2.80838 0.09161,0.0916 -1.82345,2.64834 -4.25569,5.68162 -3.466685,4.32335 -4.330639,5.62544 -3.998267,6.02592 0.707811,0.85286 9.091372,5.00697 12.513413,6.20048 7.330223,2.55657 15.1909,3.72308 22.67857,3.36546 15.15991,-0.72404 28.40954,-6.39947 38.71744,-16.58445 2.27295,-2.24584 4.19803,-4.08335 4.27796,-4.08335 0.0799,0 2.9315,1.89846 6.33683,4.2188 5.15395,3.51183 6.13434,4.32563 5.85036,4.85625 -0.18764,0.35059 -2.01443,2.32954 -4.05954,4.39766 -12.31412,12.45267 -28.64853,19.98512 -46.96531,21.65758 -4.89006,0.4465 -8.72325,0.44151 -13.985119,-0.0182 z"
       id="path4132" />
    <path
       style="fill:#ff9f00;fill-opacity:0.48627451;stroke-width:1"
       d="m 337.14286,162.39414 c 0,-0.25465 7.42282,-9.71275 16.49516,-21.01799 9.07234,-11.30524 16.52384,-20.82011 16.55889,-21.14414 0.22863,-2.11392 -24.46345,-15.27753 -41.86687,-22.319674 C 311.31631,91.027884 290.03015,85.755851 270,83.465491 257.78646,82.068926 226.97844,82.280441 215.35714,83.840646 177.21336,88.961601 144.99205,101.37434 115.45294,122.32714 104.80171,129.8823 96.5034,136.98911 84.239766,149.05861 78.125208,155.07638 72.890562,160 72.607219,160 71.705856,160 33.910353,133.95716 27.57881,128.97335 26.276798,127.94849 26.274125,127.84046 27.503235,125.91974 29.826817,122.28869 57.377016,95.349061 64.754673,89.49387 97.196579,63.74673 133.8458,45.879606 175.04722,35.724362 c 21.33503,-5.258615 32.84482,-6.896099 54.94833,-7.81743 17.03019,-0.709861 40.78146,0.06526 54.26177,1.770838 18.27642,2.312396 44.53064,8.849859 62.71913,15.617456 17.68149,6.57895 31.20759,13.116176 49.08771,23.724323 l 9.99274,5.928615 2.41386,-2.295511 c 1.32763,-1.262531 8.67155,-9.792463 16.31983,-18.955406 16.29257,-19.519143 19.98027,-23.511395 20.85997,-22.58273 0.76523,0.807834 4.49255,16.726115 12.11568,51.742626 10.35877,47.582437 14.464,68.029957 13.78911,68.681417 -0.58181,0.56161 -26.95176,2.9602 -85.25278,7.75453 -43.78306,3.60047 -49.15971,3.93963 -49.15971,3.10105 z"
       id="path10141"
       transform="matrix(0.26458333,0,0,0.26458333,41.445089,73.781815)" />
    <path
       style="fill:#ff9f00;fill-opacity:0.486275;stroke-width:1"
       d="m 221.07143,513.79265 c -7.90168,-0.52118 -23.37664,-2.56242 -32.14286,-4.23985 -34.12923,-6.53067 -65.5938,-18.35516 -97.507377,-36.64359 -4.906657,-2.81181 -9.698396,-5.30792 -10.648311,-5.54691 -2.13795,-0.5379 -1.385521,-1.36445 -22.871011,25.12402 -9.207542,11.35156 -16.835566,20.33774 -16.951165,19.96929 -0.636052,-2.02726 -21.859601,-99.32401 -23.40159,-107.28171 -2.030285,-10.47763 -2.350746,-15.8848 -0.941973,-15.89405 0.491071,-0.003 3.625,-0.31166 6.964286,-0.68541 19.357212,-2.16659 124.919701,-10.34141 125.539271,-9.72183 0.22301,0.22301 -7.16186,9.97155 -19.98695,26.38413 -4.56164,5.83763 -9.03965,12.01966 -9.95114,13.73784 -1.65338,3.11666 -1.65394,3.12716 -0.23636,4.49965 3.57068,3.4571 31.54901,17.27781 45.60664,22.52873 9.04107,3.37709 22.50569,7.06073 34.00307,9.30254 28.56726,5.57016 61.6533,5.20396 91.81118,-1.01617 32.40288,-6.68318 65.30632,-22.18469 90.96476,-42.85544 4.06633,-3.27588 13.02444,-11.39134 19.9069,-18.03436 7.17376,-6.92416 12.91218,-11.92524 13.44769,-11.71975 0.51376,0.19715 4.57351,2.83372 9.02167,5.85905 22.29175,15.16131 30.35755,20.86189 33.34647,23.56793 l 3.27371,2.96389 -2.10981,2.7761 c -3.99237,5.25317 -24.2943,25.05891 -33.36736,32.55183 -45.1047,37.24938 -99.40629,58.88831 -160.9126,64.12291 -7.82643,0.66608 -34.22127,0.82077 -42.85714,0.25116 z"
       id="path10488"
       transform="matrix(0.26458333,0,0,0.26458333,41.445089,73.781815)" />
  </g>
</svg>
