<svg width="48px" height="48px" xmlns="http://www.w3.org/2000/svg" xmlns:xlink="http://www.w3.org/1999/xlink">
<defs>
<linearGradient id="a">
<stop stop-color="#fff" stop-opacity="0" offset="0"/>
<stop stop-color="#fff" offset=".5"/>
<stop stop-color="#fff" stop-opacity="0" offset="1"/>
</linearGradient>
<linearGradient id="d">
<stop stop-color="#eeeeec" offset="0"/>
<stop stop-color="#fff" offset="1"/>
</linearGradient>
<linearGradient id="b">
<stop offset="0"/>
<stop stop-opacity="0" offset="1"/>
</linearGradient>
<linearGradient id="e">
<stop stop-color="#f2f4f1" offset="0"/>
<stop stop-color="#d3d7cf" offset="1"/>
</linearGradient>
<radialGradient id="m" cx="24.25" cy="39.812" r="17.375" gradientTransform="matrix(1 0 0 .39928 8.1467e-14 23.916)" gradientUnits="userSpaceOnUse" xlink:href="#b"/>
<radialGradient id="c" cx="24.5" cy="29.5" r="15.095" gradientTransform="matrix(1.0452 -2.149e-16 2.2695e-16 .98974 -41.108 -11.647)" gradientUnits="userSpaceOnUse" xlink:href="#e"/>
<linearGradient id="h" x1="24.095" x2="24.095" y1="12.595" y2="34.095" gradientTransform="matrix(.48215 0 0 .45656 -27.118 4.2668)" gradientUnits="userSpaceOnUse" xlink:href="#d"/>
<linearGradient id="g" x1="38.293" x2="39.438" y1="6.7174" y2="8.162" gradientTransform="matrix(.52416 0 0 .52416 2.4096 3.2809)" gradientUnits="userSpaceOnUse" xlink:href="#a"/>
<linearGradient id="f" x1="8.1169" x2="9.0675" y1="7.9334" y2="6.7844" gradientTransform="matrix(.52416 0 0 .52416 3.5291 3.2482)" gradientUnits="userSpaceOnUse" xlink:href="#a"/>
<radialGradient id="l" cx="24.25" cy="39.812" r="17.375" gradientTransform="matrix(1 0 0 .39928 1.3878e-16 23.916)" gradientUnits="userSpaceOnUse" xlink:href="#b"/>
<radialGradient id="k" cx="24.25" cy="39.812" r="17.375" gradientTransform="matrix(1 0 0 .39928 1.4745e-16 23.916)" gradientUnits="userSpaceOnUse" xlink:href="#b"/>
<radialGradient id="j" cx="32.124" cy="31.887" r="15.095" gradientTransform="matrix(.95075 -2.149e-16 2.0644e-16 .98974 -7.702 -11.432)" gradientUnits="userSpaceOnUse" xlink:href="#e"/>
<linearGradient id="p" x1="24.095" x2="24.095" y1="12.595" y2="34.095" gradientTransform="matrix(.43857 0 0 .45656 5.0237 4.4817)" gradientUnits="userSpaceOnUse" xlink:href="#d"/>
<linearGradient id="o" x1="38.293" x2="39.438" y1="6.7174" y2="8.162" gradientTransform="matrix(.52416 0 0 .52416 16.239 3.1678)" gradientUnits="userSpaceOnUse" xlink:href="#a"/>
<linearGradient id="n" x1="8.1169" x2="9.0675" y1="7.9334" y2="6.7844" gradientTransform="matrix(.52416 0 0 .52416 4.6103 3.1975)" gradientUnits="userSpaceOnUse" xlink:href="#a"/>
<radialGradient id="i" cx="15.49" cy="6.2493" r="10.495" gradientTransform="matrix(2.2033 -9.4032e-17 4.2128e-17 .98135 -18.638 -.28028)" gradientUnits="userSpaceOnUse">
<stop stop-color="#f8f8f7" offset="0"/>
<stop stop-color="#babdb6" offset="1"/>
</radialGradient>
</defs>
<g transform="translate(-3 -2.9938)">
<path transform="matrix(.52416 0 0 .27388 2.4483 12.696)" d="m41.625 39.812a17.375 6.9375 0 1 1-34.75 0 17.375 6.9375 0 1 1 34.75 0z" color="#000000" display="block" fill="url(#l)" opacity=".38889"/>
<rect x="5.495" y="4.5056" width="19.989" height="20.944" rx="2.4493" ry="2.5663" color="#000000" display="block" fill="url(#i)" stroke="#888a85"/>
<rect transform="scale(-1,1)" x="-22.537" y="7.2344" width="14.074" height="13.327" rx="1.7245" ry="1.633" color="#000000" display="block" fill="url(#c)" stroke="url(#h)"/>
<rect x="6.4897" y="5.5001" width="18.021" height="18.997" rx="1.5568" ry="1.5568" color="#000000" display="block" fill="none" opacity=".48889" stroke="#fff"/>
<path d="m6.9758 22.772c-0.055628 0.83274 0.48908 1.3187 1.4079 1.2501l0.88143-3.1701-0.64608-0.38246-1.6433 2.3024z" color="#000000" display="block" fill="#fff" opacity=".48889"/>
<path d="m24.054 22.999c-0.18744 0.94323-0.88683 1.0536-1.7173 1.0513l-0.81514-3.0817 0.66818-0.40455 1.8642 2.435z" color="#000000" display="block" fill="#fff" opacity=".48889"/>
<path d="m24.03 7.0818c-0.052542-0.5821-0.37937-1.0285-1.014-1.0818l-0.86088 1.1443 0.60188 0.63464 1.273-0.69708z" color="#000000" display="block" fill="url(#g)"/>
<path d="m6.9034 6.9828c0.14093-0.51581 0.54548-0.95158 1.1138-0.98279l0.76182 1.1877-0.55923 0.63464-1.3164-0.83955z" color="#000000" display="block" fill="url(#f)"/>
</g>
<path transform="matrix(.38423 0 0 .38423 25.257 17.865)" d="m44.725 19.539a13.612 13.612 0 1 1-27.224 0 13.612 13.612 0 1 1 27.224 0z" color="#000000" display="block" fill="none" stroke="#204a87" stroke-width="5.2053"/>
<g transform="translate(20.005 -2.9431)">
<path transform="matrix(.52416 0 0 .27388 2.4483 12.696)" d="m41.625 39.812a17.375 6.9375 0 1 1-34.75 0 17.375 6.9375 0 1 1 34.75 0z" color="#000000" display="block" fill="url(#m)" opacity=".38889"/>
<rect x="5.495" y="4.5056" width="19.989" height="20.944" rx="2.4493" ry="2.5663" color="#000000" display="block" fill="#babdb6" stroke="#888a85"/>
<rect transform="scale(-1,1)" x="-22.537" y="7.2344" width="14.074" height="13.327" rx="1.7245" ry="1.633" color="#000000" display="block" fill="url(#c)" stroke="url(#h)"/>
<rect x="6.4897" y="5.5001" width="18.021" height="18.997" rx="1.5568" ry="1.5568" color="#000000" display="block" fill="none" opacity=".48889" stroke="#fff"/>
<path d="m6.9758 22.772c-0.055628 0.83274 0.48908 1.3187 1.4079 1.2501l0.88143-3.1701-0.64608-0.38246-1.6433 2.3024z" color="#000000" display="block" fill="#fff" opacity=".48889"/>
<path d="m24.054 22.999c-0.18744 0.94323-0.88683 1.0536-1.7173 1.0513l-0.81514-3.0817 0.66818-0.40455 1.8642 2.435z" color="#000000" display="block" fill="#fff" opacity=".48889"/>
<path d="m24.03 7.0818c-0.052542-0.5821-0.37937-1.0285-1.014-1.0818l-0.86088 1.1443 0.60188 0.63464 1.273-0.69708z" color="#000000" display="block" fill="url(#g)"/>
<path d="m6.9034 6.9828c0.14093-0.51581 0.54548-0.95158 1.1138-0.98279l0.76182 1.1877-0.55923 0.63464-1.3164-0.83955z" color="#000000" display="block" fill="url(#f)"/>
</g>
<g transform="matrix(1 0 0 1.0054 -2.9845 19.973)">
<path transform="matrix(.52416 0 0 .27388 2.4483 12.696)" d="m41.625 39.812a17.375 6.9375 0 1 1-34.75 0 17.375 6.9375 0 1 1 34.75 0z" color="#000000" display="block" fill="url(#k)" opacity=".38889"/>
<rect x="6.3651" y="4.5056" width="33.16" height="20.944" rx="2.5663" ry="2.5525" color="#000000" display="block" fill="#babdb6" stroke="#888a85" stroke-width=".9973"/>
<rect x="9.1902" y="7.4494" width="27.3" height="13.051" rx="1.3205" ry="1.3134" color="#000000" display="block" fill="url(#j)" stroke="url(#p)" stroke-width=".9973"/>
<rect x="7.3617" y="5.4376" width="31.215" height="18.997" rx="1.5568" ry="1.5484" color="#000000" display="block" fill="none" opacity=".48889" stroke="#fff" stroke-width=".9973"/>
<path d="m7.9602 22.928c-0.040004 0.6765 0.77033 1.0531 1.1267 1.0158l1.0377-3.0608-0.77108-0.58558-1.3933 2.6306z" color="#000000" display="block" fill="#fff" opacity=".48889"/>
<path d="m38.517 22.836c-0.18744 0.94323-0.88683 1.0536-1.7173 1.0513l-0.81514-3.0817 0.66818-0.40455 1.8642 2.435z" color="#000000" display="block" fill="#fff" opacity=".48889"/>
<path d="m37.859 6.9687c-0.052542-0.5821-0.37937-1.0285-1.014-1.0818l-0.86088 1.1443 0.60188 0.63464 1.273-0.69708z" color="#000000" display="block" fill="url(#o)"/>
<path d="m7.9845 6.9322c0.14093-0.51581 0.54548-0.95158 1.1138-0.98279l0.76182 1.1877-0.55923 0.63464-1.3164-0.83955z" color="#000000" display="block" fill="url(#n)"/>
</g>
<path d="m17.619 8.9375-2.2412 5.6982c-0.2181 0.55013-0.48828 0.96191-0.81055 1.2354-0.32227 0.27669-0.69499 0.41504-1.1182 0.41504-0.15625-3e-6 -0.32064-0.019534-0.49316-0.058594v-0.89844c0.19206 0.058592 0.36621 0.087889 0.52246 0.08789 0.1888-1e-6 0.36133-0.056967 0.51758-0.1709 0.1595-0.11068 0.28808-0.27995 0.38574-0.50781l0.34668-0.80078-1.9824-5h1.0498l1.2939 3.75c0.022784 0.058595 0.052081 0.1888 0.08789 0.39062h0.029297c0.048826-0.20508 0.083005-0.33528 0.10254-0.39062l1.3281-3.75h0.98145"/>
<path d="m39.715 8.9375-1.6797 2.5195 1.6699 2.4805h-1.0986l-1.1523-1.9482-1.1914 1.9482h-1.0791l1.7236-2.4609-1.6211-2.5391h1.0986l1.1084 2.041 1.1914-2.041h1.0303"/>
<path d="m14.386 38.053c-0.53386 0.29622-1.1963 0.44434-1.9873 0.44434-0.99284 0-1.7887-0.32064-2.3877-0.96191-0.5957-0.64127-0.89355-1.4844-0.89355-2.5293-4e-7 -1.11 0.3418-2.0117 1.0254-2.7051 0.68685-0.69661 1.5381-1.0449 2.5537-1.0449 0.68684 7e-6 1.25 0.099291 1.6895 0.29785v1.0303c-0.51758-0.30598-1.084-0.45898-1.6992-0.45898-0.76172 6e-6 -1.3818 0.25717-1.8604 0.77148-0.47852 0.51107-0.71778 1.1979-0.71777 2.0605-1e-6 0.81706 0.22135 1.4681 0.66406 1.9531 0.44271 0.48177 1.0303 0.72266 1.7627 0.72266 0.70963 1e-6 1.3265-0.16927 1.8506-0.50781v0.92773m3.7451 0.25391c-0.20508 0.10417-0.46875 0.15625-0.79102 0.15625-0.4655 0-0.8138-0.12533-1.0449-0.37598-0.23112-0.25391-0.34668-0.63476-0.34668-1.1426v-2.8174h-0.83984v-0.75195h0.83984v-1.1914l0.94238-0.29785v1.4893h1.2402v0.75195h-1.2402v2.6367c-2e-6 0.32552 0.055336 0.55827 0.16602 0.69824 0.11067 0.13672 0.30436 0.20508 0.58105 0.20508 0.17903 1e-6 0.34342-0.05371 0.49316-0.16113v0.80078m3.8809-3.9697c-0.16927-0.11393-0.38575-0.17089-0.64941-0.1709-0.3125 4e-6 -0.85742 0.14323-1.0723 0.42969-0.21485 0.28646-0.32227 0.66569-0.32227 1.1377v2.6416h-0.9375v-5h0.9375v0.99121c0.12044-0.35156 0.29622-0.61848 0.52734-0.80078 0.23112-0.18554 0.76465-0.27832 1.0381-0.27832 0.20508 5e-6 0.36458 0.022792 0.47852 0.06836v0.98144m1.9941 4.0381h-0.94726v-7.4023h0.94726v7.4023"/>
<rect x="3.1503" y="23.929" width="33.699" height="22.143" rx="2.9" ry="2.9" color="#000000" display="block" fill="none" stroke="#204a87" stroke-width="2"/>
<rect x="25.063" y="1.1244" width="20.877" height="21.781" rx="2.7232" ry="2.7232" color="#000000" display="block" fill="none" stroke="#204a87" stroke-width="2"/>
</svg>
