<!DOCTYPE svg  PUBLIC '-//W3C//DTD SVG 1.1//EN'  'http://www.w3.org/Graphics/SVG/1.1/DTD/svg11.dtd'>
<svg width="595.28pt" height="841.89pt" fill-rule="evenodd" overflow="visible" stroke-linejoin="bevel" stroke-width=".501" version="1.1" viewBox="0 0 595.28 841.89" xmlns="http://www.w3.org/2000/svg">
<defs>
<radialGradient id="dt" cx="0" cy="0" r="81.842" gradientTransform="translate(290.64 395) rotate(269.25) skewX(-.51186) scale(1 4.5134)" gradientUnits="userSpaceOnUse">
<stop stop-color="#fff" offset="0"/>
<stop offset="1"/>
</radialGradient>
<radialGradient id="ds" cx="0" cy="0" r="83.086" gradientTransform="translate(290.64 405.37) rotate(-87.405) skewX(1.4516) scale(1 4.4432)" gradientUnits="userSpaceOnUse">
<stop stop-color="#fff" offset="0"/>
<stop offset="1"/>
</radialGradient>
<linearGradient id="gf" x2="62.525" gradientTransform="translate(277.33 376.09) rotate(-89.293) skewX(-.13462)" gradientUnits="userSpaceOnUse">
<stop stop-color="#fff" offset="0"/>
<stop offset="1"/>
</linearGradient>
<linearGradient id="ge" x2="30.41" gradientTransform="translate(328.96 377.4) rotate(213.19) skewX(3.6147)" gradientUnits="userSpaceOnUse">
<stop stop-color="#fff" offset="0"/>
<stop offset="1"/>
</linearGradient>
<linearGradient id="ft" x2="23.98" gradientTransform="translate(261.81 371.74) rotate(-48.273) skewX(-4.0347)" gradientUnits="userSpaceOnUse">
<stop stop-color="#fff" offset="0"/>
<stop offset="1"/>
</linearGradient>
<linearGradient id="fj" x2="29.235" gradientTransform="translate(291.57 380.22) rotate(268.43) skewX(.17624)" gradientUnits="userSpaceOnUse">
<stop stop-color="#fff" offset="0"/>
<stop offset="1"/>
</linearGradient>
<linearGradient id="ez" x2="207.66" gradientTransform="translate(175.45 314.38) rotate(92.355) skewX(-1.6665)" gradientUnits="userSpaceOnUse">
<stop stop-color="#fff" offset="0"/>
<stop offset="1"/>
</linearGradient>
<linearGradient id="eo" x2="32.883" gradientTransform="translate(152.33 335.76) rotate(96.397) skewX(-2.0337)" gradientUnits="userSpaceOnUse">
<stop stop-color="#fff" offset="0"/>
<stop offset="1"/>
</linearGradient>
<linearGradient id="ee" x2="47.464" gradientTransform="translate(74.063 318.55) rotate(96.299) skewX(-1.6153)" gradientUnits="userSpaceOnUse">
<stop stop-color="#fff" offset="0"/>
<stop offset="1"/>
</linearGradient>
<linearGradient id="dw" x2="68.877" gradientTransform="translate(196.07 357.9) rotate(92.254) skewX(-3.5584)" gradientUnits="userSpaceOnUse">
<stop stop-color="#fff" offset="0"/>
<stop offset="1"/>
</linearGradient>
<linearGradient id="dv" x2="49.105" gradientTransform="translate(194.64 420.93) rotate(-77.939) skewX(3.072)" gradientUnits="userSpaceOnUse">
<stop stop-color="#fff" offset="0"/>
<stop offset="1"/>
</linearGradient>
<linearGradient id="du" x2="199.84" gradientTransform="translate(242.83 326.92) rotate(120.66) skewX(-6.2381)" gradientUnits="userSpaceOnUse">
<stop stop-color="#fff" offset="0"/>
<stop offset="1"/>
</linearGradient>
<linearGradient id="gd" x2="324.85" gradientTransform="translate(230.84 859.8) rotate(267.85) skewX(.53752)" gradientUnits="userSpaceOnUse">
<stop stop-color="#fff" offset="0"/>
<stop offset="1"/>
</linearGradient>
<linearGradient id="gc" x2="123.85" gradientTransform="translate(81.166 486.58) rotate(-6.7306) skewX(-.48332)" gradientUnits="userSpaceOnUse">
<stop stop-color="#fff" offset="0"/>
<stop offset="1"/>
</linearGradient>
<linearGradient id="gb" x2="28.054" gradientTransform="translate(137.99 550.56) rotate(145.85) skewX(-5.6496)" gradientUnits="userSpaceOnUse">
<stop stop-color="#fff" offset="0"/>
<stop offset="1"/>
</linearGradient>
<radialGradient id="dh" cx="0" cy="0" r="274.62" gradientTransform="translate(216.71 365.28) rotate(87.246) skewX(-.45231) scale(1 .12348)" gradientUnits="userSpaceOnUse">
<stop stop-color="#fff" offset="0"/>
<stop offset="1"/>
</radialGradient>
<linearGradient id="ga" x2="67.495" gradientTransform="translate(112.34 503.28) rotate(-11.431) skewX(-1.405)" gradientUnits="userSpaceOnUse">
<stop stop-color="#fff" offset="0"/>
<stop offset="1"/>
</linearGradient>
<linearGradient id="fz" x2="14.472" gradientTransform="translate(296.89 499.96) rotate(180) skewX(.89711)" gradientUnits="userSpaceOnUse">
<stop stop-color="#fff" offset="0"/>
<stop offset="1"/>
</linearGradient>
<linearGradient id="fy" x2="56.399" gradientTransform="translate(303.85 499.39) rotate(177.16) skewX(.29801)" gradientUnits="userSpaceOnUse">
<stop stop-color="#fff" offset="0"/>
<stop offset="1"/>
</linearGradient>
<linearGradient id="fx" x2="8.24" gradientTransform="translate(298.74 499.22) rotate(180) skewX(1.0468)" gradientUnits="userSpaceOnUse">
<stop stop-color="#fff" offset="0"/>
<stop offset="1"/>
</linearGradient>
<radialGradient id="cz" cx="0" cy="0" r="69.066" gradientTransform="translate(243.36 465.41) rotate(-88.707) skewX(-4.2082) scale(1 5.5251)" gradientUnits="userSpaceOnUse">
<stop stop-color="#fff" offset="0"/>
<stop offset="1"/>
</radialGradient>
<linearGradient id="fw" x2="46.168" y2="42.954" gradientTransform="translate(80.422 387.14)" gradientUnits="userSpaceOnUse">
<stop stop-color="#fff" offset="0"/>
<stop offset="1"/>
</linearGradient>
<radialGradient id="cy" cx="0" cy="0" r="68.885" gradientTransform="translate(165.3 409.08) rotate(-79.811) skewX(1.8059) scale(1 6.9003)" gradientUnits="userSpaceOnUse">
<stop stop-color="#fff" offset="0"/>
<stop offset="1"/>
</radialGradient>
<linearGradient id="fv" x2="45.479" gradientTransform="translate(216.24 435.89) rotate(-78.247) skewX(2.8601)" gradientUnits="userSpaceOnUse">
<stop stop-color="#fff" offset="0"/>
<stop offset="1"/>
</linearGradient>
<radialGradient id="cx" cx="0" cy="0" r="52.82" gradientTransform="translate(243.79 440.18) rotate(262.41) skewX(-10.106) scale(1 3.2906)" gradientUnits="userSpaceOnUse">
<stop stop-color="#fff" offset="0"/>
<stop offset="1"/>
</radialGradient>
<radialGradient id="cw" cx="0" cy="0" r="62.907" gradientTransform="translate(84.142 392.77) rotate(-27.943) skewX(30.087) scale(1 .96888)" gradientUnits="userSpaceOnUse">
<stop stop-color="#fff" offset="0"/>
<stop offset="1"/>
</radialGradient>
<radialGradient id="cv" cx="0" cy="0" r="83.296" gradientTransform="translate(210.63 458.42) rotate(269.79) skewX(-5.2091) scale(1 2.5339)" gradientUnits="userSpaceOnUse">
<stop stop-color="#fff" offset="0"/>
<stop offset="1"/>
</radialGradient>
<linearGradient id="fu" x2="34.419" gradientTransform="translate(256.64 442.46) rotate(251.77) skewX(-16.859)" gradientUnits="userSpaceOnUse">
<stop stop-color="#fff" offset="0"/>
<stop offset="1"/>
</linearGradient>
<radialGradient id="cu" cx="0" cy="0" r="74.621" gradientTransform="translate(106.12 638.38) rotate(-56.914) skewX(-6.3538) scale(1 .97704)" gradientUnits="userSpaceOnUse">
<stop stop-color="#fff" offset="0"/>
<stop offset="1"/>
</radialGradient>
<linearGradient id="fs" x2="22.273" gradientTransform="translate(208.85 372.02) rotate(102.52) skewX(3.3857)" gradientUnits="userSpaceOnUse">
<stop stop-color="#fff" offset="0"/>
<stop offset="1"/>
</linearGradient>
<radialGradient id="ct" cx="0" cy="0" r="9.744" gradientTransform="translate(276.11 389.34) rotate(109.35) skewX(7.9353) scale(1 3.9955)" gradientUnits="userSpaceOnUse">
<stop stop-color="#fff" offset="0"/>
<stop offset="1"/>
</radialGradient>
<linearGradient id="fr" x2="67.133" gradientTransform="translate(184.37 439.02) rotate(-89.114) skewX(-4.4719)" gradientUnits="userSpaceOnUse">
<stop stop-color="#fff" offset="0"/>
<stop offset="1"/>
</linearGradient>
<radialGradient id="dr" cx="0" cy="0" r="40.577" gradientTransform="translate(249.08 408.18) rotate(255.37) skewX(-14.651) scale(1 1.5884)" gradientUnits="userSpaceOnUse">
<stop stop-color="#fff" offset="0"/>
<stop offset="1"/>
</radialGradient>
<radialGradient id="dq" cx="0" cy="0" r="29.855" gradientTransform="translate(77.446 384.54) rotate(-36.396) skewX(27.498) scale(1 1.1411)" gradientUnits="userSpaceOnUse">
<stop stop-color="#fff" offset="0"/>
<stop offset="1"/>
</radialGradient>
<linearGradient id="fq" x2="31.998" gradientTransform="translate(246.51 423.52) rotate(-88.718) skewX(-4.2193)" gradientUnits="userSpaceOnUse">
<stop stop-color="#fff" offset="0"/>
<stop offset="1"/>
</linearGradient>
<linearGradient id="fp" x2="296.38" gradientTransform="translate(346.42 400.33) rotate(183.2) skewX(8.8127)" gradientUnits="userSpaceOnUse">
<stop stop-color="#fff" offset="0"/>
<stop offset="1"/>
</linearGradient>
<linearGradient id="fo" x2="30.651" gradientTransform="translate(236.57 383.5) rotate(98.427) skewX(.62853)" gradientUnits="userSpaceOnUse">
<stop stop-color="#fff" offset="0"/>
<stop offset="1"/>
</linearGradient>
<linearGradient id="fn" x2="138.27" gradientTransform="translate(215.82 379.62) rotate(-69.361) skewX(-5.7253)" gradientUnits="userSpaceOnUse">
<stop stop-color="#fff" offset="0"/>
<stop offset="1"/>
</linearGradient>
<radialGradient id="dp" cx="0" cy="0" r="287.7" gradientTransform="translate(256.11 331.68) rotate(93.936) skewX(-2.0542) scale(1 .89843)" gradientUnits="userSpaceOnUse">
<stop stop-color="#fff" offset="0"/>
<stop offset="1"/>
</radialGradient>
<linearGradient id="fm" x2="14.514" gradientTransform="translate(292.97 353.32) rotate(98.734) skewX(4.8131)" gradientUnits="userSpaceOnUse">
<stop stop-color="#fff" offset="0"/>
<stop offset="1"/>
</linearGradient>
<linearGradient id="fl" x2="14.984" gradientTransform="translate(291.58 371.67) rotate(93.869) skewX(-.56578)" gradientUnits="userSpaceOnUse">
<stop stop-color="#fff" offset="0"/>
<stop offset="1"/>
</linearGradient>
<radialGradient id="do" cx="0" cy="0" r="32.605" gradientTransform="translate(293.46 407.62) rotate(-88.496) skewX(-.29802) scale(1 .93121)" gradientUnits="userSpaceOnUse">
<stop stop-color="#fff" offset="0"/>
<stop offset="1"/>
</radialGradient>
<radialGradient id="dn" cx="0" cy="0" r="34.105" gradientTransform="translate(292.93 377.94) rotate(94.557) skewX(-.6937) scale(1 1.8933)" gradientUnits="userSpaceOnUse">
<stop stop-color="#fff" offset="0"/>
<stop offset="1"/>
</radialGradient>
<linearGradient id="fk" x2="12.119" gradientTransform="translate(81.054 333.76) rotate(95.051) skewX(-1.1006)" gradientUnits="userSpaceOnUse">
<stop stop-color="#fff" offset="0"/>
<stop offset="1"/>
</linearGradient>
<linearGradient id="b" x2="3.902" gradientTransform="translate(79.987 336.51) rotate(94.954) skewX(-1.7149)" gradientUnits="userSpaceOnUse">
<stop stop-color="#fff" offset="0"/>
<stop offset="1"/>
</linearGradient>
<linearGradient id="fi" x2="9.078" gradientTransform="translate(73.375 352.86) rotate(-81.103) skewX(-2.109)" gradientUnits="userSpaceOnUse">
<stop stop-color="#fff" offset="0"/>
<stop offset="1"/>
</linearGradient>
<linearGradient id="fh" x2="32.758" gradientTransform="translate(81.166 344.97) rotate(101.37) skewX(-2.749)" gradientUnits="userSpaceOnUse">
<stop stop-color="#fff" offset="0"/>
<stop offset="1"/>
</linearGradient>
<radialGradient id="dm" cx="0" cy="0" r="49.072" gradientTransform="translate(291.79 329.52) rotate(91.935) skewX(-.29332) scale(1 5.0617)" gradientUnits="userSpaceOnUse">
<stop stop-color="#fff" offset="0"/>
<stop offset="1"/>
</radialGradient>
<linearGradient id="fg" x2="50.476" gradientTransform="translate(252.73 354.33) rotate(109.82) skewX(-17.286)" gradientUnits="userSpaceOnUse">
<stop stop-color="#fff" offset="0"/>
<stop offset="1"/>
</linearGradient>
<linearGradient id="ff" x2="16.244" gradientTransform="translate(82.682 400.63) rotate(-39.109) skewX(26.659)" gradientUnits="userSpaceOnUse">
<stop stop-color="#fff" offset="0"/>
<stop offset="1"/>
</linearGradient>
<linearGradient id="fe" x2="-21.421" y2="5.166" gradientTransform="translate(105.98 422.06)" gradientUnits="userSpaceOnUse">
<stop stop-color="#fff" offset="0"/>
<stop offset="1"/>
</linearGradient>
<linearGradient id="fd" x2="207.66" gradientTransform="translate(413.68 314.38) rotate(87.645) skewX(1.6665)" gradientUnits="userSpaceOnUse">
<stop stop-color="#fff" offset="0"/>
<stop offset="1"/>
</linearGradient>
<linearGradient id="fc" x2="32.882" gradientTransform="translate(436.81 335.76) rotate(83.629) skewX(2.0636)" gradientUnits="userSpaceOnUse">
<stop stop-color="#fff" offset="0"/>
<stop offset="1"/>
</linearGradient>
<linearGradient id="fb" x2="47.464" gradientTransform="translate(515.07 318.55) rotate(83.702) skewX(1.6165)" gradientUnits="userSpaceOnUse">
<stop stop-color="#fff" offset="0"/>
<stop offset="1"/>
</linearGradient>
<linearGradient id="fa" x2="68.876" gradientTransform="translate(393.07 357.9) rotate(87.758) skewX(3.5707)" gradientUnits="userSpaceOnUse">
<stop stop-color="#fff" offset="0"/>
<stop offset="1"/>
</linearGradient>
<linearGradient id="ey" x2="49.105" gradientTransform="translate(394.49 420.93) rotate(257.94) skewX(-3.072)" gradientUnits="userSpaceOnUse">
<stop stop-color="#fff" offset="0"/>
<stop offset="1"/>
</linearGradient>
<linearGradient id="ex" x2="199.83" gradientTransform="translate(346.31 326.92) rotate(59.348) skewX(6.2415)" gradientUnits="userSpaceOnUse">
<stop stop-color="#fff" offset="0"/>
<stop offset="1"/>
</linearGradient>
<linearGradient id="ew" x2="324.85" gradientTransform="translate(358.29 859.8) rotate(-87.845) skewX(-.53764)" gradientUnits="userSpaceOnUse">
<stop stop-color="#fff" offset="0"/>
<stop offset="1"/>
</linearGradient>
<linearGradient id="ev" x2="123.85" gradientTransform="translate(507.96 486.58) rotate(186.73) skewX(.48908)" gradientUnits="userSpaceOnUse">
<stop stop-color="#fff" offset="0"/>
<stop offset="1"/>
</linearGradient>
<linearGradient id="eu" x2="28.066" gradientTransform="translate(451.14 550.56) rotate(34.134) skewX(5.6335)" gradientUnits="userSpaceOnUse">
<stop stop-color="#fff" offset="0"/>
<stop offset="1"/>
</linearGradient>
<radialGradient id="dl" cx="0" cy="0" r="274.62" gradientTransform="translate(368.22 426.92) rotate(92.757) skewX(.45522) scale(1 .12348)" gradientUnits="userSpaceOnUse">
<stop stop-color="#fff" offset="0"/>
<stop offset="1"/>
</radialGradient>
<linearGradient id="et" x2="67.509" gradientTransform="translate(476.8 503.28) rotate(191.43) skewX(1.3921)" gradientUnits="userSpaceOnUse">
<stop stop-color="#fff" offset="0"/>
<stop offset="1"/>
</linearGradient>
<linearGradient id="es" x2="14.472" gradientTransform="translate(292.24 499.96) skewX(-.89357)" gradientUnits="userSpaceOnUse">
<stop stop-color="#fff" offset="0"/>
<stop offset="1"/>
</linearGradient>
<linearGradient id="er" x2="56.4" gradientTransform="translate(285.28 499.39) rotate(2.8385) skewX(-.29896)" gradientUnits="userSpaceOnUse">
<stop stop-color="#fff" offset="0"/>
<stop offset="1"/>
</linearGradient>
<linearGradient id="eq" x2="8.226" gradientTransform="translate(290.4 499.22) skewX(-.95962)" gradientUnits="userSpaceOnUse">
<stop stop-color="#fff" offset="0"/>
<stop offset="1"/>
</linearGradient>
<radialGradient id="dk" cx="0" cy="0" r="69.066" gradientTransform="translate(345.76 465.41) rotate(268.71) skewX(4.2082) scale(1 5.5251)" gradientUnits="userSpaceOnUse">
<stop stop-color="#fff" offset="0"/>
<stop offset="1"/>
</radialGradient>
<linearGradient id="ep" x2="-61.146" y2="77.878" gradientTransform="translate(519.35 383.78)" gradientUnits="userSpaceOnUse">
<stop stop-color="#fff" offset="0"/>
<stop offset="1"/>
</linearGradient>
<radialGradient id="dj" cx="0" cy="0" r="68.885" gradientTransform="translate(423.84 409.08) rotate(259.81) skewX(-1.8059) scale(1 6.9003)" gradientUnits="userSpaceOnUse">
<stop stop-color="#fff" offset="0"/>
<stop offset="1"/>
</radialGradient>
<linearGradient id="en" x2="45.479" gradientTransform="translate(372.88 435.89) rotate(258.25) skewX(-2.8614)" gradientUnits="userSpaceOnUse">
<stop stop-color="#fff" offset="0"/>
<stop offset="1"/>
</linearGradient>
<radialGradient id="di" cx="0" cy="0" r="52.822" gradientTransform="translate(345.34 440.18) rotate(-82.395) skewX(10.121) scale(1 3.2903)" gradientUnits="userSpaceOnUse">
<stop stop-color="#fff" offset="0"/>
<stop offset="1"/>
</radialGradient>
<radialGradient id="dg" cx="0" cy="0" r="62.919" gradientTransform="translate(505 392.77) rotate(207.94) skewX(-30.099) scale(1 .96874)" gradientUnits="userSpaceOnUse">
<stop stop-color="#fff" offset="0"/>
<stop offset="1"/>
</radialGradient>
<radialGradient id="df" cx="0" cy="0" r="83.296" gradientTransform="translate(378.5 458.42) rotate(-89.788) skewX(5.2091) scale(1 2.5339)" gradientUnits="userSpaceOnUse">
<stop stop-color="#fff" offset="0"/>
<stop offset="1"/>
</radialGradient>
<linearGradient id="em" x2="34.423" gradientTransform="translate(332.49 442.46) rotate(-71.749) skewX(16.881)" gradientUnits="userSpaceOnUse">
<stop stop-color="#fff" offset="0"/>
<stop offset="1"/>
</linearGradient>
<radialGradient id="de" cx="0" cy="0" r="74.621" gradientTransform="translate(483.01 638.38) rotate(236.91) skewX(6.3538) scale(1 .97704)" gradientUnits="userSpaceOnUse">
<stop stop-color="#fff" offset="0"/>
<stop offset="1"/>
</radialGradient>
<linearGradient id="el" x2="22.27" gradientTransform="translate(380.3 372.02) rotate(77.514) skewX(-3.35)" gradientUnits="userSpaceOnUse">
<stop stop-color="#fff" offset="0"/>
<stop offset="1"/>
</linearGradient>
<radialGradient id="dd" cx="0" cy="0" r="9.744" gradientTransform="translate(313.02 389.34) rotate(70.654) skewX(-7.9353) scale(1 3.9955)" gradientUnits="userSpaceOnUse">
<stop stop-color="#fff" offset="0"/>
<stop offset="1"/>
</radialGradient>
<linearGradient id="ek" x2="67.133" gradientTransform="translate(404.76 439.02) rotate(269.11) skewX(4.471)" gradientUnits="userSpaceOnUse">
<stop stop-color="#fff" offset="0"/>
<stop offset="1"/>
</linearGradient>
<radialGradient id="dc" cx="0" cy="0" r="40.573" gradientTransform="translate(340.07 408.18) rotate(-75.392) skewX(14.632) scale(1 1.589)" gradientUnits="userSpaceOnUse">
<stop stop-color="#fff" offset="0"/>
<stop offset="1"/>
</radialGradient>
<radialGradient id="db" cx="0" cy="0" r="29.866" gradientTransform="translate(511.7 384.54) rotate(216.38) skewX(-27.514) scale(1 1.1405)" gradientUnits="userSpaceOnUse">
<stop stop-color="#fff" offset="0"/>
<stop offset="1"/>
</radialGradient>
<linearGradient id="ej" x2="31.998" gradientTransform="translate(342.62 423.52) rotate(268.72) skewX(4.2207)" gradientUnits="userSpaceOnUse">
<stop stop-color="#fff" offset="0"/>
<stop offset="1"/>
</linearGradient>
<linearGradient id="ei" x2="296.38" gradientTransform="translate(242.7 400.33) rotate(-3.2011) skewX(-8.8127)" gradientUnits="userSpaceOnUse">
<stop stop-color="#fff" offset="0"/>
<stop offset="1"/>
</linearGradient>
<linearGradient id="eh" x2="30.649" gradientTransform="translate(352.57 383.5) rotate(81.599) skewX(-.60062)" gradientUnits="userSpaceOnUse">
<stop stop-color="#fff" offset="0"/>
<stop offset="1"/>
</linearGradient>
<linearGradient id="eg" x2="138.26" gradientTransform="translate(373.31 379.62) rotate(249.37) skewX(5.7335)" gradientUnits="userSpaceOnUse">
<stop stop-color="#fff" offset="0"/>
<stop offset="1"/>
</linearGradient>
<radialGradient id="da" cx="0" cy="0" r="287.7" gradientTransform="translate(333.02 331.68) rotate(86.061) skewX(2.0514) scale(1 .89843)" gradientUnits="userSpaceOnUse">
<stop stop-color="#fff" offset="0"/>
<stop offset="1"/>
</radialGradient>
<linearGradient id="ef" x2="12.117" gradientTransform="translate(508.09 333.76) rotate(85.015) skewX(1.1744)" gradientUnits="userSpaceOnUse">
<stop stop-color="#fff" offset="0"/>
<stop offset="1"/>
</linearGradient>
<linearGradient id="a" x2="3.902" gradientTransform="translate(509.14 336.51) rotate(85.046) skewX(1.7149)" gradientUnits="userSpaceOnUse">
<stop stop-color="#fff" offset="0"/>
<stop offset="1"/>
</linearGradient>
<linearGradient id="ed" x2="9.078" gradientTransform="translate(515.75 352.86) rotate(261.11) skewX(2.1166)" gradientUnits="userSpaceOnUse">
<stop stop-color="#fff" offset="0"/>
<stop offset="1"/>
</linearGradient>
<linearGradient id="ec" x2="32.761" gradientTransform="translate(507.96 344.97) rotate(78.608) skewX(2.7184)" gradientUnits="userSpaceOnUse">
<stop stop-color="#fff" offset="0"/>
<stop offset="1"/>
</linearGradient>
<linearGradient id="eb" x2="51.931" gradientTransform="translate(336.4 353.28) rotate(70.761) skewX(18.75)" gradientUnits="userSpaceOnUse">
<stop stop-color="#fff" offset="0"/>
<stop offset="1"/>
</linearGradient>
<linearGradient id="ea" x2="16.244" gradientTransform="translate(506.45 400.63) rotate(219.11) skewX(-26.644)" gradientUnits="userSpaceOnUse">
<stop stop-color="#fff" offset="0"/>
<stop offset="1"/>
</linearGradient>
<linearGradient id="dz" x2="22.035" gradientTransform="translate(483.15 422.06) rotate(13.559)" gradientUnits="userSpaceOnUse">
<stop stop-color="#fff" offset="0"/>
<stop offset="1"/>
</linearGradient>
<linearGradient id="dy" x2="34.315" gradientTransform="translate(295.26 412.03) rotate(267.35)" gradientUnits="userSpaceOnUse">
<stop stop-color="#fff" offset="0"/>
<stop offset="1"/>
</linearGradient>
<linearGradient id="dx" x2="-22.052" y2="626.64" gradientTransform="translate(314.58 364.38)" gradientUnits="userSpaceOnUse">
<stop stop-color="#fff" offset="0"/>
<stop offset="1"/>
</linearGradient>
</defs>
<g transform="scale(1 -1)" fill="none" font-family="Times New Roman" font-size="16" stroke="#000">
<g transform="translate(0 -841.89)">
<g stroke="none" stroke-miterlimit="79.84">
<mask id="cs">
<rect x="-10%" y="-10%" width="120%" height="120%" fill="url(#dt)" stroke="none"/>
</mask>
<path d="m187.6 326.42c-26.319 1.796-55.671 0.196-70.326-0.604-0.898 0.295-2.695 0.898-4.295 2.709-1.614 1.797-21.491 5.404-22.544 6.317-1.08 0.898-13.251 1.305-19.329 1.502-7.159-0.506-9.166 1.881-9.124 5.418l61.202 93.866 168-85.135c0.828-0.954 1.867-2.148 2.793-3.537 0.899 1.389 1.937 2.583 2.752 3.537l168.02 85.135 61.173-93.866c0.056-3.537-1.965-5.924-9.124-5.418-6.092-0.197-18.248-0.604-19.301-1.502-1.081-0.913-20.943-4.52-22.557-6.317-1.601-1.811-3.411-2.414-4.296-2.709-14.669 0.8-44.006 2.4-70.326 0.604-26.291-1.811-93.922-5.124-103.59 3.902-1.137 1.067-2.05 2.105-2.752 3.116-0.744-1.011-1.656-2.049-2.793-3.116-9.658-9.026-77.302-5.713-103.58-3.902z" fill="#000" mask="url(#cs)" stroke-width=".5"/>
<mask id="cr">
<rect x="-10%" y="-10%" width="120%" height="120%" fill="url(#ds)" stroke="none"/>
</mask>
<path d="m187.6 333.77c-26.319 2.134-51.376-3.327-66.044-4.281-0.885 0.365-2.695 1.081-4.282 3.214-1.614 2.134-25.786 2.85-26.839 3.917-1.08 1.08-13.251-0.955-19.329-0.716-7.159-0.59-9.166 2.232-9.124 6.415l61.202 111.16 170.24-81.569c0.814-1.123 1.853-2.541 2.765-4.183 0.927 1.642 1.951 3.06 2.78 4.183l165.78 81.569 61.173-111.16c0.056-4.183-1.965-7.005-9.124-6.415-6.092-0.239-19.497 2.133-20.564 1.08-8.591-0.364-19.329-1.431-20.929-3.565-1.615-2.134-3.397-2.849-4.296-3.214-14.669 0.954-44.554 6.779-70.859 4.632-26.32-2.134-94.47-10.682-104.13 0-1.151 1.263-2.05 2.484-2.78 3.692-0.73-1.208-1.628-2.429-2.779-3.692-9.671-10.682-76.586-3.201-102.86-1.067z" fill="#000" mask="url(#cr)" stroke-width=".5"/>
<mask id="cg">
<rect x="-10%" y="-10%" width="120%" height="120%" fill="url(#gf)" stroke="none"/>
</mask>
<path d="m42.367 341.69c0-1.685-2.344-8.815 0.379-10.065 0.281-0.126 0.632-2.723 3.917-2.526 30.615 1.923 204.9 20.564 205.28 20.564 5.994-1.404 17.968-4.197 39.852-5.039 21.883-0.857 34.39 4.042 41.423 7.145l211.44-22.614c2.077 0.982 0.463 6.513-0.786 13.854-15.062 88.869-360.46 71.084-501.5-1.319z" fill="#000" mask="url(#cg)" stroke-width=".5"/>
<path d="m257.56 389.82c0-0.632-0.87-16.858-1.319-25 0.196-3.032 0.589-9.11 18.009-10.668 17.406-1.586 50.337-4.253 56.907 5.502 6.583 9.728-0.421 39.753-0.576 39.908l-73.021-9.742z" fill="#bf0000" stroke-width=".5"/>
<mask id="bv">
<rect x="-10%" y="-10%" width="120%" height="120%" fill="url(#ge)" stroke="none"/>
</mask>
<path d="m257.56 389.82c0-0.632-0.87-16.858-1.319-25 0.196-3.032 0.589-9.11 18.009-10.668 17.406-1.586 50.337-4.253 56.907 5.502 6.583 9.728-0.421 39.753-0.576 39.908l-73.021-9.742z" fill="#000" mask="url(#bv)" stroke-width=".5"/>
<mask id="bk">
<rect x="-10%" y="-10%" width="120%" height="120%" fill="url(#ft)" stroke="none"/>
</mask>
<path d="m257.56 389.82c0-0.632-0.87-16.858-1.319-25 0.196-3.032 0.589-9.11 18.009-10.668 17.406-1.586 50.337-4.253 56.907 5.502 6.583 9.728-0.421 39.753-0.576 39.908l-73.021-9.742z" fill="#000" mask="url(#bk)" stroke-width=".5"/>
<mask id="az">
<rect x="-10%" y="-10%" width="120%" height="120%" fill="url(#fj)" stroke="none"/>
</mask>
<path d="m257.56 389.82c0-0.632-0.87-16.858-1.319-25 0.196-3.032 0.589-9.11 18.009-10.668 17.406-1.586 50.337-4.253 56.907 5.502 6.583 9.728-0.421 39.753-0.576 39.908l-73.021-9.742z" fill="#000" mask="url(#az)" stroke-width=".5"/>
<path d="m49.049 334.68 0.239 14.866 205.11 23.414-0.042-3.44c0.393-1.698 1.417-3.326 2.962-4.842 5.334-4.24 18.585-7.117 32.804-7.693l-0.098-7.987c-15.82 0.716-30.783 4.618-38.083 10.43l-202.89-24.748z" fill="#000" stroke-width=".312"/>
<path d="m253.72 368.93 18.838 228.3-157.95-23.301-66.578-226.39 205.69 21.393z" fill="#bf0000" stroke-width=".5"/>
<mask id="ao">
<rect x="-10%" y="-10%" width="120%" height="120%" fill="url(#ez)" stroke="none"/>
</mask>
<path d="m253.72 368.93 18.838 228.3-157.95-23.301-66.578-226.39 205.69 21.393z" fill="#400000" mask="url(#ao)" stroke-width=".5"/>
<mask id="ad">
<rect x="-10%" y="-10%" width="120%" height="120%" fill="url(#eo)" stroke="none"/>
</mask>
<path d="m254.74 372.12 29.127 248.11-164.36-25.295-69.89-248.11 205.12 25.295z" fill="#fff7c8" mask="url(#ad)" stroke-width=".5"/>
<path d="m42.339 339.62 1.39 7.005 12.9 39.767 52.794-32.355c-25.407-7.468-51.067-15.118-67.084-14.417z" fill="#e46700" stroke-width=".5"/>
<mask id="s">
<rect x="-10%" y="-10%" width="120%" height="120%" fill="url(#ee)" stroke="none"/>
</mask>
<path d="m42.339 339.62 1.39 7.005 12.9 39.767 52.794-32.355c-25.407-7.468-51.067-15.118-67.084-14.417z" fill="#bf0000" mask="url(#s)" stroke-width=".5"/>
<mask id="h">
<rect x="-10%" y="-10%" width="120%" height="120%" fill="url(#dw)" stroke="none"/>
</mask>
<path d="m256.03 388.19c0.197 0.014-124.97-15.946-187.55-23.919l6.851 4.941c59.18 8.113 183.11 25.294 183.31 25.098 0.168-0.197-3.551-4.478-2.611-6.12z" fill="#402100" mask="url(#h)" stroke-width=".5"/>
<mask id="cq">
<rect x="-10%" y="-10%" width="120%" height="120%" fill="url(#dv)" stroke="none"/>
</mask>
<path d="m85.11 392.35c-3.509-8.184-10.148-18.403-17.785-29.268-0.379-0.603-1.431-3.902 6.401-1.796 6.415 1.712 123.12 16.956 181.44 24.649l3.214 8.015-171.28-1.446-1.994-0.154z" fill="#402100" mask="url(#cq)" stroke-width=".5"/>
<mask id="cp">
<rect x="-10%" y="-10%" width="120%" height="120%" fill="url(#du)" stroke="none"/>
</mask>
<path d="m255.69 388.23-1.291-5.769c-63.279-7.131-189.89-21.337-190.27-19.568-0.351 1.783 55.573 201.66 57.566 201.66 1.979 0 19.933-20.438 28.931-30.643l105.07-145.68z" fill="#000" mask="url(#cp)" stroke-width=".5"/>
<path d="m295.19 398.27-0.857 219.58c-31.681 33.24-46.87 32.678-95.48 5.306-22.965-12.718-43.627-22.432-66.381-20.761l-64.571-238.24 67.434 24.593 159.35 8.268 0.506 1.249z" fill="#fff" stroke-width=".5"/>
<mask id="co">
<rect x="-10%" y="-10%" width="120%" height="120%" fill="url(#gd)" stroke="none"/>
</mask>
<path d="m294.75 425.78-0.421 192.07c-31.681 33.24-46.87 32.678-95.48 5.306-22.965-12.718-43.627-22.432-66.381-20.761l-46.814-172.99 50.028-12.184 158.56 7.313 0.505 1.249z" fill="#ffda00" mask="url(#co)" stroke-width=".5"/>
<mask id="cn">
<rect x="-10%" y="-10%" width="120%" height="120%" fill="url(#gc)" stroke="none"/>
</mask>
<path d="m295.19 402.23-0.857 215.62c-31.681 33.24-46.87 32.678-95.48 5.306-22.965-12.718-43.627-22.432-66.381-20.761l-64.178-235.86 64.262 16.662 162.13 17.799 0.506 1.235z" fill="#ce7e2b" mask="url(#cn)" stroke-width=".5"/>
<path d="m107.53 554.66 26.432 23.708c-7.286-1.305-20.017-1.123-20.354-4.351l-6.078-19.357z" fill="#ff8200" stroke-width=".5"/>
<mask id="cm">
<rect x="-10%" y="-10%" width="120%" height="120%" fill="url(#gb)" stroke="none"/>
</mask>
<path d="m107.53 554.66 26.432 23.708c-7.286-1.305-20.017-1.123-20.354-4.351l-6.078-19.357z" fill="#bf0000" mask="url(#cm)" stroke-width=".5"/>
<path d="m123.64 569.19-16.128-14.556 0.505-2.499 0.786 1.923 13.813 12.058 1.024 3.074z" fill="#7f0000" stroke-width=".5"/>
<mask id="cl">
<rect x="-10%" y="-10%" width="120%" height="120%" fill="url(#dh)" stroke="none"/>
</mask>
<path d="m294.52 399.91-0.183 217.94c-31.681 33.24-46.87 32.678-95.48 5.306-22.965-12.718-43.627-22.432-66.381-20.761l-64.571-237.06 67.827 22.614 158.27 10.71 0.52 1.25z" fill="#fff" mask="url(#cl)" stroke-width=".5"/>
<mask id="ck">
<rect x="-10%" y="-10%" width="120%" height="120%" fill="url(#ga)" stroke="none"/>
</mask>
<path d="m295.19 400.64-0.857 217.21c-31.681 33.24-46.87 32.678-95.48 5.306-22.965-12.718-43.627-22.432-66.381-20.761l-64.571-236.65 63.869 23.793 162.91 9.868 0.506 1.236z" fill="#fff3ab" mask="url(#ck)" stroke-width=".5"/>
<mask id="cj">
<rect x="-10%" y="-10%" width="120%" height="120%" fill="url(#fz)" stroke="none"/>
</mask>
<path d="m294.4 403.42-0.071 214.43c-31.681 33.24-46.87 32.678-95.48 5.306-22.965-12.718-43.627-22.432-66.381-20.761l-46.814-172.99 50.028-12.184 158.2-15.034 0.52 1.235z" fill="#402100" mask="url(#cj)" stroke-width=".5"/>
<mask id="ci">
<rect x="-10%" y="-10%" width="120%" height="120%" fill="url(#fy)" stroke="none"/>
</mask>
<path d="m295.19 398.66-0.857 219.19c-31.681 33.24-46.87 32.678-95.48 5.306-22.965-12.718-43.627-22.432-66.381-20.761l-46.814-172.99 50.028-12.184 159-19.807 0.506 1.249z" fill="#ce7e2b" mask="url(#ci)" stroke-width=".5"/>
<mask id="ch">
<rect x="-10%" y="-10%" width="120%" height="120%" fill="url(#fx)" stroke="none"/>
</mask>
<path d="m294.91 400.7-0.576 217.15c-31.681 33.24-46.87 32.678-95.48 5.306-22.965-12.718-43.627-22.432-66.381-20.761l-46.814-172.99 50.028-12.184 158.72-17.757 0.505 1.235z" fill="#7f4100" mask="url(#ch)" stroke-width=".5"/>
<path d="m85.911 398.07c53.032 1.6 94.497 14.36 121.5 24.649 37.184 11.595 68.697 11.482 84.208-3.622 3.383-8.155 2.218-15.847-0.702-23.301-12.773-1.109-25.477-3.032-36.594-6.415l-184.62-23.989c10.149 11.959 13.517 17.392 16.199 32.678z" fill="#fff7c8" stroke-width=".5"/>
<mask id="cf">
<rect x="-10%" y="-10%" width="120%" height="120%" fill="url(#cz)" stroke="none"/>
</mask>
<path d="m85.911 398.07c53.032 1.6 94.497 14.36 121.5 24.649 37.184 11.595 68.697 11.482 84.208-3.622 3.383-8.155 2.218-15.847-0.702-23.301-12.773-1.109-25.477-3.032-36.594-6.415l-184.62-23.989c10.149 11.959 13.517 17.392 16.199 32.678z" fill="#402100" mask="url(#cf)" stroke-width=".5"/>
<mask id="ce">
<rect x="-10%" y="-10%" width="120%" height="120%" fill="url(#fw)" stroke="none"/>
</mask>
<path d="m294.52 400.7-0.183 217.15c-31.681 33.24-46.87 32.678-95.48 5.306-22.965-12.718-43.627-22.432-66.381-20.761l-64.178-236.65 62.676 17.056 163.03 16.662 0.52 1.235z" fill="#fff" mask="url(#ce)" stroke-width=".5"/>
<mask id="cd">
<rect x="-10%" y="-10%" width="120%" height="120%" fill="url(#cy)" stroke="none"/>
</mask>
<path d="m85.911 398.07c53.032 1.6 94.497 14.36 121.5 24.649 37.184 11.595 68.697 11.482 84.208-3.622 3.383-8.155 5.25-15.595 2.33-23.034-12.759-1.123-28.509-3.299-39.626-6.682l-184.62-23.989c10.149 11.959 13.517 17.392 16.199 32.678z" fill="#7f4100" mask="url(#cd)" stroke-width=".5"/>
<mask id="cc">
<rect x="-10%" y="-10%" width="120%" height="120%" fill="url(#fv)" stroke="none"/>
</mask>
<path d="m290.12 419.13c-1.488 1.712-3.439 3.214-5.966 4.548-0.884 0.477-1.838 0.926-2.793 1.347l-2.807 1.235-0.618 0.197c-0.463 0.126-0.898 0.267-1.376 0.393-1.389 0.379-2.807 0.758-4.253 1.067-4.029 0.898-8.296 1.488-12.83 1.754-5.151 0.309-10.836 0.141-16.578-0.477-5.797-0.617-11.257-1.586-16.549-2.737-2.738-0.59-5.405-1.235-8.072-1.909-0.772-0.197-1.516-0.393-2.274-0.59-0.224-0.056-0.477-0.126-0.716-0.196l-0.098-0.014-12.816-4.31c-4.309-1.445-8.59-2.891-12.928-4.295-6.85-2.218-13.812-4.337-21.084-6.092-0.252-0.056-0.505-0.112-0.772-0.183l-0.042-0.014-0.814-0.21c-1.502-0.435-3.032-0.842-4.562-1.235-4.604-1.165-9.25-2.274-14.009-3.285-8.352-1.755-16.999-3.187-25.997-4.309-4.449-0.548-9.025-0.997-13.644-1.334-3.874-0.267-7.678-0.491-11.44-0.632-3.509-0.14-6.948-0.182-10.373-0.196l0.168 0.912c3.594 0.113 7.229 0.253 10.949 0.492 6.148 0.393 12.409 0.954 18.375 1.67 5.965 0.716 11.805 1.614 17.504 2.611 5.081 0.884 10.078 1.937 14.977 3.032 4.268 0.968 8.451 2.021 12.564 3.13 1.024 0.281 2.063 0.562 3.088 0.856 0.716 0.197 1.389 0.407 2.105 0.59 2.387 0.589 4.745 1.221 7.061 1.867 5.769 1.614 11.398 3.425 16.957 5.278 7.089 2.358 14.121 4.786 21.238 7.103 0.674 0.224 1.333 0.463 2.021 0.659 0.786 0.239 1.615 0.435 2.415 0.632 1.445 0.351 2.877 0.716 4.337 1.067 3.313 0.772 6.668 1.474 10.121 2.119 3.425 0.632 6.948 1.151 10.57 1.53 1.951 0.225 3.972 0.408 5.937 0.52 6.935 0.393 13.406 0.182 19.33-0.702 3.214-0.491 6.288-1.109 9.25-1.909 1.151-0.309 2.302-0.66 3.439-1.025 0.407-0.126 0.856-0.252 1.235-0.407 0.337-0.126 0.66-0.295 0.969-0.435 2.835-1.305 5.531-2.709 7.608-4.309 2.878-2.204 4.688-4.787 5.503-7.707 0.238-0.828 0.421-1.698 0.533-2.569 0.042-0.407 0.056-0.842 0.098-1.263l-1.572-0.168c-0.337 2.933-1.347 5.586-3.369 7.903z" fill="#fff" fill-rule="evenodd" mask="url(#cc)" stroke-width=".5"/>
<mask id="cb">
<rect x="-10%" y="-10%" width="120%" height="120%" fill="url(#cx)" stroke="none"/>
</mask>
<path d="m292.26 407.93c-15.988 6.878-32.44 12.956-55.012 8.52-14.724-3.397-44.16-10.19-55.137-12.591-10.949-2.414-41.003-9.306-52.639-10.738-12.381-1.502-35.402-2.794-44.905-2.148l-0.547-2.133c11.973 0.421 40.3 2.203 49.298 3.607 9.012 1.404 56.555 11.174 68.501 14.22 11.973 3.032 40.02 7.762 50.66 8.324 12.058 0.631 32.355-3.327 39.781-7.061z" fill="#402100" mask="url(#cb)" stroke-width=".5"/>
<mask id="ca">
<rect x="-10%" y="-10%" width="120%" height="120%" fill="url(#cw)" stroke="none"/>
</mask>
<path d="m292.26 407.93c-15.988 6.878-32.44 12.956-55.012 8.52-14.724-3.397-44.16-10.19-55.137-12.591-10.949-2.414-41.003-9.306-52.639-10.738-12.381-1.502-35.402-2.794-44.905-2.148l-0.547-2.133c11.973 0.421 40.3 2.203 49.298 3.607 9.012 1.404 56.555 11.174 68.501 14.22 11.973 3.032 40.02 7.762 50.66 8.324 12.058 0.631 32.355-3.327 39.781-7.061z" fill="#402100" mask="url(#ca)" stroke-width=".5"/>
<mask id="bz">
<rect x="-10%" y="-10%" width="120%" height="120%" fill="url(#cv)" stroke="none"/>
</mask>
<path d="m117.72 390.52c-3.72-0.281-7.44-0.491-11.118-0.716-7.453-0.435-14.851-0.842-22.347-1.347v0.224c3.229 0.239 6.443 0.463 9.686 0.674 7.917 0.519 15.82 0.982 23.779 1.586 2.161 0.169 4.309 0.323 6.386 0.562 1.067 0.112 2.12 0.224 3.187 0.365 0.239 0.028 0.449 0.042 0.674 0.084 0.112 0.014 0.21 0.028 0.323 0.042 0.014 0 0.042 0 0.056 0.014h0.07c0.968 0.126 1.965 0.309 2.92 0.477 2.835 0.477 5.628 1.025 8.436 1.544 3.369 0.604 6.682 1.292 10.022 1.937 4.422 0.871 8.83 1.755 13.195 2.653 3.917 0.8 7.777 1.601 11.637 2.429 2.316 0.519 4.562 1.067 6.892 1.586 2.457 0.533 4.969 1.137 7.454 1.698 6.668 1.488 13.363 2.948 20.101 4.31 5.587 1.151 11.188 2.246 16.873 3.242 4.098 0.73 8.211 1.418 12.436 1.994 3.131 0.421 6.373 0.8 9.644 0.982 5.067 0.295 9.798 0.239 14.346-0.042 4.267-0.267 8.38-0.758 12.296-1.474 3.678-0.674 7.272-1.53 10.57-2.695 1.207-0.393 2.415-0.856 3.481-1.418 0.534-0.28 1.025-0.561 1.516-0.842l-0.294-0.168c-0.365 0.21-0.716 0.407-1.095 0.603-1.109 0.59-2.358 1.067-3.608 1.502-1.516 0.548-3.116 0.997-4.716 1.39-5.503 1.376-11.44 2.274-17.743 2.653-3.383 0.211-6.878 0.309-10.486 0.196-1.067-0.028-2.105-0.07-3.158-0.14l-3.215-0.196-2.582-0.253c-5.98-0.66-11.693-1.614-17.35-2.639-10.654-1.923-21.07-4.141-31.359-6.373-3.917-0.87-7.805-1.74-11.679-2.625-2.667-0.617-5.362-1.249-8.085-1.839-4.562-0.996-9.124-1.909-13.757-2.849-7.762-1.572-15.525-3.074-23.343-4.52-1.474-0.281-2.948-0.534-4.45-0.8-1.965-0.351-3.931-0.674-5.98-0.941-3.088-0.407-6.359-0.631-9.615-0.87z" fill="#fff" fill-rule="evenodd" mask="url(#bz)" stroke-width=".5"/>
<mask id="by">
<rect x="-10%" y="-10%" width="120%" height="120%" fill="url(#fu)" stroke="none"/>
</mask>
<path d="m281.95 412.42c-14.936 4.815-30.433 9.082-59.097 0.66 19.849 4.337 39.557 4.604 59.097-0.66z" fill="#000" mask="url(#by)" stroke-width=".5"/>
<mask id="bx">
<rect x="-10%" y="-10%" width="120%" height="120%" fill="url(#cu)" stroke="none"/>
</mask>
<path d="m294.75 425.78-0.421 192.07c-31.681 33.24-46.87 32.678-95.48 5.306-22.965-12.718-43.627-22.432-66.381-20.761l-46.814-172.99 50.028-12.184 158.56 7.313 0.505 1.249z" fill="#edbc00" mask="url(#bx)" stroke-width=".5"/>
<mask id="bw">
<rect x="-10%" y="-10%" width="120%" height="120%" fill="url(#fs)" stroke="none"/>
</mask>
<path d="m85.911 398.07c53.032 1.6 94.497 14.36 121.5 24.649 37.184 11.595 68.697 11.482 84.208-3.622 3.383-8.155 5.994-15.581 3.074-23.02-12.773-1.109-29.253-3.313-40.37-6.696l-184.62-23.989c10.149 11.959 13.517 17.392 16.199 32.678z" fill="#fff" mask="url(#bw)" stroke-width=".5"/>
<mask id="bu">
<rect x="-10%" y="-10%" width="120%" height="120%" fill="url(#ct)" stroke="none"/>
</mask>
<path d="m85.911 398.07c53.032 1.6 94.497 14.36 121.5 24.649 37.184 11.595 68.697 11.482 84.208-3.622 3.383-8.155 2.218-15.847-0.702-23.301-12.773-1.109-25.477-3.032-36.594-6.415l-184.62-23.989c10.149 11.959 13.517 17.392 16.199 32.678z" fill="#7f4100" mask="url(#bu)" stroke-width=".5"/>
<mask id="bt">
<rect x="-10%" y="-10%" width="120%" height="120%" fill="url(#fr)" stroke="none"/>
</mask>
<path d="m293 402.72c-12.788 1.867-25.183 5.334-40.245 4.394-13.63-0.828-71.252-11.272-89.275-15.006-17.968-3.706-60.388-9.615-82.426-10.57l-1.404-1.67c13.742 1.544 41.199 4.604 57.075 6.836 15.89 2.232 94.048 17.167 106.53 17.911 20.537 1.235 41.452-1.123 48.709-2.765l1.039 0.87z" fill="#402100" mask="url(#bt)" stroke-width=".5"/>
<mask id="bs">
<rect x="-10%" y="-10%" width="120%" height="120%" fill="url(#dr)" stroke="none"/>
</mask>
<path d="m293 402.72c-12.788 1.867-25.183 5.334-40.245 4.394-13.63-0.828-71.252-11.272-89.275-15.006-17.968-3.706-60.388-9.615-82.426-10.57l-1.404-1.67c13.742 1.544 41.199 4.604 57.075 6.836 15.89 2.232 94.048 17.167 106.53 17.911 20.537 1.235 41.452-1.123 48.709-2.765l1.039 0.87z" fill="#402100" mask="url(#bs)" stroke-width=".5"/>
<mask id="br">
<rect x="-10%" y="-10%" width="120%" height="120%" fill="url(#dq)" stroke="none"/>
</mask>
<path d="m293 402.72c-12.788 1.867-25.183 5.334-40.245 4.394-13.63-0.828-71.252-11.272-89.275-15.006-17.968-3.706-60.388-9.615-82.426-10.57l-1.404-1.67c13.742 1.544 41.199 4.604 57.075 6.836 15.89 2.232 94.048 17.167 106.53 17.911 20.537 1.235 41.452-1.123 48.709-2.765l1.039 0.87z" fill="#402100" mask="url(#br)" stroke-width=".5"/>
<mask id="bq">
<rect x="-10%" y="-10%" width="120%" height="120%" fill="url(#fq)" stroke="none"/>
</mask>
<path d="m80.675 379.63-0.014 0.239c9.475 1.151 18.88 2.4 28.355 3.579 3.453 0.421 6.878 0.871 10.317 1.264 4.548 0.519 9.208 1.024 13.658 1.656 6.555 0.884 13.083 1.937 19.54 2.99 4.07 0.674 8.169 1.361 12.24 2.021 2.176 0.379 4.38 0.73 6.583 1.109 2.33 0.407 4.647 0.786 6.991 1.165 0.617 0.098 1.249 0.183 1.867 0.295 1.558 0.281 3.004 0.547 4.562 0.856 4.52 0.899 9.054 1.867 13.574 2.794 9.362 1.881 18.837 3.719 28.607 5.235 3.467 0.534 6.949 1.039 10.5 1.432 2.92 0.337 6.008 0.646 8.998 0.814 3.565 0.183 6.934 0.141 10.289 0.071 2.569-0.043 5.081-0.127 7.608-0.239 5.278-0.253 10.528-0.604 15.609-1.109 3.103-0.309 6.135-0.674 9.082-1.207 1.025-0.183 2.008-0.407 3.004-0.632l-0.196-0.21c-0.463 0.112-0.941 0.21-1.432 0.308-1.404 0.295-2.836 0.492-4.295 0.716-1.643 0.239-3.327 0.435-5.054 0.59-4.492 0.449-9.096 0.758-13.742 0.997-3.58 0.182-7.173 0.294-10.837 0.35-1.488 0.014-3.018 0.029-4.562 0.029-0.393-0.015-0.786-0.015-1.193 0-0.182-0.015-0.379-0.015-0.561-0.015-0.042-0.014-0.085-0.014-0.127 0-0.042 0-0.126-0.014-0.084 0-0.968-0.028-1.979-0.056-2.962-0.112-2.779-0.14-5.615-0.421-8.324-0.716-3.018-0.351-5.966-0.744-8.885-1.179-10.332-1.544-20.396-3.509-30.278-5.516-4.001-0.801-8.015-1.629-11.988-2.457-1.558-0.309-3.116-0.632-4.66-0.912-0.885-0.197-1.853-0.393-2.794-0.52-2.54-0.421-5.081-0.814-7.65-1.235-4.057-0.688-8.085-1.347-12.142-2.021-6.99-1.165-14.037-2.288-21.154-3.341-3.593-0.519-7.229-1.053-10.907-1.46-5.46-0.618-10.935-1.207-16.297-1.867-10.415-1.263-20.845-2.527-31.246-3.762z" fill="#fff" fill-rule="evenodd" mask="url(#bq)" stroke-width=".5"/>
<mask id="bp">
<rect x="-10%" y="-10%" width="120%" height="120%" fill="url(#fp)" stroke="none"/>
</mask>
<path d="m76.758 373.51 0.042 0.239c0.744-0.014 1.488 0 2.218 0.028 1.825 0.07 3.636 0.168 5.545 0.323 3.93 0.336 7.819 0.912 11.426 1.502 1.558 0.266 3.215 0.477 4.843 0.715 2.892 0.436 5.769 0.829 8.689 1.264 2.906 0.435 5.797 0.828 8.675 1.235 3.242 0.463 6.471 0.941 9.728 1.39 2.428 0.323 4.856 0.688 7.299 1.024 5.559 0.786 11.131 1.587 16.676 2.359 18.697 2.625 37.395 5.221 56.106 7.79 13.616 1.895 27.316 3.762 40.862 5.657 5.783 0.8 12.086 1.278 17.982 1.53 8.324 0.337 16.283 0.197 24.705 0.646l-0.014-0.211c-6.583-0.421-12.9-0.463-19.287-0.617-2.288-0.056-4.59-0.127-6.92-0.267-2.513-0.154-5.124-0.323-7.679-0.547-3.509-0.309-6.892-0.744-10.219-1.208-3.467-0.533-7.032-0.996-10.499-1.502-5.573-0.786-11.174-1.572-16.747-2.344-7.102-0.996-14.247-1.979-21.406-3.004-15.82-2.218-31.71-4.379-47.558-6.583-13.798-1.923-27.499-3.804-41.255-5.713-3.958-0.534-7.959-1.095-11.917-1.671-0.772-0.098-1.558-0.224-2.302-0.322-0.365-0.057-0.702-0.141-1.053-0.169-5.699-0.912-12.17-1.586-17.94-1.544z" fill="#402100" fill-rule="evenodd" mask="url(#bp)" stroke-width=".5"/>
<mask id="bo">
<rect x="-10%" y="-10%" width="120%" height="120%" fill="url(#fo)" stroke="none"/>
</mask>
<path d="m80.492 372.58c-1.263-0.057-2.54-0.113-3.762-0.099l0.028 0.113c1.039-0.014 2.092 0.042 3.145 0.084 3.565 0.154 7.313 0.547 10.752 1.01 1.797 0.267 3.622 0.562 5.32 0.815 4.352 0.659 8.801 1.319 13.251 1.951 6.12 0.87 12.17 1.74 18.276 2.625 7.777 1.123 15.554 2.204 23.302 3.312 16.859 2.401 33.731 4.773 50.562 7.145 7.06 0.983 14.121 2.008 21.111 2.962 6.837 0.941 13.687 1.951 20.509 2.892 2.063 0.281 4.056 0.575 6.134 0.87 5.755 0.758 11.973 1.334 17.897 1.6 8.24 0.379 16.199 0.351 24.523 0.871l-0.028-0.113c-6.555-0.435-12.872-0.519-19.259-0.73-2.288-0.07-4.59-0.154-6.92-0.308-2.541-0.155-5.138-0.337-7.707-0.576-3.509-0.323-6.892-0.772-10.233-1.221-1.432-0.225-2.877-0.407-4.309-0.618-2.035-0.309-4.043-0.589-6.064-0.87-5.503-0.772-11.005-1.572-16.494-2.344-23.638-3.341-47.361-6.682-71.07-10.037-13.293-1.881-26.572-3.734-39.781-5.601-3.93-0.561-7.818-1.123-11.721-1.684-1.123-0.168-2.246-0.365-3.298-0.491-4.043-0.646-8.198-1.165-12.55-1.46-0.547-0.042-1.094-0.07-1.614-0.098z" fill="#402100" fill-rule="evenodd" mask="url(#bo)" stroke-width=".5"/>
<mask id="bn">
<rect x="-10%" y="-10%" width="120%" height="120%" fill="url(#fn)" stroke="none"/>
</mask>
<path d="m254.36 373.34-204.48-25.913c-0.266-0.463-0.828-1.362-0.042-3.158 0.786-1.797 137.1 15.497 205.25 24.115l-0.73 4.956z" fill="#bf0000" mask="url(#bn)" stroke-width=".5"/>
<mask id="bm">
<rect x="-10%" y="-10%" width="120%" height="120%" fill="url(#dp)" stroke="none"/>
</mask>
<path d="m51.478 345.21-0.085 0.842 50.787 6.78 50.772 7.145 50.744 7.131 50.786 6.766 0.477-4.323-50.856-6.275-101.77-11.819-50.856-6.247z" fill="#fff" fill-rule="evenodd" mask="url(#bm)" stroke-width=".5"/>
<path d="m273.33 357.58c-5.573 1.137-10.823 2.906-15.623 5.685l0.575 1.39c2.176-0.913 4.436-1.629 6.738-2.218 2.344-0.576 4.744-1.067 7.215-1.39 5.376-0.758 11.019-1.053 16.746-1.081 2.19 0 4.324 0.028 6.485 0.028 4.576 0 9.096 0.056 13.546 0.267 3.271 0.154 6.457 0.449 9.545 0.955 2.316 0.35 4.59 0.87 6.696 1.642 1.151 0.407 2.26 0.912 3.313 1.614 0.421 0.295 0.842 0.59 1.207 0.955l1.011-1.151c-0.478-0.464-0.927-0.955-1.446-1.362-2.05-1.698-4.408-2.751-6.878-3.622-1.39-0.491-2.85-0.912-4.324-1.249-3.551-0.814-7.285-1.361-11.103-1.698-3.327-0.281-6.738-0.421-10.177-0.45h-3.425c-6.991-0.098-13.742 0.379-20.101 1.685z" fill="#bf0000" fill-rule="evenodd" stroke-width=".5"/>
<mask id="bl">
<rect x="-10%" y="-10%" width="120%" height="120%" fill="url(#fm)" stroke="none"/>
</mask>
<path d="m273.45 358.38c-5.53 1.039-10.78 2.653-15.595 5.236l0.281 0.688c4.365-2.022 9.082-3.215 13.967-4.043 5.404-0.926 11.089-1.263 16.886-1.305 2.176-0.029 4.324 0.014 6.485 0.014 4.604 0 9.167 0.112 13.616 0.365 4.534 0.294 9.04 0.8 13.195 1.937 1.572 0.435 3.13 0.982 4.562 1.684 1.151 0.576 2.232 1.249 3.187 2.19l0.505-0.576c-0.351-0.337-0.688-0.673-1.039-0.996-2.19-1.825-4.829-2.906-7.467-3.734-4.703-1.46-9.812-2.162-15.034-2.527-3.327-0.252-6.724-0.379-10.163-0.393h-3.411c-6.906-0.084-13.63 0.295-19.975 1.46z" fill="#fff" fill-rule="evenodd" mask="url(#bl)" stroke-width=".5"/>
<path d="m257.47 381.09c22.277 8.549 46.701 8.97 72.614 1.207 0.407-1.123 0.8-2.246-0.997-3.355-23.442 6.373-46.491 7.384-70.255-0.814-1.643 0.8-1.783 1.825-1.362 2.962z" fill="#ff8200" stroke-width=".5"/>
<mask id="bj">
<rect x="-10%" y="-10%" width="120%" height="120%" fill="url(#fl)" stroke="none"/>
</mask>
<path d="m257.47 381.09c22.277 8.549 46.701 8.97 72.614 1.207 0.407-1.123 0.8-2.246-0.997-3.355-23.442 6.373-46.491 7.384-70.255-0.814-1.643 0.8-1.783 1.825-1.362 2.962z" fill="#000" mask="url(#bj)" stroke-width=".5"/>
<mask id="bi">
<rect x="-10%" y="-10%" width="120%" height="120%" fill="url(#do)" stroke="none"/>
</mask>
<path d="m258.2 380.01c22.305 8.549 46.084 8.97 71.996 1.207 0.421-1.123 0.548-0.21-1.249-1.319-23.428 6.373-46.491 7.762-70.242-0.421-1.656 0.772-0.898-0.59-0.505 0.533z" fill="#fff" mask="url(#bi)" stroke-width=".5"/>
<mask id="bh">
<rect x="-10%" y="-10%" width="120%" height="120%" fill="url(#dn)" stroke="none"/>
</mask>
<path d="m257.65 379.56c21.814 9.096 45.312 10.373 71.084 1.081l45.537-5.91c-7.173 38.251-19.119 70.593-80.335 41.634-44.778 25.688-83.169-21.154-75.814-42.715l39.528 5.91z" fill="#402100" mask="url(#bh)" stroke-width=".5"/>
<path d="m109.3 341.14c0.435 4.45 0.941 8.858-1.74 14.459l-60.697-8.198-3.495-1.586c-0.744-3.917-2.541-12.423 1.979-12.844 4.52-0.393 43.894 6.387 63.953 8.169z" fill="#e46700" stroke-width=".5"/>
<mask id="bg">
<rect x="-10%" y="-10%" width="120%" height="120%" fill="url(#fk)" stroke="none"/>
</mask>
<path d="m109.3 341.14c0.435 4.45 0.941 8.858-1.74 14.459l-60.697-8.198-3.495-1.586c-0.744-3.917-2.541-12.423 1.979-12.844 4.52-0.393 43.894 6.387 63.953 8.169z" fill="#400000" mask="url(#bg)" stroke-width=".5"/>
<mask id="bf">
<rect x="-10%" y="-10%" width="120%" height="120%" fill="url(#b)" stroke="none"/>
</mask>
<path d="m109.3 341.14c0.435 4.45 0.941 8.858-1.74 14.459l-60.697-8.198-3.495-1.586c-0.744-3.917-2.541-12.423 1.979-12.844 4.52-0.393 43.894 6.387 63.953 8.169z" fill="#ffba00" mask="url(#bf)" stroke-width=".5"/>
<mask id="be">
<rect x="-10%" y="-10%" width="120%" height="120%" fill="url(#b)" stroke="none"/>
</mask>
<path d="m109.3 341.14c0.435 4.45 0.941 8.858-1.74 14.459l-60.697-8.198-3.495-1.586c-0.744-3.917-2.541-12.423 1.979-12.844 4.52-0.393 43.894 6.387 63.953 8.169z" fill="#e46700" mask="url(#be)" stroke-width=".5"/>
<mask id="bd">
<rect x="-10%" y="-10%" width="120%" height="120%" fill="url(#fi)" stroke="none"/>
</mask>
<path d="m109.3 341.14c0.435 4.45 0.941 8.858-1.74 14.459l-60.697-8.198-3.495-1.586c-0.744-3.917-2.541-12.423 1.979-12.844 4.52-0.393 43.894 6.387 63.953 8.169z" fill="#fff" mask="url(#bd)" stroke-width=".5"/>
<mask id="bc">
<rect x="-10%" y="-10%" width="120%" height="120%" fill="url(#fh)" stroke="none"/>
</mask>
<path d="m46.242 347.16-0.042 0.421 14.668 2.218 14.711 2.078 14.725 1.839 14.725 1.67 0.042-0.435-14.669-2.218-14.696-2.049-14.725-1.839-14.739-1.685z" fill="#fff" fill-rule="evenodd" mask="url(#bc)" stroke-width=".5"/>
<mask id="bb">
<rect x="-10%" y="-10%" width="120%" height="120%" fill="url(#dm)" stroke="none"/>
</mask>
<path d="m69.431 333.34-0.098 0.744c3.088 0.421 6.19 0.8 9.278 1.207 3.102 0.421 6.191 0.8 9.279 1.221 3.102 0.393 6.19 0.786 9.278 1.193 3.102 0.407 6.191 0.8 9.279 1.208 3.102 0.407 6.19 0.828 9.278 1.207 3.103 0.407 6.191 0.786 9.279 1.193 3.102 0.393 6.19 0.786 9.278 1.207 3.103 0.379 6.191 0.786 9.279 1.165 3.102 0.407 6.19 0.8 9.278 1.207 3.103 0.407 6.191 0.786 9.279 1.194 3.102 0.393 6.19 0.786 9.278 1.179 3.103 0.393 6.191 0.786 9.293 1.193 3.088 0.379 6.176 0.786 9.279 1.151 3.088 0.393 6.19 0.8 9.292 1.179 3.088 0.407 6.176 0.786 9.279 1.193 3.088 0.393 6.176 0.786 9.278 1.165 3.088 0.379 6.176 0.786 9.279 1.179 3.088 0.365 6.176 0.772 9.278 1.151 3.088 0.379 6.176 0.786 9.279 1.165 3.088 0.379 6.204 0.786 9.306 1.165 0 0 0.042-0.014 0.084-0.014 0.267 0.043 0.576-0.154 0.815-0.252 0.926-0.449 1.853-0.871 2.807-1.306 2.106-0.912 4.253-1.754 6.429-2.54 5.868-2.092 12.016-3.566 18.501-4.282 2.035-0.238 4.099-0.365 6.19-0.463 3.453-0.126 6.977 0 10.304 0.337 7.018 0.66 13.672 2.12 20.016 4.239 3.79 1.278 7.496 2.737 11.132 4.366 0.196 0.112 0.393 0.21 0.66 0.252 0.07 0.028 0.182 0.071 0.266 0.042 9.812-1.08 19.624-2.217 29.45-3.34 5.138-0.576 9.587-1.109 14.725-1.685 34.405-3.916 68.768-7.931 103.12-11.917l-0.085-0.786c-24.579 2.597-49.172 5.207-73.737 7.846l-73.428 7.931-3.284-1.46c-8.156-3.439-16.69-6.035-25.941-7.215-4.576-0.603-9.503-0.842-14.346-0.603-2.821 0.126-5.572 0.421-8.268 0.8-2.975 0.421-5.881 1.039-8.703 1.797-4.435 1.151-8.731 2.639-12.886 4.421l-3.86 1.783-83.324-10.191c-34.026-4.127-68.094-8.183-102.16-12.226z" fill="#bf0000" fill-rule="evenodd" mask="url(#bb)" stroke-width=".5"/>
<mask id="ba">
<rect x="-10%" y="-10%" width="120%" height="120%" fill="url(#fg)" stroke="none"/>
</mask>
<path d="m255.6 372.82-3.86-0.098 0.519 3.397 0.842 3.411 0.843 3.369 0.533 3.411 0.772 0.028-0.07-3.383 0.253-3.383 0.238-3.383-0.07-3.369z" fill="#fff" fill-rule="evenodd" mask="url(#ba)" stroke-width=".5"/>
<mask id="ay">
<rect x="-10%" y="-10%" width="120%" height="120%" fill="url(#ff)" stroke="none"/>
</mask>
<path d="m86.149 398.19c-0.631-4.829-1.333-9.643-3.79-14.107l34.686 15.455c-11.665-1.348-22.684-2.26-30.896-1.348z" fill="#402100" mask="url(#ay)" stroke-width=".5"/>
<mask id="ax">
<rect x="-10%" y="-10%" width="120%" height="120%" fill="url(#fe)" stroke="none"/>
</mask>
<path d="m131.77 602.16-45.228-204.69c-4.632-15.651-9.124-27.077-19.441-32.917l64.669 237.61z" fill="#7f4100" mask="url(#ax)" stroke-width=".5"/>
<path d="m540.08 334.68-0.225 14.866-205.12 23.414 0.042-3.44c-0.393-1.698-1.418-3.326-2.962-4.842-3.228-5.784-23.063-10.683-41.985-8.465l-0.224-7.566c16.03-0.224 40.286 4.969 47.586 10.781l202.89-24.748z" fill="#000" stroke-width=".312"/>
<path d="m335.41 368.93-18.838 228.3 157.94-23.301 66.578-226.39-205.68 21.393z" fill="#bf0000" stroke-width=".5"/>
<mask id="aw">
<rect x="-10%" y="-10%" width="120%" height="120%" fill="url(#fd)" stroke="none"/>
</mask>
<path d="m335.41 368.93-18.838 228.3 157.94-23.301 66.578-226.39-205.68 21.393z" fill="#400000" mask="url(#aw)" stroke-width=".5"/>
<mask id="av">
<rect x="-10%" y="-10%" width="120%" height="120%" fill="url(#fc)" stroke="none"/>
</mask>
<path d="m334.4 372.12-29.127 248.11 164.36-25.295 69.904-248.11-205.14 25.295z" fill="#fff7c8" mask="url(#av)" stroke-width=".5"/>
<path d="m546.79 339.62-1.389 7.005-12.9 39.767-52.794-32.355c25.421-7.468 51.067-15.118 67.083-14.417z" fill="#e46700" stroke-width=".5"/>
<mask id="au">
<rect x="-10%" y="-10%" width="120%" height="120%" fill="url(#fb)" stroke="none"/>
</mask>
<path d="m546.79 339.62-1.389 7.005-12.9 39.767-52.794-32.355c25.421-7.468 51.067-15.118 67.083-14.417z" fill="#bf0000" mask="url(#au)" stroke-width=".5"/>
<mask id="at">
<rect x="-10%" y="-10%" width="120%" height="120%" fill="url(#fa)" stroke="none"/>
</mask>
<path d="m333.1 388.19c-0.197 0.014 124.99-15.946 187.56-23.919l-6.864 4.941c-59.18 8.113-183.1 25.294-183.3 25.098-0.169-0.197 3.551-4.478 2.597-6.12z" fill="#402100" mask="url(#at)" stroke-width=".5"/>
<mask id="as">
<rect x="-10%" y="-10%" width="120%" height="120%" fill="url(#ey)" stroke="none"/>
</mask>
<path d="m504.02 392.35c3.51-8.184 10.149-18.403 17.785-29.268 0.379-0.603 1.432-3.902-6.4-1.796-6.415 1.712-123.12 16.956-181.43 24.649l-3.214 8.015 171.27-1.446 1.993-0.154z" fill="#402100" mask="url(#as)" stroke-width=".5"/>
<mask id="ar">
<rect x="-10%" y="-10%" width="120%" height="120%" fill="url(#ex)" stroke="none"/>
</mask>
<path d="m333.44 388.23 1.291-5.769c63.279-7.131 189.89-21.337 190.27-19.568 0.351 1.783-55.573 201.66-57.566 201.66-1.979 0-19.933-20.438-28.931-30.643l-105.07-145.68z" fill="#000" mask="url(#ar)" stroke-width=".5"/>
<path d="m293.94 398.27 0.857 219.58c31.681 33.24 46.869 32.678 95.48 5.306 22.965-12.718 43.627-22.432 66.381-20.761l64.571-238.24-67.434 24.593-159.35 8.268-0.506 1.249z" fill="#fff" stroke-width=".5"/>
<mask id="aq">
<rect x="-10%" y="-10%" width="120%" height="120%" fill="url(#ew)" stroke="none"/>
</mask>
<path d="m294.38 425.78 0.422 192.07c31.681 33.24 46.869 32.678 95.48 5.306 22.965-12.718 43.627-22.432 66.381-20.761l46.814-172.99-50.028-12.184-158.56 7.313-0.506 1.249z" fill="#ffda00" mask="url(#aq)" stroke-width=".5"/>
<mask id="ap">
<rect x="-10%" y="-10%" width="120%" height="120%" fill="url(#ev)" stroke="none"/>
</mask>
<path d="m293.94 402.23 0.857 215.62c31.681 33.24 46.869 32.678 95.48 5.306 22.965-12.718 43.627-22.432 66.381-20.761l64.178-235.86-64.262 16.662-162.13 17.799-0.506 1.235z" fill="#ce7e2b" mask="url(#ap)" stroke-width=".5"/>
<path d="m481.6 554.66-26.418 23.708c7.272-1.305 20.003-1.123 20.34-4.351l6.078-19.357z" fill="#ff8200" stroke-width=".5"/>
<mask id="an">
<rect x="-10%" y="-10%" width="120%" height="120%" fill="url(#eu)" stroke="none"/>
</mask>
<path d="m481.6 554.66-26.418 23.708c7.272-1.305 20.003-1.123 20.34-4.351l6.078-19.357z" fill="#bf0000" mask="url(#an)" stroke-width=".5"/>
<path d="m465.49 569.19 16.128-14.556-0.505-2.499-0.772 1.923-13.827 12.058-1.024 3.074z" fill="#7f0000" stroke-width=".5"/>
<mask id="am">
<rect x="-10%" y="-10%" width="120%" height="120%" fill="url(#dl)" stroke="none"/>
</mask>
<path d="m294.63 399.91 0.169 217.94c31.681 33.24 46.869 32.678 95.48 5.306 22.965-12.718 43.627-22.432 66.381-20.761l64.571-237.06-67.827 22.614-158.27 10.71-0.505 1.25z" fill="#fff" mask="url(#am)" stroke-width=".5"/>
<mask id="al">
<rect x="-10%" y="-10%" width="120%" height="120%" fill="url(#et)" stroke="none"/>
</mask>
<path d="m293.94 400.64 0.857 217.21c31.681 33.24 46.869 32.678 95.48 5.306 22.965-12.718 43.627-22.432 66.381-20.761l64.571-236.65-63.855 23.793-162.93 9.868-0.506 1.236z" fill="#fff3ab" mask="url(#al)" stroke-width=".5"/>
<mask id="ak">
<rect x="-10%" y="-10%" width="120%" height="120%" fill="url(#es)" stroke="none"/>
</mask>
<path d="m294.74 403.42 0.057 214.43c31.681 33.24 46.869 32.678 95.48 5.306 22.965-12.718 43.627-22.432 66.381-20.761l46.814-172.99-50.028-12.184-158.2-15.034-0.506 1.235z" fill="#402100" mask="url(#ak)" stroke-width=".5"/>
<mask id="aj">
<rect x="-10%" y="-10%" width="120%" height="120%" fill="url(#er)" stroke="none"/>
</mask>
<path d="m293.94 398.66 0.857 219.19c31.681 33.24 46.869 32.678 95.48 5.306 22.965-12.718 43.627-22.432 66.381-20.761l46.814-172.99-50.028-12.184-159-19.807-0.506 1.249z" fill="#ce7e2b" mask="url(#aj)" stroke-width=".5"/>
<mask id="ai">
<rect x="-10%" y="-10%" width="120%" height="120%" fill="url(#eq)" stroke="none"/>
</mask>
<path d="m294.22 400.7 0.576 217.15c31.681 33.24 46.869 32.678 95.48 5.306 22.965-12.718 43.627-22.432 66.381-20.761l46.814-172.99-50.028-12.184-158.7-17.757-0.519 1.235z" fill="#7f4100" mask="url(#ai)" stroke-width=".5"/>
<path d="m503.22 398.07c-53.032 1.6-94.483 14.36-121.5 24.649-37.184 11.595-68.697 11.482-84.208-3.622-3.383-8.155-2.218-15.847 0.702-23.301 12.773-1.109 25.477-3.032 36.594-6.415l184.62-23.989c-10.149 11.959-13.518 17.392-16.199 32.678z" fill="#fff7c8" stroke-width=".5"/>
<mask id="ah">
<rect x="-10%" y="-10%" width="120%" height="120%" fill="url(#dk)" stroke="none"/>
</mask>
<path d="m503.22 398.07c-53.032 1.6-94.483 14.36-121.5 24.649-37.184 11.595-68.697 11.482-84.208-3.622-3.383-8.155-2.218-15.847 0.702-23.301 12.773-1.109 25.477-3.032 36.594-6.415l184.62-23.989c-10.149 11.959-13.518 17.392-16.199 32.678z" fill="#402100" mask="url(#ah)" stroke-width=".5"/>
<mask id="ag">
<rect x="-10%" y="-10%" width="120%" height="120%" fill="url(#ep)" stroke="none"/>
</mask>
<path d="m294.63 400.7 0.169 217.15c31.681 33.24 46.869 32.678 95.48 5.306 22.965-12.718 43.627-22.432 66.381-20.761l64.178-236.65-62.676 17.056-163.03 16.662-0.505 1.235z" fill="#fff" mask="url(#ag)" stroke-width=".5"/>
<mask id="af">
<rect x="-10%" y="-10%" width="120%" height="120%" fill="url(#dj)" stroke="none"/>
</mask>
<path d="m503.22 398.07c-53.032 1.6-94.483 14.36-121.5 24.649-37.184 11.595-68.697 11.482-84.208-3.622-3.383-8.155-5.25-15.595-2.33-23.034 12.759-1.123 28.509-3.299 39.626-6.682l184.62-23.989c-10.149 11.959-13.518 17.392-16.199 32.678z" fill="#7f4100" mask="url(#af)" stroke-width=".5"/>
<mask id="ae">
<rect x="-10%" y="-10%" width="120%" height="120%" fill="url(#en)" stroke="none"/>
</mask>
<path d="m299.01 419.13c1.488 1.712 3.453 3.214 5.965 4.548 0.899 0.477 1.839 0.926 2.794 1.347l2.807 1.235 0.618 0.197c0.463 0.126 0.912 0.267 1.376 0.393 1.389 0.379 2.821 0.758 4.253 1.067 4.028 0.898 8.296 1.488 12.83 1.754 5.151 0.309 10.836 0.141 16.591-0.477 5.798-0.617 11.244-1.586 16.536-2.737 2.737-0.59 5.419-1.235 8.086-1.909 0.758-0.197 1.502-0.393 2.26-0.59 0.224-0.056 0.477-0.126 0.729-0.196l0.085-0.014 12.83-4.31c4.295-1.445 8.576-2.891 12.928-4.295 6.836-2.218 13.798-4.337 21.069-6.092 0.267-0.056 0.52-0.112 0.772-0.183l0.043-0.014 0.814-0.21c1.516-0.435 3.032-0.842 4.562-1.235 4.604-1.165 9.25-2.274 14.009-3.285 8.366-1.755 17.013-3.187 25.997-4.309 4.449-0.548 9.025-0.997 13.644-1.334 3.874-0.267 7.678-0.491 11.44-0.632 3.523-0.14 6.962-0.182 10.387-0.196l-0.168 0.912c-3.608 0.113-7.243 0.253-10.963 0.492-6.148 0.393-12.409 0.954-18.375 1.67-5.965 0.716-11.805 1.614-17.49 2.611-5.095 0.884-10.093 1.937-14.992 3.032-4.267 0.968-8.45 2.021-12.549 3.13-1.038 0.281-2.077 0.562-3.102 0.856-0.702 0.197-1.39 0.407-2.105 0.59-2.387 0.589-4.731 1.221-7.061 1.867-5.769 1.614-11.398 3.425-16.957 5.278-7.089 2.358-14.121 4.786-21.224 7.103-0.688 0.224-1.348 0.463-2.035 0.659-0.787 0.239-1.615 0.435-2.415 0.632-1.432 0.351-2.877 0.716-4.337 1.067-3.313 0.772-6.654 1.474-10.107 2.119-3.439 0.632-6.962 1.151-10.584 1.53-1.937 0.225-3.972 0.408-5.938 0.52-6.934 0.393-13.405 0.182-19.329-0.702-3.214-0.491-6.288-1.109-9.25-1.909-1.151-0.309-2.302-0.66-3.439-1.025-0.407-0.126-0.842-0.252-1.221-0.407-0.351-0.126-0.674-0.295-0.983-0.435-2.836-1.305-5.531-2.709-7.608-4.309-2.878-2.204-4.689-4.787-5.503-7.707-0.238-0.828-0.421-1.698-0.533-2.569-0.042-0.407-0.056-0.842-0.098-1.263l1.572-0.168c0.337 2.933 1.347 5.586 3.369 7.903z" fill="#fff" fill-rule="evenodd" mask="url(#ae)" stroke-width=".5"/>
<mask id="ac">
<rect x="-10%" y="-10%" width="120%" height="120%" fill="url(#di)" stroke="none"/>
</mask>
<path d="m296.87 407.93c15.988 6.878 32.44 12.956 55.011 8.52 14.725-3.397 44.175-10.19 55.138-12.591 10.963-2.414 41.002-9.306 52.639-10.738 12.381-1.502 35.402-2.794 44.905-2.148l0.561-2.133c-11.973 0.421-40.3 2.203-49.312 3.607s-56.541 11.174-68.501 14.22c-11.974 3.032-40.02 7.762-50.66 8.324-12.044 0.631-32.355-3.327-39.781-7.061z" fill="#402100" mask="url(#ac)" stroke-width=".5"/>
<mask id="ab">
<rect x="-10%" y="-10%" width="120%" height="120%" fill="url(#dg)" stroke="none"/>
</mask>
<path d="m296.87 407.93c15.988 6.878 32.44 12.956 55.011 8.52 14.725-3.397 44.175-10.19 55.138-12.591 10.963-2.414 41.002-9.306 52.639-10.738 12.381-1.502 35.402-2.794 44.905-2.148l0.561-2.133c-11.973 0.421-40.3 2.203-49.312 3.607s-56.541 11.174-68.501 14.22c-11.974 3.032-40.02 7.762-50.66 8.324-12.044 0.631-32.355-3.327-39.781-7.061z" fill="#402100" mask="url(#ab)" stroke-width=".5"/>
<mask id="aa">
<rect x="-10%" y="-10%" width="120%" height="120%" fill="url(#df)" stroke="none"/>
</mask>
<path d="m471.41 390.52c3.72-0.281 7.44-0.491 11.118-0.716 7.467-0.435 14.851-0.842 22.361-1.347v0.224c-3.243 0.239-6.457 0.463-9.7 0.674-7.917 0.519-15.82 0.982-23.779 1.586-2.161 0.169-4.309 0.323-6.373 0.562-1.08 0.112-2.133 0.224-3.186 0.365-0.239 0.028-0.449 0.042-0.688 0.084-0.112 0.014-0.21 0.028-0.323 0.042-0.014 0-0.042 0-0.056 0.014h-0.07c-0.969 0.126-1.951 0.309-2.92 0.477-2.835 0.477-5.615 1.025-8.422 1.544-3.383 0.604-6.682 1.292-10.036 1.937-4.422 0.871-8.816 1.755-13.195 2.653-3.917 0.8-7.777 1.601-11.637 2.429-2.316 0.519-4.562 1.067-6.892 1.586-2.457 0.533-4.955 1.137-7.454 1.698-6.668 1.488-13.349 2.948-20.101 4.31-5.573 1.151-11.188 2.246-16.873 3.242-4.085 0.73-8.211 1.418-12.437 1.994-3.13 0.421-6.372 0.8-9.643 0.982-5.067 0.295-9.798 0.239-14.346-0.042-4.267-0.267-8.366-0.758-12.296-1.474-3.678-0.674-7.272-1.53-10.57-2.695-1.194-0.393-2.415-0.856-3.482-1.418-0.533-0.28-1.01-0.561-1.516-0.842l0.295-0.168c0.379 0.21 0.716 0.407 1.095 0.603 1.109 0.59 2.372 1.067 3.608 1.502 1.516 0.548 3.116 0.997 4.73 1.39 5.489 1.376 11.426 2.274 17.729 2.653 3.383 0.211 6.878 0.309 10.5 0.196 1.052-0.028 2.091-0.07 3.158-0.14l3.215-0.196 2.582-0.253c5.966-0.66 11.679-1.614 17.336-2.639 10.654-1.923 21.07-4.141 31.359-6.373 3.916-0.87 7.819-1.74 11.679-2.625 2.681-0.617 5.362-1.249 8.085-1.839 4.562-0.996 9.124-1.909 13.757-2.849 7.762-1.572 15.525-3.074 23.343-4.52 1.474-0.281 2.948-0.534 4.45-0.8 1.965-0.351 3.93-0.674 5.994-0.941 3.088-0.407 6.345-0.631 9.601-0.87z" fill="#fff" fill-rule="evenodd" mask="url(#aa)" stroke-width=".5"/>
<mask id="z">
<rect x="-10%" y="-10%" width="120%" height="120%" fill="url(#em)" stroke="none"/>
</mask>
<path d="m307.18 412.42c14.936 4.815 30.433 9.082 59.096 0.66-19.834 4.337-39.556 4.604-59.096-0.66z" fill="#000" mask="url(#z)" stroke-width=".5"/>
<mask id="y">
<rect x="-10%" y="-10%" width="120%" height="120%" fill="url(#de)" stroke="none"/>
</mask>
<path d="m294.38 425.78 0.422 192.07c31.681 33.24 46.869 32.678 95.48 5.306 22.965-12.718 43.627-22.432 66.381-20.761l46.814-172.99-50.028-12.184-158.56 7.313-0.506 1.249z" fill="#edbc00" mask="url(#y)" stroke-width=".5"/>
<mask id="x">
<rect x="-10%" y="-10%" width="120%" height="120%" fill="url(#el)" stroke="none"/>
</mask>
<path d="m503.22 398.07c-53.032 1.6-94.483 14.36-121.5 24.649-37.184 11.595-68.697 11.482-84.208-3.622-3.383-8.155-3.594-16.002-3.074-22.852 12.773-1.109 29.253-3.481 40.37-6.864l184.62-23.989c-10.149 11.959-13.518 17.392-16.199 32.678z" fill="#fff" mask="url(#x)" stroke-width=".5"/>
<mask id="w">
<rect x="-10%" y="-10%" width="120%" height="120%" fill="url(#dd)" stroke="none"/>
</mask>
<path d="m503.22 398.07c-53.032 1.6-94.483 14.36-121.5 24.649-37.184 11.595-68.697 11.482-84.208-3.622-3.383-8.155-2.218-15.847 0.702-23.301 12.773-1.109 25.477-3.032 36.594-6.415l184.62-23.989c-10.149 11.959-13.518 17.392-16.199 32.678z" fill="#7f4100" mask="url(#w)" stroke-width=".5"/>
<mask id="v">
<rect x="-10%" y="-10%" width="120%" height="120%" fill="url(#ek)" stroke="none"/>
</mask>
<path d="m296.14 402.72c12.788 1.867 25.183 5.334 40.23 4.394 13.63-0.828 71.253-11.272 89.276-15.006 17.968-3.706 60.388-9.615 82.44-10.57l1.39-1.67c-13.728 1.544-41.199 4.604-57.061 6.836-15.89 2.232-94.062 17.167-106.54 17.911-20.537 1.235-41.452-1.123-48.709-2.765l-1.025 0.87z" fill="#402100" mask="url(#v)" stroke-width=".5"/>
<mask id="u">
<rect x="-10%" y="-10%" width="120%" height="120%" fill="url(#dc)" stroke="none"/>
</mask>
<path d="m296.14 402.72c12.788 1.867 25.183 5.334 40.23 4.394 13.63-0.828 71.253-11.272 89.276-15.006 17.968-3.706 60.388-9.615 82.44-10.57l1.39-1.67c-13.728 1.544-41.199 4.604-57.061 6.836-15.89 2.232-94.062 17.167-106.54 17.911-20.537 1.235-41.452-1.123-48.709-2.765l-1.025 0.87z" fill="#402100" mask="url(#u)" stroke-width=".5"/>
<mask id="t">
<rect x="-10%" y="-10%" width="120%" height="120%" fill="url(#db)" stroke="none"/>
</mask>
<path d="m296.14 402.72c12.788 1.867 25.183 5.334 40.23 4.394 13.63-0.828 71.253-11.272 89.276-15.006 17.968-3.706 60.388-9.615 82.44-10.57l1.39-1.67c-13.728 1.544-41.199 4.604-57.061 6.836-15.89 2.232-94.062 17.167-106.54 17.911-20.537 1.235-41.452-1.123-48.709-2.765l-1.025 0.87z" fill="#402100" mask="url(#t)" stroke-width=".5"/>
<mask id="r">
<rect x="-10%" y="-10%" width="120%" height="120%" fill="url(#ej)" stroke="none"/>
</mask>
<path d="m508.47 379.63 0.014 0.239c-9.475 1.151-18.88 2.4-28.355 3.579-3.467 0.421-6.892 0.871-10.331 1.264-4.548 0.519-9.208 1.024-13.658 1.656-6.541 0.884-13.069 1.937-19.526 2.99-4.084 0.674-8.183 1.361-12.24 2.021-2.19 0.379-4.394 0.73-6.583 1.109-2.345 0.407-4.661 0.786-7.005 1.165-0.618 0.098-1.249 0.183-1.853 0.295-1.572 0.281-3.018 0.547-4.576 0.856-4.52 0.899-9.054 1.867-13.574 2.794-9.363 1.881-18.838 3.719-28.607 5.235-3.454 0.534-6.949 1.039-10.5 1.432-2.92 0.337-6.008 0.646-8.998 0.814-3.565 0.183-6.934 0.141-10.289 0.071-2.569-0.043-5.068-0.127-7.594-0.239-5.292-0.253-10.542-0.604-15.609-1.109-3.103-0.309-6.149-0.674-9.096-1.207-1.025-0.183-2.008-0.407-3.004-0.632l0.196-0.21c0.463 0.112 0.941 0.21 1.432 0.308 1.404 0.295 2.835 0.492 4.295 0.716 1.643 0.239 3.341 0.435 5.054 0.59 4.491 0.449 9.096 0.758 13.756 0.997 3.565 0.182 7.159 0.294 10.823 0.35 1.502 0.014 3.018 0.029 4.576 0.029 0.379-0.015 0.772-0.015 1.179 0 0.182-0.015 0.379-0.015 0.561-0.015 0.042-0.014 0.084-0.014 0.127 0 0.042 0 0.126-0.014 0.084 0 0.982-0.028 1.979-0.056 2.962-0.112 2.779-0.14 5.614-0.421 8.324-0.716 3.018-0.351 5.965-0.744 8.885-1.179 10.331-1.544 20.396-3.509 30.292-5.516 3.987-0.801 8.001-1.629 11.974-2.457 1.558-0.309 3.116-0.632 4.66-0.912 0.884-0.197 1.853-0.393 2.793-0.52 2.555-0.421 5.082-0.814 7.651-1.235 4.056-0.688 8.085-1.347 12.142-2.021 6.99-1.165 14.051-2.288 21.154-3.341 3.593-0.519 7.229-1.053 10.907-1.46 5.46-0.618 10.934-1.207 16.311-1.867 10.401-1.263 20.831-2.527 31.246-3.762z" fill="#fff" fill-rule="evenodd" mask="url(#r)" stroke-width=".5"/>
<mask id="q">
<rect x="-10%" y="-10%" width="120%" height="120%" fill="url(#ei)" stroke="none"/>
</mask>
<path d="m512.37 373.51-0.043 0.239c-0.73-0.014-1.488 0-2.217 0.028-1.811 0.07-3.636 0.168-5.545 0.323-3.931 0.336-7.819 0.912-11.412 1.502-1.572 0.266-3.215 0.477-4.857 0.715-2.892 0.436-5.769 0.829-8.689 1.264-2.906 0.435-5.797 0.828-8.661 1.235-3.257 0.463-6.471 0.941-9.728 1.39-2.442 0.323-4.871 0.688-7.313 1.024-5.559 0.786-11.117 1.587-16.676 2.359-18.697 2.625-37.395 5.221-56.106 7.79-13.616 1.895-27.317 3.762-40.848 5.657-5.798 0.8-12.1 1.278-17.996 1.53-8.324 0.337-16.283 0.197-24.705 0.646l0.014-0.211c6.583-0.421 12.9-0.463 19.287-0.617 2.288-0.056 4.604-0.127 6.92-0.267 2.513-0.154 5.124-0.323 7.678-0.547 3.51-0.309 6.893-0.744 10.219-1.208 3.468-0.533 7.033-0.996 10.514-1.502 5.559-0.786 11.16-1.572 16.732-2.344 7.103-0.996 14.248-1.979 21.407-3.004 15.82-2.218 31.71-4.379 47.558-6.583 13.798-1.923 27.498-3.804 41.255-5.713 3.972-0.534 7.959-1.095 11.917-1.671 0.772-0.098 1.572-0.224 2.302-0.322 0.365-0.057 0.702-0.141 1.053-0.169 5.699-0.912 12.17-1.586 17.94-1.544z" fill="#402100" fill-rule="evenodd" mask="url(#q)" stroke-width=".5"/>
<mask id="p">
<rect x="-10%" y="-10%" width="120%" height="120%" fill="url(#eh)" stroke="none"/>
</mask>
<path d="m508.65 372.58c1.249-0.057 2.526-0.113 3.748-0.099l-0.028 0.113c-1.025-0.014-2.092 0.042-3.145 0.084-3.551 0.154-7.313 0.547-10.752 1.01-1.797 0.267-3.622 0.562-5.306 0.815-4.366 0.659-8.816 1.319-13.265 1.951-6.12 0.87-12.156 1.74-18.263 2.625-7.79 1.123-15.553 2.204-23.315 3.312-16.859 2.401-33.731 4.773-50.562 7.145-7.046 0.983-14.121 2.008-21.112 2.962-6.836 0.941-13.686 1.951-20.494 2.892-2.077 0.281-4.07 0.575-6.134 0.87-5.769 0.758-11.974 1.334-17.911 1.6-8.24 0.379-16.185 0.351-24.523 0.871l0.028-0.113c6.555-0.435 12.872-0.519 19.259-0.73 2.288-0.07 4.604-0.154 6.92-0.308 2.541-0.155 5.138-0.337 7.707-0.576 3.509-0.323 6.892-0.772 10.233-1.221 1.445-0.225 2.877-0.407 4.323-0.618 2.021-0.309 4.029-0.589 6.05-0.87 5.503-0.772 11.005-1.572 16.494-2.344 23.638-3.341 47.361-6.682 71.083-10.037 13.28-1.881 26.559-3.734 39.768-5.601 3.944-0.561 7.818-1.123 11.72-1.684 1.137-0.168 2.246-0.365 3.299-0.491 4.043-0.646 8.212-1.165 12.549-1.46 0.548-0.042 1.095-0.07 1.629-0.098z" fill="#402100" fill-rule="evenodd" mask="url(#p)" stroke-width=".5"/>
<mask id="o">
<rect x="-10%" y="-10%" width="120%" height="120%" fill="url(#eg)" stroke="none"/>
</mask>
<path d="m334.77 373.34 204.49-25.913c0.266-0.463 0.814-1.362 0.042-3.158-0.8-1.797-137.1 15.497-205.26 24.115l0.73 4.956z" fill="#bf0000" mask="url(#o)" stroke-width=".5"/>
<mask id="n">
<rect x="-10%" y="-10%" width="120%" height="120%" fill="url(#da)" stroke="none"/>
</mask>
<path d="m537.65 345.21 0.085 0.842-50.787 6.78-50.772 7.145-50.744 7.131-50.786 6.766-0.463-4.323 50.842-6.275 50.884-5.91 50.899-5.909 50.842-6.247z" fill="#fff" fill-rule="evenodd" mask="url(#n)" stroke-width=".5"/>
<path d="m479.83 341.14c-0.436 4.45-0.941 8.858 1.74 14.459l60.697-8.198 3.509-1.586c0.73-3.917 2.526-12.423-1.993-12.844-4.506-0.393-43.894 6.387-63.953 8.169z" fill="#e46700" stroke-width=".5"/>
<mask id="m">
<rect x="-10%" y="-10%" width="120%" height="120%" fill="url(#ef)" stroke="none"/>
</mask>
<path d="m479.83 341.14c-0.436 4.45-0.941 8.858 1.74 14.459l60.697-8.198 3.509-1.586c0.73-3.917 2.526-12.423-1.993-12.844-4.506-0.393-43.894 6.387-63.953 8.169z" fill="#400000" mask="url(#m)" stroke-width=".5"/>
<mask id="l">
<rect x="-10%" y="-10%" width="120%" height="120%" fill="url(#a)" stroke="none"/>
</mask>
<path d="m479.83 341.14c-0.436 4.45-0.941 8.858 1.74 14.459l60.697-8.198 3.509-1.586c0.73-3.917 2.526-12.423-1.993-12.844-4.506-0.393-43.894 6.387-63.953 8.169z" fill="#ffba00" mask="url(#l)" stroke-width=".5"/>
<mask id="k">
<rect x="-10%" y="-10%" width="120%" height="120%" fill="url(#a)" stroke="none"/>
</mask>
<path d="m479.83 341.14c-0.436 4.45-0.941 8.858 1.74 14.459l60.697-8.198 3.509-1.586c0.73-3.917 2.526-12.423-1.993-12.844-4.506-0.393-43.894 6.387-63.953 8.169z" fill="#e46700" mask="url(#k)" stroke-width=".5"/>
<mask id="j">
<rect x="-10%" y="-10%" width="120%" height="120%" fill="url(#ed)" stroke="none"/>
</mask>
<path d="m479.83 341.14c-0.436 4.45-0.941 8.858 1.74 14.459l60.697-8.198 3.509-1.586c0.73-3.917 2.526-12.423-1.993-12.844-4.506-0.393-43.894 6.387-63.953 8.169z" fill="#fff" mask="url(#j)" stroke-width=".5"/>
<mask id="i">
<rect x="-10%" y="-10%" width="120%" height="120%" fill="url(#ec)" stroke="none"/>
</mask>
<path d="m542.9 347.16 0.042 0.421-14.683 2.218-14.71 2.078-14.711 1.839-14.739 1.67-0.042-0.435 14.682-2.218 14.683-2.049 14.725-1.839 14.753-1.685z" fill="#fff" fill-rule="evenodd" mask="url(#i)" stroke-width=".5"/>
<mask id="g">
<rect x="-10%" y="-10%" width="120%" height="120%" fill="url(#eb)" stroke="none"/>
</mask>
<path d="m333.54 372.37 3.86-0.084-0.519 3.495-0.857 3.523-0.842 3.496-0.533 3.509-0.758 0.028 0.07-3.495-0.253-3.482-0.238-3.495 0.07-3.495z" fill="#fff" fill-rule="evenodd" mask="url(#g)" stroke-width=".5"/>
<mask id="f">
<rect x="-10%" y="-10%" width="120%" height="120%" fill="url(#ea)" stroke="none"/>
</mask>
<path d="m502.98 398.19c0.631-4.829 1.333-9.643 3.79-14.107l-34.686 15.455c11.679-1.348 22.684-2.26 30.896-1.348z" fill="#402100" mask="url(#f)" stroke-width=".5"/>
<mask id="e">
<rect x="-10%" y="-10%" width="120%" height="120%" fill="url(#dz)" stroke="none"/>
</mask>
<path d="m457.37 602.16 45.214-204.69c4.632-15.651 9.138-27.077 19.441-32.917l-64.655 237.61z" fill="#7f4100" mask="url(#e)" stroke-width=".5"/>
<mask id="d">
<rect x="-10%" y="-10%" width="120%" height="120%" fill="url(#dy)" stroke="none"/>
</mask>
<path d="m293.65 396.05 0.042 4.884 0.252 4.899 0.239 4.885 0.042 4.885 0.491 0.014 0.239-4.885 0.449-4.87 0.449-4.885 0.239-4.885-2.442-0.042z" fill="#000" fill-rule="evenodd" mask="url(#d)" stroke-width=".5"/>
<mask id="c">
<rect x="-10%" y="-10%" width="120%" height="120%" fill="url(#dx)" stroke="none"/>
</mask>
<path d="m293.65 416.1 0.042 50.505 0.252 50.52 0.239 50.505 0.042 50.505h0.491l0.239-50.505 0.449-50.505 0.449-50.506 0.239-50.505-2.442-0.014z" fill="#000" fill-rule="evenodd" mask="url(#c)" stroke-width=".5"/>
</g>
</g>
</g>
</svg>
