<?xml version="1.0" encoding="UTF-8" standalone="no"?>
<!-- Created with Inkscape (http://www.inkscape.org/) -->

<svg
   width="131.80875mm"
   height="140.24164mm"
   viewBox="0 0 131.80875 140.24164"
   version="1.1"
   id="svg8"
   sodipodi:docname="kata.svg"
   inkscape:version="1.2.2 (b0a8486541, 2022-12-01)"
   xmlns:inkscape="http://www.inkscape.org/namespaces/inkscape"
   xmlns:sodipodi="http://sodipodi.sourceforge.net/DTD/sodipodi-0.dtd"
   xmlns="http://www.w3.org/2000/svg"
   xmlns:svg="http://www.w3.org/2000/svg"
   xmlns:rdf="http://www.w3.org/1999/02/22-rdf-syntax-ns#"
   xmlns:cc="http://creativecommons.org/ns#"
   xmlns:dc="http://purl.org/dc/elements/1.1/">
  <defs
     id="defs2" />
  <sodipodi:namedview
     id="base"
     pagecolor="#ffffff"
     bordercolor="#666666"
     borderopacity="1.0"
     inkscape:pageopacity="0.0"
     inkscape:pageshadow="2"
     inkscape:zoom="1.4"
     inkscape:cx="263.57143"
     inkscape:cy="321.42857"
     inkscape:document-units="mm"
     inkscape:current-layer="text4542"
     showgrid="false"
     inkscape:window-width="1854"
     inkscape:window-height="1011"
     inkscape:window-x="0"
     inkscape:window-y="0"
     inkscape:window-maximized="1"
     inkscape:snap-text-baseline="true"
     inkscape:showpageshadow="2"
     inkscape:pagecheckerboard="0"
     inkscape:deskcolor="#d1d1d1" />
  <metadata
     id="metadata5">
    <rdf:RDF>
      <cc:Work
         rdf:about="">
        <dc:format>image/svg+xml</dc:format>
        <dc:type
           rdf:resource="http://purl.org/dc/dcmitype/StillImage" />
        <dc:title />
      </cc:Work>
    </rdf:RDF>
  </metadata>
  <g
     inkscape:label="Layer 1"
     inkscape:groupmode="layer"
     id="layer1"
     transform="translate(-41.445089,-73.781815)">
    <g
       aria-label="Roman"
       transform="scale(0.93283789,1.0719976)"
       id="text4542"
       style="font-size:20.8563px;line-height:1.25;letter-spacing:0px;word-spacing:0px;stroke-width:0.521407">
      <path
         d="m 47.705037,121.71869 v -5.69377 h 2.565325 c 2.398475,0 3.712422,0.70912 3.712422,2.71132 0,2.00221 -1.313947,2.98245 -3.712422,2.98245 z m 6.465454,8.02968 h 2.169055 l -3.879272,-6.69488 c 2.064774,-0.50055 3.441289,-1.91877 3.441289,-4.31725 0,-3.17016 -2.231624,-4.27554 -5.339212,-4.27554 h -4.776093 v 15.28767 h 1.918779 v -6.48631 h 2.753032 z"
         style="fill:#ff0000"
         id="path11066" />
      <path
         d="m 63.013574,130.0195 c 2.773888,0 5.234931,-2.16906 5.234931,-5.92319 0,-3.77499 -2.461043,-5.9649 -5.234931,-5.9649 -2.773888,0 -5.234932,2.18991 -5.234932,5.9649 0,3.75413 2.461044,5.92319 5.234932,5.92319 z m 0,-1.58508 c -1.960493,0 -3.274439,-1.73107 -3.274439,-4.33811 0,-2.60704 1.313946,-4.35897 3.274439,-4.35897 1.960492,0 3.295295,1.75193 3.295295,4.35897 0,2.60704 -1.334803,4.33811 -3.295295,4.33811 z"
         style="fill:#ff0000"
         id="path11068" />
      <path
         d="m 71.251831,129.74837 h 1.91878 v -8.21739 c 1.021959,-1.16795 1.981348,-1.73107 2.836457,-1.73107 1.439085,0 2.106486,0.89682 2.106486,3.02417 v 6.92429 h 1.897923 v -8.21739 c 1.063672,-1.16795 1.981349,-1.73107 2.857314,-1.73107 1.439084,0 2.106486,0.89682 2.106486,3.02417 v 6.92429 H 86.8732 v -7.17457 c 0,-2.87817 -1.105384,-4.44239 -3.420433,-4.44239 -1.397372,0 -2.565325,0.89682 -3.754134,2.16905 -0.458839,-1.3348 -1.376516,-2.16905 -3.128445,-2.16905 -1.35566,0 -2.523612,0.85511 -3.524715,1.93963 h -0.04171 l -0.187707,-1.64764 h -1.564223 z"
         style="fill:#ff0000"
         id="path11070" />
      <path
         d="m 93.171813,130.0195 c 1.397372,0 2.669607,-0.72997 3.754134,-1.62679 h 0.06257 l 0.166851,1.35566 h 1.564222 v -6.96601 c 0,-2.8156 -1.147096,-4.65095 -3.920984,-4.65095 -1.835355,0 -3.420434,0.81339 -4.442392,1.4808 l 0.72997,1.31394 c 0.896821,-0.60483 2.08563,-1.20966 3.399577,-1.20966 1.856211,0 2.335906,1.39737 2.335906,2.85731 -4.817806,0.54226 -6.945148,1.77279 -6.945148,4.23383 0,2.04392 1.397372,3.21187 3.295295,3.21187 z m 0.542264,-1.54337 c -1.12624,0 -2.002205,-0.50055 -2.002205,-1.79364 0,-1.45994 1.293091,-2.39847 5.109794,-2.83646 v 3.14931 c -1.105384,0.98024 -2.023061,1.48079 -3.107589,1.48079 z"
         style="fill:#ff0000"
         id="path11072" />
      <path
         d="m 102.30687,129.74837 h 1.91878 v -8.21739 c 1.12624,-1.14709 1.91878,-1.73107 3.08673,-1.73107 1.50165,0 2.1482,0.89682 2.1482,3.02417 v 6.92429 h 1.89792 v -7.17457 c 0,-2.87817 -1.08453,-4.44239 -3.46214,-4.44239 -1.54337,0 -2.73218,0.85511 -3.79585,1.93963 h -0.0417 l -0.18771,-1.64764 h -1.56422 z"
         style="fill:#ff0000"
         id="path11074" />
    </g>
    <g
       aria-label="katakana"
       transform="scale(0.88656876,1.1279441)"
       id="text4546"
       style="font-weight:bold;font-size:22.4248px;line-height:1.25;-inkscape-font-specification:'sans-serif, Bold';letter-spacing:0px;word-spacing:0px;fill:#008000;stroke-width:0.560625">
      <path
         d="m 81.467696,151.63954 h 3.251596 v -3.18432 l 1.749134,-2.04066 3.049773,5.22498 h 3.587968 l -4.709208,-7.37776 4.305562,-5.18013 h -3.610393 l -4.283137,5.38196 h -0.0897 v -10.71906 h -3.251596 z"
         id="path11077" />
      <path
         d="m 97.815398,151.95349 c 1.457612,0 2.713402,-0.69517 3.789792,-1.65944 h 0.11212 l 0.22425,1.34549 h 2.69098 v -7.33291 c 0,-3.63282 -1.63701,-5.53892 -4.821335,-5.53892 -1.973383,0 -3.767367,0.76244 -5.224979,1.65943 l 1.16609,2.19763 c 1.16609,-0.69517 2.28733,-1.21094 3.453419,-1.21094 1.547315,0 2.085505,0.94184 2.130355,2.17521 -5.045579,0.53819 -7.220785,1.95096 -7.220785,4.61951 0,2.15278 1.457612,3.74494 3.700093,3.74494 z m 1.098815,-2.57885 c -0.964267,0 -1.659435,-0.42607 -1.659435,-1.41277 0,-1.14366 1.009116,-1.97338 4.081312,-2.33218 v 2.51158 c -0.78487,0.78487 -1.480036,1.23337 -2.421877,1.23337 z"
         id="path11079" />
      <path
         d="m 112.16728,151.95349 c 1.09882,0 1.97338,-0.2691 2.66855,-0.47092 l -0.56062,-2.39946 c -0.33637,0.13455 -0.82972,0.2691 -1.23336,0.2691 -1.12124,0 -1.72671,-0.67274 -1.72671,-2.10793 v -5.56135 h 3.11705 v -2.60128 h -3.11705 v -3.38614 h -2.7134 l -0.38122,3.38614 -1.95096,0.15698 v 2.4443 h 1.77156 v 5.58378 c 0,2.78067 1.14366,4.68678 4.12616,4.68678 z"
         id="path11081" />
      <path
         d="m 119.56744,151.95349 c 1.45761,0 2.7134,-0.69517 3.78979,-1.65944 h 0.11212 l 0.22425,1.34549 h 2.69098 v -7.33291 c 0,-3.63282 -1.63701,-5.53892 -4.82133,-5.53892 -1.97339,0 -3.76737,0.76244 -5.22498,1.65943 l 1.16609,2.19763 c 1.16609,-0.69517 2.28733,-1.21094 3.45342,-1.21094 1.54731,0 2.0855,0.94184 2.13035,2.17521 -5.04558,0.53819 -7.22078,1.95096 -7.22078,4.61951 0,2.15278 1.45761,3.74494 3.70009,3.74494 z m 1.09881,-2.57885 c -0.96426,0 -1.65943,-0.42607 -1.65943,-1.41277 0,-1.14366 1.00912,-1.97338 4.08131,-2.33218 v 2.51158 c -0.78486,0.78487 -1.48003,1.23337 -2.42188,1.23337 z"
         id="path11083" />
      <path
         d="m 129.74829,151.63954 h 3.2516 v -3.18432 l 1.74913,-2.04066 3.04977,5.22498 h 3.58797 l -4.70921,-7.37776 4.30556,-5.18013 h -3.61039 l -4.28314,5.38196 h -0.0897 v -10.71906 h -3.2516 z"
         id="path11085" />
      <path
         d="m 146.09599,151.95349 c 1.45761,0 2.7134,-0.69517 3.78979,-1.65944 h 0.11213 l 0.22425,1.34549 h 2.69097 v -7.33291 c 0,-3.63282 -1.63701,-5.53892 -4.82133,-5.53892 -1.97338,0 -3.76737,0.76244 -5.22498,1.65943 l 1.16609,2.19763 c 1.16609,-0.69517 2.28733,-1.21094 3.45342,-1.21094 1.54731,0 2.08551,0.94184 2.13036,2.17521 -5.04558,0.53819 -7.22079,1.95096 -7.22079,4.61951 0,2.15278 1.45761,3.74494 3.70009,3.74494 z m 1.09882,-2.57885 c -0.96427,0 -1.65944,-0.42607 -1.65944,-1.41277 0,-1.14366 1.00912,-1.97338 4.08132,-2.33218 v 2.51158 c -0.78487,0.78487 -1.48004,1.23337 -2.42188,1.23337 z"
         id="path11087" />
      <path
         d="m 156.27684,151.63954 h 3.29644 v -8.63355 c 0.91942,-0.91941 1.59217,-1.41276 2.60128,-1.41276 1.23337,0 1.77156,0.67274 1.77156,2.6237 v 7.42261 h 3.29645 v -7.82625 c 0,-3.1619 -1.16609,-5.04558 -3.87949,-5.04558 -1.70429,0 -2.9825,0.89699 -4.08132,1.97338 h -0.0673 l -0.24668,-1.65944 h -2.69097 z"
         id="path11089" />
      <path
         d="m 173.72335,151.95349 c 1.45761,0 2.7134,-0.69517 3.78979,-1.65944 h 0.11213 l 0.22424,1.34549 h 2.69098 v -7.33291 c 0,-3.63282 -1.63701,-5.53892 -4.82133,-5.53892 -1.97339,0 -3.76737,0.76244 -5.22498,1.65943 l 1.16609,2.19763 c 1.16609,-0.69517 2.28733,-1.21094 3.45342,-1.21094 1.54731,0 2.0855,0.94184 2.13035,2.17521 -5.04558,0.53819 -7.22078,1.95096 -7.22078,4.61951 0,2.15278 1.45761,3.74494 3.70009,3.74494 z m 1.09882,-2.57885 c -0.96427,0 -1.65944,-0.42607 -1.65944,-1.41277 0,-1.14366 1.00912,-1.97338 4.08131,-2.33218 v 2.51158 c -0.78486,0.78487 -1.48003,1.23337 -2.42187,1.23337 z"
         id="path11091" />
    </g>
    <path
       style="fill:#ff9f00;fill-opacity:0.486275;stroke-width:0.264583"
       d="m 133.5726,117.30577 c 0,-0.0674 1.96396,-2.56983 4.36434,-5.56101 2.40039,-2.99118 4.37194,-5.50865 4.38121,-5.59438 0.0605,-0.55931 -6.47262,-4.04218 -11.07727,-5.90542 -4.50155,-1.821507 -10.13352,-3.216397 -15.43316,-3.822387 -3.2315,-0.36951 -11.38279,-0.31355 -14.45759,0.0993 -10.092207,1.35492 -18.617427,4.639117 -26.432987,10.182877 -2.81813,1.99897 -5.013729,3.87931 -8.258482,7.0727 -1.61781,1.59221 -3.00281,2.89491 -3.077778,2.89491 -0.238486,0 -10.238546,-6.8905 -11.913767,-8.20913 -0.34449,-0.27116 -0.345198,-0.29975 -0.01999,-0.80794 0.614781,-0.96071 7.904104,-8.088487 9.856109,-9.637667 8.583578,-6.81227 18.280358,-11.53961 29.181568,-14.22652 5.64489,-1.39134 8.69019,-1.82459 14.538407,-2.06836 4.5059,-0.18782 10.79009,0.0173 14.35676,0.46853 4.83563,0.61182 11.78206,2.34153 16.59443,4.13212 4.67823,1.74068 8.25701,3.47032 12.98779,6.27706 l 2.64392,1.56861 0.63866,-0.60735 c 0.35127,-0.33404 2.29435,-2.59092 4.31796,-5.01528 4.31074,-5.16444 5.28645,-6.22073 5.5192,-5.97502 0.20247,0.21374 1.18865,4.42545 3.20561,13.69024 2.74075,12.589517 3.82693,17.999587 3.64836,18.171957 -0.15393,0.14859 -7.13098,0.78322 -22.55646,2.05172 -11.58427,0.95262 -13.00684,1.04236 -13.00684,0.82048 z"
       id="path10141" />
    <path
       style="fill:#ff9f00;fill-opacity:0.486275;stroke-width:0.264583"
       d="m 102.86204,210.27996 c -2.09066,-0.1379 -6.185067,-0.67797 -8.504467,-1.12179 -9.03003,-1.72791 -17.35503,-4.85647 -25.798826,-9.69529 -1.29822,-0.74395 -2.566034,-1.40438 -2.817366,-1.46762 -0.565666,-0.14232 -0.366586,-0.36101 -6.051288,6.6474 -2.436162,3.00343 -4.45441,5.38103 -4.484996,5.28354 -0.168289,-0.53638 -5.783686,-26.27948 -6.19167,-28.38495 -0.53718,-2.77221 -0.621969,-4.20285 -0.249231,-4.2053 0.129929,-7.9e-4 0.959115,-0.0825 1.842634,-0.18135 5.121596,-0.57324 33.051673,-2.73616 33.215603,-2.57223 0.059,0.059 -1.89491,2.6383 -5.28822,6.9808 -1.20693,1.54454 -2.39174,3.1802 -2.6329,3.6348 -0.43746,0.82462 -0.43761,0.8274 -0.0625,1.19053 0.94474,0.91469 8.34734,4.57142 12.06676,5.96073 2.39211,0.89352 5.95463,1.86815 8.99664,2.4613 7.558417,1.47377 16.312437,1.37688 24.291707,-0.26886 8.57326,-1.76826 17.27896,-5.8697 24.06776,-11.33884 1.07588,-0.86674 3.44605,-3.01396 5.26703,-4.77159 1.89806,-1.83202 3.41635,-3.15522 3.55804,-3.10085 0.13593,0.0522 1.21007,0.74975 2.38698,1.55021 5.89803,4.01143 8.0321,5.5197 8.82292,6.23568 l 0.86617,0.78419 -0.55822,0.73451 c -1.05632,1.3899 -6.42787,6.63017 -8.82845,8.61267 -11.93395,9.85557 -26.30125,15.58087 -42.57479,16.96586 -2.07074,0.17623 -9.05438,0.21716 -11.33928,0.0664 z"
       id="path10488" />
    <path
       style="fill:#ff9f00;fill-opacity:0.486275;stroke:#ff9e00;stroke-width:1;stroke-opacity:0.866667"
       d="m 222.5,514.62846 c -26.94845,-3.15133 -52.64662,-9.56817 -77.14286,-19.26259 -9.41648,-3.72658 -30.88962,-14.09901 -44.28571,-21.39186 -4.714287,-2.56645 -9.294014,-4.67124 -10.177171,-4.67729 -1.640095,-0.0112 -1.869844,0.25167 -28.706451,32.85067 -8.03466,9.75987 -9.688684,11.43607 -10.155254,10.29141 -0.30654,-0.75206 -3.444488,-14.54594 -6.973215,-30.65309 -18.22778,-83.20208 -19.361534,-89.19543 -17.023625,-89.99184 3.080502,-1.04938 125.499446,-10.72382 129.521526,-10.23574 1.76947,0.21473 1.0867,1.2528 -12.08931,18.38005 -7.68059,9.98385 -14.70472,19.5723 -15.60918,21.30766 l -1.64446,3.1552 2.36498,1.995 c 2.87131,2.42212 21.47272,12.01066 33.70644,17.3748 20.24212,8.87557 43.96963,14.88256 67.07347,16.98068 12.07348,1.09642 41.54853,0.48934 52.92653,-1.09008 25.67831,-3.56454 45.7596,-9.7101 68.92858,-21.09451 20.11142,-9.88203 34.50606,-19.79324 50.94415,-35.07681 12.15012,-11.29677 21.05947,-19.20441 21.63716,-19.20441 0.75136,0 35.27786,23.88015 40.27101,27.85332 2.55623,2.03404 4.64768,4.05362 4.64768,4.48794 0,1.31301 -28.39402,29.08702 -36.42858,35.63313 -43.22985,35.22129 -93.60663,55.77564 -152.85714,62.36761 -12.01098,1.33629 -47.50393,1.33675 -58.92857,7.1e-4 z"
       id="path11033"
       transform="matrix(0.26458333,0,0,0.26458333,41.445089,73.781815)" />
    <path
       style="fill:#ff9f00;fill-opacity:0.486275;stroke:#ff9e00;stroke-width:1;stroke-opacity:0.866667"
       d="m 349.28571,163.98475 c 0,-0.28528 7.15179,-9.51495 15.89286,-20.51039 8.74107,-10.99543 15.98512,-20.39327 16.09787,-20.8841 0.30543,-1.32947 -1.5084,-2.67452 -10.58935,-7.85251 -25.92542,-14.782786 -52.2552,-23.854312 -83.54423,-28.783896 -11.73371,-1.848645 -51.50132,-1.82865 -63.57143,0.03196 -36.10724,5.565944 -63.60844,15.920626 -91.6842,34.520686 -12.4176,8.2266 -20.65552,14.98668 -35.403908,29.05266 -6.844888,6.52818 -12.65606,11.86941 -12.913717,11.86941 -1.127864,0 -43.550618,-29.32723 -45.06868,-31.15638 -0.711497,-0.8573 1.347321,-3.26515 11.926709,-13.94863 21.365067,-21.575284 30.881401,-29.487959 50.820916,-42.256762 12.00604,-7.68839 36.14282,-19.727017 50.36532,-25.120557 16.63696,-6.309166 40.74189,-12.848951 57.67184,-15.646653 13.82135,-2.284 23.45196,-2.881791 46.42858,-2.881912 30.62147,-1.61e-4 43.9286,1.394755 67.64714,7.091087 32.17064,7.72622 55.81128,17.455689 86.16931,35.463573 3.8669,2.293785 7.25399,4.170518 7.52685,4.170518 0.90495,0 6.87026,-6.604185 20.9686,-23.214286 14.63331,-17.240373 18.01842,-20.859091 18.59664,-19.879998 1.76691,2.991913 25.52003,112.8296 25.52003,118.00812 0,1.57776 -0.20455,1.6155 -17.85715,3.29493 -20.14002,1.91609 -96.62147,8.17719 -105.89285,8.66886 -5.00893,0.26562 -9.10715,0.24954 -9.10715,-0.0357 z"
       id="path11035"
       transform="matrix(0.26458333,0,0,0.26458333,41.445089,73.781815)" />
  </g>
</svg>
