<svg width="185" height="185" viewBox="0 0 185 185" xmlns="http://www.w3.org/2000/svg">
<path d="M68.561 121.597c-2.978-4.623-6.253-8.865-6.818-16.284-.563-7.4-2.18-12.553-6.223-19.84-5.833-10.512-15.013-20.655-26.112-28.85-3.52-2.6-9.02-7.255-12.223-10.346-3.202-3.091-6.01-5.62-6.24-5.62-1.484 0 2.94 9.14 7.553 15.604 3.584 5.023 10.733 11.853 14.866 14.205 3.754 2.135 4.684 3.208 4.684 5.402 0 1.9-2.365 4.469-4.112 4.469-2.328 0-18.575-9.74-20.88-12.518-1.023-1.232-1.889-1.167-1.889.142 0 3.658 8.741 12.649 17.503 18.003 5.243 3.203 8.098 5.845 8.098 7.493 0 .433-.597 1.546-1.327 2.474-2.03 2.581-4.498 2.22-10.514-1.54-2.816-1.76-5.769-3.53-6.562-3.931-2.703-1.37-2.327.14.84 3.375 4.994 5.1 14.499 10.881 19.552 11.892 3.83.766 5.083 5.484 2.083 7.844-2.09 1.644-2.449 1.643-6.708-.016-11.616-4.524-21.336-11.74-26.762-19.866-2.19-3.279-2.603-4.414-2.603-7.144 0-2.474.338-3.606 1.424-4.761 1.371-1.46 1.383-1.58.331-3.242-3.096-4.888-4.303-8.204-4.309-11.837-.007-4.263 1.098-6.82 3.77-8.722l1.875-1.336-2.77-5.595c-1.523-3.077-3.109-7.28-3.524-9.34C-.84 29.786 8.388 20.882 14.398 29.33c6.147 8.639 11.546 13.983 20.498 20.287 5.188 3.653 18.621 16.948 22.634 22.4 1.684 2.288 4.994 6.558 5.35 6.558.355 0 2.793-4.37 3.604-6.778 2.786-8.27 5.74-12.084 13.701-15.947 4.966-2.41 4.496-3.708 11.72-3.724 6.716-.016 7.17 1.313 11.535 3.062 8.194 3.28 15.84 9.357 18.14 18.076.414 1.566-.354 3.825-.009 3.94.346.115 4.188-3.49 6.841-6.931 5.899-7.651 12.597-14.092 22.281-21.425 8.547-6.472 14.107-11.95 18.06-17.792 2.239-3.311 3.273-4.276 5.065-4.727 6.06-1.524 10.468 5.563 9.167 14.734-.243 1.712-1.743 5.908-3.333 9.324L176.76 56.6l2.026 1.705c2.734 2.3 4.068 5.636 3.731 9.329-.26 2.849-2.79 8.66-4.734 10.868-.81.92-.724 1.334.712 3.45.897 1.322 1.631 3.23 1.631 4.241 0 6.76-12.674 19.738-24.605 25.195-4.535 2.075-8.518 3.509-9.744 3.509-1.445 0-4.05-2.997-4.05-4.66 0-1.873 2.242-4.053 4.8-4.666 5.599-1.341 16.389-8.313 20.082-12.977 1.773-2.238 1.92-2.657.931-2.656-.645.002-2.902 1.169-5.014 2.595-2.112 1.425-4.908 3.152-6.214 3.838-4.576 2.4-8.186 1.046-8.186-3.071 0-2.215 1.943-3.998 8.582-7.875 6.598-3.854 16.379-13.806 16.379-16.666 0-1.742-.704-1.541-4.237 1.211-3.882 3.025-10.426 7.06-14.63 9.023-3.784 1.767-5.941 1.333-7.282-1.464-1.275-2.662-.246-4.289 4.83-7.628 7.74-5.095 14.262-12.436 19.268-21.693 1.969-3.64 3.558-8.191 2.86-8.191-.202 0-2.411 2.095-4.908 4.655-2.498 2.56-7.133 6.656-10.3 9.102-17.121 13.216-24.623 21.449-30.908 33.923-3.492 6.93-4.613 10.946-5.271 18.88-.642 7.738-1.937 11.677-5.623 17.105-21.196 12.229-35.879 16.783-48.327-2.086zm18.743-63.119c-2.192 0-9.34 3.062-12.143 5.992-3.094 3.235-6.644 9.611-6.361 11.596 1.328 22.81 1.546 37.198 1.907 41.092.556 5.09 12.614 9.97 16.38 11.691 5.286-6.76 2.047-70.303.218-70.372zm27.896 53.119c.22-12.293.79-7.607.22-12.293.47-13.768 1.727-3.3.488-10.908-.26-9.476-5.559-6.602 1.432-10.981.6-1.565-5.046-10.365-8.061-13.381-2.9-2.9-8.132-6.145-10.347-6.173-13.611-.04-9.4 41.59-2.454 71.554 5.77-3.212 18.338-10.785 18.722-17.818z" fill="#36c"/>
<path d="M90.209 155.748c-.704-.393-1.424-.84-1.6-.991s-.464-4.321-.64-9.264l-.32-8.987-4.8-1.696c-9.584-3.387-15.851-9.66-19.301-19.321-1.36-3.808-1.483-5.334-1.69-20.937-.222-16.691-.21-16.874 1.454-22.1 3.941-12.376 14.11-20.458 26.862-21.351 14.327-1.003 26.917 7.729 31.127 21.589 1.226 4.035 1.302 5.6 1.079 22.157-.276 20.378-.401 21.005-5.788 28.856-4.268 6.221-8.45 9.024-18.863 12.64-.585.204-.8 2.527-.8 8.648 0 8.032-.063 8.432-1.571 9.94-1.704 1.704-3.15 1.933-5.15.817zm-2.24-61.928c0-22.58-.216-33.376-.674-33.659-1.114-.689-7.648 2.9-10.354 5.69-2.918 3.007-5.612 7.955-5.612 10.31 0 1.505.216 1.621 3.04 1.63 1.672.006 3.386.23 3.808.499 1.325.842 1.98 3.517 1.324 5.4-.604 1.732-2.527 2.616-6.892 3.17-2.503.316-2.011 2.088.64 2.305 4.976.406 7.584 2.997 6.357 6.315-.697 1.882-1.676 2.385-5.397 2.77-2.663.276-3.2.547-3.2 1.612 0 .956.485 1.324 1.92 1.455 4.975.455 6.72 1.667 6.72 4.67 0 2.699-2.012 4.435-5.14 4.435-3.311 0-3.795 1.18-1.998 4.879 2.73 5.616 9.934 11.647 14.017 11.73l1.44.03zm13.954 31.706c1.667-.845 4.414-3.014 6.104-4.821 3.133-3.35 5.923-8.51 5.218-9.65-.216-.348-1.599-.637-3.074-.643-3.044-.01-3.786-.372-4.826-2.348-1.818-3.453.228-6.087 5.107-6.577 2.895-.29 3.437-.547 3.437-1.625 0-1.096-.537-1.328-3.74-1.613-4.004-.355-5.54-1.52-5.54-4.198 0-2.631 2.106-4.348 5.793-4.724 1.867-.19 3.504-.704 3.65-1.145.309-.936-.37-1.2-4.495-1.753-3.52-.472-5.356-2.455-4.697-5.078.638-2.545 2.146-3.569 5.255-3.569 1.912 0 2.973-.308 3.213-.934.542-1.414-2.496-7.51-5.285-10.602-2.398-2.66-9.482-6.677-10.578-5.999-.63.39-.736 65.761-.109 66.388.683.683 1.352.52 4.568-1.11z" fill="#474847"/>
</svg>
