<svg width="48" height="48" version="1.0" xmlns="http://www.w3.org/2000/svg" xmlns:xlink="http://www.w3.org/1999/xlink">
<defs>
<linearGradient id="b">
<stop stop-color="#474747" stop-opacity="0" offset="0"/>
<stop stop-color="#474747" offset=".1"/>
<stop stop-color="#474747" offset=".9"/>
<stop stop-color="#474747" stop-opacity="0" offset="1"/>
</linearGradient>
<linearGradient id="g">
<stop stop-color="#fff" offset="0"/>
<stop stop-color="#fefefe" offset=".37931"/>
<stop stop-color="#1d1d1d" offset="1"/>
</linearGradient>
<linearGradient id="o" x1="9.7569" x2="17.85" y1="12.525" y2="31.675" gradientTransform="matrix(-.95018 0 0 -1.2506 51.707 46.104)" gradientUnits="userSpaceOnUse">
<stop stop-color="#e02b2b" offset="0"/>
<stop stop-color="#e02b2b" stop-opacity="0" offset="1"/>
</linearGradient>
<linearGradient id="n" x1="12.191" x2="17.85" y1="12.062" y2="31.675" gradientTransform="matrix(.95018 0 0 1.2506 -2.6286 -7.3781)" gradientUnits="userSpaceOnUse">
<stop stop-color="#143b68" offset="0"/>
<stop stop-color="#143b68" stop-opacity="0" offset="1"/>
</linearGradient>
<radialGradient id="f" cx="15.601" cy="12.142" r="43.527" gradientTransform="matrix(.67497 0 0 .67498 7.8647 3.5898)" gradientUnits="userSpaceOnUse">
<stop stop-color="#fff" offset="0"/>
<stop stop-color="#fff" stop-opacity=".16495" offset="1"/>
</radialGradient>
<radialGradient id="e" cx="11.827" cy="10.476" r="32.665" gradientTransform="matrix(.66554 0 0 .57224 14.538 3.5898)" gradientUnits="userSpaceOnUse">
<stop stop-color="#fff" offset="0"/>
<stop stop-color="#fff" stop-opacity="0" offset="1"/>
</radialGradient>
<radialGradient id="d" cx="18.248" cy="15.716" r="29.993" gradientTransform="matrix(.67497 0 0 .67498 7.8647 3.5898)" gradientUnits="userSpaceOnUse">
<stop stop-color="#d3e9ff" offset="0"/>
<stop stop-color="#d3e9ff" offset=".15517"/>
<stop stop-color="#4074ae" offset=".75"/>
<stop stop-color="#36486c" offset="1"/>
</radialGradient>
<linearGradient id="m" x1="36.373" x2="38.105" y1="22.228" y2="22.228" gradientTransform="matrix(1.1387 0 0 1.7321 -19.299 -4.5178)" gradientUnits="userSpaceOnUse">
<stop stop-color="#fff" stop-opacity=".4491" offset="0"/>
<stop stop-color="#fff" stop-opacity="0" offset="1"/>
</linearGradient>
<linearGradient id="l" x1="23.1" x2="23.1" y1="38.297" y2="43.915" gradientTransform="matrix(.9838 0 0 1.0165 1.1187 -3.0178)" gradientUnits="userSpaceOnUse">
<stop stop-color="#7a7a7a" offset="0"/>
<stop stop-color="#c5c5c5" offset=".19802"/>
<stop stop-color="#626262" offset=".59901"/>
<stop stop-color="#888" offset="1"/>
</linearGradient>
<linearGradient id="k" x1="1.6422" x2="15.343" y1="117.83" y2="117.83" gradientTransform="matrix(2.7402 0 0 .18247 1.1187 16.5)" gradientUnits="userSpaceOnUse">
<stop stop-color="#fff" stop-opacity="0" offset="0"/>
<stop stop-color="#fff" stop-opacity=".70659" offset=".10827"/>
<stop stop-color="#fff" stop-opacity=".70659" offset=".92054"/>
<stop stop-color="#fff" stop-opacity="0" offset="1"/>
</linearGradient>
<linearGradient id="j" x1=".6121" x2="5.0856" y1="372.58" y2="372.58" gradientTransform="matrix(8.1686 0 0 .22862 1.1187 -40.551)" gradientUnits="userSpaceOnUse" xlink:href="#b"/>
<linearGradient id="i" x1=".6121" x2="5.0856" y1="372.58" y2="372.58" gradientTransform="matrix(8.1686 0 0 .22121 1.1187 -41.939)" gradientUnits="userSpaceOnUse" xlink:href="#b"/>
<radialGradient id="c" cx="15.116" cy="63.965" r="12.289" gradientTransform="matrix(1.2479 0 0 .53397 5.7745 4.6058)" gradientUnits="userSpaceOnUse">
<stop offset="0"/>
<stop stop-opacity="0" offset="1"/>
</radialGradient>
<linearGradient id="h" x1="1.6422" x2="15.343" y1="117.83" y2="117.83" gradientTransform="matrix(2.7402 0 0 .36494 1.1187 -4.0178)" gradientUnits="userSpaceOnUse">
<stop stop-color="#686868" stop-opacity="0" offset="0"/>
<stop stop-color="#686868" offset=".23762"/>
<stop stop-color="#686868" offset=".7811"/>
<stop stop-color="#686868" stop-opacity="0" offset="1"/>
</linearGradient>
<radialGradient id="a" cx="18.634" cy="17.486" r="40.693" fx="18.934" fy="17.81" gradientTransform="matrix(.68749 0 0 .63953 7.8101 3.6107)" gradientUnits="userSpaceOnUse" xlink:href="#g"/>
</defs>
<path d="m6.1187 36.982h36.543v4h-36.543v-4z" display="block" fill="url(#h)"/>
<path d="m39.974 38.762c0.001686 3.6246-6.8649 6.5633-15.336 6.5633s-15.338-2.9387-15.336-6.5633c-0.0016856-3.6246 6.8649-6.5633 15.336-6.5633s15.338 2.9387 15.336 6.5633z" fill="url(#c)"/>
<path d="m6.1187 39.984h36.543v0.98959h-36.543v-0.98959z" display="block" fill="url(#i)"/>
<path d="m6.1187 36.018h36.543v1.0227h-36.543v-1.0227z" display="block" fill="url(#j)"/>
<path d="m6.1187 37h36.543v2h-36.543v-2z" display="block" fill="url(#k)"/>
<path d="m22.585 26.451c-0.78347 0-1.4062 0.62277-1.4062 1.4062v7.5938h-3.0625c-0.78347 0-1.4062 0.62277-1.4062 1.4062v3.7188c0 0.78347 0.62278 1.4063 1.4062 1.4062h12.188c0.78347 0 1.4062-0.62278 1.4062-1.4062v-3.7188c0-0.78347-0.62278-1.4062-1.4062-1.4062h-2.5938v-7.5938c0-0.78347-0.62278-1.4062-1.4062-1.4062h-3.7188z" display="block" fill="url(#l)" stroke="#434343"/>
<path d="m22.418 32.482h1.3732c0.16595 0 0.29956 0.1336 0.29956 0.29956v2.4009c0 0.16595-0.1336 0.29956-0.29956 0.29956h-1.3732c-0.16595 0-0.29956-0.1336-0.29956-0.29956v-2.4009c0-0.16595 0.1336-0.29956 0.29956-0.29956z" display="block" fill="url(#m)"/>
<path d="m37.536 19.442c0 7.2288-5.8602 13.089-13.088 13.089-7.2284 0-13.088-5.8602-13.088-13.089 0-7.2284 5.8599-13.088 13.088-13.088 7.2278 0 13.088 5.8595 13.088 13.088z" fill="url(#d)" stroke="#39396c" stroke-width="2"/>
<path d="m31.865 13.897c0.00112 3.4651-3.2655 6.2746-7.2955 6.2746s-7.2967-2.8095-7.2955-6.2746c-0.001121-3.4651 3.2655-6.2745 7.2955-6.2745s7.2967 2.8095 7.2955 6.2745z" fill="url(#e)" opacity=".42159"/>
<path d="m37.169 17.482v0l-0.36131 0.40925c-0.22147-0.26099-0.47012-0.48046-0.72262-0.70969l-0.55426 0.081559-0.50639-0.57243v0.70843l0.43385 0.32829 0.28877 0.32703 0.38591-0.43644c0.09714 0.18195 0.19295 0.3639 0.28943 0.54584v0.54525l-0.43451 0.49081-0.79516 0.54584-0.6022 0.60094-0.38591-0.43776 0.19296-0.49081-0.38531-0.43644-0.65074-1.3909-0.55426-0.6268-0.14508 0.16318 0.21756 0.79131 0.40925 0.46362c0.23373 0.67474 0.46495 1.3197 0.77188 1.9646 0.47596 0 0.92466-0.050527 1.3974-0.11007v0.38206l-0.57827 1.4184-0.53033 0.59962-0.43385 0.92857v1.5269l0.14508 0.60094-0.2409 0.27199-0.53099 0.32762-0.55426 0.46362 0.45845 0.51806-0.6268 0.54651 0.12042 0.35355-0.94024 1.0646h-0.62614l-0.53033 0.32762h-0.33804v-0.43644l-0.14376-0.8742c-0.18652-0.54783-0.38074-1.0918-0.57827-1.6357 0-0.40149 0.023937-0.79907 0.047941-1.2005l0.24156-0.54525-0.33804-0.65532 0.0246-0.90006-0.45845-0.51806 0.22922-0.74987-0.37298-0.42318h-0.6514l-0.21689-0.2454-0.65074 0.40958-0.26483-0.30077-0.60287 0.51833c-0.40925-0.46395-0.81916-0.92758-1.229-1.3912l-0.48179-1.1461 0.43385-0.65399-0.2409-0.27259 0.52966-1.2556c0.43518-0.54133 0.88971-1.0607 1.3495-1.5819l0.81976-0.21822 0.91564-0.10881 0.6268 0.16385 0.89164 0.8994 0.31344-0.35421 0.43319-0.054373 0.81976 0.27259h0.6268l0.43385-0.38206 0.19296-0.27259-0.43451-0.27259-0.72328-0.054372c-0.20071-0.27842-0.38724-0.57111-0.62554-0.8185l-0.24156 0.10881-0.096478 0.70969-0.43385-0.49081-0.095814-0.54651-0.48179-0.38074h-0.19362l0.48239 0.54525-0.19296 0.49081-0.38531 0.10881 0.2409-0.49081-0.43451-0.21756-0.38465-0.43644-0.72394 0.16318-0.095814 0.21756-0.43385 0.27325-0.2409 0.60028-0.6022 0.29978-0.2655-0.29978h-0.28877v-0.98228l0.6268-0.32763h0.48179l-0.097141-0.3814-0.38465-0.38206 0.65014-0.13666 0.36131-0.40859 0.28877-0.49147h0.53099l-0.14508-0.3814 0.33804-0.21822v0.43644l0.72262 0.16318 0.72262-0.59962 0.048537-0.27325 0.62614-0.4361c-0.22664 0.02818-0.45328 0.048868-0.67474 0.10914v-0.4914l0.2409-0.54558h-0.2409l-0.5294 0.49081-0.14508 0.27292 0.14508 0.3824-0.24156 0.65399-0.38531-0.21822-0.33671-0.3814-0.53099 0.3814-0.19296-0.87254 0.91564-0.59995v-0.32763l0.57886-0.38173 0.91564-0.21855 0.6268 0.21855 1.1565 0.21822-0.28877 0.32703h-0.6268l0.6268 0.65465 0.48179-0.54525 0.14634-0.2399s1.8481 1.6564 2.9042 3.4682c1.0561 1.8124 1.5521 3.9487 1.5521 4.3825z" fill-opacity=".71345"/>
<path d="m25.233 9.8714-0.048537 0.32703 0.33804 0.21822 0.5776-0.38173-0.28877-0.32736-0.38591 0.21855-0.19229-0.054704" fill-opacity=".71345"/>
<path d="m25.763 7.6349-1.2536-0.49114-1.4453 0.16351-1.7839 0.49081-0.33737 0.32763 1.1086 0.76346v0.43644l-0.43385 0.43644 0.57886 1.1465 0.38465-0.21888 0.48305-0.76346c0.74463-0.23022 1.4123-0.49114 2.12-0.8185l0.57886-1.4728" fill-opacity=".71345"/>
<path d="m27.065 12.218-0.19295-0.49147-0.33804 0.10941 0.097141 0.59962 0.43385-0.21756" fill-opacity=".71345"/>
<path d="m27.257 12.108-0.096477 0.65532 0.53033-0.10941 0.38531-0.3814-0.33737-0.32762c-0.11332-0.30177-0.24348-0.58344-0.38531-0.87287h-0.28877v0.32703l0.19229 0.21822v0.49081" fill-opacity=".71345"/>
<path d="m20.124 22.474-0.38591-0.76406-0.72295-0.16351-0.38558-1.0361-0.96385 0.10881-0.81916-0.59962-0.86803 0.76346v0.12041c-0.26258-0.075789-0.58536-0.086133-0.81916-0.22989l-0.19296-0.54525v-0.60028l-0.57827 0.054372c0.048272-0.38206 0.096146-0.76346 0.14475-1.1455h-0.3377l-0.33704 0.43644-0.3377 0.16318-0.48212-0.27199-0.048272-0.60028 0.096478-0.65465 0.72328-0.54525h0.57827l0.096146-0.32762 0.72295 0.16318 0.53033 0.65532 0.096477-1.0918 0.91591-0.76346 0.33737-0.8185 0.67474-0.27259 0.38558-0.54525 0.86737-0.16444 0.43418-0.65399h-1.3016l0.81943-0.38206h0.57794l0.81976-0.27325 0.096478-0.32637-0.28943-0.27325-0.33737-0.10941 0.096477-0.32703-0.2409-0.49081-0.5786 0.21756 0.096477-0.4361-0.67474-0.38206-0.53 0.92691 0.047941 0.32763-0.53 0.21888-0.3377 0.70903-0.14442-0.65465-0.91591-0.38206-0.14475-0.49081 1.2051-0.70969 0.53033-0.49081 0.048272-0.59995-0.2891-0.16385-0.38558-0.054704-0.2409 0.60028s-0.40308 0.078972-0.50672 0.10457c-1.3236 1.2197-3.9979 3.8525-4.6192 8.823 0.0246 0.11524 0.45036 0.78349 0.45036 0.78349l1.0121 0.59962 1.0121 0.27325 0.43418 0.54584 0.67441 0.49081 0.38558-0.054372 0.2891 0.13016v0.088057l-0.38531 1.0364-0.28943 0.43644 0.096478 0.21888-0.2409 0.81717 0.8677 1.5826 0.86737 0.76406 0.38591 0.54525-0.048537 1.1461 0.28943 0.65399-0.28943 1.2549s-0.022678-0.007758 0.014256 0.11783c0.037264 0.12565 1.5444 0.96225 1.6402 0.89104 0.095483-0.07254 0.17711-0.136 0.17711-0.136l-0.096146-0.27199 0.38531-0.38206 0.14475-0.38206 0.6268-0.21888 0.48179-1.2005-0.14442-0.32637 0.33671-0.49081 0.72328-0.16444 0.38591-0.87287-0.096477-1.0904 0.57827-0.8185 0.096477-0.8185c-0.79131-0.39241-1.5761-0.79648-2.3615-1.2005" fill-opacity=".71345"/>
<path d="m19.063 10.089 0.48179 0.32736h0.38591v-0.38173l-0.48179-0.21822-0.38591 0.27259" fill-opacity=".71345"/>
<path d="m17.81 9.6532-0.24123 0.59995h0.48212l0.24123-0.54558c0.20787-0.147 0.41475-0.29494 0.62647-0.43644l0.48212 0.16385c0.32119 0.21822 0.64239 0.43644 0.96384 0.65432l0.48239-0.4361-0.53066-0.21822-0.24123-0.49114-0.91564-0.10914-0.048272-0.27292-0.43385 0.10941-0.19256 0.3818-0.24123-0.49114-0.096146 0.21822 0.048272 0.54558-0.38564 0.32756" fill-opacity=".71345"/>
<path d="m19.545 8.2889 0.24123-0.21789 0.48212-0.10914c0.33021-0.1606 0.66175-0.26874 1.0121-0.38206l-0.19229-0.32736-0.6223 0.089382-0.29401 0.29301-0.48471 0.070286-0.43093 0.20237-0.20946 0.10132-0.12791 0.17127 0.62614 0.10881" fill-opacity=".71345"/>
<path d="m20.365 13.472 0.28943-0.43644-0.43418-0.32703 0.14475 0.76346" fill-opacity=".71345"/>
<path d="m20.591 36.935h9c0.277 0 0.5 0.223 0.5 0.5s-0.223 0.5-0.5 0.5h-9c-0.277 0-0.5-0.223-0.5-0.5s0.223-0.5 0.5-0.5z" fill="#fff" fill-opacity=".95906"/>
<path d="m19.716 37.467c0 0.60406-0.48969 1.0938-1.0938 1.0938s-1.0938-0.48969-1.0938-1.0938 0.48969-1.0938 1.0938-1.0938 1.0938 0.48969 1.0938 1.0938z" display="block" fill="#fff" fill-opacity=".95906"/>
<path d="m37.033 17.346v0l-0.36131 0.40925c-0.22147-0.26099-0.47012-0.48046-0.72262-0.70969l-0.55426 0.081559-0.50639-0.57243v0.70843l0.43385 0.32829 0.28877 0.32703 0.38591-0.43644c0.09714 0.18195 0.19295 0.3639 0.28943 0.54584v0.54525l-0.43451 0.49081-0.79516 0.54584-0.6022 0.60094-0.38591-0.43776 0.19296-0.49081-0.38531-0.43644-0.65074-1.3909-0.55426-0.6268-0.14508 0.16318 0.21756 0.79131 0.40925 0.46362c0.23373 0.67474 0.46495 1.3197 0.77188 1.9646 0.47596 0 0.92466-0.050527 1.3974-0.11007v0.38206l-0.57827 1.4184-0.53033 0.59962-0.43385 0.92857v1.5269l0.14508 0.60094-0.2409 0.27199-0.53099 0.32762-0.55426 0.46362 0.45845 0.51806-0.6268 0.54651 0.12042 0.35355-0.94024 1.0646h-0.62614l-0.53033 0.32762h-0.33804v-0.43644l-0.14376-0.8742c-0.18652-0.54783-0.38074-1.0918-0.57827-1.6357 0-0.40149 0.023937-0.79907 0.047941-1.2005l0.24156-0.54525-0.33804-0.65532 0.0246-0.90006-0.45845-0.51806 0.22922-0.74987-0.37298-0.42318h-0.6514l-0.21689-0.2454-0.65074 0.40958-0.26483-0.30077-0.60287 0.51833c-0.40925-0.46395-0.81916-0.92758-1.229-1.3912l-0.48179-1.1461 0.43385-0.65399-0.2409-0.27259 0.52966-1.2556c0.43518-0.54133 0.88971-1.0607 1.3495-1.5819l0.81976-0.21822 0.91564-0.10881 0.6268 0.16385 0.89164 0.8994 0.31344-0.35421 0.43319-0.054373 0.81976 0.27259h0.6268l0.43385-0.38206 0.19296-0.27259-0.43451-0.27259-0.72328-0.054372c-0.20071-0.27842-0.38724-0.57111-0.62554-0.8185l-0.24156 0.10881-0.096478 0.70969-0.43385-0.49081-0.095814-0.54651-0.48179-0.38074h-0.19362l0.48239 0.54525-0.19296 0.49081-0.38531 0.10881 0.2409-0.49081-0.43451-0.21756-0.38465-0.43644-0.72394 0.16318-0.095814 0.21756-0.43385 0.27325-0.2409 0.60028-0.6022 0.29978-0.2655-0.29978h-0.28877v-0.98228l0.6268-0.32763h0.48179l-0.097141-0.3814-0.38465-0.38206 0.65014-0.13666 0.36131-0.40859 0.28877-0.49147h0.53099l-0.14508-0.3814 0.33804-0.21822v0.43644l0.72262 0.16318 0.72262-0.59962 0.048537-0.27325 0.62614-0.4361c-0.22664 0.02818-0.45328 0.048868-0.67474 0.10914v-0.4914l0.2409-0.54558h-0.2409l-0.5294 0.49081-0.14508 0.27292 0.14508 0.3824-0.24156 0.65399-0.38531-0.21822-0.33671-0.3814-0.53099 0.3814-0.19296-0.87254 0.91564-0.59995v-0.32763l0.57886-0.38173 0.91564-0.21855 0.6268 0.21855 1.1565 0.21822-0.28877 0.32703h-0.6268l0.6268 0.65465 0.48179-0.54525 0.14634-0.2399s1.8481 1.6564 2.9042 3.4682c1.0561 1.8124 1.5521 3.9487 1.5521 4.3825z" fill="url(#a)"/>
<path d="m25.097 9.735-0.048537 0.32703 0.33804 0.21822 0.5776-0.38173-0.28877-0.32736-0.38591 0.21855-0.19229-0.054704" fill="url(#a)"/>
<path d="m25.627 7.4985-1.2536-0.49114-1.4453 0.16351-1.7839 0.49081-0.33737 0.32763 1.1086 0.76346v0.43644l-0.43385 0.43644 0.57886 1.1465 0.38465-0.21888 0.48305-0.76346c0.74463-0.23022 1.4123-0.49114 2.12-0.8185l0.57886-1.4728" fill="url(#a)"/>
<path d="m26.929 12.081-0.19295-0.49147-0.33804 0.10941 0.097141 0.59962 0.43385-0.21756" fill="url(#a)"/>
<path d="m27.121 11.971-0.096477 0.65532 0.53033-0.10941 0.38531-0.3814-0.33737-0.32762c-0.11332-0.30177-0.24348-0.58344-0.38531-0.87287h-0.28877v0.32703l0.19229 0.21822v0.49081" fill="url(#a)"/>
<path d="m19.988 22.337-0.38591-0.76406-0.72295-0.16351-0.38558-1.0361-0.96385 0.10881-0.81916-0.59962-0.86803 0.76346v0.12041c-0.26258-0.075789-0.58536-0.086133-0.81916-0.22989l-0.19296-0.54525v-0.60028l-0.57827 0.054372c0.048272-0.38206 0.096146-0.76346 0.14475-1.1455h-0.3377l-0.33704 0.43644-0.3377 0.16318-0.48212-0.27199-0.048272-0.60028 0.096478-0.65465 0.72328-0.54525h0.57827l0.096146-0.32762 0.72295 0.16318 0.53033 0.65532 0.096477-1.0918 0.91591-0.76346 0.33737-0.8185 0.67474-0.27259 0.38558-0.54525 0.86737-0.16444 0.43418-0.65399h-1.3016l0.81943-0.38206h0.57794l0.81976-0.27325 0.096478-0.32637-0.28943-0.27325-0.33737-0.10941 0.096477-0.32703-0.2409-0.49081-0.5786 0.21756 0.096477-0.4361-0.67474-0.38206-0.53 0.92691 0.047941 0.32763-0.53 0.21888-0.3377 0.70903-0.14442-0.65465-0.91591-0.38206-0.14475-0.49081 1.2051-0.70969 0.53033-0.49081 0.048272-0.59995-0.2891-0.16385-0.38558-0.054704-0.2409 0.60028s-0.40308 0.078972-0.50672 0.10457c-1.3236 1.2197-3.9979 3.8525-4.6192 8.823 0.0246 0.11524 0.45036 0.78349 0.45036 0.78349l1.0121 0.59962 1.0121 0.27325 0.43418 0.54584 0.67441 0.49081 0.38558-0.054372 0.2891 0.13016v0.088057l-0.38531 1.0364-0.28943 0.43644 0.096478 0.21888-0.2409 0.81717 0.8677 1.5826 0.86737 0.76406 0.38591 0.54525-0.048537 1.1461 0.28943 0.65399-0.28943 1.2549s-0.022678-0.007758 0.014256 0.11783c0.037264 0.12565 1.5444 0.96225 1.6402 0.89104 0.095483-0.07254 0.17711-0.136 0.17711-0.136l-0.096146-0.27199 0.38531-0.38206 0.14475-0.38206 0.6268-0.21888 0.48179-1.2005-0.14442-0.32637 0.33671-0.49081 0.72328-0.16444 0.38591-0.87287-0.096477-1.0904 0.57827-0.8185 0.096477-0.8185c-0.79131-0.39241-1.5761-0.79648-2.3615-1.2005" fill="url(#a)"/>
<path d="m18.927 9.9529 0.48179 0.32736h0.38591v-0.38173l-0.48179-0.21822-0.38591 0.27259" fill="url(#a)"/>
<path d="m17.674 9.5168-0.24123 0.59995h0.48212l0.24123-0.54558c0.20787-0.147 0.41475-0.29494 0.62647-0.43644l0.48212 0.16385c0.32119 0.21822 0.64239 0.43644 0.96384 0.65432l0.48239-0.4361-0.53066-0.21822-0.24123-0.49114-0.91564-0.10914-0.048272-0.27292-0.43385 0.10941-0.19256 0.3818-0.24123-0.49114-0.096146 0.21822 0.048272 0.54558-0.38564 0.32756" fill="url(#a)"/>
<path d="m19.409 8.1525 0.24123-0.21789 0.48212-0.10914c0.33021-0.1606 0.66175-0.26874 1.0121-0.38206l-0.19229-0.32736-0.6223 0.089382-0.29401 0.29301-0.48471 0.070286-0.43093 0.20237-0.20946 0.10132-0.12791 0.17127 0.62614 0.10881" fill="url(#a)"/>
<path d="m20.228 13.336 0.28943-0.43644-0.43418-0.32703 0.14475 0.76346" fill="url(#a)"/>
<path d="m36.872 19.442c0 6.8617-5.5626 12.424-12.423 12.424-6.8614 0-12.424-5.5626-12.424-12.424 0-6.8613 5.5623-12.423 12.424-12.423 6.8607 0 12.423 5.5619 12.423 12.423z" fill="none" stroke="url(#f)"/>
<path d="m5.3936 10.941c-4.5454 12.292 4.0585 23.493 17.659 23.493-8.5698 0-15.542-6.972-15.542-15.542 0-6.0171 3.5198-11.54 8.9706-14.088l-15.942 3.889 4.8538 2.2481z" fill="url(#n)"/>
<path d="m43.685 27.785c4.5454-12.292-4.0585-23.493-17.659-23.493 8.5698 0 15.542 6.972 15.542 15.542 0 6.0171-3.5198 11.54-8.9706 14.088l15.942-3.889-4.8538-2.2481z" fill="url(#o)"/>
</svg>
