<svg width="48" height="48" version="1.0" xmlns="http://www.w3.org/2000/svg" xmlns:xlink="http://www.w3.org/1999/xlink">
<defs>
<radialGradient id="b" cx="19.701" cy="2.8969" r="17.171" gradientTransform="matrix(2.0467 -3.7494e-16 2.8534e-16 1.5576 -19.518 3.4521)" gradientUnits="userSpaceOnUse">
<stop stop-color="#fff" offset="0"/>
<stop stop-color="#fff" stop-opacity="0" offset="1"/>
</radialGradient>
<radialGradient id="a" cx="24.837" cy="36.421" r="15.645" gradientTransform="matrix(1 0 0 .53672 2.511e-15 16.873)" gradientUnits="userSpaceOnUse">
<stop offset="0"/>
<stop stop-opacity="0" offset="1"/>
</radialGradient>
<radialGradient id="c" cx="22.292" cy="32.798" r="16.956" gradientTransform="matrix(.84302 1.8719e-16 -2.2652e-16 1.0202 4.4993 1.382)" gradientUnits="userSpaceOnUse">
<stop stop-color="#73d216" offset="0"/>
<stop stop-color="#4e9a06" offset="1"/>
</radialGradient>
</defs>
<g>
<path transform="matrix(1.2712 0 0 1.2712 -8.1194 -15.102)" d="m40.482 36.421a15.645 8.3969 0 1 1-31.289 0 15.645 8.3969 0 1 1 31.289 0z" color="#000000" fill="url(#a)" fill-rule="evenodd" opacity=".29947"/>
<path d="m8.5542 15.517v16.994h12.984v8.545l19.96-16.906-20.079-17.025v8.3975l-12.865-0.005304z" color="#000000" fill="url(#c)" fill-rule="evenodd" stroke="#3a7304" stroke-linecap="round" stroke-linejoin="round" stroke-miterlimit="10"/>
<path d="m21.962 8.2485v7.8065h-12.817v9.0407c17.75 2 16.634-7.4553 31.384-0.95529l-18.566-15.892z" color="#000000" fill="url(#b)" fill-rule="evenodd" opacity=".50802"/>
<path d="m9.5377 16.562v14.984h12.985v7.3952l17.478-14.796-17.494-14.78v7.2014l-12.969-0.004897z" color="#000000" fill="none" opacity=".48128" stroke="#fff" stroke-miterlimit="10"/>
</g>
</svg>
