<?xml version="1.0" encoding="UTF-8" standalone="no"?>
<svg
   viewBox="0 0 24 24"
   version="1.1"
   id="svg5"
   sodipodi:docname="playsound.svg"
   width="24"
   height="24"
   inkscape:version="1.3.2 (091e20e, 2023-11-25, custom)"
   xml:space="preserve"
   xmlns:inkscape="http://www.inkscape.org/namespaces/inkscape"
   xmlns:sodipodi="http://sodipodi.sourceforge.net/DTD/sodipodi-0.dtd"
   xmlns:xlink="http://www.w3.org/1999/xlink"
   xmlns="http://www.w3.org/2000/svg"
   xmlns:svg="http://www.w3.org/2000/svg"><defs
     id="defs5"><linearGradient
       id="linearGradient6"
       inkscape:collect="always"><stop
         style="stop-color:#d58000;stop-opacity:1;"
         offset="0"
         id="stop5" /><stop
         style="stop-color:#d58000;stop-opacity:0.71621621;"
         offset="1"
         id="stop6" /></linearGradient><linearGradient
       id="linearGradient4"
       inkscape:collect="always"><stop
         style="stop-color:#2488ff;stop-opacity:1;"
         offset="0"
         id="stop3" /><stop
         style="stop-color:#4dbbeb;stop-opacity:1;"
         offset="0.56056339"
         id="stop4" /></linearGradient><linearGradient
       id="linearGradient1"
       inkscape:collect="always"><stop
         style="stop-color:#2488ff;stop-opacity:1;"
         offset="0"
         id="stop2" /><stop
         style="stop-color:#4dbbeb;stop-opacity:1;"
         offset="1"
         id="stop1" /></linearGradient><linearGradient
       inkscape:collect="always"
       xlink:href="#linearGradient1"
       id="linearGradient2"
       x1="0"
       y1="11.090493"
       x2="22.180986"
       y2="11.090493"
       gradientUnits="userSpaceOnUse"
       spreadMethod="pad" /><linearGradient
       inkscape:collect="always"
       xlink:href="#linearGradient4"
       id="linearGradient3"
       gradientUnits="userSpaceOnUse"
       x1="0"
       y1="11.090493"
       x2="22.180986"
       y2="11.090493"
       spreadMethod="pad" /><linearGradient
       inkscape:collect="always"
       xlink:href="#linearGradient6"
       id="linearGradient5"
       gradientUnits="userSpaceOnUse"
       x1="0"
       y1="11.090493"
       x2="22.180986"
       y2="11.090493"
       spreadMethod="pad" /></defs><sodipodi:namedview
     id="namedview5"
     pagecolor="#ffffff"
     bordercolor="#000000"
     borderopacity="0.25"
     inkscape:showpageshadow="2"
     inkscape:pageopacity="0.0"
     inkscape:pagecheckerboard="0"
     inkscape:deskcolor="#d1d1d1"
     inkscape:zoom="8.5520833"
     inkscape:cx="38.002436"
     inkscape:cy="6.1388551"
     inkscape:window-width="1920"
     inkscape:window-height="1017"
     inkscape:window-x="-8"
     inkscape:window-y="-8"
     inkscape:window-maximized="1"
     inkscape:current-layer="g5" /><g
     id="g5"
     transform="translate(0.82682401,1.3229184)"
     style="fill:url(#linearGradient2);fill-rule:nonzero"><g
       id="g2"
       style="fill:url(#linearGradient3)"><path
         d="M 5.2533921,16.019602 H 1.1674204 C 0.52533921,16.019602 0,15.465077 0,14.787325 V 7.3936624 C 0,6.7159103 0.52533921,6.1613856 1.1674204,6.1613856 h 4.0859717 z"
         fill="#546e7a"
         id="path2"
         style="stroke-width:0.599706;fill:url(#linearGradient3);fill-rule:nonzero" /><path
         d="M 12.257914,22.180987 5.2533921,16.019602 V 6.1613856 L 12.257914,0 Z"
         fill="#78909c"
         id="path3"
         style="stroke-width:0.599706;fill:url(#linearGradient3);fill-rule:nonzero" /></g><g
       id="g3"
       style="fill:url(#linearGradient5)"><path
         d="M 13.425335,0.67775236 V 1.9100295 c 4.261084,0.6161385 7.588232,4.4978109 7.588232,9.1804645 0,4.682653 -3.327148,8.564326 -7.588232,9.180463 v 1.232278 c 4.903165,-0.616139 8.755652,-5.052336 8.755652,-10.412741 0,-5.3604056 -3.852487,-9.7966031 -8.755652,-10.41274164 z"
         fill="#81d4fa"
         id="path1"
         style="stroke-width:0.599706;fill:url(#linearGradient5);fill-rule:nonzero" /><path
         d="M 13.425335,6.9623651 V 8.256256 c 1.050678,0.4929115 1.75113,1.5403467 1.75113,2.834238 0,1.293891 -0.700452,2.341326 -1.75113,2.834237 v 1.293891 c 1.692759,-0.554525 2.918551,-2.156485 2.918551,-4.128128 0,-1.9716434 -1.225792,-3.5736042 -2.918551,-4.1281289 z"
         fill="#03a9f4"
         id="path4"
         style="stroke-width:0.599706;fill:url(#linearGradient5);fill-rule:nonzero" /><path
         d="m 13.425335,3.8200586 v 1.2322777 c 2.685066,0.5545247 4.669681,3.0806923 4.669681,6.0381577 0,2.957465 -1.984615,5.483632 -4.669681,6.038157 v 1.232278 c 3.327148,-0.616139 5.837102,-3.635218 5.837102,-7.270435 0,-3.6352174 -2.509954,-6.7159107 -5.837102,-7.2704354 z"
         fill="#4fc3f7"
         id="path5"
         style="stroke-width:0.599706;fill:url(#linearGradient5);fill-rule:nonzero" /></g></g></svg>
