<svg width="48px" height="48px" xmlns="http://www.w3.org/2000/svg" xmlns:xlink="http://www.w3.org/1999/xlink">
<defs>
<linearGradient id="a">
<stop stop-color="#fff" offset="0"/>
<stop stop-color="#fff" stop-opacity="0" offset="1"/>
</linearGradient>
<radialGradient id="d" cx="4.392" cy="32.308" r="6.375" gradientTransform="matrix(1 -2.8433e-17 5.3408e-18 .5098 5.7709e-16 16.054)" gradientUnits="userSpaceOnUse" xlink:href="#a"/>
<radialGradient id="c" cx="4.392" cy="32.308" r="6.375" gradientTransform="matrix(1 -1.0833e-16 1.4544e-17 .5098 1.1852e-14 16.054)" gradientUnits="userSpaceOnUse" xlink:href="#a"/>
<radialGradient id="b" cx="23.25" cy="35.375" r="18.5" gradientTransform="matrix(1 0 0 .39865 0 21.273)" gradientUnits="userSpaceOnUse">
<stop offset="0"/>
<stop stop-opacity="0" offset="1"/>
</radialGradient>
</defs>
<g>
<path transform="translate(0 2.8346)" d="m41.75 35.375a18.5 7.375 0 1 1-37 0 18.5 7.375 0 1 1 37 0z" color="#000000" fill="url(#b)" fill-rule="evenodd" opacity=".3"/>
<path d="m41.625 7.7952s-23.062 2.8346-23.062 2.8346v21.781c-1.646-0.55765-3.9318-0.70343-6.4375-0.1875-4.3563 0.89697-7.4779 3.2995-7 5.3438 0.47786 2.0443 4.3937 2.9907 8.75 2.0938 4.1166-0.84762 7.6841-3.0378 7.6026-5l0.15625-19.031 16.93-2.8953v17.285c-10.25-1.5-13.292 2.8932-12.814 4.9375 0.47786 2.0443 4.3937 2.9907 8.75 2.0938 3.8654-0.79588 6.6324-2.7632 6.9062-4.625l0.21875-24.63z" color="#000000" display="block" fill="#9db029" stroke="#596616" stroke-linecap="round" stroke-linejoin="round"/>
<path d="m40.729 8.8956s-21.182 2.8346-21.182 2.8346v21.838c-7.5653-1.9053-13.733 1.8344-13.279 3.7784 0.70443 3.319 14.378 1.1022 14.301-3.1388l0.14859-19.473s18.85-2.8923 18.85-2.8923v19.437c-7.5663-1.9266-13.265 1.3764-12.811 3.3204 0.57943 3.194 12.378 2.1134 13.764-2.6571l0.20802-23.048z" color="#000000" display="block" fill="none" opacity=".51176" stroke="#fff"/>
<path transform="matrix(.73452 -.11164 .11164 .73452 3.9034 12.226)" d="m12.25 32.75a6.375 3.25 0 1 1-12.75 0 6.375 3.25 0 1 1 12.75 0z" color="#000000" display="block" fill="url(#d)" opacity=".51176"/>
<path transform="matrix(.73452 -.11164 .11164 .73452 23.746 9.3909)" d="m12.25 32.75a6.375 3.25 0 1 1-12.75 0 6.375 3.25 0 1 1 12.75 0z" color="#000000" display="block" fill="url(#c)" opacity=".51176"/>
</g>
</svg>
