<svg width="48px" height="48px" xmlns="http://www.w3.org/2000/svg" xmlns:xlink="http://www.w3.org/1999/xlink">
<defs>
<radialGradient id="b" cx="25.076" cy="5.786" r="17.171" gradientTransform="matrix(-2.0467 -3.7494e-16 -2.8534e-16 1.5576 67.594 3.2753)" gradientUnits="userSpaceOnUse">
<stop stop-color="#fff" offset="0"/>
<stop stop-color="#fff" stop-opacity="0" offset="1"/>
</radialGradient>
<radialGradient id="a" cx="24.837" cy="36.421" r="15.645" gradientTransform="matrix(1 0 0 .53672 6.7728e-15 16.873)" gradientUnits="userSpaceOnUse">
<stop offset="0"/>
<stop stop-opacity="0" offset="1"/>
</radialGradient>
<radialGradient id="c" cx="22.292" cy="32.798" r="16.956" gradientTransform="matrix(-.84302 1.8719e-16 2.2652e-16 1.0202 43.576 1.2052)" gradientUnits="userSpaceOnUse">
<stop stop-color="#73d216" offset="0"/>
<stop stop-color="#4e9a06" offset="1"/>
</radialGradient>
</defs>
<g>
<path transform="matrix(-1.2712 0 0 1.2712 56.195 -15.279)" d="m40.482 36.421a15.645 8.3969 0 1 1-31.289 0 15.645 8.3969 0 1 1 31.289 0z" color="#000000" fill="url(#a)" fill-rule="evenodd" opacity=".29947"/>
<path d="m39.49 15.497v16.994h-12.953v8.4825l-19.96-17 19.954-17.244v8.7725l12.959-0.005304z" color="#000000" fill="url(#c)" fill-rule="evenodd" stroke="#3a7304" stroke-linecap="round" stroke-linejoin="round" stroke-miterlimit="10"/>
<path d="m25.988 7.978v8.0565h12.942v8.8845c-16.75-6.25-16.134 5.2947-31.384-0.95529l18.441-15.986z" color="#000000" fill="url(#b)" fill-rule="evenodd" opacity=".50802"/>
<path d="m38.476 16.541v14.922h-12.985v7.3014l-17.322-14.796 17.338-14.905v7.4826l12.969-0.004897z" color="#000000" fill="none" opacity=".48128" stroke="#fff" stroke-miterlimit="10"/>
</g>
</svg>
