<svg id="g-book-icon" width="70" height="66" data-purpose="brand-icon-svg" version="1.1" viewbox="0 0 100 100" xmlns="http://www.w3.org/2000/svg">
 <g stroke-width=".94391">
  <path d="m35 61.429-33.037-12.271v2.8317l33.037 12.271 33.037-12.271v-2.8317z" fill="#916c0d"/>
  <path d="m35 58.598-33.037-12.271v-44.364l33.037 12.271z" fill="#d4a017"/>
  <path d="m35 58.598 33.037-12.271v-44.364l-33.037 12.271z" fill="#b88a14"/>
  <path d="m35 55.766-30.205-12.271v-39.644l30.205 12.271z" fill="#fcfcfc"/>
  <path d="m35 55.766 30.205-12.271v-39.644l-30.205 12.271z" fill="#e5e5e5"/>
 </g>
 <g transform="matrix(.94391 0 0 .94391 -12.195 -21.635)" opacity=".8" stroke="#d4a017" stroke-linecap="round" stroke-width="1.5">
  <line x1="25" x2="43" y1="38" y2="45"/>
  <line x1="25" x2="43" y1="44" y2="51"/>
  <line x1="25" x2="43" y1="50" y2="57"/>
  <line x1="25" x2="43" y1="56" y2="63"/>
 </g>
 <line x1="35" x2="35" y1="14.234" y2="58.598" stroke="#fff" stroke-opacity=".5" stroke-width=".47195"/>
 <path d="m63.531 43.867q-2.6386 1.2112-5.7748 2.1196-3.1145 0.88676-6.0343 0.88676-3.7633 0-6.8994-1.0382-3.1361-1.0382-5.3422-3.1145-2.2277-2.0979-3.4389-5.234-1.2112-3.1577-1.2112-7.3752 0-7.7213 4.4987-12.177 4.5203-4.477 12.393-4.477 2.7468 0 5.6017 0.67048 2.8766 0.64884 6.1857 2.2277v5.0826h-0.38931q-0.67048-0.51908-1.9465-1.3626-1.2761-0.8435-2.5089-1.4058-1.4924-0.67048-3.3956-1.103-1.8817-0.45419-4.2824-0.45419-5.4071 0-8.5648 3.4822-3.1361 3.4605-3.1361 9.3867 0 6.2506 3.2875 9.7327 3.2875 3.4605 8.9541 3.4605 2.0763 0 4.131-0.41094 2.0763-0.41094 3.6336-1.0598v-7.8943h-8.6297v-3.7633h12.869z" fill="#d4a017" fill-rule="evenodd" opacity=".90968" stroke-linecap="round" stroke-linejoin="round" stroke-width=".13727" style="paint-order:fill markers stroke" aria-label="G"/>
</svg>
