<svg width="94.646mm" height="94mm" version="1.1" viewBox="0 0 94.646 94" xml:space="preserve" xmlns="http://www.w3.org/2000/svg" xmlns:xlink="http://www.w3.org/1999/xlink"><defs><linearGradient id="linearGradient783"><stop stop-color="#ecc35e" offset="0"/><stop stop-color="#3c3b3b" offset="1"/></linearGradient><linearGradient id="linearGradient6" x1="144.33" x2="151.02" y1="186.42" y2="235.17" gradientUnits="userSpaceOnUse" xlink:href="#linearGradient783"/><linearGradient id="linearGradient21" x1="125.46" x2="172.14" y1="178.94" y2="245.39" gradientTransform="translate(1.5727 -.39318)" gradientUnits="userSpaceOnUse" xlink:href="#linearGradient783"/><linearGradient id="linearGradient28" x1="144.33" x2="151.02" y1="186.42" y2="235.17" gradientTransform="translate(38.532 -14.548)" gradientUnits="userSpaceOnUse" xlink:href="#linearGradient783"/></defs><g transform="translate(-83.389 -177.77)"><g transform="matrix(.92684 0 0 .92684 9.7446 15.556)" fill="url(#linearGradient6)"><g transform="translate(-38.532 14.548)"><path d="m165.17 183.57c-9.7792-2.8969-18.278-4.6244-25.037-5.3372-4.2462 1.1252-7.8055 3.2733-10.677 6.4451-1.8978 2.0958-3.3889 4.521-4.4736 7.275l-0.15761 25.551c1.1772 3.1675 2.7955 5.8327 4.855 7.9954 2.1722 2.2797 4.8025 3.9895 7.8905 5.1294 3.088 1.1399 6.4845 1.71 10.19 1.71 2.875 0 5.8459-0.48725 8.9126-1.4609 3.088-0.99739 5.931-2.1609 8.5292-3.4907v-22.761h-19.007v6.1981h12.746v13.001c-1.5333 0.71242-3.3221 1.2944-5.3666 1.7456-2.0232 0.45119-4.057 0.67644-6.1014 0.67644-5.5797 0-9.988-1.8993-13.225-5.6989-3.2371-3.8233-4.8555-9.1666-4.8555-16.03 0-6.5067 1.5438-11.66 4.6318-15.46 3.1093-3.8233 7.3263-5.735 12.65-5.735 2.3639 0 4.4719 0.24959 6.3247 0.74828 1.8741 0.47494 3.5463 1.0803 5.0157 1.8164 1.2139 0.61743 2.4487 1.3895 3.7052 2.3156 1.2565 0.92615 2.2151 1.6739 2.8753 2.2438h0.57516z" fill="#4e4d4d" fill-rule="evenodd" opacity=".90968" stroke-linecap="round" stroke-linejoin="round" stroke-width=".21409" style="paint-order:fill markers stroke"/><g transform="translate(37.41 -1.7519)" fill="url(#linearGradient21)"><g fill="url(#linearGradient21)" fill-rule="evenodd" stroke-linecap="round" stroke-linejoin="round"><g stroke-width=".15743"><path d="m173.68 182.86 0.34468 55.829c-15.796-2.1589-30.725-0.4207-44.661 5.7914l3e-3 0.40411c-0.14882-0.0686-0.29796-0.13708-0.447-0.20464-0.14905 0.0676-0.29819 0.13605-0.447 0.20464l3e-3 -0.40411c-12.526-5.5836-25.855-7.5526-39.894-6.3262l-0.03049 4.9077c15.796-2.1589 30.725-0.4207 44.661 5.7914l-3e-3 0.40411c0.14882-0.0686 0.29797-0.13708 0.44701-0.20464 0.14905 0.0676 0.29819 0.13605 0.447 0.20464l-3e-3 -0.40411c13.936-6.2121 28.865-7.9502 44.661-5.7914l-0.36432-59.035c-1.1439-0.56265-2.7299-0.95587-4.7175-1.1663z" opacity=".90968" style="paint-order:fill markers stroke"/><path d="m86.288 193.14c1.0847-2.754 2.5759-5.1792 4.4736-7.275 2.8719-3.1718 6.4312-5.3198 10.677-6.4451-1.5433-0.16274-2.9957-0.27296-4.3522-0.33176-4.9305-0.2137-8.5912 0.24728-10.72 1.2945z" opacity=".90968" style="paint-order:fill markers stroke"/><path d="m126.48 184.76v6.8786h-0.57516c-0.66019-0.56994-1.6188-1.3176-2.8753-2.2438-1.2565-0.92614-2.4913-1.6982-3.7052-2.3156-1.4694-0.73616-3.1416-1.3415-5.0157-1.8164-1.8528-0.49869-3.9608-0.74828-6.3247-0.74828-5.3241 0-9.5411 1.9118-12.65 5.735-3.088 3.7996-4.6318 8.9528-4.6318 15.46 0 6.863 1.6185 12.206 4.8555 16.03 3.2371 3.7996 7.6454 5.6989 13.225 5.6989 2.0445 0 4.0783-0.22525 6.1014-0.67644 2.0445-0.4512 3.8332-1.0332 5.3666-1.7456v-13.001h-12.746v-6.1981h19.007v22.761c-2.5982 1.3298-5.4412 2.4934-8.5292 3.4907-3.0667 0.97364-6.0376 1.4609-8.9126 1.4609-3.7056 0-7.1021-0.57011-10.19-1.71-3.088-1.1399-5.7182-2.8497-7.8905-5.1294-2.0595-2.1627-3.6779-4.8279-4.855-7.9954l-0.09767 15.819c14.039-1.2264 27.368 0.74266 39.893 6.3262l-3e-3 0.40411c0.14882-0.0686 0.29796-0.13708 0.447-0.20464 0.14905 0.0676 0.2982 0.13605 0.44701 0.20464l-3e-3 -0.40411c13.936-6.2121 28.865-7.9502 44.661-5.7914l-0.34364-55.829c-7.8773-0.83414-22.062 1.2049-40.023 6.9701-1.5733-0.50499-3.1176-0.981-4.6312-1.4294z" opacity=".90968" style="paint-order:fill markers stroke"/></g><path d="m86.131 218.7 0.15761-25.551c-1.4472 3.6742-2.1709 7.9339-2.1709 12.78 0 4.6307 0.59644 8.68 1.789 12.147 0.07289 0.21046 0.14764 0.41857 0.22428 0.62477z" opacity=".90968" stroke-width=".21409" style="paint-order:fill markers stroke"/><path d="m109.07 178.5c-2.7501 0-5.2923 0.30944-7.6269 0.92811 6.7593 0.7128 15.258 2.4403 25.037 5.3372v-1.4919c-3.2584-1.7336-6.304-2.9566-9.1364-3.669-2.8111-0.73617-5.5693-1.1043-8.2739-1.1043z" opacity=".90968" stroke-width=".21409" style="paint-order:fill markers stroke"/></g></g></g></g></g></svg>
