<?xml version="1.0" encoding="UTF-8" standalone="no"?>
<!-- Created with Inkscape (http://www.inkscape.org/) -->

<svg
   xmlns:dc="http://purl.org/dc/elements/1.1/"
   xmlns:cc="http://creativecommons.org/ns#"
   xmlns:rdf="http://www.w3.org/1999/02/22-rdf-syntax-ns#"
   xmlns:svg="http://www.w3.org/2000/svg"
   xmlns="http://www.w3.org/2000/svg"
   xmlns:sodipodi="http://sodipodi.sourceforge.net/DTD/sodipodi-0.dtd"
   xmlns:inkscape="http://www.inkscape.org/namespaces/inkscape"
   width="131.80875mm"
   height="140.24164mm"
   viewBox="0 0 131.80875 140.24164"
   version="1.1"
   id="svg8"
   sodipodi:docname="ru-trans.svg"
   inkscape:version="0.92.4 (5da689c313, 2019-01-14)"
   xml:space="preserve"><defs
   id="defs2" />
    <sodipodi:namedview
   id="base"
   pagecolor="#ffffff"
   bordercolor="#666666"
   borderopacity="1.0"
   inkscape:pageopacity="0.0"
   inkscape:pageshadow="2"
   inkscape:zoom="0.7"
   inkscape:cx="-494.36471"
   inkscape:cy="212.85714"
   inkscape:document-units="mm"
   inkscape:current-layer="layer1"
   showgrid="false"
   inkscape:window-width="1920"
   inkscape:window-height="1017"
   inkscape:window-x="-8"
   inkscape:window-y="-8"
   inkscape:window-maximized="1"
   inkscape:snap-text-baseline="true"
   inkscape:showpageshadow="2"
   inkscape:pagecheckerboard="0"
   inkscape:deskcolor="#d1d1d1" />
    <metadata
   id="metadata5"><rdf:RDF><cc:Work
       rdf:about=""><dc:format>image/svg+xml</dc:format><dc:type
         rdf:resource="http://purl.org/dc/dcmitype/StillImage" /><dc:title /></cc:Work></rdf:RDF></metadata>
    <g
   inkscape:label="Layer 1"
   inkscape:groupmode="layer"
   id="layer1"
   transform="translate(-41.445089,-73.781815)"><path
   id="path4518"
   style="color:#000000;font-style:normal;font-variant:normal;font-weight:normal;font-stretch:normal;font-size:medium;line-height:normal;font-family:sans-serif;font-variant-ligatures:normal;font-variant-position:normal;font-variant-caps:normal;font-variant-numeric:normal;font-variant-alternates:normal;font-feature-settings:normal;text-indent:0;text-align:start;text-decoration:none;text-decoration-line:none;text-decoration-style:solid;text-decoration-color:#000000;letter-spacing:normal;word-spacing:normal;text-transform:none;writing-mode:lr-tb;direction:ltr;text-orientation:mixed;dominant-baseline:auto;baseline-shift:baseline;text-anchor:start;white-space:normal;shape-padding:0;clip-rule:nonzero;display:inline;overflow:visible;visibility:visible;opacity:1;isolation:auto;mix-blend-mode:normal;color-interpolation:sRGB;color-interpolation-filters:linearRGB;solid-color:#000000;solid-opacity:1;vector-effect:none;fill:#ff9f00;fill-opacity:1;fill-rule:evenodd;stroke:none;stroke-width:15.73429966;stroke-linecap:butt;stroke-linejoin:miter;stroke-miterlimit:4;stroke-dasharray:none;stroke-dashoffset:0;stroke-opacity:1;color-rendering:auto;image-rendering:auto;shape-rendering:auto;text-rendering:auto;enable-background:accumulate"
   d="m 160.59297,82.689347 c 0,0 -4.77722,5.828603 -10.47217,12.805388 C 117.9415,73.905106 72.62369,80.259374 48.8805,109.82214 l -4.4e-4,5.4e-4 13.15481,9.00394 4.4e-4,-5.3e-4 c 18.45088,-22.97329 53.18936,-27.900255 78.24575,-11.244 -5.24998,6.47369 -9.43677,11.69239 -9.35276,11.76966 l 37.11277,-2.99087 z"
   inkscape:transform-center-x="-1.7394904"
   inkscape:transform-center-y="-48.789401"
   inkscape:connector-curvature="0" />
        <path
   id="path388"
   style="color:#000000;font-style:normal;font-variant:normal;font-weight:normal;font-stretch:normal;font-size:medium;line-height:normal;font-family:sans-serif;font-variant-ligatures:normal;font-variant-position:normal;font-variant-caps:normal;font-variant-numeric:normal;font-variant-alternates:normal;font-feature-settings:normal;text-indent:0;text-align:start;text-decoration:none;text-decoration-line:none;text-decoration-style:solid;text-decoration-color:#000000;letter-spacing:normal;word-spacing:normal;text-transform:none;writing-mode:lr-tb;direction:ltr;text-orientation:mixed;dominant-baseline:auto;baseline-shift:baseline;text-anchor:start;white-space:normal;shape-padding:0;clip-rule:nonzero;display:inline;overflow:visible;visibility:visible;opacity:1;isolation:auto;mix-blend-mode:normal;color-interpolation:sRGB;color-interpolation-filters:linearRGB;solid-color:#000000;solid-opacity:1;vector-effect:none;fill:#ff9f00;fill-opacity:1;fill-rule:evenodd;stroke:none;stroke-width:15.73429966;stroke-linecap:butt;stroke-linejoin:miter;stroke-miterlimit:4;stroke-dasharray:none;stroke-dashoffset:0;stroke-opacity:1;color-rendering:auto;image-rendering:auto;shape-rendering:auto;text-rendering:auto;enable-background:accumulate"
   d="m 56.32816,212.22948 c 0,0 4.77722,-5.8286 10.47217,-12.80538 32.1793,21.58963 77.49711,15.23536 101.2403,-14.32741 l 4.4e-4,-5.4e-4 -13.15481,-9.00394 -4.4e-4,5.3e-4 c -18.45088,22.97329 -53.18936,27.90026 -78.24575,11.244 5.24998,-6.47369 9.43677,-11.69239 9.35276,-11.76966 l -37.11277,2.99087 z"
   inkscape:transform-center-x="1.7394902"
   inkscape:transform-center-y="48.789402"
   inkscape:connector-curvature="0" />
        
        
        <g
   aria-label="RU"
   style="font-size:10.58333302px;line-height:1.25;font-family:sans-serif;letter-spacing:0px;word-spacing:0px;stroke-width:0.26458332"
   id="text5083"
   transform="matrix(5.0924146,0,0,5.0924146,-278.0066,-559.46316)"><path
     d="m 75.68146,142.58595 h -1.328084 l -2.573487,-3.05924 h -1.441772 v 3.05924 h -1.023193 v -7.69462 h 2.154907 q 0.697632,0 1.162719,0.093 0.465088,0.0879 0.837159,0.32039 0.418579,0.26355 0.651123,0.66663 0.237711,0.39791 0.237711,1.01286 0,0.83199 -0.418579,1.39526 -0.418579,0.55811 -1.152384,0.84233 z m -2.392619,-5.52938 q 0,-0.33072 -0.118856,-0.58394 -0.113688,-0.25838 -0.382405,-0.43408 -0.222209,-0.14986 -0.5271,-0.20671 -0.304891,-0.062 -0.718302,-0.062 h -1.204061 v 2.90422 h 1.033529 q 0.485758,0 0.847493,-0.0827 0.361735,-0.0879 0.61495,-0.32039 0.232543,-0.21704 0.341064,-0.49609 0.113688,-0.28422 0.113688,-0.71831 z"
     style="stroke-width:0.26458332"
     id="path5085"
     inkscape:connector-curvature="0" /><path
     d="m 82.466575,139.4957 q 0,0.83716 -0.186035,1.46245 -0.180868,0.62011 -0.599447,1.03352 -0.397908,0.39274 -0.930175,0.57361 -0.532268,0.18087 -1.240235,0.18087 -0.72347,0 -1.260905,-0.1912 -0.537435,-0.19121 -0.904337,-0.56328 -0.418579,-0.42374 -0.604614,-1.02319 -0.180868,-0.59945 -0.180868,-1.47278 v -4.60437 h 1.023193 v 4.65605 q 0,0.62528 0.08268,0.98702 0.08785,0.36173 0.289388,0.65629 0.227376,0.3359 0.614949,0.50643 0.392741,0.17053 0.940511,0.17053 0.552938,0 0.940511,-0.16536 0.387574,-0.17054 0.620117,-0.5116 0.201539,-0.29456 0.284221,-0.67179 0.08785,-0.38241 0.08785,-0.94568 v -4.68189 h 1.023193 z"
     style="stroke-width:0.26458332"
     id="path5087"
     inkscape:connector-curvature="0" /></g></g></svg>