<?xml version="1.0" encoding="UTF-8" standalone="no"?>
<!-- Created with Inkscape (http://www.inkscape.org/) -->

<svg
        xmlns:dc="http://purl.org/dc/elements/1.1/"
        xmlns:cc="http://creativecommons.org/ns#"
        xmlns:rdf="http://www.w3.org/1999/02/22-rdf-syntax-ns#"
        xmlns="http://www.w3.org/2000/svg"
        xmlns:sodipodi="http://sodipodi.sourceforge.net/DTD/sodipodi-0.dtd"
        xmlns:inkscape="http://www.inkscape.org/namespaces/inkscape"
        width="131.80875mm"
        height="140.24164mm"
        viewBox="0 0 131.80875 140.24164"
        version="1.1"
        id="svg8"
        sodipodi:docname="ru-trans.svg"
        inkscape:version="0.92.4 (5da689c313, 2019-01-14)"
        xml:space="preserve"><defs
     id="defs2" />
    <sodipodi:namedview
            id="base"
            pagecolor="#ffffff"
            bordercolor="#666666"
            borderopacity="1.0"
            inkscape:pageopacity="0.0"
            inkscape:pageshadow="2"
            inkscape:zoom="0.7"
            inkscape:cx="394.28571"
            inkscape:cy="212.85714"
            inkscape:document-units="mm"
            inkscape:current-layer="layer1"
            showgrid="false"
            inkscape:window-width="1920"
            inkscape:window-height="1017"
            inkscape:window-x="-8"
            inkscape:window-y="-8"
            inkscape:window-maximized="1"
            inkscape:snap-text-baseline="true"
            inkscape:showpageshadow="2"
            inkscape:pagecheckerboard="0"
            inkscape:deskcolor="#d1d1d1"/>
    <metadata
            id="metadata5"><rdf:RDF><cc:Work
         rdf:about=""><dc:format>image/svg+xml</dc:format><dc:type
            rdf:resource="http://purl.org/dc/dcmitype/StillImage"/><dc:title></dc:title></cc:Work></rdf:RDF></metadata>
    <g
            inkscape:label="Layer 1"
            inkscape:groupmode="layer"
            id="layer1"
            transform="translate(-41.445089,-73.781815)"><path
       id="path4518"
       style="color:#000000;font-style:normal;font-variant:normal;font-weight:normal;font-stretch:normal;font-size:medium;line-height:normal;font-family:sans-serif;font-variant-ligatures:normal;font-variant-position:normal;font-variant-caps:normal;font-variant-numeric:normal;font-variant-alternates:normal;font-feature-settings:normal;text-indent:0;text-align:start;text-decoration:none;text-decoration-line:none;text-decoration-style:solid;text-decoration-color:#000000;letter-spacing:normal;word-spacing:normal;text-transform:none;writing-mode:lr-tb;direction:ltr;text-orientation:mixed;dominant-baseline:auto;baseline-shift:baseline;text-anchor:start;white-space:normal;shape-padding:0;clip-rule:nonzero;display:inline;overflow:visible;visibility:visible;opacity:0.486;isolation:auto;mix-blend-mode:normal;color-interpolation:sRGB;color-interpolation-filters:linearRGB;solid-color:#000000;solid-opacity:1;vector-effect:none;fill:#ff9f00;fill-opacity:1;fill-rule:evenodd;stroke:none;stroke-width:15.7343;stroke-linecap:butt;stroke-linejoin:miter;stroke-miterlimit:4;stroke-dasharray:none;stroke-dashoffset:0;stroke-opacity:1;color-rendering:auto;image-rendering:auto;shape-rendering:auto;text-rendering:auto;enable-background:accumulate"
       d="m 162.11099,82.689355 c 0,0 -4.77722,5.828603 -10.47217,12.805388 C 119.45952,73.905114 74.14171,80.259382 50.39852,109.82215 l -4.4e-4,5.4e-4 13.15481,9.00394 4.4e-4,-5.3e-4 c 18.45088,-22.973292 53.18936,-27.900257 78.24575,-11.244 -5.24998,6.47369 -9.43677,11.69239 -9.35276,11.76966 l 37.11277,-2.99087 z"
       inkscape:transform-center-x="-1.7394904"
       inkscape:transform-center-y="-48.789401" />
        <path
                id="path388"
                style="color:#000000;font-style:normal;font-variant:normal;font-weight:normal;font-stretch:normal;font-size:medium;line-height:normal;font-family:sans-serif;font-variant-ligatures:normal;font-variant-position:normal;font-variant-caps:normal;font-variant-numeric:normal;font-variant-alternates:normal;font-feature-settings:normal;text-indent:0;text-align:start;text-decoration:none;text-decoration-line:none;text-decoration-style:solid;text-decoration-color:#000000;letter-spacing:normal;word-spacing:normal;text-transform:none;writing-mode:lr-tb;direction:ltr;text-orientation:mixed;dominant-baseline:auto;baseline-shift:baseline;text-anchor:start;white-space:normal;shape-padding:0;clip-rule:nonzero;display:inline;overflow:visible;visibility:visible;opacity:0.486;isolation:auto;mix-blend-mode:normal;color-interpolation:sRGB;color-interpolation-filters:linearRGB;solid-color:#000000;solid-opacity:1;vector-effect:none;fill:#ff9f00;fill-opacity:1;fill-rule:evenodd;stroke:none;stroke-width:15.7343;stroke-linecap:butt;stroke-linejoin:miter;stroke-miterlimit:4;stroke-dasharray:none;stroke-dashoffset:0;stroke-opacity:1;color-rendering:auto;image-rendering:auto;shape-rendering:auto;text-rendering:auto;enable-background:accumulate"
                d="m 54.81014,212.22948 c 0,0 4.77722,-5.8286 10.47217,-12.80538 32.1793,21.58963 77.49711,15.23536 101.2403,-14.32741 l 4.4e-4,-5.4e-4 -13.15481,-9.00394 -4.4e-4,5.3e-4 c -18.45088,22.97329 -53.18936,27.90026 -78.24575,11.244 5.24998,-6.47369 9.43677,-11.69239 9.35276,-11.76966 l -37.11277,2.99087 z"
                inkscape:transform-center-x="1.7394902"
                inkscape:transform-center-y="48.789402"/>
        <path
                style="fill:#ff9e00;fill-opacity:0.486275;stroke-width:1"
                d="m 346.28696,170.22914 c 0.47634,-0.77074 8.2777,-10.6011 17.33634,-21.84524 l 16.47026,-20.44389 -3.26106,-2.53858 C 370.0189,120.09738 342.47946,106.93804 328.32197,102.22134 306.24723,94.866939 287.65631,91.456693 264.28571,90.47478 199.2748,87.743354 140.69056,110.34685 96.062643,155.38011 L 82.839571,168.72329 59.276929,152.72268 c -12.959454,-8.80034 -23.562643,-16.5157 -23.562643,-17.14525 0,-2.04861 24.440133,-26.88873 35.575555,-36.157794 37.178379,-30.94707 83.541869,-51.86605 135.223619,-61.012239 26.57897,-4.703714 70.39411,-4.703714 96.97308,0 37.97252,6.720049 71.71423,19.138657 101.87557,37.495226 5.30085,3.226156 10.05105,6.10602 10.55602,6.399698 0.50498,0.293679 9.50498,-9.997302 20,-22.868848 14.64191,-17.957459 19.32674,-22.857917 20.1343,-21.060997 1.91976,4.271766 27.00453,120.475334 26.18403,121.295824 -0.44293,0.44294 -27.00235,2.90549 -59.0209,5.47235 -32.01856,2.56685 -62.62086,5.07714 -68.00512,5.57842 -6.26465,0.58325 -9.47771,0.40684 -8.92348,-0.48993 z"
                id="path4130"
                transform="matrix(0.26458333,0,0,0.26458333,41.445089,73.781815)"/>
        <path
                style="fill:#ff9e00;fill-opacity:0.486275;stroke-width:1"
                d="m 224.28571,521.27855 c -41.13125,-3.59349 -86.86027,-18.53349 -122.63973,-40.0673 -10.216011,-6.14848 -12.369637,-6.9688 -13.671787,-5.20755 -0.850092,1.1498 -9.559877,11.90492 -19.355079,23.90027 L 50.809657,521.7137 37.121181,459.78542 c -11.794516,-53.35978 -13.38239,-62.06118 -11.476257,-62.88885 2.695995,-1.17064 133.083856,-11.50112 133.970636,-10.61434 0.34624,0.34624 -6.89178,10.00947 -16.0845,21.47383 -13.10243,16.34024 -16.36777,21.26153 -15.11156,22.77516 2.67519,3.22341 34.36109,18.92398 47.29479,23.43487 27.70478,9.66261 57.41442,14.07147 85.71428,12.71985 57.29732,-2.73654 107.37464,-24.18696 146.33364,-62.6814 8.59066,-8.48821 15.86655,-15.43311 16.16865,-15.43311 0.3021,0 11.07971,7.17528 23.95024,15.94507 19.4795,13.27305 23.1849,16.34881 22.11159,18.35431 -0.70918,1.32509 -7.61358,8.80457 -15.34312,16.62109 -46.54158,47.06519 -108.27794,75.5343 -177.50671,81.85542 -18.4821,1.68756 -32.96977,1.66871 -52.85715,-0.0688 z"
                id="path4132"
                transform="matrix(0.26458333,0,0,0.26458333,41.445089,73.781815)"/>
        <g
                aria-label="RU"
                style="font-size:10.58333302px;line-height:1.25;font-family:sans-serif;letter-spacing:0px;word-spacing:0px;stroke-width:0.26458332"
                id="text4548"
                transform="matrix(4.4563019,0,0,4.548565,-280.0001,-469.79963)"><path
         d="m 81.822098,135.74177 v 1.757 q 0,0.37207 0.02584,0.5426 0.03101,0.16537 0.08785,0.25322 0.05684,0.0827 0.155029,0.13952 0.09818,0.0517 0.335897,0.11886 v 0.25321 h -2.180745 v -0.25321 q 0.320393,-0.0827 0.428914,-0.18087 0.10852,-0.10335 0.139526,-0.28939 0.03617,-0.18603 0.03617,-0.56844 v -4.47001 q 0,-0.35657 -0.02584,-0.51676 -0.02584,-0.16537 -0.08785,-0.25322 -0.05684,-0.093 -0.15503,-0.14469 -0.09819,-0.0568 -0.335896,-0.12403 v -0.25321 h 2.557983 q 1.209228,0 1.808675,0.43925 0.599447,0.43925 0.599447,1.36426 0,0.70796 -0.392741,1.20406 -0.387574,0.49609 -1.167888,0.77514 v 0.0414 q 0.315227,0.12919 0.537435,0.37207 0.227377,0.23771 0.501262,0.74414 l 0.465087,0.84749 q 0.201539,0.37207 0.346233,0.56844 0.144694,0.19637 0.294555,0.29972 0.149862,0.10336 0.397909,0.1447 v 0.25321 h -1.431437 q -0.196371,-0.27388 -0.372071,-0.58911 -0.1757,-0.31522 -0.346232,-0.64079 l -0.454752,-0.86299 q -0.206706,-0.39274 -0.341065,-0.57878 -0.129191,-0.18603 -0.242879,-0.25838 -0.108521,-0.0775 -0.237712,-0.10335 -0.124023,-0.031 -0.377238,-0.031 z m 0,-3.514 v 3.06958 h 0.583943 q 0.449585,0 0.728638,-0.062 0.279053,-0.0672 0.516764,-0.24805 0.237712,-0.18086 0.377238,-0.50126 0.144694,-0.32556 0.144694,-0.79581 0,-0.49093 -0.170532,-0.81649 -0.165364,-0.32556 -0.506429,-0.4961 -0.341064,-0.17053 -0.91984,-0.17053 -0.465088,0 -0.754476,0.0207 z"
         style="font-style:normal;font-variant:normal;font-weight:normal;font-stretch:normal;font-family:'Cambria Math';-inkscape-font-specification:'Cambria Math';stroke-width:0.26458332"
         id="path4550"
         inkscape:connector-curvature="0" />
            <path
                    d="m 91.780146,136.36706 q 0,0.56327 -0.103353,0.97151 -0.09819,0.38758 -0.294556,0.6873 -0.180867,0.26872 -0.449585,0.45992 -0.268717,0.18603 -0.651123,0.29455 -0.382405,0.10853 -0.899169,0.10853 -0.625285,0 -1.07487,-0.13953 -0.444418,-0.13953 -0.738973,-0.45475 -0.289388,-0.3204 -0.418579,-0.74931 -0.129191,-0.43408 -0.129191,-1.10071 v -3.40031 q 0,-0.40308 -0.02584,-0.5426 -0.02584,-0.1447 -0.07751,-0.22738 -0.04651,-0.0827 -0.139527,-0.13952 -0.09302,-0.062 -0.346232,-0.1292 v -0.25321 h 2.17041 v 0.25321 q -0.289388,0.0724 -0.403076,0.16537 -0.113688,0.0879 -0.155029,0.26872 -0.04134,0.18086 -0.04134,0.60461 v 3.65869 q 0,0.50126 0.103353,0.84233 0.10852,0.34106 0.299723,0.53227 0.191203,0.18603 0.454753,0.27388 0.263549,0.0827 0.65629,0.0827 0.361735,0 0.63562,-0.12402 0.273885,-0.12919 0.454753,-0.38757 0.186035,-0.25839 0.253214,-0.63562 0.06718,-0.37724 0.06718,-1.01286 v -3.22978 q 0,-0.44958 -0.04651,-0.61495 -0.04134,-0.16536 -0.144694,-0.25321 -0.09819,-0.0879 -0.413411,-0.17054 v -0.25321 h 2.061889 v 0.25321 q -0.299723,0.0775 -0.413411,0.17054 -0.108521,0.093 -0.149862,0.26871 -0.04134,0.1757 -0.04134,0.59945 z"
                    style="font-style:normal;font-variant:normal;font-weight:normal;font-stretch:normal;font-family:'Cambria Math';-inkscape-font-specification:'Cambria Math';stroke-width:0.26458332"
                    id="path4552"
                    inkscape:connector-curvature="0"/></g></g></svg>