<?xml version="1.0" encoding="UTF-8" standalone="no"?>
<!-- Created with Inkscape (http://www.inkscape.org/) -->

<svg
   xmlns:dc="http://purl.org/dc/elements/1.1/"
   xmlns:cc="http://creativecommons.org/ns#"
   xmlns:rdf="http://www.w3.org/1999/02/22-rdf-syntax-ns#"
   xmlns:svg="http://www.w3.org/2000/svg"
   xmlns="http://www.w3.org/2000/svg"
   xmlns:sodipodi="http://sodipodi.sourceforge.net/DTD/sodipodi-0.dtd"
   xmlns:inkscape="http://www.inkscape.org/namespaces/inkscape"
   width="131.80875mm"
   height="140.24164mm"
   viewBox="0 0 131.80875 140.24164"
   version="1.1"
   id="svg8"
   sodipodi:docname="sc.svg"
   inkscape:version="0.92.4 (5da689c313, 2019-01-14)">
  <defs
     id="defs2" />
  <sodipodi:namedview
     id="base"
     pagecolor="#ffffff"
     bordercolor="#666666"
     borderopacity="1.0"
     inkscape:pageopacity="0.0"
     inkscape:pageshadow="2"
     inkscape:zoom="0.49497475"
     inkscape:cx="206.90416"
     inkscape:cy="171.8118"
     inkscape:document-units="mm"
     inkscape:current-layer="layer1"
     showgrid="false"
     inkscape:window-width="1920"
     inkscape:window-height="1017"
     inkscape:window-x="-8"
     inkscape:window-y="-8"
     inkscape:window-maximized="1" />
  <metadata
     id="metadata5">
    <rdf:RDF>
      <cc:Work
         rdf:about="">
        <dc:format>image/svg+xml</dc:format>
        <dc:type
           rdf:resource="http://purl.org/dc/dcmitype/StillImage" />
        <dc:title />
      </cc:Work>
    </rdf:RDF>
  </metadata>
  <g
     inkscape:label="Layer 1"
     inkscape:groupmode="layer"
     id="layer1"
     transform="translate(-41.445089,-73.781815)">
    <path
       style="fill:#808000;stroke:#000000;stroke-width:0.26458332px;stroke-linecap:butt;stroke-linejoin:miter;stroke-opacity:1"
       d="m 41.577381,100.45238 c 0,0 14.363094,18.14286 15.119046,18.89881 0.755954,0.75595 4.535715,-25.702381 46.869043,-27.970238 42.33334,-2.267858 52.91667,23.434528 52.91667,23.434528 l -6.04762,6.04761 21.16667,-0.75595 -2.26786,-18.14286 -3.02381,5.29167 c 0,0 -2.26786,-21.166665 -41.57738,-30.994046 C 85.422617,66.434522 59.720238,90.625 59.720238,90.625 c 0,0 -18.142857,21.16667 -18.142857,9.82738 z"
       id="path4550"
       inkscape:connector-curvature="0" />
    <path
       style="fill:#808000;stroke:#000000;stroke-width:0.26458332px;stroke-linecap:butt;stroke-linejoin:miter;stroke-opacity:1"
       d="m 173.12155,187.35289 c 0,0 -14.3631,-18.14286 -15.11905,-18.89881 -0.75595,-0.75595 -4.53571,25.70238 -46.86904,27.97024 -42.33334,2.26786 -52.91667,-23.43453 -52.91667,-23.43453 l 6.04762,-6.04761 -21.16667,0.75595 2.26786,18.14286 3.02381,-5.29167 c 0,0 2.26786,21.16667 41.57738,30.99405 39.30952,9.82738 65.0119,-14.3631 65.0119,-14.3631 0,0 18.14286,-21.16667 18.14286,-9.82738 z"
       id="path4550-3"
       inkscape:connector-curvature="0" />
    <text
       xml:space="preserve"
       style="font-size:64.14785004px;line-height:1.25;font-family:sans-serif;letter-spacing:0px;word-spacing:0px;stroke-width:1.60369623"
       x="74.876099"
       y="169.53954"
       id="text4542"
       transform="scale(1.0121922,0.98795467)"><tspan
         sodipodi:role="line"
         id="tspan4540"
         x="74.876099"
         y="169.53954"
         style="fill:#ff0000;stroke-width:1.60369623">简</tspan></text>
  </g>
</svg>
