<?xml version="1.0" encoding="UTF-8" standalone="no"?>
<!-- Created with Inkscape (http://www.inkscape.org/) -->

<svg
   xmlns:dc="http://purl.org/dc/elements/1.1/"
   xmlns:cc="http://creativecommons.org/ns#"
   xmlns:rdf="http://www.w3.org/1999/02/22-rdf-syntax-ns#"
   xmlns:svg="http://www.w3.org/2000/svg"
   xmlns="http://www.w3.org/2000/svg"
   xmlns:sodipodi="http://sodipodi.sourceforge.net/DTD/sodipodi-0.dtd"
   xmlns:inkscape="http://www.inkscape.org/namespaces/inkscape"
   width="131.80875mm"
   height="140.24164mm"
   viewBox="0 0 131.80875 140.24164"
   version="1.1"
   id="svg8"
   sodipodi:docname="sc.svg"
   inkscape:version="0.92.4 (5da689c313, 2019-01-14)">
  <defs
     id="defs2" />
  <sodipodi:namedview
     id="base"
     pagecolor="#ffffff"
     bordercolor="#666666"
     borderopacity="1.0"
     inkscape:pageopacity="0.0"
     inkscape:pageshadow="2"
     inkscape:zoom="0.49497475"
     inkscape:cx="210.11173"
     inkscape:cy="171.72593"
     inkscape:document-units="mm"
     inkscape:current-layer="layer1"
     showgrid="false"
     inkscape:window-width="1920"
     inkscape:window-height="1017"
     inkscape:window-x="-8"
     inkscape:window-y="-8"
     inkscape:window-maximized="1"
     inkscape:showpageshadow="2"
     inkscape:pagecheckerboard="0"
     inkscape:deskcolor="#d1d1d1" />
  <metadata
     id="metadata5">
    <rdf:RDF>
      <cc:Work
         rdf:about="">
        <dc:format>image/svg+xml</dc:format>
        <dc:type
           rdf:resource="http://purl.org/dc/dcmitype/StillImage" />
        <dc:title />
      </cc:Work>
    </rdf:RDF>
  </metadata>
  <g
     inkscape:label="Layer 1"
     inkscape:groupmode="layer"
     id="layer1"
     transform="translate(-41.445089,-73.781815)">
    <g
       aria-label="简"
       transform="scale(1.0121922,0.98795467)"
       id="text4542"
       style="font-size:64.1479px;line-height:1.25;letter-spacing:0px;word-spacing:0px;stroke-width:1.6037">
      <path
         d="m 81.739924,140.41639 v 34.12668 h 4.682797 v -34.12668 z m 2.886656,-5.45257 c 2.694212,2.37347 5.773311,5.83745 7.184565,8.08263 l 3.720579,-2.63006 c -1.475402,-2.24518 -4.61865,-5.51672 -7.377009,-7.89019 z m 10.776848,9.75048 v 22.19517 H 119.00986 V 144.7143 Z m -7.248713,-29.25145 c -2.116881,6.09405 -5.83746,11.93151 -10.135369,15.71624 1.090514,0.57733 3.014951,1.92444 3.97717,2.69421 2.309324,-2.30932 4.618649,-5.26013 6.607234,-8.53167 h 3.848874 c 1.475402,2.63006 2.950804,5.77331 3.592283,7.89019 l 4.233763,-1.73199 c -0.577333,-1.66785 -1.731995,-3.97717 -2.950805,-6.1582 h 9.173155 v -4.04132 H 90.784779 c 0.705627,-1.53955 1.347106,-3.0791 1.924437,-4.68279 z m 24.953535,0.1283 c -1.6037,5.51672 -4.5545,10.77685 -8.21093,14.30498 1.21881,0.57733 3.14324,1.92444 3.97717,2.69421 1.79614,-1.92443 3.59228,-4.4262 5.13183,-7.18456 h 4.93939 c 1.92444,2.69421 3.78472,5.96575 4.5545,8.14678 l 4.16961,-1.86029 c -0.70562,-1.73199 -2.11688,-4.04132 -3.59228,-6.28649 h 10.45611 v -4.04132 H 115.9949 c 0.64148,-1.53955 1.21881,-3.14325 1.732,-4.74694 z m 1.53955,41.82443 v 5.77331 H 99.573041 v -5.77331 z m -15.074759,-8.9807 H 114.6478 v 5.38842 H 99.573041 Z m -2.245176,-13.40692 v 4.36206 h 30.149515 v 29.44389 c 0,0.96222 -0.25659,1.21881 -1.28296,1.28296 -0.96222,0.0641 -4.36206,0.0641 -7.95434,-0.0642 0.64148,1.15466 1.28296,3.01495 1.53955,4.23376 4.81109,0 7.95434,-0.0642 9.94293,-0.70563 1.92443,-0.76977 2.50176,-1.98858 2.50176,-4.68279 v -33.8701 z"
         style="fill:#ff0000"
         id="path7316" />
    </g>
    <path
       style="fill:#ff9e00;fill-opacity:1;stroke-width:0.264583"
       d="m 130.67083,115.82328 c 0.12603,-0.20392 2.19014,-2.80487 4.5869,-5.77988 l 4.35776,-5.40912 -0.86282,-0.67166 c -1.80277,-1.40336 -9.08924,-4.885106 -12.83508,-6.133066 -5.84061,-1.945852 -10.75946,-2.848147 -16.94293,-3.107944 -17.200798,-0.72269 -32.701208,5.257818 -44.509018,17.17287 l -3.4986,3.53038 -6.23428,-4.23349 c -3.42886,-2.32843 -6.23429,-4.36978 -6.23429,-4.53635 0,-0.54203 6.46646,-7.114311 9.4127,-9.566751 9.83678,-8.188078 22.10379,-13.722892 35.77792,-16.142821 7.032348,-1.244524 18.625108,-1.244524 25.657458,0 10.0469,1.778013 18.97439,5.06377 26.95458,9.920612 1.40251,0.853587 2.65934,1.615551 2.79294,1.693253 0.13361,0.0777 2.51486,-2.645119 5.29167,-6.050716 3.87401,-4.751244 5.11353,-6.047824 5.3272,-5.572389 0.50794,1.130239 7.14495,31.875762 6.92786,32.092852 -0.11719,0.1172 -7.14437,0.76875 -15.61595,1.4479 -8.47158,0.67914 -16.56843,1.34332 -17.99302,1.47595 -1.65752,0.15432 -2.50764,0.10765 -2.361,-0.12963 z"
       id="path4130" />
    <path
       style="fill:#ff9e00;fill-opacity:1;stroke-width:0.264583"
       d="m 98.391332,208.70511 c -10.88264,-0.95078 -22.98178,-4.90366 -32.44843,-10.60114 -2.70298,-1.62679 -3.2728,-1.84383 -3.61733,-1.37783 -0.22492,0.30421 -2.52938,3.14984 -5.12103,6.32361 l -4.71208,5.77049 -3.62174,-16.38519 c -3.12064,-14.11811 -3.54076,-16.42035 -3.03643,-16.63934 0.71331,-0.30973 35.21177,-3.04301 35.4464,-2.80838 0.0916,0.0916 -1.82345,2.64834 -4.25569,5.68162 -3.46669,4.32335 -4.33064,5.62544 -3.99827,6.02593 0.70781,0.85286 9.09137,5.00697 12.51341,6.20047 7.33022,2.55657 15.190898,3.72308 22.678568,3.36546 15.15992,-0.72404 28.40954,-6.39946 38.71744,-16.58445 2.27295,-2.24584 4.19803,-4.08335 4.27796,-4.08335 0.0799,0 2.93151,1.89846 6.33683,4.2188 5.15395,3.51183 6.13434,4.32563 5.85036,4.85625 -0.18764,0.3506 -2.01443,2.32954 -4.05953,4.39766 -12.31413,12.45267 -28.64854,19.98512 -46.96532,21.65758 -4.89005,0.4465 -8.72325,0.44151 -13.985118,-0.0182 z"
       id="path4132" />
  </g>
</svg>
