<?xml version="1.0" encoding="UTF-8" standalone="no"?>
<svg
   width="24"
   height="24"
   viewBox="0 0 24 24"
   fill="none"
   version="1.1"
   id="svg6"
   sodipodi:docname="scan.svg"
   inkscape:version="1.4.2 (f4327f4, 2025-05-13)"
   xmlns:inkscape="http://www.inkscape.org/namespaces/inkscape"
   xmlns:sodipodi="http://sodipodi.sourceforge.net/DTD/sodipodi-0.dtd"
   xmlns:xlink="http://www.w3.org/1999/xlink"
   xmlns="http://www.w3.org/2000/svg"
   xmlns:svg="http://www.w3.org/2000/svg">
  <defs
     id="defs6">
    <linearGradient
       id="linearGradient16"
       inkscape:collect="always">
      <stop
         style="stop-color:#8c8c8c;stop-opacity:0.88788426;"
         offset="0.79103094"
         id="stop17" />
      <stop
         style="stop-color:#333333;stop-opacity:0;"
         offset="0.99715102"
         id="stop18" />
    </linearGradient>
    <linearGradient
       inkscape:collect="always"
       xlink:href="#linearGradient16"
       id="linearGradient1"
       x1="2.976032"
       y1="11.590586"
       x2="21.80686"
       y2="11.590586"
       gradientUnits="userSpaceOnUse" />
  </defs>
  <sodipodi:namedview
     id="namedview6"
     pagecolor="#ffffff"
     bordercolor="#000000"
     borderopacity="0.25"
     inkscape:showpageshadow="2"
     inkscape:pageopacity="0.0"
     inkscape:pagecheckerboard="0"
     inkscape:deskcolor="#d1d1d1"
     inkscape:zoom="33.958333"
     inkscape:cx="14.046626"
     inkscape:cy="12"
     inkscape:window-width="1920"
     inkscape:window-height="1017"
     inkscape:window-x="-8"
     inkscape:window-y="-8"
     inkscape:window-maximized="1"
     inkscape:current-layer="svg6" />
  <path
     d="M16 4H8C6.9 4 6 4.9 6 6V20C6 21.1 6.9 22 8 22H16C17.1 22 18 21.1 18 20V6C18 4.9 17.1 4 16 4Z"
     stroke="#333333"
     stroke-width="2"
     stroke-linecap="round"
     stroke-linejoin="round"
     id="path1"
     style="stroke-width:0.7;stroke-dasharray:none" />
  <path
     d="m 13.705522,2.827302 c 0,-0.4709627 -0.381781,-0.8527607 -0.852761,-0.8527607 H 11.14724 c -0.47098,0 -0.852761,0.381798 -0.852761,0.8527607 v 3.411043 h 3.411043 z"
     stroke="#333333"
     stroke-width="2"
     stroke-linecap="round"
     stroke-linejoin="round"
     id="path2"
     style="fill:#ffffff;fill-opacity:1;stroke-width:1.02331;stroke-dasharray:none" />
  <path
     d="m 9,16.398692 h 6"
     stroke="#333333"
     stroke-width="1.5"
     stroke-linecap="round"
     stroke-linejoin="round"
     id="path4"
     style="fill:#d45500" />
  <path
     style="fill:#ff6600;stroke:none;stroke-width:0.0971779;stroke-linecap:square;paint-order:markers fill stroke"
     d="M 8.8058743,9.3194666 C 8.4850493,9.2207256 8.2779698,8.9427046 8.27665,8.6089406 8.275849,8.4063934 8.3816613,8.1779173 8.5346793,8.0517864 c 0.225176,-0.1856088 0.06605,-0.1774625 3.4664777,-0.1774625 2.70011,0 3.113152,0.00576 3.228305,0.044993 0.608553,0.2073549 0.669929,1.0412017 0.0993,1.3491147 l -0.117791,0.06356 -3.165644,0.0051 c -1.741105,0.0028 -3.1988597,-0.0051 -3.2394547,-0.01762 z"
     id="path7" />
  <path
     style="fill:#ff6600;fill-opacity:1;stroke:none;stroke-width:0.0971779;stroke-linecap:square;paint-order:markers fill stroke"
     d="M 8.7764028,14.47615 C 8.3765689,14.351999 8.1635165,13.874124 8.3370677,13.490724 8.4176223,13.312768 8.5258192,13.202849 8.7027832,13.119189 l 0.1472393,-0.06961 h 3.1509195 3.15092 l 0.14724,0.06961 c 0.606697,0.286817 0.550664,1.168843 -0.08633,1.358884 -0.211164,0.063 -6.2330814,0.0612 -6.4363722,-0.0019 z"
     id="path10" />
  <path
     style="fill:#ff6600;fill-opacity:1;stroke:none;stroke-width:0.0971779;stroke-linecap:square;paint-order:markers fill stroke"
     d="M 8.8598863,19.724014 C 8.8171738,19.717443 8.7116374,19.669735 8.6253609,19.617997 8.1267411,19.318982 8.1696123,18.589421 8.700325,18.342293 l 0.1488768,-0.06933 h 3.1509202 3.15092 l 0.148877,0.06933 c 0.528375,0.24604 0.573599,0.976662 0.07882,1.273399 -0.08416,0.05047 -0.202943,0.100019 -0.263973,0.110106 -0.119577,0.01976 -6.1259536,0.01805 -6.2548797,-0.0018 z"
     id="path11" />
  <path
     style="fill:url(#linearGradient1);stroke:none;stroke-width:0.154533;stroke-linecap:square;paint-order:markers fill stroke"
     d="M 3.9228709,11.907123 C 3.1115863,11.808383 2.587935,11.530361 2.5845976,11.196597 2.5825676,10.99405 2.8501444,10.765573 3.2370878,10.639443 3.8065006,10.453834 3.4041116,10.46198 12.002926,10.46198 c 6.82789,0 7.872368,0.0058 8.16356,0.04499 1.538875,0.207355 1.69408,1.041202 0.251105,1.349115 l -0.297864,0.06356 -8.005107,0.0051 c -4.4028099,0.0028 -8.0890997,-0.0051 -8.1917542,-0.01762 z"
     id="path6" />
</svg>
