<?xml version="1.0" encoding="UTF-8" standalone="no"?>
<svg
   width="24"
   height="24"
   viewBox="0 0 24 24"
   fill="none"
   version="1.1"
   id="svg6"
   sodipodi:docname="scan.svg"
   inkscape:version="1.4.2 (f4327f4, 2025-05-13)"
   xmlns:inkscape="http://www.inkscape.org/namespaces/inkscape"
   xmlns:sodipodi="http://sodipodi.sourceforge.net/DTD/sodipodi-0.dtd"
   xmlns="http://www.w3.org/2000/svg"
   xmlns:svg="http://www.w3.org/2000/svg">
  <defs
     id="defs6" />
  <sodipodi:namedview
     id="namedview6"
     pagecolor="#ffffff"
     bordercolor="#000000"
     borderopacity="0.25"
     inkscape:showpageshadow="2"
     inkscape:pageopacity="0.0"
     inkscape:pagecheckerboard="0"
     inkscape:deskcolor="#d1d1d1"
     inkscape:zoom="33.958333"
     inkscape:cx="12.014724"
     inkscape:cy="12"
     inkscape:window-width="1920"
     inkscape:window-height="1017"
     inkscape:window-x="-8"
     inkscape:window-y="-8"
     inkscape:window-maximized="1"
     inkscape:current-layer="svg6" />
  <path
     d="M16 4H8C6.9 4 6 4.9 6 6V20C6 21.1 6.9 22 8 22H16C17.1 22 18 21.1 18 20V6C18 4.9 17.1 4 16 4Z"
     stroke="#333333"
     stroke-width="2"
     stroke-linecap="round"
     stroke-linejoin="round"
     id="path1"
     style="stroke-width:0.7;stroke-dasharray:none" />
  <path
     d="m 13.704365,2.827302 c 0,-0.4709627 -0.381781,-0.8527607 -0.852761,-0.8527607 h -1.705521 c -0.47098,0 -0.852761,0.381798 -0.852761,0.8527607 v 3.411043 h 3.411043 z"
     stroke="#333333"
     stroke-width="2"
     stroke-linecap="round"
     stroke-linejoin="round"
     id="path2"
     style="stroke-width:1.02331;stroke-dasharray:none;fill:#ffffff;fill-opacity:1" />
  <path
     d="m 9,14.814227 h 6"
     stroke="#333333"
     stroke-width="1.5"
     stroke-linecap="round"
     stroke-linejoin="round"
     id="path4"
     style="fill:#d45500" />
  <path
     d="m 8,12.447279 h 8"
     stroke="#4caf50"
     stroke-width="2"
     stroke-linecap="round"
     stroke-linejoin="round"
     id="path6" />
  <path
     style="fill:#ff6600;stroke:none;stroke-width:0.0971779;stroke-linecap:square;paint-order:markers fill stroke"
     d="M 8.8058745,10.812143 C 8.4850495,10.713402 8.27797,10.435381 8.2766502,10.101617 8.2758492,9.8990698 8.3816615,9.6705937 8.5346795,9.5444628 8.7598555,9.358854 8.6007295,9.3670003 12.001157,9.3670003 c 2.70011,0 3.113152,0.00576 3.228305,0.044993 0.608553,0.2073549 0.669929,1.0412017 0.0993,1.3491147 l -0.117791,0.06356 -3.165644,0.0051 c -1.741105,0.0028 -3.1988595,-0.0051 -3.2394545,-0.01762 z"
     id="path7" />
  <path
     d="m 9,8 h 6"
     stroke="#333333"
     stroke-width="1.5"
     stroke-linecap="round"
     stroke-linejoin="round"
     id="path9" />
  <path
     style="fill:#ff6600;fill-opacity:1;stroke:none;stroke-width:0.0971779;stroke-linecap:square;paint-order:markers fill stroke"
     d="M 8.7764028,17.607745 C 8.3765689,17.483594 8.1635165,17.005719 8.3370677,16.622319 8.4176223,16.444363 8.5258192,16.334444 8.7027832,16.250784 l 0.1472393,-0.06961 h 3.1509195 3.15092 l 0.14724,0.06961 c 0.606697,0.286817 0.550664,1.168843 -0.08633,1.358884 -0.211164,0.063 -6.2330814,0.0612 -6.4363722,-0.0019 z"
     id="path10" />
  <path
     style="fill:#ff6600;fill-opacity:1;stroke:none;stroke-width:0.0971779;stroke-linecap:square;paint-order:markers fill stroke"
     d="M 8.8598863,19.724014 C 8.8171738,19.717443 8.7116374,19.669735 8.6253609,19.617997 8.1267411,19.318982 8.1696123,18.589421 8.700325,18.342293 l 0.1488768,-0.06933 h 3.1509202 3.15092 l 0.148877,0.06933 c 0.528375,0.24604 0.573599,0.976662 0.07882,1.273399 -0.08416,0.05047 -0.202943,0.100019 -0.263973,0.110106 -0.119577,0.01976 -6.1259536,0.01805 -6.2548797,-0.0018 z"
     id="path11" />
</svg>
