<?xml version="1.0" encoding="UTF-8" standalone="no"?>
<svg
        xmlns:dc="http://purl.org/dc/elements/1.1/"
        xmlns:cc="http://creativecommons.org/ns#"
        xmlns:rdf="http://www.w3.org/1999/02/22-rdf-syntax-ns#"
        xmlns="http://www.w3.org/2000/svg"
        xmlns:sodipodi="http://sodipodi.sourceforge.net/DTD/sodipodi-0.dtd"
        xmlns:inkscape="http://www.inkscape.org/namespaces/inkscape"
        width="52.533463"
        height="44.587135"
        version="1.0"
        id="svg6195"
        sodipodi:docname="star_blue_other.svg"
        inkscape:version="0.92.4 (5da689c313, 2019-01-14)">
  <metadata
     id="metadata6199">
    <rdf:RDF>
      <cc:Work
         rdf:about="">
        <dc:format>image/svg+xml</dc:format>
        <dc:type
           rdf:resource="http://purl.org/dc/dcmitype/StillImage" />
        <dc:title/>
      </cc:Work>
    </rdf:RDF>
  </metadata>
  <sodipodi:namedview
     pagecolor="#ffffff"
     bordercolor="#666666"
     borderopacity="1"
     objecttolerance="10"
     gridtolerance="10"
     guidetolerance="10"
     inkscape:pageopacity="0"
     inkscape:pageshadow="2"
     inkscape:window-width="1920"
     inkscape:window-height="1017"
     id="namedview6197"
     showgrid="false"
     inkscape:zoom="9.8333333"
     inkscape:cx="1.099413"
     inkscape:cy="22.594901"
     inkscape:window-x="-8"
     inkscape:window-y="-8"
     inkscape:window-maximized="1"
     inkscape:current-layer="svg6195" />
  <defs
     id="defs6185">
    <linearGradient
       id="c"
       x1="14.66"
       x2="24.031"
       y1="7.0243001"
       y2="34.826"
       gradientUnits="userSpaceOnUse"
       gradientTransform="translate(-1,-1.4128659)">
      <stop
         stop-color="#fcf9fb"
         offset="0"
         id="stop6170" />
      <stop
         stop-color="#fcf9fb"
         stop-opacity="0"
         offset="1"
         id="stop6172" />
    </linearGradient>
    <radialGradient
       id="b"
       cx="24"
       cy="22"
       r="22"
       gradientTransform="matrix(1,-0.2,0.2,1,-4.8,5.3871341)"
       gradientUnits="userSpaceOnUse">
      <stop
         stop-color="#e6cf00"
         offset="0"
         id="stop6175" />
      <stop
         stop-color="#fde94a"
         offset="1"
         id="stop6177" />
    </radialGradient>
    <radialGradient
       id="a"
       cx="17.312"
       cy="25.531"
       r="9.6875"
       gradientTransform="matrix(2.4,0,0,0.67,-18.1,20.987134)"
       gradientUnits="userSpaceOnUse">
      <stop
         stop-opacity=".63"
         offset="0"
         id="stop6180" />
      <stop
         stop-opacity="0"
         offset="1"
         id="stop6182" />
    </radialGradient>
  </defs>
  <path
          d="m 46,38.087134 c 0,3.5897 -10.297,6.5 -23,6.5 -12.703,0 -23,-2.9103 -23,-6.5 0,-3.59 10.297,-7.5 23,-7.5 12.703,0 23,3.91 23,7.5 z"
          id="path6187"
          inkscape:connector-curvature="0"
          style="opacity:0.5;fill:url(#a)"/>
  <path
          d="m 36.311,40.087134 -13.28,-6.6739 -13.296,6.6453 2.5543,-14.102 -10.738,-10.001 14.859,-2.042 6.6589,-12.8259999 6.6288,12.8399999 14.854,2.0738 -10.762,9.9778 2.5211,14.108 z"
          id="path6189"
          inkscape:connector-curvature="0"
          style="fill:url(#b);stroke:#c4a000"/>
  <path
          d="m 16.732,14.378134 6.3319,-12.2039999 6.3057,12.2079999 14.071,1.9667 -3.6198,3.36 c -16.438,-3.6875 -9.4554,7.2205 -27.569,9.2432 l 0.56805,-3.1804 -10.159,-9.4656 14.071,-1.9278 z"
          id="path6191"
          inkscape:connector-curvature="0"
          style="opacity:0.8;fill:url(#c)"/>
  <path
          d="m 34.974,38.300134 -11.945,-6.0034 -11.946,5.9689 2.2802,-12.67 -9.5851,-8.9383 13.278,-1.8223 6.0067,-11.5699999 5.9824,11.5769999 13.278,1.8573 -9.6093,8.9217 2.26,12.678 z"
          id="path6193"
          inkscape:connector-curvature="0"
          style="opacity:0.68999999;fill:none;stroke:#ffffff"/>
  <rect
          style="opacity:1;fill:#d32713;fill-opacity:1;stroke-width:0.32014582"
          id="rect4545"
          width="6.1855669"
          height="40.082474"
          x="46.347897"
          y="0.61369395"/>
</svg>
