<svg width="48" height="48" version="1.1" viewBox="0 96 960 960" xmlns="http://www.w3.org/2000/svg">
<path d="m874.78 1055.4-337.13-335.87q-36.345 28.729-85.797 45.07-49.453 16.34-107.21 16.34-144.33 0-244.49-100.26t-100.16-241.88 100.26-241.88 242.51-100.26 241.88 100.26q99.634 100.26 99.634 242.07 0 56.209-15.666 104.46t-46.997 90.862l338.38 335.87zm-530.94-392.27q93.866 0 158.25-65.483t64.386-158.85q0-93.368-64.571-158.85-64.571-65.483-158.07-65.483-94.541 0-160.29 65.483-65.744 65.483-65.744 158.85 0 93.368 65.559 158.85 65.561 65.483 160.47 65.483z" fill="DarkGray" stroke-width="1.2533"/>
</svg>
