<?xml version="1.0" encoding="UTF-8" standalone="no"?>
<!-- Created with Inkscape (http://www.inkscape.org/) -->

<svg
   xmlns:dc="http://purl.org/dc/elements/1.1/"
   xmlns:cc="http://creativecommons.org/ns#"
   xmlns:rdf="http://www.w3.org/1999/02/22-rdf-syntax-ns#"
   xmlns:svg="http://www.w3.org/2000/svg"
   xmlns="http://www.w3.org/2000/svg"
   xmlns:sodipodi="http://sodipodi.sourceforge.net/DTD/sodipodi-0.dtd"
   xmlns:inkscape="http://www.inkscape.org/namespaces/inkscape"
   width="131.80875mm"
   height="140.24164mm"
   viewBox="0 0 131.80875 140.24164"
   version="1.1"
   id="svg8"
   sodipodi:docname="tc.svg"
   inkscape:version="0.92.4 (5da689c313, 2019-01-14)">
  <defs
     id="defs2" />
  <sodipodi:namedview
     id="base"
     pagecolor="#ffffff"
     bordercolor="#666666"
     borderopacity="1.0"
     inkscape:pageopacity="0.0"
     inkscape:pageshadow="2"
     inkscape:zoom="0.7"
     inkscape:cx="-397.14286"
     inkscape:cy="441.42857"
     inkscape:document-units="mm"
     inkscape:current-layer="layer1"
     showgrid="false"
     inkscape:window-width="1920"
     inkscape:window-height="1017"
     inkscape:window-x="-8"
     inkscape:window-y="-8"
     inkscape:window-maximized="1"
     inkscape:showpageshadow="2"
     inkscape:pagecheckerboard="0"
     inkscape:deskcolor="#d1d1d1">
    <inkscape:grid
       type="xygrid"
       id="grid407" />
  </sodipodi:namedview>
  <metadata
     id="metadata5">
    <rdf:RDF>
      <cc:Work
         rdf:about="">
        <dc:format>image/svg+xml</dc:format>
        <dc:type
           rdf:resource="http://purl.org/dc/dcmitype/StillImage" />
        <dc:title />
      </cc:Work>
    </rdf:RDF>
  </metadata>
  <g
     inkscape:label="Layer 1"
     inkscape:groupmode="layer"
     id="layer1"
     transform="translate(-41.445089,-73.781815)">
    <g
       aria-label="ç¹"
       transform="matrix(1.0501096,0,0,1.0219149,1.3028887,-4.360532)"
       id="text4542"
       style="font-size:53.1230011px;line-height:1.25;letter-spacing:0px;word-spacing:0px;stroke-width:1.32808006">
      <path
         d="m 113.14896,162.63545 c 4.56858,1.69994 10.35899,4.46233 13.22763,6.37476 l 2.97489,-2.33741 c -3.13426,-1.96555 -8.92467,-4.51546 -13.387,-6.05602 z m -17.902449,-1.91243 c -3.134257,2.28429 -8.234065,4.46233 -12.855766,5.84353 0.903091,0.58436 2.337412,1.96555 2.974888,2.70928 4.515455,-1.69994 9.934001,-4.35609 13.493242,-7.17161 z m -5.046685,-7.54346 c 0.849968,-0.31874 2.231166,-0.47811 10.996464,-1.00934 -3.984228,1.64681 -7.3841,2.86864 -9.030913,3.34675 -2.868642,1.00934 -5.152931,1.59369 -6.852867,1.75306 0.371861,0.95621 0.849968,2.65615 0.956214,3.39987 1.434321,-0.53123 3.452995,-0.74372 18.646176,-1.75306 v 6.85287 c 0,0.63747 -0.21249,0.79684 -1.00934,0.84997 -0.79684,0.0531 -3.34675,0.0531 -6.427883,-0.0531 0.53123,0.95622 1.168706,2.33741 1.434321,3.34675 3.771732,0 6.321642,0.0531 7.968452,-0.47811 1.64681,-0.58435 2.0718,-1.54056 2.0718,-3.55924 v -7.22472 l 13.06825,-0.84997 c 1.3812,1.11558 2.54991,2.17804 3.34675,3.08113 l 2.81552,-2.23116 c -2.44366,-2.44366 -7.27785,-5.84354 -11.26207,-8.0747 l -2.54991,1.91243 c 1.32808,0.79684 2.70927,1.69993 4.1436,2.65615 l -20.027376,1.1687 c 6.002896,-2.01867 12.058926,-4.51545 17.902456,-7.59659 l -2.39054,-2.65615 c -1.96555,1.11559 -4.09047,2.17805 -6.16227,3.18738 l -9.880876,0.37186 c 2.124916,-0.84996 4.196716,-1.80618 6.215396,-2.97488 l -2.01868,-1.64682 h 4.40921 v -2.44365 h -2.92176 l 0.53123,-4.67483 h 3.98422 v -2.5499 h -3.71861 l 0.58435,-6.85287 H 87.43743 c 0.637476,-0.6906 1.221829,-1.43432 1.753059,-2.23117 h 17.849331 v -2.70927 H 90.890425 l 0.849968,-1.75306 -3.293626,-0.79684 c -1.487444,3.39987 -4.090471,6.53413 -7.065359,8.71217 0.849968,0.47811 2.284289,1.3812 2.921765,1.91243 0.903091,-0.74372 1.753059,-1.59369 2.603027,-2.49678 l -0.584353,6.21539 h -4.302963 v 2.5499 h 3.984225 c -0.318738,2.65615 -0.690599,5.15293 -1.009337,7.11848 h 15.883778 c -3.187381,2.12492 -7.171606,3.77174 -8.446558,4.19672 -1.221829,0.47811 -2.284289,0.6906 -3.240503,0.74372 0.371861,0.90309 0.849968,2.54991 1.009337,3.24051 z m 23.639734,-24.75532 h 8.81842 c -1.00934,3.02801 -2.49678,5.57791 -4.40921,7.75596 -1.91243,-2.17805 -3.50612,-4.67483 -4.6217,-7.3841 z m -0.74372,-7.22473 c -1.27495,4.46233 -3.61236,8.5528 -6.6935,11.26208 0.79685,0.53123 2.0718,1.80618 2.60303,2.44365 0.95621,-0.90309 1.80618,-1.91242 2.65615,-3.02801 1.1687,2.44366 2.5499,4.6217 4.24984,6.58725 -2.54991,2.12492 -5.63104,3.77174 -9.13716,5.04669 0.74372,0.63748 1.80618,1.96555 2.28429,2.65615 3.453,-1.3812 6.48101,-3.13426 9.08403,-5.36542 2.92177,2.65615 6.42789,4.72794 10.41211,6.0029 0.47811,-0.9031 1.48745,-2.28429 2.33741,-2.97489 -3.98422,-1.11559 -7.43722,-2.92177 -10.30586,-5.36543 2.49678,-2.76239 4.40921,-6.05602 5.63104,-10.04024 h 3.61236 v -2.97489 h -14.5557 c 0.47811,-1.16871 0.90309,-2.33741 1.27495,-3.55924 z m -20.239864,11.10271 c 1.540567,0.84996 3.346749,2.17804 4.196717,3.2405 h -7.596589 l 0.478107,-4.6217 h 11.740179 l -0.42498,4.6217 h -3.984225 l 1.381198,-1.43432 c -0.903091,-1.06246 -2.815519,-2.33741 -4.409209,-3.18738 z m -0.796845,6.58725 c 1.753059,1.00934 3.665487,2.49678 4.568578,3.66549 h -8.074696 l 0.637476,-4.8342 h 4.143594 z m 4.674824,3.66549 1.434321,-1.48745 c -0.903091,-1.06246 -2.709273,-2.39053 -4.24984,-3.34675 h 7.118484 l -0.53123,4.8342 z"
         style="fill:#ff0000"
         id="path390"
         inkscape:connector-curvature="0" />
    </g>
    <path
       style="fill:#ff9e00;fill-opacity:1;stroke-width:0.26458299"
       d="m 135.85667,115.58083 c 0.12603,-0.20392 2.19014,-2.80487 4.5869,-5.77988 l 4.35776,-5.40912 -0.86282,-0.67166 c -1.80277,-1.40337 -9.08924,-4.88511 -12.83508,-6.13307 -5.84061,-1.94585 -10.75946,-2.84814 -16.94293,-3.10794 -17.2008,-0.72269 -32.70121,5.25782 -44.50902,17.17287 l -3.4986,3.53038 -6.23428,-4.23349 c -3.42886,-2.32843 -6.23429,-4.36978 -6.23429,-4.53635 0,-0.54203 6.46646,-7.11431 9.4127,-9.56675 9.83678,-8.18808 22.10379,-13.72289 35.777924,-16.14282 7.032346,-1.24453 18.625106,-1.24453 25.657456,0 10.0469,1.77801 18.97439,5.06377 26.95458,9.92061 1.40251,0.85359 2.65934,1.61555 2.79294,1.69325 0.13361,0.0777 2.51486,-2.64512 5.29167,-6.05071 3.87401,-4.75125 5.11353,-6.04783 5.3272,-5.57239 0.50794,1.13024 7.14495,31.87576 6.92786,32.09285 -0.11719,0.1172 -7.14437,0.76874 -15.61595,1.44789 -8.47158,0.67915 -16.56843,1.34333 -17.99302,1.47596 -1.65752,0.15432 -2.50764,0.10764 -2.361,-0.12963 z"
       id="path4130-3"
       inkscape:connector-curvature="0" />
    <path
       style="fill:#ff9e00;fill-opacity:1;stroke-width:0.26458299"
       d="m 106.59934,208.46264 c -10.882647,-0.95077 -22.981787,-4.90365 -32.448437,-10.60114 -2.70298,-1.62678 -3.2728,-1.84382 -3.61733,-1.37783 -0.22492,0.30422 -2.52938,3.14985 -5.12103,6.32362 l -4.71208,5.77049 -3.62174,-16.38519 c -3.12064,-14.11811 -3.54076,-16.42036 -3.03643,-16.63934 0.71331,-0.30974 35.21177,-3.04301 35.4464,-2.80838 0.0916,0.0916 -1.82345,2.64834 -4.25569,5.68162 -3.46669,4.32335 -4.33064,5.62544 -3.99827,6.02592 0.70781,0.85286 9.09137,5.00697 12.51341,6.20048 7.330217,2.55657 15.190907,3.72308 22.678577,3.36546 15.15992,-0.72404 28.40954,-6.39947 38.71744,-16.58445 2.27295,-2.24584 4.19803,-4.08335 4.27796,-4.08335 0.0799,0 2.93151,1.89846 6.33683,4.2188 5.15395,3.51183 6.13434,4.32563 5.85036,4.85625 -0.18764,0.35059 -2.01443,2.32954 -4.05953,4.39766 -12.31413,12.45267 -28.64854,19.98512 -46.96532,21.65758 -4.89005,0.4465 -8.72325,0.44151 -13.98512,-0.0182 z"
       id="path4132-6"
       inkscape:connector-curvature="0" />
  </g>
</svg>
