<svg width="48px" height="48px" xmlns="http://www.w3.org/2000/svg" xmlns:xlink="http://www.w3.org/1999/xlink">
<defs>
<path id="l" d="m34 6 8.6 5-8.6 5z"/>
<linearGradient id="n" x1="34.56" x2="34.6" y1="8.78" y2="14.21" gradientUnits="userSpaceOnUse">
<stop stop-color="#fff" offset="0"/>
<stop stop-color="#fff" stop-opacity="0" offset="1"/>
</linearGradient>
<linearGradient id="m" x1="35.57" x2="35.84" y1="11.16" y2="12.78" gradientUnits="userSpaceOnUse">
<stop offset="0"/>
<stop stop-color="#666" stop-opacity="0" offset="1"/>
</linearGradient>
<linearGradient id="o" x2="0" y1="4.77" y2="10.87" gradientUnits="userSpaceOnUse">
<stop stop-color="#676b61" offset="0"/>
<stop offset="1"/>
</linearGradient>
<radialGradient id="p" cx="110.4" cy="84.5" r="12.55" gradientTransform="matrix(.019-.3.724.046-24.77 41.2)" gradientUnits="userSpaceOnUse">
<stop stop-color="#999" offset="0"/>
<stop stop-color="#343" offset="1"/>
</radialGradient>
<radialGradient id="c" cx="10.1" cy="18.82" r="1.21" gradientUnits="userSpaceOnUse">
<stop stop-color="#f0f0f0" offset="0"/>
<stop stop-color="#9a9a9a" offset="1"/>
</radialGradient>
<radialGradient id="e" cx="8.14" cy="7.27" r="38.2" gradientTransform="matrix(.968 0 0 1.033 3.35.65)" gradientUnits="userSpaceOnUse">
<stop stop-color="#fff" offset="0"/>
<stop stop-color="#f8f8f8" offset="1"/>
</radialGradient>
<radialGradient id="b" cx="24.31" cy="42.1" r="15.82" gradientTransform="matrix(1.076 0 0 .285-1.85 30.8)" gradientUnits="userSpaceOnUse">
<stop offset="0"/>
<stop stop-opacity="0" offset="1"/>
</radialGradient>
<radialGradient id="g" cx="8.82" cy="3.76" r="37.75" gradientTransform="matrix(.968 0 0 1.033 3.35.65)" gradientUnits="userSpaceOnUse">
<stop stop-color="#a3a3a3" offset="0"/>
<stop stop-color="#4c4c4c" offset="1"/>
</radialGradient>
<radialGradient id="f" cx="33.97" cy="35.74" r="86.7" gradientTransform="scale(.961 1.041)" gradientUnits="userSpaceOnUse">
<stop stop-color="#fafafa" offset="0"/>
<stop stop-color="#bbb" offset="1"/>
</radialGradient>
<linearGradient id="h" x1="38.56" x2="38.6" y1="101.4" y2="88.57" gradientTransform="matrix(.4958 0 0 .4958 19.55 -36.06)" gradientUnits="userSpaceOnUse">
<stop stop-color="#fff" offset="0"/>
<stop offset="1"/>
</linearGradient>
<radialGradient id="i" cx="24.84" cy="36.42" r="15.64" gradientTransform="matrix(.7031 0 0 .2557 19.44 8.589)" gradientUnits="userSpaceOnUse">
<stop offset="0"/>
<stop stop-opacity="0" offset="1"/>
</radialGradient>
<linearGradient id="k" x1="-54.19" x2="-54.19" y1="16.03" y2="31.3" gradientTransform="matrix(1.016 0 0 1.034 91.97 -13.48)" gradientUnits="userSpaceOnUse">
<stop stop-color="#fff" offset="0"/>
<stop stop-color="#fff" stop-opacity=".2" offset="1"/>
</linearGradient>
<linearGradient id="j" x1="36.92" x2="36.92" y1="9.596" y2="21.04" gradientUnits="userSpaceOnUse">
<stop stop-color="#fff" stop-opacity=".502" offset="0"/>
<stop stop-color="#999" stop-opacity=".502" offset="1"/>
</linearGradient>
</defs>
<ellipse cx="24.3" cy="42.8" rx="17" ry="4.5" fill="url(#b)" opacity=".8"/>
<rect x="6.6" y="3.65" width="34.88" height="41" rx="1.2" fill="url(#f)" stroke="url(#g)"/>
<g fill="none">
<rect x="7.66" y="4.58" width="32.78" height="39" rx=".2" stroke="url(#e)"/>
<path d="m11.5 5.4v37.9" stroke="#000" stroke-opacity=".02"/>
<path d="m12.5 5v38" stroke="#fff" stroke-opacity=".2"/>
</g>
<g fill="#9b9b9b" fill-opacity=".55">
<g id="a">
<rect x="16" y="9" width="20" height="1" rx=".2"/>
<rect x="16" y="11" width="20" height="1" rx=".2"/>
<rect x="16" y="13" width="20" height="1" rx=".2"/>
<rect x="16" y="15" width="20" height="1" rx=".2"/>
</g>
<rect x="16" y="25" width="9" height="1" rx=".2"/>
<rect x="16" y="37" width="14" height="1" rx=".2"/>
<use y="8" xlink:href="#a"/>
<use y="20" xlink:href="#a"/>
</g>
<g id="d">
<circle cx="10.17" cy="18.69" r=".82" fill="#fff"/>
<circle cx="9.82" cy="18.43" r=".82" fill="url(#c)"/>
</g>
<use y="11.5" fill="none" xlink:href="#d"/>
<ellipse cx="36.9" cy="18" rx="11" ry="4" fill="url(#i)" opacity=".2"/>
<g fill="none" stroke-linejoin="round">
<circle cx="36.9" cy="11" r="9" fill="url(#j)" stroke="#204a87" stroke-width="2.2"/>
<use opacity=".2" stroke="url(#h)" stroke-width="2.5" xlink:href="#l"/>
<use stroke="url(#o)" stroke-width="1.5" xlink:href="#l"/>
<circle cx="36.9" cy="11" r="7.9" opacity=".6" stroke="url(#k)"/>
</g>
<use fill="url(#p)" stroke="url(#p)" stroke-width=".5" xlink:href="#l"/>
<path d="m33.76 13 6.43-0.53 2.49-1.41-1.2-0.71c-1.06 0.22-2.66 0.99-7.48 1.06" fill="url(#m)" opacity=".2"/>
<use fill="none" stroke="url(#n)" stroke-opacity=".62" stroke-width=".5" xlink:href="#l"/>
</svg>
