<svg width="48px" height="48px" xmlns="http://www.w3.org/2000/svg" xmlns:xlink="http://www.w3.org/1999/xlink">
<defs>
<radialGradient id="g" cx="605.71" cy="486.65" r="117.14" gradientTransform="matrix(-2.7744 0 0 1.9697 112.76 -872.89)" gradientUnits="userSpaceOnUse" xlink:href="#b"/>
<linearGradient id="b">
<stop offset="0"/>
<stop stop-opacity="0" offset="1"/>
</linearGradient>
<radialGradient id="h" cx="605.71" cy="486.65" r="117.14" gradientTransform="matrix(2.7744 0 0 1.9697 -1891.6 -872.89)" gradientUnits="userSpaceOnUse" xlink:href="#b"/>
<linearGradient id="n" x1="302.86" x2="302.86" y1="366.65" y2="609.51" gradientTransform="matrix(2.7744 0 0 1.9697 -1892.2 -872.89)" gradientUnits="userSpaceOnUse">
<stop stop-opacity="0" offset="0"/>
<stop offset=".5"/>
<stop stop-opacity="0" offset="1"/>
</linearGradient>
<linearGradient id="o">
<stop stop-color="#fff" offset="0"/>
<stop stop-color="#fefefe" offset=".37931"/>
<stop stop-color="#1d1d1d" offset="1"/>
</linearGradient>
<radialGradient id="m" cx="8.8244" cy="3.7561" r="37.752" gradientTransform="matrix(.96827 0 0 1.0328 3.3536 .64645)" gradientUnits="userSpaceOnUse">
<stop stop-color="#a3a3a3" offset="0"/>
<stop stop-color="#4c4c4c" offset="1"/>
</radialGradient>
<radialGradient id="l" cx="33.967" cy="35.737" r="86.708" gradientTransform="scale(.96049 1.0411)" gradientUnits="userSpaceOnUse">
<stop stop-color="#fafafa" offset="0"/>
<stop stop-color="#bbb" offset="1"/>
</radialGradient>
<radialGradient id="k" cx="8.1436" cy="7.2679" r="38.159" gradientTransform="matrix(.96827 0 0 1.0328 3.3536 .64645)" gradientUnits="userSpaceOnUse">
<stop stop-color="#fff" offset="0"/>
<stop stop-color="#f8f8f8" offset="1"/>
</radialGradient>
<radialGradient id="j" cx="20.892" cy="114.57" r="5.256" gradientTransform="matrix(.2297 0 0 .2297 4.6135 3.9798)" gradientUnits="userSpaceOnUse">
<stop stop-color="#F0F0F0" offset="0"/>
<stop stop-color="#9a9a9a" offset="1"/>
</radialGradient>
<radialGradient id="i" cx="20.892" cy="64.568" r="5.257" gradientTransform="matrix(.2297 0 0 .2297 4.6135 3.9798)" gradientUnits="userSpaceOnUse">
<stop stop-color="#F0F0F0" offset="0"/>
<stop stop-color="#9a9a9a" offset="1"/>
</radialGradient>
<radialGradient id="a" cx="18.634" cy="17.486" r="40.693" fx="18.934" fy="17.81" gradientTransform="scale(1.0368 .96449)" gradientUnits="userSpaceOnUse" xlink:href="#o"/>
<radialGradient id="f" cx="15.116" cy="63.965" r="12.289" gradientTransform="scale(1.644 .60828)" gradientUnits="userSpaceOnUse">
<stop offset="0"/>
<stop stop-opacity="0" offset="1"/>
</radialGradient>
<radialGradient id="e" cx="18.248" cy="15.716" r="29.993" gradientTransform="matrix(.58713 0 0 .58714 11.299 10.43)" gradientUnits="userSpaceOnUse">
<stop stop-color="#d3e9ff" offset="0"/>
<stop stop-color="#d3e9ff" offset=".15517"/>
<stop stop-color="#4074ae" offset=".75"/>
<stop stop-color="#36486c" offset="1"/>
</radialGradient>
<radialGradient id="d" cx="11.827" cy="10.476" r="32.665" gradientTransform="scale(1.1795 .84779)" gradientUnits="userSpaceOnUse">
<stop stop-color="#fff" offset="0"/>
<stop stop-color="#fff" stop-opacity="0" offset="1"/>
</radialGradient>
<radialGradient id="c" cx="15.601" cy="12.142" r="43.527" gradientTransform="matrix(.58713 0 0 .58714 11.299 10.43)" gradientUnits="userSpaceOnUse">
<stop stop-color="#fff" offset="0"/>
<stop stop-color="#fff" stop-opacity=".16495" offset="1"/>
</radialGradient>
</defs>
<g transform="matrix(.021055 0 0 .020868 42.852 41.154)">
<rect x="-1559.3" y="-150.7" width="1339.6" height="478.36" color="black" fill="url(#n)" opacity=".40206"/>
<path d="m-219.62-150.68v478.33c142.87 0.90045 345.4-107.17 345.4-239.2 0-132.03-159.44-239.13-345.4-239.13z" color="black" fill="url(#h)" opacity=".40206"/>
<path d="m-1559.3-150.68v478.33c-142.87 0.90045-345.4-107.17-345.4-239.2 0-132.03 159.44-239.13 345.4-239.13z" color="black" fill="url(#g)" opacity=".40206"/>
</g>
<g>
<rect x="6.6036" y="3.6464" width="34.875" height="40.92" ry="1.149" color="#000000" display="block" fill="url(#l)" stroke="url(#m)" stroke-linecap="round" stroke-linejoin="round"/>
<rect x="7.6661" y="4.5839" width="32.776" height="38.946" rx=".14905" ry=".14905" color="#000000" display="block" fill="none" stroke="url(#k)" stroke-linecap="round" stroke-linejoin="round"/>
<g transform="translate(.64645 -.037989)">
<g transform="matrix(.2297 0 0 .2297 4.9671 4.245)" fill="#fff">
<path d="m23.428 113.07c0 1.973-1.6 3.572-3.573 3.572-1.974 0-3.573-1.6-3.573-3.572 0-1.974 1.6-3.573 3.573-3.573s3.573 1.6 3.573 3.573z"/>
<path d="m23.428 63.07c0 1.973-1.6 3.573-3.573 3.573-1.974 0-3.573-1.6-3.573-3.573 0-1.974 1.6-3.573 3.573-3.573s3.573 1.6 3.573 3.573z"/>
</g>
<path d="m9.995 29.952c0 0.4532-0.36752 0.8205-0.82073 0.8205-0.45343 0-0.82073-0.36752-0.82073-0.8205 0-0.45343 0.36752-0.82073 0.82073-0.82073 0.4532 0 0.82073 0.36752 0.82073 0.82073z" fill="url(#j)"/>
<path d="m9.995 18.467c0 0.4532-0.36752 0.82073-0.82073 0.82073-0.45343 0-0.82073-0.36752-0.82073-0.82073 0-0.45343 0.36752-0.82073 0.82073-0.82073 0.4532 0 0.82073 0.36752 0.82073 0.82073z" fill="url(#i)"/>
</g>
<path d="m11.506 5.4943v37.907" fill="none" stroke="#000" stroke-opacity=".017544" stroke-width=".98855"/>
<path d="m12.5 5.0205v38.018" fill="none" stroke="#fff" stroke-opacity=".20468"/>
<g transform="matrix(.90909 0 0 1 2.3636 0)" fill="#9b9b9b" fill-opacity=".54971">
<rect x="15" y="9" width="22" height="1" rx=".15156" ry=".065391" color="#000000" display="block"/>
<rect x="15" y="11" width="22" height="1" rx=".15156" ry=".065391" color="#000000" display="block"/>
<rect x="15" y="13" width="22" height="1" rx=".15156" ry=".065391" color="#000000" display="block"/>
<rect x="15" y="15" width="22" height="1" rx=".15156" ry=".065391" color="#000000" display="block"/>
<rect x="15" y="17" width="22" height="1" rx=".15156" ry=".065391" color="#000000" display="block"/>
<rect x="15" y="19" width="22" height="1" rx=".15156" ry=".065391" color="#000000" display="block"/>
<rect x="15" y="21" width="22" height="1" rx=".15156" ry=".065391" color="#000000" display="block"/>
<rect x="15" y="23" width="22" height="1" rx=".15156" ry=".065391" color="#000000" display="block"/>
<rect x="15" y="25" width="9.9" height="1" rx=".068204" ry=".065391" color="#000000" display="block"/>
<rect x="15" y="29" width="22" height="1" rx=".15156" ry=".065391" color="#000000" display="block"/>
<rect x="15" y="31" width="22" height="1" rx=".15156" ry=".065391" color="#000000" display="block"/>
<rect x="15" y="33" width="22" height="1" rx=".15156" ry=".065391" color="#000000" display="block"/>
<rect x="15" y="35" width="22" height="1" rx=".15156" ry=".065391" color="#000000" display="block"/>
<rect x="15" y="37" width="15.4" height="1" rx=".1061" ry=".065391" color="#000000" display="block"/>
</g>
<g transform="matrix(1.1605 0 0 1.1605 1.8477 3.1195)">
<path transform="matrix(.58714 0 0 .72995 11.299 4.3984)" d="m45.053 38.909a20.203 7.4751 0 1 1-40.406 0 20.203 7.4751 0 1 1 40.406 0z" fill="url(#f)"/>
<path d="m37.11 24.219c0 6.2881-5.0976 11.386-11.385 11.386-6.2878 0-11.385-5.0976-11.385-11.386 0-6.2878 5.0973-11.385 11.385-11.385 6.2872 0 11.385 5.097 11.385 11.385z" fill="url(#e)" stroke="#39396c" stroke-width="1.7234"/>
<path transform="matrix(.49081 0 0 .58714 17.104 10.43)" d="m30.709 15.271a12.93 9.2934 0 1 1-25.86 0 12.93 9.2934 0 1 1 25.86 0z" fill="url(#d)" opacity=".42159"/>
<g transform="matrix(.57679 0 0 .57679 11.37 10.566)" fill-opacity=".71345">
<path d="m44.071 20.714v0l-0.5449 0.6172c-0.334-0.3936-0.709-0.7246-1.0898-1.0703l-0.8359 0.123-0.7637-0.8633v1.0684l0.6543 0.4951 0.4355 0.4932 0.582-0.6582c0.1465 0.2744 0.291 0.5488 0.4365 0.8232v0.8223l-0.6553 0.7402-1.1992 0.8232-0.9082 0.9063-0.582-0.6602 0.291-0.7402-0.5811-0.6582-0.9814-2.0977-0.8359-0.9453-0.2188 0.2461 0.3281 1.1934 0.6172 0.6992c0.3525 1.0176 0.7012 1.9902 1.1641 2.9629 0.7178 0 1.3945-0.0762 2.1074-0.166v0.5762l-0.8721 2.1392-0.7998 0.9043-0.6543 1.4004v2.3027l0.2188 0.9063-0.3633 0.4102-0.8008 0.4941-0.8359 0.6992 0.6914 0.7813-0.9453 0.8242 0.1816 0.5332-1.418 1.6055h-0.9443l-0.7998 0.4941h-0.5098v-0.6582l-0.2168-1.3184c-0.2813-0.8262-0.5742-1.6465-0.8721-2.4668 0-0.6055 0.0361-1.2051 0.0723-1.8105l0.3643-0.8223-0.5098-0.9883 0.0371-1.3574-0.6914-0.7813 0.3457-1.1309-0.5625-0.6382h-0.9824l-0.3271-0.3701-0.9814 0.6177-0.3994-0.4536-0.9092 0.7817c-0.6172-0.6997-1.2354-1.3989-1.8535-2.0981l-0.7266-1.7285 0.6543-0.9863-0.3633-0.4111 0.7988-1.8936c0.6563-0.8164 1.3418-1.5996 2.0352-2.3857l1.2363-0.3291 1.3809-0.1641 0.9453 0.2471 1.3447 1.3564 0.4727-0.5342 0.6533-0.082 1.2363 0.4111h0.9453l0.6543-0.5762 0.291-0.4111-0.6553-0.4111-1.0908-0.082c-0.3027-0.4199-0.584-0.8613-0.9434-1.2344l-0.3643 0.1641-0.1455 1.0703-0.6543-0.7402-0.1445-0.8242-0.7266-0.5742h-0.292l0.7275 0.8223-0.291 0.7402-0.5811 0.1641 0.3633-0.7402-0.6553-0.3281-0.5801-0.6582-1.0918 0.2461-0.1445 0.3281-0.6543 0.4121-0.3633 0.9053-0.9082 0.4521-0.4004-0.4521h-0.4355v-1.4814l0.9453-0.4941h0.7266l-0.1465-0.5752-0.5801-0.5762 0.9805-0.2061 0.5449-0.6162 0.4355-0.7412h0.8008l-0.2188-0.5752 0.5098-0.3291v0.6582l1.0898 0.2461 1.0898-0.9043 0.0732-0.4121 0.9443-0.6577c-0.3418 0.0425-0.6836 0.0737-1.0176 0.1646v-0.7411l0.3633-0.8228h-0.3633l-0.7984 0.7402-0.2188 0.4116 0.2188 0.5767-0.3643 0.9863-0.5811-0.3291-0.5078-0.5752-0.8008 0.5752-0.291-1.3159 1.3809-0.9048v-0.4941l0.873-0.5757 1.3809-0.3296 0.9453 0.3296 1.7441 0.3291-0.4355 0.4932h-0.9453l0.9453 0.9873 0.7266-0.8223 0.2207-0.3618s2.7871 2.498 4.3799 5.2305c1.5928 2.7334 2.3408 5.9551 2.3408 6.6094z"/>
<path d="m26.07 9.2363-0.0732 0.4932 0.5098 0.3291 0.8711-0.5757-0.4355-0.4937-0.582 0.3296-0.29-0.0825"/>
<path d="m26.87 5.8633-1.8906-0.7407-2.1797 0.2466-2.6904 0.7402-0.5088 0.4941 1.6719 1.1514v0.6582l-0.6543 0.6582 0.873 1.729 0.5801-0.3301 0.7285-1.1514c1.123-0.3472 2.1299-0.7407 3.1973-1.2344l0.873-2.2212"/>
<path d="m28.833 12.775-0.291-0.7412-0.5098 0.165 0.1465 0.9043 0.6543-0.3281"/>
<path d="m29.123 12.609-0.1455 0.9883 0.7998-0.165 0.5811-0.5752-0.5088-0.4941c-0.1709-0.4551-0.3672-0.8799-0.5811-1.3164h-0.4355v0.4932l0.29 0.3291v0.7402"/>
<path d="m18.365 28.242-0.582-1.1523-1.0903-0.2466-0.5815-1.5625-1.4536 0.1641-1.2354-0.9043-1.3091 1.1514v0.1816c-0.396-0.1143-0.8828-0.1299-1.2354-0.3467l-0.291-0.8223v-0.9053l-0.8721 0.082c0.0728-0.5762 0.145-1.1514 0.2183-1.7275h-0.5093l-0.5083 0.6582-0.5093 0.2461-0.7271-0.4102-0.0728-0.9053 0.1455-0.9873 1.0908-0.8223h0.8721l0.145-0.4941 1.0903 0.2461 0.7998 0.9883 0.1455-1.6465 1.3813-1.1514 0.5088-1.2344 1.0176-0.4111 0.5815-0.8223 1.3081-0.248 0.6548-0.9863h-1.9629l1.2358-0.5762h0.8716l1.2363-0.4121 0.1455-0.4922-0.4365-0.4121-0.5088-0.165 0.1455-0.4932-0.3633-0.7402-0.8726 0.3281 0.1455-0.6577-1.0176-0.5762-0.7993 1.3979 0.0723 0.4941-0.7993 0.3301-0.5093 1.0693-0.2178-0.9873-1.3813-0.5762-0.2183-0.7402 1.8174-1.0703 0.7998-0.7402 0.0728-0.9048-0.436-0.2471-0.5815-0.0825-0.3633 0.9053s-0.6079 0.1191-0.7642 0.1577c-1.9961 1.8394-6.0293 5.8101-6.9663 13.306 0.0371 0.1738 0.6792 1.1816 0.6792 1.1816l1.5264 0.9043 1.5264 0.4121 0.6548 0.8232 1.0171 0.7402 0.5815-0.082 0.436 0.1963v0.1328l-0.5811 1.563-0.4365 0.6582 0.1455 0.3301-0.3633 1.2324 1.3086 2.3867 1.3081 1.1523 0.582 0.8223-0.0732 1.7285 0.4365 0.9863-0.4365 1.8926s-0.0342-0.0117 0.0215 0.1777c0.0562 0.1895 2.3291 1.4512 2.4736 1.3438 0.144-0.1094 0.2671-0.2051 0.2671-0.2051l-0.145-0.4102 0.5811-0.5762 0.2183-0.5762 0.9453-0.3301 0.7266-1.8105-0.2178-0.4922 0.5078-0.7402 1.0908-0.248 0.582-1.3164-0.1455-1.6445 0.8721-1.2344 0.1455-1.2344c-1.1934-0.5918-2.377-1.2012-3.5615-1.8105"/>
<path d="m16.766 9.5649 0.7266 0.4937h0.582v-0.5757l-0.7266-0.3291-0.582 0.4111"/>
<path d="m14.876 8.9072-0.3638 0.9048h0.7271l0.3638-0.8228c0.3135-0.2217 0.6255-0.4448 0.9448-0.6582l0.7271 0.2471c0.4844 0.3291 0.9688 0.6582 1.4536 0.9868l0.7275-0.6577-0.8003-0.3291-0.3638-0.7407-1.3809-0.1646-0.0728-0.4116-0.6543 0.165-0.2904 0.5758-0.3638-0.7407-0.145 0.3291 0.0728 0.8228-0.5816 0.494"/>
<g opacity=".75"></g>
<g opacity=".75"></g>
<path d="m17.492 6.8496 0.3638-0.3286 0.7271-0.1646c0.498-0.2422 0.998-0.4053 1.5264-0.5762l-0.29-0.4937-0.9385 0.1348-0.4434 0.4419-0.731 0.106-0.6499 0.3052-0.3159 0.1528-0.1929 0.2583 0.9443 0.1641"/>
<path d="m18.728 14.666 0.4365-0.6582-0.6548-0.4932 0.2183 1.1514"/>
</g>
<g transform="matrix(.57679 0 0 .57679 11.252 10.448)" color="#000000" fill="url(#a)" stroke-width="1.0179">
<g color="#000000" fill="url(#a)">
<g color="#000000">
<path d="m44.071 20.714v0l-0.5449 0.6172c-0.334-0.3936-0.709-0.7246-1.0898-1.0703l-0.8359 0.123-0.7637-0.8633v1.0684l0.6543 0.4951 0.4355 0.4932 0.582-0.6582c0.1465 0.2744 0.291 0.5488 0.4365 0.8232v0.8223l-0.6553 0.7402-1.1992 0.8232-0.9082 0.9063-0.582-0.6602 0.291-0.7402-0.5811-0.6582-0.9814-2.0977-0.8359-0.9453-0.2188 0.2461 0.3281 1.1934 0.6172 0.6992c0.3525 1.0176 0.7012 1.9902 1.1641 2.9629 0.7178 0 1.3945-0.0762 2.1074-0.166v0.5762l-0.8721 2.1392-0.7998 0.9043-0.6543 1.4004v2.3027l0.2188 0.9063-0.3633 0.4102-0.8008 0.4941-0.8359 0.6992 0.6914 0.7813-0.9453 0.8242 0.1816 0.5332-1.418 1.6055h-0.9443l-0.7998 0.4941h-0.5098v-0.6582l-0.2168-1.3184c-0.2813-0.8262-0.5742-1.6465-0.8721-2.4668 0-0.6055 0.0361-1.2051 0.0723-1.8105l0.3643-0.8223-0.5098-0.9883 0.0371-1.3574-0.6914-0.7813 0.3457-1.1309-0.5625-0.6382h-0.9824l-0.3271-0.3701-0.9814 0.6177-0.3994-0.4536-0.9092 0.7817c-0.6172-0.6997-1.2354-1.3989-1.8535-2.0981l-0.7266-1.7285 0.6543-0.9863-0.3633-0.4111 0.7988-1.8936c0.6563-0.8164 1.3418-1.5996 2.0352-2.3857l1.2363-0.3291 1.3809-0.1641 0.9453 0.2471 1.3447 1.3564 0.4727-0.5342 0.6533-0.082 1.2363 0.4111h0.9453l0.6543-0.5762 0.291-0.4111-0.6553-0.4111-1.0908-0.082c-0.3027-0.4199-0.584-0.8613-0.9434-1.2344l-0.3643 0.1641-0.1455 1.0703-0.6543-0.7402-0.1445-0.8242-0.7266-0.5742h-0.292l0.7275 0.8223-0.291 0.7402-0.5811 0.1641 0.3633-0.7402-0.6553-0.3281-0.5801-0.6582-1.0918 0.2461-0.1445 0.3281-0.6543 0.4121-0.3633 0.9053-0.9082 0.4521-0.4004-0.4521h-0.4355v-1.4814l0.9453-0.4941h0.7266l-0.1465-0.5752-0.5801-0.5762 0.9805-0.2061 0.5449-0.6162 0.4355-0.7412h0.8008l-0.2188-0.5752 0.5098-0.3291v0.6582l1.0898 0.2461 1.0898-0.9043 0.0732-0.4121 0.9443-0.6577c-0.3418 0.0425-0.6836 0.0737-1.0176 0.1646v-0.7411l0.3633-0.8228h-0.3633l-0.7984 0.7402-0.2188 0.4116 0.2188 0.5767-0.3643 0.9863-0.5811-0.3291-0.5078-0.5752-0.8008 0.5752-0.291-1.3159 1.3809-0.9048v-0.4941l0.873-0.5757 1.3809-0.3296 0.9453 0.3296 1.7441 0.3291-0.4355 0.4932h-0.9453l0.9453 0.9873 0.7266-0.8223 0.2207-0.3618s2.7871 2.498 4.3799 5.2305c1.5928 2.7334 2.3408 5.9551 2.3408 6.6094z" color="#000000"/>
<path d="m26.07 9.2363-0.0732 0.4932 0.5098 0.3291 0.8711-0.5757-0.4355-0.4937-0.582 0.3296-0.29-0.0825" color="#000000"/>
<path d="m26.87 5.8633-1.8906-0.7407-2.1797 0.2466-2.6904 0.7402-0.5088 0.4941 1.6719 1.1514v0.6582l-0.6543 0.6582 0.873 1.729 0.5801-0.3301 0.7285-1.1514c1.123-0.3472 2.1299-0.7407 3.1973-1.2344l0.873-2.2212" color="#000000"/>
<path d="m28.833 12.775-0.291-0.7412-0.5098 0.165 0.1465 0.9043 0.6543-0.3281" color="#000000"/>
<path d="m29.123 12.609-0.1455 0.9883 0.7998-0.165 0.5811-0.5752-0.5088-0.4941c-0.1709-0.4551-0.3672-0.8799-0.5811-1.3164h-0.4355v0.4932l0.29 0.3291v0.7402" color="#000000"/>
<path d="m18.365 28.242-0.582-1.1523-1.0903-0.2466-0.5815-1.5625-1.4536 0.1641-1.2354-0.9043-1.3091 1.1514v0.1816c-0.396-0.1143-0.8828-0.1299-1.2354-0.3467l-0.291-0.8223v-0.9053l-0.8721 0.082c0.0728-0.5762 0.145-1.1514 0.2183-1.7275h-0.5093l-0.5083 0.6582-0.5093 0.2461-0.7271-0.4102-0.0728-0.9053 0.1455-0.9873 1.0908-0.8223h0.8721l0.145-0.4941 1.0903 0.2461 0.7998 0.9883 0.1455-1.6465 1.3813-1.1514 0.5088-1.2344 1.0176-0.4111 0.5815-0.8223 1.3081-0.248 0.6548-0.9863h-1.9629l1.2358-0.5762h0.8716l1.2363-0.4121 0.1455-0.4922-0.4365-0.4121-0.5088-0.165 0.1455-0.4932-0.3633-0.7402-0.8726 0.3281 0.1455-0.6577-1.0176-0.5762-0.7993 1.3979 0.0723 0.4941-0.7993 0.3301-0.5093 1.0693-0.2178-0.9873-1.3813-0.5762-0.2183-0.7402 1.8174-1.0703 0.7998-0.7402 0.0728-0.9048-0.436-0.2471-0.5815-0.0825-0.3633 0.9053s-0.6079 0.1191-0.7642 0.1577c-1.9961 1.8394-6.0293 5.8101-6.9663 13.306 0.0371 0.1738 0.6792 1.1816 0.6792 1.1816l1.5264 0.9043 1.5264 0.4121 0.6548 0.8232 1.0171 0.7402 0.5815-0.082 0.436 0.1963v0.1328l-0.5811 1.563-0.4365 0.6582 0.1455 0.3301-0.3633 1.2324 1.3086 2.3867 1.3081 1.1523 0.582 0.8223-0.0732 1.7285 0.4365 0.9863-0.4365 1.8926s-0.0342-0.0117 0.0215 0.1777c0.0562 0.1895 2.3291 1.4512 2.4736 1.3438 0.144-0.1094 0.2671-0.2051 0.2671-0.2051l-0.145-0.4102 0.5811-0.5762 0.2183-0.5762 0.9453-0.3301 0.7266-1.8105-0.2178-0.4922 0.5078-0.7402 1.0908-0.248 0.582-1.3164-0.1455-1.6445 0.8721-1.2344 0.1455-1.2344c-1.1934-0.5918-2.377-1.2012-3.5615-1.8105" color="#000000"/>
<path d="m16.766 9.5649 0.7266 0.4937h0.582v-0.5757l-0.7266-0.3291-0.582 0.4111" color="#000000"/>
<path d="m14.876 8.9072-0.3638 0.9048h0.7271l0.3638-0.8228c0.3135-0.2217 0.6255-0.4448 0.9448-0.6582l0.7271 0.2471c0.4844 0.3291 0.9688 0.6582 1.4536 0.9868l0.7275-0.6577-0.8003-0.3291-0.3638-0.7407-1.3809-0.1646-0.0728-0.4116-0.6543 0.165-0.2904 0.5758-0.3638-0.7407-0.145 0.3291 0.0728 0.8228-0.5816 0.494" color="#000000"/>
</g>
<g color="#000000" opacity=".75"></g>
<g color="#000000"></g>
<g color="#000000" opacity=".75"></g>
<g color="#000000">
<path d="m17.492 6.8496 0.3638-0.3286 0.7271-0.1646c0.498-0.2422 0.998-0.4053 1.5264-0.5762l-0.29-0.4937-0.9385 0.1348-0.4434 0.4419-0.731 0.106-0.6499 0.3052-0.3159 0.1528-0.1929 0.2583 0.9443 0.1641" color="#000000"/>
<path d="m18.728 14.666 0.4365-0.6582-0.6548-0.4932 0.2183 1.1514" color="#000000"/>
</g>
</g>
</g>
<path d="m36.531 24.219c0 5.9687-4.8387 10.807-10.807 10.807-5.9684 0-10.807-4.8387-10.807-10.807 0-5.9684 4.8384-10.807 10.807-10.807 5.9679 0 10.807 4.8381 10.807 10.807z" fill="none" stroke="url(#c)"/>
</g>
</g>
</svg>
