<svg width="48" height="48" xmlns="http://www.w3.org/2000/svg" xmlns:xlink="http://www.w3.org/1999/xlink">
<defs>
<linearGradient id="b" gradientUnits="userSpaceOnUse">
<stop stop-color="#929470" offset="0"/>
<stop stop-color="#fcffc1" offset=".265"/>
<stop stop-color="#f3f5ba" offset=".632"/>
<stop stop-color="#929470" offset="1"/>
</linearGradient>
<linearGradient id="c" gradientUnits="userSpaceOnUse">
<stop stop-color="#ffe708" offset="0"/>
<stop stop-color="#ffd604" stop-opacity=".44" offset=".412"/>
<stop stop-color="#4c3e1c" stop-opacity=".48" offset="1"/>
</linearGradient>
<linearGradient id="a" x1="19" x2="30.17" y1="37.23" y2="37.23" gradientUnits="userSpaceOnUse">
<stop stop-color="#a3a349" offset=".006"/>
<stop stop-color="#acac54" offset=".021"/>
<stop stop-color="#c1c172" offset=".066"/>
<stop stop-color="#d4d68e" offset=".115"/>
<stop stop-color="#e2e4a6" offset=".168"/>
<stop stop-color="#edf0b8" offset=".227"/>
<stop stop-color="#f3f6c3" offset=".296"/>
<stop stop-color="#f5f8c7" offset=".405"/>
<stop stop-color="#eef0be" offset=".524"/>
<stop stop-color="#dbdda9" offset=".667"/>
<stop stop-color="#bebd88" offset=".821"/>
<stop stop-color="#989564" offset=".983"/>
<stop stop-color="#949160" offset="1"/>
</linearGradient>
<radialGradient id="e" cx="14.77" cy="74.21" r="7.83" gradientTransform="scale(1.764 .5668)" gradientUnits="userSpaceOnUse">
<stop stop-opacity=".52" offset="0"/>
<stop stop-opacity=".14" offset=".552"/>
<stop stop-opacity="0" offset="1"/>
</radialGradient>
<linearGradient id="j" x1="-22.87" x2="-4.39" y1="38.68" y2="38.68" gradientTransform="scale(1.026 .9742)" xlink:href="#a"/>
<linearGradient id="k" x1="-10.48" x2="-23.85" y1="39.03" y2="39.14" gradientTransform="scale(1.026 .9742)" xlink:href="#b"/>
<linearGradient id="f" x1="23.12" x2="26.48" y1="43.17" y2="43.17" gradientTransform="matrix(1.763 0 0 1.537 -19.73 -23.88)" gradientUnits="userSpaceOnUse">
<stop stop-color="#686868" offset=".006"/>
<stop stop-color="#777" offset=".03"/>
<stop stop-color="#929292" offset=".084"/>
<stop stop-color="#a7a7a7" offset=".142"/>
<stop stop-color="#b6b6b6" offset=".207"/>
<stop stop-color="#bebebe" offset=".285"/>
<stop stop-color="#c1c1c1" offset=".405"/>
<stop stop-color="#bcbcbc" offset=".496"/>
<stop stop-color="#adadad" offset=".606"/>
<stop stop-color="#959595" offset=".725"/>
<stop stop-color="#747474" offset=".85"/>
<stop stop-color="#494949" offset=".979"/>
<stop stop-color="#414141" offset="1"/>
</linearGradient>
<linearGradient id="v" x1="17" x2="32.1" y1="10.06" y2="36.73" gradientTransform="matrix(1.088 0 0 .9166 .7 -1.57)" gradientUnits="userSpaceOnUse">
<stop stop-color="#fff" offset="0"/>
<stop stop-color="#fff" stop-opacity="0" offset="1"/>
</linearGradient>
<linearGradient id="r" x1="37.94" x2="-5.25" y1="16.65" y2="3.86" gradientTransform="matrix(.8534 0 0 .9753 1.89 1.66)" gradientUnits="userSpaceOnUse">
<stop stop-color="#fffff1" offset="0"/>
<stop stop-color="#f1f3ff" stop-opacity="0" offset="1"/>
</linearGradient>
<radialGradient id="p" cx="68.14" cy="29.87" r="33.93" gradientTransform="matrix(.5262 0 0 .7583 -9.57 5.12)" gradientUnits="userSpaceOnUse">
<stop stop-color="#fff" stop-opacity=".18" offset="0"/>
<stop stop-color="#ffe300" offset=".882"/>
<stop stop-color="#ffb900" offset="1"/>
</radialGradient>
<linearGradient id="n" x1="17.88" x2="11.91" y1="55.36" y2="54.86" gradientTransform="matrix(1.53 0 0 .5438 1.03 1.66)" gradientUnits="userSpaceOnUse">
<stop stop-color="#d6d87b" offset="0"/>
<stop stop-color="#fbe843" offset="1"/>
</linearGradient>
<linearGradient id="o" x1="-29.01" x2="-37.64" y1="-29.8" y2="-29.6" gradientTransform="matrix(-.8645 -.0434 .1809 -.9537 1.03 1.66)" gradientUnits="userSpaceOnUse">
<stop stop-color="#dcd763" offset="0"/>
<stop stop-color="#d9bb05" offset=".265"/>
<stop stop-color="#dcd763" offset=".632"/>
<stop stop-color="#c7a107" offset="1"/>
</linearGradient>
<linearGradient id="u" x1="14.64" x2="9.37" y1="31.5" y2="32.25" gradientTransform="matrix(1.861 0 0 .467 1.25 5.47)" gradientUnits="userSpaceOnUse">
<stop stop-color="#ffb812" offset="0"/>
<stop stop-color="#ffb812" stop-opacity="0" offset="1"/>
</linearGradient>
<linearGradient id="t" x1="30.62" x2="32.17" y1="10.31" y2="18.16" gradientTransform="matrix(.59 0 0 1.473 .9 4.89)" xlink:href="#c"/>
<linearGradient id="s" x1="30.62" x2="32.17" y1="10.31" y2="18.16" gradientTransform="matrix(-.59 0 0 1.473 47.1 4.78)" xlink:href="#c"/>
<radialGradient id="d" cx="27.75" cy="18.63" r="15.06" gradientUnits="userSpaceOnUse">
<stop stop-color="#ffd800" stop-opacity="0" offset="0"/>
<stop stop-color="#ffd800" stop-opacity=".33" offset=".5"/>
<stop stop-color="#ffd800" stop-opacity="0" offset="1"/>
</radialGradient>
<linearGradient id="l" x1="-22.87" x2="-4.39" y1="38.68" y2="38.68" gradientTransform="matrix(.6119 -.1312 .0619 .7364 30.37 9.26)" xlink:href="#a"/>
<linearGradient id="m" x1="-10.48" x2="-23.85" y1="39.03" y2="39.14" gradientTransform="matrix(.6119 -.1312 .0619 .7364 30.37 9.26)" xlink:href="#b"/>
<linearGradient id="h" x1="-22.87" x2="-4.39" y1="38.68" y2="38.68" gradientTransform="matrix(.5604 .0297 -.1173 .6523 35.38 20.96)" xlink:href="#a"/>
<linearGradient id="i" x1="-10.48" x2="-23.85" y1="39.03" y2="39.14" gradientTransform="matrix(.5604 .0297 -.1173 .6523 35.38 20.96)" xlink:href="#b"/>
<linearGradient id="g" x1="24.61" x2="24.61" y1="31.15" y2="26.74" gradientTransform="matrix(.9917 0 0 .9909 -.41 1.01)" gradientUnits="userSpaceOnUse">
<stop stop-color="#4c4428" offset="0"/>
<stop stop-color="#e7b600" stop-opacity="0" offset="1"/>
</linearGradient>
<linearGradient id="q" x1="23.41" x2="23.41" y1="2" y2="34.01" gradientUnits="userSpaceOnUse">
<stop stop-color="#ab8104" offset="0"/>
<stop stop-color="#ab8104" offset=".736"/>
<stop stop-color="#616471" offset="1"/>
</linearGradient>
</defs>
<path d="m24 2.5c-7.5 0-13.5 5.9-13.5 13.2 0 7.5 5.5 8.3 5.5 11 0 3.3 3.2 6.9 8.4 6.8 5.7-.1 8-3.3 8-6.8 0-2.9 5.1-3 5.1-11 0-7.3-6-13.2-13.5-13.2z" fill="#fff"/>
<path transform="matrix(1.342 0 0 1.09 -13.23 -3.75)" d="m42.8 18.6a15.1 15.1 0 1 1-30.1 0 15.1 15.1 0 1 1 30.1 0z" fill="url(#d)"/>
<path transform="matrix(1.197 0 0 1.099 -6.2 -3.21)" d="m39.9 42.1a13.8 4.4 0 1 1-27.6 0 13.8 4.4 0 1 1 27.6 0z" fill="url(#e)" opacity=".8"/>
<path d="m21 40.5v1.4c0 1.4 1.4 2.6 3 2.6s3-1.2 3-2.6v-1.4z" fill="url(#f)" stroke="#565656"/>
<path d="m23.8 28.5c-3.2 0-6.9 1-4.9 2.8-.5.2-1.2.6-1.2 1.7.1.5.7.9 1.5 1.1-.9.7-1.5 1.3-1.5 1.9.1.6.7 1 1.4 1.2-.8.6-1.4 1.3-1.4 1.9.1 1 2.1 2 6.5 1.9 3.1-.1 5.8-.7 6-1.9.1-.4-.3-.9-.9-1.3.5-.4.8-.9.8-1.3-.1-.6-.6-.9-1.4-1.2.9-.6 1.4-1.3 1.4-1.9-.1-.6-.6-.9-1.4-1.1.9-.7 1.4-1.4 1.4-2-.1-.6-3.2-1.8-6.3-1.8z" fill="#aeae57" stroke="url(#g)" stroke-width="2"/>
<path d="m30.2 39.1c-.2 1.2-3.3 1.9-8.2 1.6-3.2-.1-3.3-1-3.1-2.2s2.9-2.1 6-1.9 5.5 1.3 5.3 2.5z" fill="url(#h)" stroke="url(#i)" stroke-width=".1"/>
<path transform="matrix(.5962 -.1278 .0636 .7559 30.37 15.41)" d="m-3.5 27.2a10.3 3.3 0 1 1-20.7 0 10.3 3.3 0 1 1 20.7 0z" fill="url(#j)" stroke="url(#k)" stroke-width=".13"/>
<path transform="matrix(.5962 -.1278 .0636 .7559 30.37 12.33)" d="m-3.5 27.2a10.3 3.3 0 1 1-20.7 0 10.3 3.3 0 1 1 20.7 0z" fill="url(#j)" stroke="url(#k)" stroke-width=".13"/>
<path d="m30 30.5c0 1.3-2.6 2.9-6 3.6s-6.2.2-6.3-1.2c-.2-1.3 2.2-2.9 5.6-3.1s6.7-.1 6.7.7z" fill="url(#l)" stroke="url(#m)" stroke-width=".1"/>
<path d="m21.5 35.53a1.1 1.1 0 1 1-2.16 0 1.1 1.1 0 1 1 2.16 0z" fill="#fff"/>
<path d="m18.7 34.2c3.4.5 6.9-.1 9.8-1.9.8-.5.9-1.1 1.3-1.6-1.4 1.1-5 4.1-11.1 3.5z" fill-opacity=".23"/>
<path d="m21.5 38.51a1.1 1.1 0 1 1-2.16 0 1.1 1.1 0 1 1 2.16 0z" fill="#fff"/>
<path d="m18.8 40.3c3.4.5 6.9-.1 9.8-1.9.8-.5.9-1.1 1.3-1.6-1.4 1.1-5 4.1-11.1 3.5zm.1-3.1c3.3.5 6.9-.1 9.7-1.9.8-.5 1-1.1 1.3-1.6-1.4 1.1-4.9 4.1-11 3.5z" fill-opacity=".23"/>
<path d="m18.5 31c0-.8 1.5-1.8 5.3-1.7 3.5 0 5.8.9 5.8 2.1 0 1.3-3.1 2.1-6.4 1.9-3.2-.1-4.7-1.1-4.7-2.3z" fill="url(#n)" stroke="url(#o)" stroke-width=".1"/>
<path d="m24 2.5c-7.5 0-13.5 5.9-13.5 13.2 0 7.5 5.5 8.3 5.5 11 0 3.3 3.2 6.9 8.4 6.8 5.7-.1 8-3.3 8-6.8 0-2.9 5.1-3 5.1-11 0-7.3-6-13.2-13.5-13.2z" fill="url(#p)" stroke="url(#q)"/>
<path d="M24 3.5c-7 0-12.6 5.6-12.6 12.3 0 7 5.1 7.8 5.1 10.3 0 3.1 3 6.5 7.9 6.3 5.3-.1 7.4-3.1 7.4-6.3 0-2.7 4.8-2.8 4.8-10.3C36.6 9.1 31 3.5 24 3.5z" fill="none" stroke="url(#r)" stroke-width=".92"/>
<path d="m29.5 19.1c.3.1.5.4.4.6l-3.6 10.8c-.1.3-.4.5-.7.4s-.5-.4-.4-.7l3.6-10.7c.1-.3.4-.5.7-.4z" fill="url(#s)"/>
<path d="m18.5 19.2c-.3.1-.5.4-.4.7l3.6 10.7c.1.3.4.5.7.4s.5-.4.4-.7l-3.6-10.7c-.1-.3-.4-.5-.7-.4z" fill="url(#t)"/>
<path d="M18.6 19.1c-.3.1-.4.2-.5.5 0 .2.1.4.3.5 0 0 1.7 1 4 1.5 2.2.5 5.1.6 7.3-1.5.2-.2.2-.4.2-.6s-.2-.3-.4-.4c-.2 0-.4 0-.6.2-1.8 1.8-4.2 1.8-6.3 1.3S19 19.2 19 19.2c-.2-.1-.3-.1-.4-.1z" fill="#ffd800" stroke="url(#u)" stroke-width=".2"/>
<path d="m24.3 5.2c-6 0-10.8 4-10.8 8.9 0 1.9.9 3.6 2.2 5.1 1.5.6 3.1 1.1 4.9 1.1 6 0 10.8-4 10.8-8.9 0-2-.9-3.7-2.2-5.2-1.5-.6-3.1-1-4.9-1z" fill="url(#v)" opacity=".6"/>
</svg>
