<?xml version="1.0" encoding="UTF-8" standalone="no"?>
<svg
   width="24"
   height="24"
   viewBox="0 0 24 24"
   fill="none"
   version="1.1"
   id="svg5"
   sodipodi:docname="wizard.svg"
   inkscape:version="1.4.2 (f4327f4, 2025-05-13)"
   xmlns:inkscape="http://www.inkscape.org/namespaces/inkscape"
   xmlns:sodipodi="http://sodipodi.sourceforge.net/DTD/sodipodi-0.dtd"
   xmlns="http://www.w3.org/2000/svg"
   xmlns:svg="http://www.w3.org/2000/svg">
  <defs
     id="defs5" />
  <sodipodi:namedview
     id="namedview5"
     pagecolor="#ffffff"
     bordercolor="#000000"
     borderopacity="0.25"
     inkscape:showpageshadow="2"
     inkscape:pageopacity="0.0"
     inkscape:pagecheckerboard="0"
     inkscape:deskcolor="#d1d1d1"
     inkscape:zoom="33.958333"
     inkscape:cx="12.014724"
     inkscape:cy="12"
     inkscape:window-width="1920"
     inkscape:window-height="1017"
     inkscape:window-x="-8"
     inkscape:window-y="-8"
     inkscape:window-maximized="1"
     inkscape:current-layer="listening_signal" />
  <rect
     x="5"
     y="4"
     width="14"
     height="18"
     rx="2"
     fill="#FFFFFF"
     stroke="#6C757D"
     stroke-width="1.5"
     id="rect1" />
  <rect
     x="9"
     y="2"
     width="6"
     height="4"
     rx="1"
     fill="#6C757D"
     id="rect2" />
  <circle
     cx="12"
     cy="4"
     r="1"
     fill="#FFFFFF"
     id="circle2" />
  <g
     id="listening_signal"
     fill="none"
     stroke="#007BFF"
     stroke-width="1.5"
     stroke-linecap="round"
     stroke-linejoin="round">
    <path
       d="m 12,10.75 v -3 m -2,2 2,-2 2,2"
       id="path2" />
    <path
       d="m 9,12.855811 c 1,1 5,1 6,0"
       id="path3" />
    <path
       d="m 8,15.711622 c 2,1 6,1 8,0"
       id="path4"
       style="fill:#ff6600" />
    <path
       d="m 7,18.567433 c 3,1 7,1 10,0"
       id="path5" />
    <path
       style="fill:#6c757d;stroke-width:1.11299;stroke-linecap:square;paint-order:markers stroke fill;stroke:none;fill-opacity:1"
       d="M 11.440491,17.178998 C 10.066094,17.133438 8.7398806,16.861814 7.8295639,16.43944 7.5508825,16.310136 7.4292905,16.205458 7.3433189,16.020835 7.1068597,15.513042 7.5236457,14.917373 8.0687117,14.984107 c 0.072883,0.0089 0.2521402,0.06842 0.3983485,0.132206 0.9288149,0.405241 2.0539908,0.594615 3.5329398,0.594615 1.478949,0 2.604125,-0.189374 3.53294,-0.594615 0.422002,-0.184119 0.646892,-0.180758 0.905086,0.01352 0.377066,0.283733 0.379223,0.875917 0.0042,1.157966 -0.0672,0.05054 -0.265969,0.152427 -0.441718,0.226417 -1.15996,0.48834 -2.77592,0.72392 -4.560034,0.664777 z"
       id="path6" />
    <path
       style="fill:#6c757d;stroke:none;stroke-width:1.11299;stroke-linecap:square;paint-order:markers stroke fill;fill-opacity:1"
       d="m 11.868808,11.464579 c -0.19131,-0.03366 -0.382871,-0.164265 -0.486434,-0.331662 l -0.08912,-0.144053 -0.0088,-0.716518 c -0.0049,-0.3940847 -0.01752,-0.7165178 -0.02815,-0.7165178 -0.01063,0 -0.198802,0.1772891 -0.418168,0.3939758 -0.447485,0.442017 -0.576844,0.524675 -0.823447,0.526164 -0.4217663,0.0025 -0.7396241,-0.310714 -0.7378201,-0.7271487 4.537e-4,-0.104753 0.021705,-0.2239104 0.051534,-0.288949 0.072905,-0.1589646 2.2194851,-2.3101398 2.3762751,-2.3813631 0.162518,-0.073825 0.433867,-0.071144 0.604547,0.00597 0.09869,0.044588 0.408374,0.3357303 1.213101,1.1404575 1.180846,1.180846 1.199819,1.2049209 1.200977,1.5238831 0.0015,0.4165782 -0.316254,0.7296932 -0.737946,0.7271482 -0.246603,-0.0015 -0.375962,-0.08415 -0.823447,-0.5261635 -0.219366,-0.2166867 -0.407542,-0.3939758 -0.418168,-0.3939758 -0.01063,0 -0.02329,0.3224331 -0.02815,0.7165173 l -0.0088,0.716519 -0.08912,0.144052 c -0.153702,0.248439 -0.457363,0.382935 -0.748818,0.331662 z"
       id="path7" />
    <path
       style="fill:#6c757d;fill-opacity:1;stroke-width:1.11299;stroke-linecap:square;paint-order:markers stroke fill;stroke:none"
       d="m 11.484663,14.324077 c -1.330172,-0.06452 -2.3754565,-0.38596 -2.9556179,-0.908906 -0.4300764,-0.387662 -0.2896387,-1.075159 0.2566951,-1.256622 0.246558,-0.08189 0.4992986,-0.02242 0.7193731,0.16928 0.3797836,0.330818 1.3164247,0.529668 2.4948867,0.529668 1.178462,0 2.115103,-0.19885 2.494887,-0.529668 0.220074,-0.1917 0.472815,-0.251174 0.719373,-0.16928 0.425315,0.141267 0.629294,0.606472 0.440506,1.004641 -0.277891,0.586096 -1.565495,1.080267 -2.992189,1.148375 -0.186258,0.0089 -0.424785,0.02032 -0.530062,0.02541 -0.105276,0.0051 -0.396809,-7.2e-4 -0.647852,-0.0129 z"
       id="path1" />
    <path
       style="fill:#6c757d;fill-opacity:1;stroke-width:1.11299;stroke-linecap:square;paint-order:markers stroke fill;stroke:none"
       d="M 10.674847,20.007749 C 9.3166449,19.900405 8.085352,19.675261 6.9853072,19.33311 6.6172937,19.218645 6.464782,19.112351 6.3533743,18.892677 c -0.2282419,-0.450047 0.06113,-0.99287 0.5608364,-1.052053 0.1183802,-0.01402 0.2156471,0.0033 0.4962685,0.08853 1.0379471,0.315131 2.1397844,0.515709 3.3365118,0.607378 0.510565,0.03911 1.995453,0.03911 2.506019,0 1.1907,-0.09121 2.264195,-0.28511 3.273212,-0.591233 0.31629,-0.09596 0.421559,-0.115947 0.54756,-0.103971 0.505503,0.04804 0.803915,0.595722 0.572844,1.051348 -0.111469,0.219795 -0.267898,0.329404 -0.629248,0.440913 -1.074529,0.331587 -2.313983,0.56181 -3.555443,0.660407 -0.608658,0.04834 -2.247159,0.05642 -2.787088,0.01375 z"
       id="path8" />
  </g>
</svg>
