<svg version="1.1" viewBox="0 0 48 48" xmlns="http://www.w3.org/2000/svg" xmlns:xlink="http://www.w3.org/1999/xlink">
<defs>
<linearGradient id="a">
<stop stop-color="#929470" offset="0"/>
<stop stop-color="#fcffc1" offset=".26471"/>
<stop stop-color="#f3f5ba" offset=".63235"/>
<stop stop-color="#929470" offset="1"/>
</linearGradient>
<linearGradient id="c">
<stop stop-color="#ff1708" offset="0"/>
<stop stop-color="#ff4f04" stop-opacity=".43922" offset=".41176"/>
<stop stop-color="#4c3e1c" stop-opacity=".47843" offset="1"/>
</linearGradient>
<linearGradient id="b" x1="18.995" x2="30.17" y1="37.227" y2="37.227" gradientUnits="userSpaceOnUse">
<stop stop-color="#a3a349" offset=".005618"/>
<stop stop-color="#acac54" offset=".020787"/>
<stop stop-color="#c1c172" offset=".066"/>
<stop stop-color="#d4d68e" offset=".1148"/>
<stop stop-color="#e2e4a6" offset=".1677"/>
<stop stop-color="#edf0b8" offset=".2265"/>
<stop stop-color="#f3f6c3" offset=".2963"/>
<stop stop-color="#f5f8c7" offset=".4045"/>
<stop stop-color="#eef0be" offset=".5239"/>
<stop stop-color="#dbdda9" offset=".6666"/>
<stop stop-color="#bebd88" offset=".8211"/>
<stop stop-color="#989564" offset=".9832"/>
<stop stop-color="#949160" offset="1"/>
</linearGradient>
<linearGradient id="x" x1="16.999" x2="32.097" y1="10.061" y2="36.726" gradientTransform="matrix(1.0885 0 0 .91662 .70435 -1.5744)" gradientUnits="userSpaceOnUse">
<stop stop-color="#fff" offset="0"/>
<stop stop-color="#fff" stop-opacity="0" offset="1"/>
</linearGradient>
<linearGradient id="w" x1="14.637" x2="9.3648" y1="31.504" y2="32.251" gradientTransform="matrix(1.861 0 0 .46695 1.2554 5.4734)" gradientUnits="userSpaceOnUse">
<stop stop-color="#ffb812" offset="0"/>
<stop stop-color="#ffb812" stop-opacity="0" offset="1"/>
</linearGradient>
<linearGradient id="v" x1="30.62" x2="32.166" y1="10.314" y2="18.163" gradientTransform="matrix(.58997 0 0 1.473 .90381 4.894)" gradientUnits="userSpaceOnUse" xlink:href="#c"/>
<linearGradient id="u" x1="30.62" x2="32.166" y1="10.314" y2="18.163" gradientTransform="matrix(-.58997 0 0 1.473 47.1 4.7782)" gradientUnits="userSpaceOnUse" xlink:href="#c"/>
<linearGradient id="t" x1="37.94" x2="-5.2517" y1="16.652" y2="3.8557" gradientTransform="matrix(.85339 0 0 .97525 1.8913 1.6641)" gradientUnits="userSpaceOnUse">
<stop stop-color="#fffff1" offset="0"/>
<stop stop-color="#f1f3ff" stop-opacity="0" offset="1"/>
</linearGradient>
<radialGradient id="f" cx="68.138" cy="29.869" r="33.934" gradientTransform="matrix(.52617 0 0 .75827 -9.5648 5.1186)" gradientUnits="userSpaceOnUse">
<stop stop-color="#fff" stop-opacity=".17526" offset="0"/>
<stop stop-color="#f30" offset=".882"/>
<stop stop-color="#ff5600" offset="1"/>
</radialGradient>
<linearGradient id="s" x1="23.413" x2="23.413" y1="1.9997" y2="34.005" gradientUnits="userSpaceOnUse">
<stop stop-color="#ab1d04" offset="0"/>
<stop stop-color="#ab4704" offset=".73603"/>
<stop stop-color="#616471" offset="1"/>
</linearGradient>
<linearGradient id="r" x1="17.88" x2="11.906" y1="55.363" y2="54.863" gradientTransform="matrix(1.5304 0 0 .54383 1.0306 1.6641)" gradientUnits="userSpaceOnUse">
<stop stop-color="#d6d87b" offset="0"/>
<stop stop-color="#fbe843" offset="1"/>
</linearGradient>
<linearGradient id="q" x1="-29.007" x2="-37.641" y1="-29.799" y2="-29.598" gradientTransform="matrix(-.86446 -.043417 .18088 -.95368 1.0306 1.6641)" gradientUnits="userSpaceOnUse">
<stop stop-color="#dcd763" offset="0"/>
<stop stop-color="#d9bb05" offset=".26471"/>
<stop stop-color="#dcd763" offset=".63235"/>
<stop stop-color="#c7a107" offset="1"/>
</linearGradient>
<linearGradient id="p" x1="-22.874" x2="-4.3908" y1="38.676" y2="38.676" gradientTransform="matrix(.61192 -.13118 .061943 .73641 30.371 9.2548)" gradientUnits="userSpaceOnUse" xlink:href="#b"/>
<linearGradient id="o" x1="-10.481" x2="-23.851" y1="39.034" y2="39.143" gradientTransform="matrix(.61192 -.13118 .061943 .73641 30.371 9.2548)" gradientUnits="userSpaceOnUse" xlink:href="#a"/>
<linearGradient id="n" x1="-22.874" x2="-4.3908" y1="38.676" y2="38.676" gradientTransform="matrix(.61192 -.13118 .061943 .73641 30.371 12.33)" gradientUnits="userSpaceOnUse" xlink:href="#b"/>
<linearGradient id="m" x1="-10.481" x2="-23.851" y1="39.034" y2="39.143" gradientTransform="matrix(.61192 -.13118 .061943 .73641 30.371 12.33)" gradientUnits="userSpaceOnUse" xlink:href="#a"/>
<linearGradient id="l" x1="-22.874" x2="-4.3908" y1="38.676" y2="38.676" gradientTransform="matrix(.61192 -.13118 .061943 .73641 30.371 15.406)" gradientUnits="userSpaceOnUse" xlink:href="#b"/>
<linearGradient id="k" x1="-10.481" x2="-23.851" y1="39.034" y2="39.143" gradientTransform="matrix(.61192 -.13118 .061943 .73641 30.371 15.406)" gradientUnits="userSpaceOnUse" xlink:href="#a"/>
<linearGradient id="j" x1="-22.874" x2="-4.3908" y1="38.676" y2="38.676" gradientTransform="matrix(.56043 .029697 -.11726 .65231 35.381 20.962)" gradientUnits="userSpaceOnUse" xlink:href="#b"/>
<linearGradient id="i" x1="-10.481" x2="-23.851" y1="39.034" y2="39.143" gradientTransform="matrix(.56043 .029697 -.11726 .65231 35.381 20.962)" gradientUnits="userSpaceOnUse" xlink:href="#a"/>
<linearGradient id="h" x1="24.613" x2="24.613" y1="31.146" y2="26.74" gradientTransform="matrix(.9917 0 0 .99093 -.40874 1.0079)" gradientUnits="userSpaceOnUse">
<stop stop-color="#4c4428" offset="0"/>
<stop stop-color="#e7b600" stop-opacity="0" offset="1"/>
</linearGradient>
<linearGradient id="g" x1="23.124" x2="26.478" y1="43.165" y2="43.165" gradientTransform="matrix(1.7634 0 0 1.5367 -19.733 -23.884)" gradientUnits="userSpaceOnUse">
<stop stop-color="#686868" offset=".005618"/>
<stop stop-color="#777" offset=".030121"/>
<stop stop-color="#929292" offset=".083666"/>
<stop stop-color="#a7a7a7" offset=".1422"/>
<stop stop-color="#b6b6b6" offset=".2074"/>
<stop stop-color="#bebebe" offset=".2846"/>
<stop stop-color="#c1c1c1" offset=".4045"/>
<stop stop-color="#bcbcbc" offset=".4962"/>
<stop stop-color="#adadad" offset=".6057"/>
<stop stop-color="#959595" offset=".7245"/>
<stop stop-color="#747474" offset=".8497"/>
<stop stop-color="#494949" offset=".9789"/>
<stop stop-color="#414141" offset="1"/>
</linearGradient>
<radialGradient id="e" cx="14.772" cy="74.21" r="7.829" gradientTransform="matrix(2.1122 0 0 .62269 -6.2016 -3.2095)" gradientUnits="userSpaceOnUse">
<stop stop-opacity=".51546" offset="0"/>
<stop stop-opacity=".14433" offset=".55172"/>
<stop stop-opacity="0" offset="1"/>
</radialGradient>
<radialGradient id="d" cx="27.75" cy="18.625" r="15.062" gradientTransform="matrix(1.3418 0 0 1.0894 -13.234 -3.7454)" gradientUnits="userSpaceOnUse">
<stop stop-color="#ff4300" stop-opacity="0" offset="0"/>
<stop stop-color="#ff2c00" stop-opacity=".32549" offset=".5"/>
<stop stop-color="#ff5600" stop-opacity="0" offset="1"/>
</radialGradient>
</defs>
<path d="m44.21 16.545c0 9.063-9.048 16.41-20.21 16.41s-20.21-7.347-20.21-16.41c-5e-4 -9.0624 9.048-16.409 20.21-16.409 11.162-2.8e-4 20.21 7.3466 20.21 16.409z" fill="url(#d)"/>
<path d="m41.536 43c0 2.692-7.403 4.875-16.536 4.875s-16.536-2.183-16.536-4.875c-1e-4 -2.692 7.403-4.875 16.536-4.875s16.536 2.183 16.536 4.875z" fill="url(#e)" opacity=".8"/>
<path d="m21.002 40.503v1.383c0 1.383 1.411 2.612 2.998 2.612s2.998-1.229 2.998-2.612v-1.383h-5.996z" fill="url(#g)" stroke="#565656"/>
<path d="m23.835 28.498c-3.267-7e-3 -6.971 0.957-4.964 2.782-0.498 0.201-1.209 0.652-1.125 1.706 0.046 0.55 0.627 0.888 1.421 1.136-0.9 0.635-1.473 1.305-1.421 1.924 0.046 0.544 0.614 0.916 1.392 1.165-0.877 0.627-1.443 1.314-1.392 1.924 0.078 0.932 2.079 1.976 6.413 1.856 3.12-0.086 5.873-0.648 6.09-1.856 0.085-0.475-0.301-0.918-0.899-1.312 0.447-0.453 0.761-0.913 0.725-1.34-0.046-0.547-0.608-0.917-1.392-1.166 0.877-0.627 1.443-1.313 1.392-1.923-0.046-0.547-0.608-0.888-1.392-1.137 0.888-0.63 1.444-1.309 1.392-1.923-0.057-0.682-3.17-1.828-6.24-1.836z" fill="#aeae57" stroke="url(#h)" stroke-width="2"/>
<path d="m30.174 39.091c-0.218 1.208-3.293 1.891-8.215 1.643-3.117-0.157-3.295-1.033-3.078-2.242 0.217-1.208 2.923-2.055 6.04-1.89s5.47 1.28 5.253 2.489z" fill="url(#j)" stroke="url(#i)" stroke-width=".088289"/>
<path d="m29.995 36.44c0.115 1.365-2.552 3.063-5.957 3.793s-6.258 0.215-6.373-1.15 2.552-3.064 5.957-3.794 6.258-0.215 6.373 1.151z" fill="url(#l)" stroke="url(#k)" stroke-width=".088289"/>
<path d="m29.995 33.364c0.115 1.365-2.552 3.064-5.957 3.794s-6.258 0.214-6.373-1.151 2.552-3.064 5.957-3.793c3.405-0.73 6.258-0.215 6.373 1.15z" fill="url(#n)" stroke="url(#m)" stroke-width=".088289"/>
<path d="m29.954 30.453c0 1.37-2.513 2.9-5.916 3.629-3.403 0.73-6.258 0.214-6.373-1.15-0.115-1.365 2.212-2.956 5.617-3.142 3.432-0.187 6.672-0.044 6.672 0.663z" fill="url(#p)" stroke="url(#o)" stroke-width=".088289"/>
<path d="m21.495 35.516c0 0.598-0.482 1.083-1.078 1.083-0.595 0-1.078-0.485-1.078-1.083s0.483-1.083 1.078-1.083c0.596 0 1.078 0.485 1.078 1.083z" fill="#fff"/>
<path d="m18.722 34.172c3.357 0.501 6.903-0.033 9.764-1.896 0.803-0.523 0.923-1.12 1.293-1.587-1.409 1.12-4.971 4.135-11.057 3.483z" fill-opacity=".23392" fill-rule="evenodd"/>
<path d="m21.495 38.504c0 0.599-0.482 1.084-1.078 1.084-0.595 0-1.078-0.485-1.078-1.084 0-0.598 0.483-1.083 1.078-1.083 0.596 0 1.078 0.485 1.078 1.083z" fill="#fff"/>
<path d="m18.845 40.271c3.357 0.502 6.903-0.032 9.764-1.896 0.803-0.522 0.924-1.119 1.293-1.586-1.409 1.119-4.971 4.135-11.057 3.482z" fill-opacity=".23392" fill-rule="evenodd"/>
<path d="m18.866 37.18c3.357 0.502 6.902-0.032 9.764-1.896 0.802-0.522 0.923-1.119 1.292-1.586-1.408 1.119-4.971 4.135-11.056 3.482z" fill-opacity=".23392" fill-rule="evenodd"/>
<path d="m18.456 30.968c0-0.784 1.502-1.721 5.295-1.668 3.514 0.048 5.829 0.886 5.829 2.14 0 1.228-3.072 2.048-6.349 1.884-3.276-0.165-4.775-1.129-4.775-2.356z" fill="url(#r)" stroke="url(#q)" stroke-width=".088289"/>
<path d="m24 2.4934c-7.466 0-13.528 5.9145-13.528 13.198 0 7.467 5.48 8.293 5.48 11.045 0 3.233 3.213 6.899 8.496 6.767 5.618-0.141 7.936-3.329 7.936-6.767 0-2.939 5.144-3.017 5.144-11.045 0-7.2831-6.062-13.198-13.528-13.198z" fill="url(#f)" stroke="url(#s)" stroke-width=".9875"/>
<path d="m24 3.5481c-6.958 0-12.608 5.5121-12.608 12.3 0 6.959 5.107 7.729 5.107 10.294 0 3.013 2.995 6.43 7.918 6.306 5.236-0.131 7.397-3.102 7.397-6.306 0-2.739 4.794-2.812 4.794-10.294 0-6.7878-5.65-12.3-12.608-12.3z" fill="none" stroke="url(#t)" stroke-width=".92034"/>
<path d="m29.531 19.07c0.293 0.097 0.489 0.387 0.391 0.676l-3.616 10.726c-0.098 0.29-0.391 0.484-0.684 0.387s-0.489-0.387-0.391-0.676l3.616-10.726c0.098-0.29 0.391-0.484 0.684-0.387z" fill="url(#u)"/>
<path d="m18.473 19.186c-0.293 0.097-0.488 0.386-0.391 0.676l3.616 10.726c0.098 0.29 0.391 0.483 0.685 0.387 0.293-0.097 0.488-0.387 0.391-0.677l-3.617-10.726c-0.097-0.289-0.391-0.483-0.684-0.386z" fill="url(#v)"/>
<path d="m18.57 19.117c-0.231 0.039-0.411 0.217-0.451 0.445-0.039 0.228 0.071 0.456 0.275 0.569 0 0 1.727 1.001 3.984 1.506 2.258 0.504 5.146 0.537 7.325-1.564 0.164-0.129 0.24-0.339 0.196-0.542s-0.2-0.363-0.403-0.414c-0.204-0.051-0.419 0.016-0.555 0.174-1.829 1.763-4.261 1.765-6.328 1.303-2.068-0.462-3.662-1.39-3.662-1.39-0.112-0.074-0.248-0.105-0.381-0.087z" fill="#ff4600" stroke="url(#w)" stroke-width=".2"/>
<path d="m24.307 5.1682c-5.979 0-10.829 3.9848-10.829 8.8928 0 1.96 0.933 3.676 2.243 5.146 1.482 0.626 3.096 1.075 4.876 1.075 5.978 0 10.829-3.985 10.829-8.892 0-1.9722-0.948-3.7045-2.273-5.1795-1.475-0.618-3.078-1.0423-4.846-1.0423z" fill="url(#x)" opacity=".59777"/>
</svg>
